<svg xmlns="http://www.w3.org/2000/svg" width="16" height="16" viewBox="0 0 16 16">
  <path fill-rule="evenodd" d="M2.00001859,12 C2.36000781,12 2.71099915,12.0385202 3.04916296,12.1116193 C3.46968331,12.2025284 3.79751071,12.530396 3.88841896,12.9508831 C3.96151737,13.2890128 4,13.6400446 4,14.0000372 C4,14.3600669 3.96151737,14.7110615 3.88841896,15.0491913 C3.79751071,15.4696784 3.46964613,15.7975832 3.04908859,15.8884551 C2.71096197,15.961517 2.36000781,16 2.00001859,16 C1.64002937,16 1.28900085,15.961517 0.950874225,15.8883807 C0.530391054,15.7974716 0.202526468,15.469604 0.111618223,15.0491169 C0.038519813,14.7109872 0,14.3599926 0,13.9999628 C0,13.6399703 0.038519813,13.2889756 0.111618223,12.9508831 C0.202526468,12.530396 0.530391054,12.2025284 0.950874225,12.1116193 C1.28900085,12.0385202 1.64002937,12 2.00001859,12 Z M8.00001859,12 C8.36000781,12 8.71099915,12.0385202 9.04916296,12.1116193 C9.46968331,12.2025284 9.79751071,12.530396 9.88841896,12.9508831 C9.96151737,13.2890128 10,13.6400446 10,14.0000372 C10,14.3600669 9.96151737,14.7110615 9.88841896,15.0491913 C9.79751071,15.4696784 9.46964613,15.7975832 9.04908859,15.8884551 C8.71096197,15.961517 8.36000781,16 8.00001859,16 C7.64002937,16 7.28900085,15.961517 6.95087423,15.8883807 C6.53039105,15.7974716 6.20252647,15.469604 6.11161822,15.0491169 C6.03851981,14.7109872 6,14.3599926 6,13.9999628 C6,13.6399703 6.03851981,13.2889756 6.11161822,12.9508831 C6.20252647,12.530396 6.53039105,12.2025284 6.95087423,12.1116193 C7.28900085,12.0385202 7.64002937,12 8.00001859,12 Z M14.0000186,12 C14.3600078,12 14.7109992,12.0385202 15.049163,12.1116193 C15.4696833,12.2025284 15.7975107,12.530396 15.888419,12.9508831 C15.9615174,13.2890128 16,13.6400446 16,14.0000372 C16,14.3600669 15.9615174,14.7110615 15.888419,15.0491913 C15.7975107,15.4696784 15.4696461,15.7975832 15.0490886,15.8884551 C14.710962,15.961517 14.3600078,16 14.0000186,16 C13.6400294,16 13.2890008,15.961517 12.9508742,15.8883807 C12.5303911,15.7974716 12.2025265,15.469604 12.1116182,15.0491169 C12.0385198,14.7109872 12,14.3599926 12,13.9999628 C12,13.6399703 12.0385198,13.2889756 12.1116182,12.9508831 C12.2025265,12.530396 12.5303911,12.2025284 12.9508742,12.1116193 C13.2890008,12.0385202 13.6400294,12 14.0000186,12 Z M2.00001859,6 C2.36000781,6 2.71099915,6.03852017 3.04916296,6.11161926 C3.46968331,6.20252835 3.79751071,6.53039598 3.88841896,6.95088306 C3.96151737,7.28901283 4,7.64004462 4,8.00003718 C4,8.36006693 3.96151737,8.71106154 3.88841896,9.0491913 C3.79751071,9.46967838 3.46964613,9.79758319 3.04908859,9.8884551 C2.71096197,9.96151701 2.36000781,10 2.00001859,10 C1.64002937,10 1.28900085,9.96151701 0.950874225,9.88838074 C0.530391054,9.79747165 0.202526468,9.46960402 0.111618223,9.04911694 C0.038519813,8.71098717 0,8.35999256 0,7.99996282 C0,7.63997025 0.038519813,7.28897565 0.111618223,6.95088306 C0.202526468,6.53039598 0.530391054,6.20252835 0.950874225,6.11161926 C1.28900085,6.03852017 1.64002937,6 2.00001859,6 Z M8.00001859,6 C8.36000781,6 8.71099915,6.03852017 9.04916296,6.11161926 C9.46968331,6.20252835 9.79751071,6.53039598 9.88841896,6.95088306 C9.96151737,7.28901283 10,7.64004462 10,8.00003718 C10,8.36006693 9.96151737,8.71106154 9.88841896,9.0491913 C9.79751071,9.46967838 9.46964613,9.79758319 9.04908859,9.8884551 C8.71096197,9.96151701 8.36000781,10 8.00001859,10 C7.64002937,10 7.28900085,9.96151701 6.95087423,9.88838074 C6.53039105,9.79747165 6.20252647,9.46960402 6.11161822,9.04911694 C6.03851981,8.71098717 6,8.35999256 6,7.99996282 C6,7.63997025 6.03851981,7.28897565 6.11161822,6.95088306 C6.20252647,6.53039598 6.53039105,6.20252835 6.95087423,6.11161926 C7.28900085,6.03852017 7.64002937,6 8.00001859,6 Z M14.0000186,6 C14.3600078,6 14.7109992,6.03852017 15.049163,6.11161926 C15.4696833,6.20252835 15.7975107,6.53039598 15.888419,6.95088306 C15.9615174,7.28901283 16,7.64004462 16,8.00003718 C16,8.36006693 15.9615174,8.71106154 15.888419,9.0491913 C15.7975107,9.46967838 15.4696461,9.79758319 15.0490886,9.8884551 C14.710962,9.96151701 14.3600078,10 14.0000186,10 C13.6400294,10 13.2890008,9.96151701 12.9508742,9.88838074 C12.5303911,9.79747165 12.2025265,9.46960402 12.1116182,9.04911694 C12.0385198,8.71098717 12,8.35999256 12,7.99996282 C12,7.63997025 12.0385198,7.28897565 12.1116182,6.95088306 C12.2025265,6.53039598 12.5303911,6.20252835 12.9508742,6.11161926 C13.2890008,6.03852017 13.6400294,6 14.0000186,6 Z M2.00001859,0 C2.36000781,0 2.71099915,0.038520171 3.04916296,0.11161926 C3.46968331,0.202528351 3.79751071,0.530395984 3.88841896,0.950883064 C3.96151737,1.28901283 4,1.64004462 4,2.00003718 C4,2.36006693 3.96151737,2.71106154 3.88841896,3.0491913 C3.79751071,3.46967838 3.46964613,3.79758319 3.04908859,3.8884551 C2.71096197,3.96151701 2.36000781,4 2.00001859,4 C1.64002937,4 1.28900085,3.96151701 0.950874225,3.88838074 C0.530391054,3.79747165 0.202526468,3.46960402 0.111618223,3.04911694 C0.038519813,2.71098717 0,2.35999256 0,1.99996282 C0,1.63997025 0.038519813,1.28897565 0.111618223,0.950883064 C0.202526468,0.530395984 0.530391054,0.202528351 0.950874225,0.11161926 C1.28900085,0.038520171 1.64002937,0 2.00001859,0 Z M8.00001859,0 C8.36000781,0 8.71099915,0.038520171 9.04916296,0.11161926 C9.46968331,0.202528351 9.79751071,0.530395984 9.88841896,0.950883064 C9.96151737,1.28901283 10,1.64004462 10,2.00003718 C10,2.36006693 9.96151737,2.71106154 9.88841896,3.0491913 C9.79751071,3.46967838 9.46964613,3.79758319 9.04908859,3.8884551 C8.71096197,3.96151701 8.36000781,4 8.00001859,4 C7.64002937,4 7.28900085,3.96151701 6.95087423,3.88838074 C6.53039105,3.79747165 6.20252647,3.46960402 6.11161822,3.04911694 C6.03851981,2.71098717 6,2.35999256 6,1.99996282 C6,1.63997025 6.03851981,1.28897565 6.11161822,0.950883064 C6.20252647,0.530395984 6.53039105,0.202528351 6.95087423,0.11161926 C7.28900085,0.038520171 7.64002937,0 8.00001859,0 Z M14.0000186,0 C14.3600078,0 14.7109992,0.038520171 15.049163,0.11161926 C15.4696833,0.202528351 15.7975107,0.530395984 15.888419,0.950883064 C15.9615174,1.28901283 16,1.64004462 16,2.00003718 C16,2.36006693 15.9615174,2.71106154 15.888419,3.0491913 C15.7975107,3.46967838 15.4696461,3.79758319 15.0490886,3.8884551 C14.710962,3.96151701 14.3600078,4 14.0000186,4 C13.6400294,4 13.2890008,3.96151701 12.9508742,3.88838074 C12.5303911,3.79747165 12.2025265,3.46960402 12.1116182,3.04911694 C12.0385198,2.71098717 12,2.35999256 12,1.99996282 C12,1.63997025 12.0385198,1.28897565 12.1116182,0.950883064 C12.2025265,0.530395984 12.5303911,0.202528351 12.9508742,0.11161926 C13.2890008,0.038520171 13.6400294,0 14.0000186,0 Z"/>
</svg>
