<svg width="24" height="24" fill="none" xmlns="http://www.w3.org/2000/svg">
  <path d="M19.487 16.823a22.886 22.886 0 000-9.646 3.487 3.487 0 00-2.664-2.664 22.88 22.88 0 00-9.646 0 3.484 3.484 0 00-2.664 2.664 22.886 22.886 0 000 9.646 3.486 3.486 0 002.664 2.664 22.886 22.886 0 009.646 0 3.487 3.487 0 002.664-2.664zm1.954-10.069C21.808 8.445 22 10.2 22 12c0 1.8-.192 3.555-.559 5.246a5.47 5.47 0 01-4.195 4.195A24.711 24.711 0 0112 22c-1.8 0-3.555-.192-5.246-.559a5.472 5.472 0 01-4.196-4.195A24.776 24.776 0 012 12c0-1.801.192-3.556.558-5.246a5.472 5.472 0 014.197-4.196A24.76 24.76 0 0112 2c1.8 0 3.555.192 5.246.559a5.47 5.47 0 014.195 4.195z" fill="#000"/>
</svg>
