<svg width="24" height="24" fill="none" xmlns="http://www.w3.org/2000/svg">
  <path fill-rule="evenodd" clip-rule="evenodd" d="M7.617 12.621a1.418 1.418 0 11.001-2.837 1.418 1.418 0 010 2.837zM12 9.784a1.418 1.418 0 110 2.836 1.418 1.418 0 010-2.836zm0 4.473a1.418 1.418 0 110 2.837 1.418 1.418 0 010-2.837zm4.383-4.473a1.418 1.418 0 110 2.836 1.418 1.418 0 010-2.836zm0 4.473a1.418 1.418 0 110 2.837 1.418 1.418 0 010-2.837zM12 19.847c-1.15 0-2.136-.042-2.985-.146V16.54a2.281 2.281 0 00-2.282-2.282H4.226A30.165 30.165 0 014.153 12c0-1.634.082-2.942.31-3.983h15.075c.226 1.041.308 2.35.308 3.983 0 6.527-1.319 7.847-7.846 7.847zM2 12c0 .822.02 1.572.076 2.257.113 1.42 1.104 2.62 2.463 4.294 1.358 1.674 2.852 3.137 4.497 3.308.868.09 1.85.141 2.964.141 4.107 0 6.393-.61 7.891-2.108 1.497-1.499 2.11-3.785 2.11-7.892 0-4.108-.613-6.394-2.11-7.892-.737-.736-1.668-1.257-2.91-1.597a.207.207 0 00-.26.201v1.34c0 .583-.426 1.104-1.007 1.16A1.118 1.118 0 0114.487 4.1V2.48a.416.416 0 00-.387-.414A30.77 30.77 0 0012 2c-.762 0-1.458.022-2.1.066a.415.415 0 00-.387.413v1.573c0 .583-.426 1.104-1.007 1.16A1.118 1.118 0 017.278 4.1V2.712a.207.207 0 00-.26-.2c-1.242.34-2.172.86-2.91 1.596C2.611 5.606 2 7.892 2 12z" fill="#000"/>
</svg>
