<svg xmlns="http://www.w3.org/2000/svg" width="32" height="32" viewBox="0 0 32 32">
  <path fill-rule="evenodd" d="M5.0225,14.1182 C5.0225,9.1012 9.1045,5.0212 14.1225,5.0212 C19.1395,5.0212 23.2215,9.1012 23.2215,14.1182 C23.2215,19.1342 19.1395,23.2152 14.1225,23.2152 C9.1045,23.2152 5.0225,19.1342 5.0225,14.1182 M27.5065,26.0072 C26.5985,25.0612 25.5745,24.2312 24.5145,23.4382 C23.7485,22.8702 22.9565,22.3262 22.0975,21.8482 C24.0415,19.8472 25.2445,17.1222 25.2445,14.1182 C25.2445,7.9872 20.2545,3.0002 14.1225,3.0002 C7.9895,3.0002 3.0005,7.9872 3.0005,14.1182 C3.0005,20.2482 7.9895,25.2352 14.1225,25.2352 C16.6235,25.2352 18.9245,24.3962 20.7855,22.9992 C21.2755,23.8972 21.8435,24.7202 22.4345,25.5162 C23.2285,26.5762 24.0585,27.5992 25.0035,28.5082 C25.6855,29.1602 26.7695,29.1682 27.4565,28.5082 C28.1615,27.8312 28.1835,26.7112 27.5065,26.0072"/>
</svg>
