<svg width="16" height="16" fill="none" xmlns="http://www.w3.org/2000/svg">
  <path fill-rule="evenodd" clip-rule="evenodd" d="M13.5 8c0-2.313-.218-3.688-1.015-4.484C11.688 2.719 10.313 2.5 8 2.5s-3.688.219-4.485 1.016C2.718 4.312 2.5 5.687 2.5 8s.218 3.688 1.015 4.484C4.312 13.281 5.687 13.5 8 13.5s3.688-.219 4.485-1.016C13.282 11.688 13.5 10.313 13.5 8zM15 8c0 2.725-.388 4.475-1.456 5.544C12.475 14.612 10.725 15 8 15c-2.725 0-4.475-.388-5.544-1.456C1.388 12.475 1 10.725 1 8c0-2.725.388-4.475 1.456-5.544C3.525 1.388 5.275 1 8 1c2.725 0 4.475.388 5.544 1.456C14.612 3.525 15 5.275 15 8zm-8 4h2v-2H7v2zm0-3h2V4H7v5z" fill="#000"/>
</svg>
