<svg xmlns="http://www.w3.org/2000/svg" width="16" height="16" viewBox="0 0 16 16">
  <path fill-rule="evenodd" d="M7.0508,11.1025 C4.8178,11.1025 2.9998,9.2855 2.9998,7.0515 C2.9998,4.8175 4.8178,2.9995 7.0508,2.9995 C9.2848,2.9995 11.1028,4.8175 11.1028,7.0515 C11.1028,9.2855 9.2848,11.1025 7.0508,11.1025 M14.6268,13.0375 C14.3338,12.7445 14.0198,12.4715 13.6968,12.2075 C13.3838,11.9345 13.0338,11.6975 12.7048,11.4405 C12.4048,11.2235 12.0988,11.0135 11.7848,10.8095 C12.6078,9.7765 13.1028,8.4715 13.1028,7.0515 C13.1028,3.7145 10.3878,0.9995 7.0508,0.9995 C3.7148,0.9995 0.9998,3.7145 0.9998,7.0515 C0.9998,10.3875 3.7148,13.1025 7.0508,13.1025 C8.4728,13.1025 9.7798,12.6065 10.8148,11.7815 C11.0108,12.0945 11.2138,12.4005 11.4228,12.7015 C11.6748,13.0355 11.9048,13.3885 12.1748,13.7065 C12.4328,14.0335 12.6988,14.3515 12.9878,14.6495 C12.9898,14.6525 12.9968,14.6605 13.0008,14.6635 C13.4498,15.1125 14.1778,15.1125 14.6268,14.6635 C15.0758,14.2135 15.0758,13.4865 14.6268,13.0375"/>
</svg>
