<svg width="24" height="24" fill="none" xmlns="http://www.w3.org/2000/svg">
  <path d="M15.884 9.116a1.25 1.25 0 00-1.768 0L11 12.233l-1.116-1.117a1.25 1.25 0 00-1.768 1.768l2 2a1.248 1.248 0 001.768 0l4-4a1.25 1.25 0 000-1.768zm6.823 3.59l-1.562 1.565.803 2.413a.998.998 0 01-.631 1.264L19 18.72V21a.995.995 0 01-.385.788.988.988 0 01-.857.182l-3.451-.862-1.6 1.599A.993.993 0 0112 23a.993.993 0 01-.707-.293l-1.6-1.6-3.451.863A.998.998 0 015 21v-2.28l-2.316-.772a.998.998 0 01-.632-1.264l.804-2.413-1.563-1.564a1 1 0 010-1.414L2.856 9.73l-.804-2.413a.999.999 0 01.632-1.265L5 5.28V3a1.001 1.001 0 011.242-.97l3.452.863 1.599-1.6a1 1 0 011.414 0l1.6 1.6 3.45-.863a.987.987 0 01.858.182c.244.19.385.48.385.788v2.28l2.317.772a1 1 0 01.63 1.265l-.802 2.413 1.562 1.563a.999.999 0 010 1.414z" fill="#000"/>
</svg>
