<svg width="24" height="24" fill="none" xmlns="http://www.w3.org/2000/svg">
  <path d="M11 15a.997.997 0 01-.707-.293l-2-2a.999.999 0 111.414-1.414L11 12.586l3.293-3.293a.999.999 0 111.414 1.414l-4 4A.997.997 0 0111 15zm-1.243 4.03L7 19.719V18a.997.997 0 00-.684-.948l-2.051-.685.684-2.051a1.001 1.001 0 00-.242-1.023L3.414 12l1.293-1.293c.268-.268.361-.664.242-1.023l-.684-2.051 2.051-.685A.998.998 0 007 6V4.281l2.757.689a.997.997 0 00.95-.263L12 3.414l1.293 1.293a.993.993 0 00.95.263L17 4.281V6c0 .431.275.812.684.948l2.051.685-.684 2.051c-.119.359-.026.755.242 1.023L20.586 12l-1.293 1.293a1.001 1.001 0 00-.242 1.023l.684 2.051-2.051.685A.997.997 0 0017 18v1.719l-2.757-.689a1 1 0 00-.95.263L12 20.586l-1.293-1.293a1 1 0 00-.95-.263zm2.95 3.677l1.6-1.6 3.45.863A.998.998 0 0019 21v-2.279l2.316-.773a.999.999 0 00.633-1.264l-.805-2.414 1.563-1.563a.999.999 0 000-1.414l-1.563-1.564.805-2.413a.999.999 0 00-.633-1.264L19 5.279V3a.998.998 0 00-.385-.788.985.985 0 00-.858-.182l-3.45.863-1.6-1.6a.999.999 0 00-1.414 0l-1.6 1.6-3.45-.863A.998.998 0 005 3v2.279l-2.316.773a.999.999 0 00-.633 1.264l.805 2.413-1.563 1.564a.999.999 0 000 1.414l1.563 1.563-.805 2.414a.999.999 0 00.633 1.264L5 18.721V21a.998.998 0 001.243.97l3.45-.863 1.6 1.6a.997.997 0 001.414 0z" fill="#000"/>
</svg>
