<svg xmlns="http://www.w3.org/2000/svg" width="16" height="16" viewBox="0 0 16 16">
  <path fill-rule="evenodd" d="M13,11 L15,11 L15,12 C15,13.654 13.654,15 12,15 L11,15 L11,13 L12,13 C12.551,13 13,12.552 13,12 L13,11 Z M13,9 L15,9 L15,7 L13,7 L13,9 Z M15,4 L15,5 L13,5 L13,4 C13,3.448 12.551,3 12,3 L11,3 L11,1 L12,1 C13.654,1 15,2.346 15,4 L15,4 Z M7,3 L9,3 L9,1 L7,1 L7,3 Z M3,5 L1,5 L1,4 C1,2.346 2.346,1 4,1 L5,1 L5,3 L4,3 C3.449,3 3,3.448 3,4 L3,5 Z M3,13 L8,13 L8,8 L3,8 L3,13 Z M8,6 L3,6 C1.896,6 1,6.896 1,8 L1,13 C1,14.104 1.896,15 3,15 L8,15 C9.104,15 10,14.104 10,13 L10,8 C10,6.896 9.104,6 8,6 L8,6 Z"/>
</svg>
