<svg width="32" height="32" fill="none" xmlns="http://www.w3.org/2000/svg">
  <path fill-rule="evenodd" clip-rule="evenodd" d="M24 14a2 2 0 11-4.001-.001A2 2 0 0124 14zm-6 0a2 2 0 11-4.001-.001A2 2 0 0118 14zm-6 0a2 2 0 11-4.001-.001A2 2 0 0112 14zm13.414 7.019C23.597 22.37 20.605 23 16 23c-.579 0-1.14-.011-1.665-.03l-.56-.022-.489.272L9 25.601v-3.332l-1.163-.536C5.939 20.859 4 19.258 4 14c0-4.566 1.476-6.192 2.586-7.019C8.403 5.63 11.395 5 16 5c4.605 0 7.597.63 9.414 1.981C26.524 7.808 28 9.434 28 14c0 4.566-1.476 6.192-2.586 7.019zM16 3C6.378 3 2 5.673 2 14c0 5.032 1.611 7.989 5 9.55V29l7.258-4.032c.56.021 1.14.032 1.742.032 9.622 0 14-2.673 14-11S25.622 3 16 3z" fill="#000"/>
</svg>
