<svg xmlns="http://www.w3.org/2000/svg" width="24" height="24" viewBox="0 0 24 24">
  <path fill-rule="evenodd" d="M16,8 L11,8 C10.447,8 10,8.447 10,9 C10,9.553 10.447,10 11,10 L16,10 C16.553,10 17,9.553 17,9 C17,8.447 16.553,8 16,8 M11,7 L16,7 C16.553,7 17,6.553 17,6 C17,5.447 16.553,5 16,5 L11,5 C10.447,5 10,5.447 10,6 C10,6.553 10.447,7 11,7 M20,2 L7,2 C6.447,2 6,2.447 6,3 L6,10 L8,10 L8,4 L19,4 L19,20 L17,20 L17,22 L20,22 C20.553,22 21,21.553 21,21 L21,3 C21,2.447 20.553,2 20,2 M12.887,12.21 C12.45,12.549 12.371,13.178 12.71,13.613 C13.566,14.715 14,15.854 14,17 C14,18.146 13.566,19.285 12.71,20.387 C12.371,20.822 12.45,21.451 12.887,21.79 C13.069,21.932 13.285,22 13.499,22 C13.798,22 14.093,21.867 14.29,21.613 C15.425,20.152 16,18.601 16,17 C16,15.399 15.425,13.848 14.29,12.387 C13.952,11.95 13.325,11.87 12.887,12.21 M11.853,14.478 C11.564,14.007 10.948,13.859 10.478,14.147 C10.007,14.437 9.858,15.052 10.147,15.522 C10.591,16.246 10.707,17.626 10.165,18.45 C9.861,18.911 9.989,19.531 10.45,19.835 C10.62,19.947 10.811,20 10.999,20 C11.324,20 11.644,19.842 11.835,19.55 C12.887,17.952 12.629,15.744 11.853,14.478 M9,12.9999958 L9,20.9999958 C9,21.356 8.811,21.686 8.502,21.865 C8.347,21.955 8.174,21.9999958 8,21.9999958 C7.829,21.9999958 7.657,21.956 7.504,21.868 L4.234,19.9999958 L3,19.9999958 C1.897,19.9999958 1,19.103 1,17.9999958 L1,15.9999958 C1,14.897 1.897,13.9999958 3,13.9999958 L4.234,13.9999958 L7.504,12.132 C7.812,11.955 8.193,11.956 8.502,12.135 C8.811,12.314 9,12.644 9,12.9999958"/>
</svg>
