<svg xmlns="http://www.w3.org/2000/svg" width="24" height="24" viewBox="0 0 24 24">
  <path fill-rule="evenodd" d="M17,9 C17,9.553 16.553,10 16,10 L11,10 C10.447,10 10,9.553 10,9 C10,8.447 10.447,8 11,8 L16,8 C16.553,8 17,8.447 17,9 L17,9 Z M10,6 C10,5.447 10.447,5 11,5 L16,5 C16.553,5 17,5.447 17,6 C17,6.553 16.553,7 16,7 L11,7 C10.447,7 10,6.553 10,6 L10,6 Z M21,3 L21,21 C21,21.553 20.553,22 20,22 L17,22 L17,20 L19,20 L19,4 L8,4 L8,10 L6,10 L6,3 C6,2.447 6.447,2 7,2 L20,2 C20.553,2 21,2.447 21,3 L21,3 Z M14.29,12.387 C15.425,13.848 16,15.399 16,17 C16,18.601 15.425,20.152 14.29,21.613 C14.093,21.867 13.798,22 13.499,22 C13.285,22 13.069,21.932 12.887,21.79 C12.45,21.451 12.371,20.822 12.71,20.387 C13.566,19.285 14,18.146 14,17 C14,15.854 13.566,14.715 12.71,13.613 C12.371,13.178 12.45,12.549 12.887,12.21 C13.324,11.87 13.952,11.95 14.29,12.387 L14.29,12.387 Z M11.835,19.55 C11.644,19.842 11.324,20 10.999,20 C10.811,20 10.62,19.947 10.45,19.835 C9.989,19.531 9.861,18.911 10.165,18.45 C10.707,17.626 10.591,16.246 10.147,15.522 C9.858,15.052 10.007,14.437 10.478,14.147 C10.949,13.859 11.564,14.007 11.853,14.478 C12.629,15.744 12.887,17.952 11.835,19.55 L11.835,19.55 Z M7,19.276 L4.996,18.132 C4.845,18.046 4.674,18 4.5,18 L3,18 L3,16 L4.5,16 C4.674,16 4.845,15.954 4.996,15.868 L7,14.724 L7,19.276 Z M8.502,12.135 C8.193,11.956 7.813,11.955 7.504,12.132 L4.234,13.9999958 L3,13.9999958 C1.897,13.9999958 1,14.897 1,15.9999958 L1,17.9999958 C1,19.103 1.897,19.9999958 3,19.9999958 L4.234,19.9999958 L7.504,21.868 C7.657,21.956 7.829,21.9999958 8,21.9999958 C8.174,21.9999958 8.347,21.955 8.502,21.865 C8.811,21.686 9,21.356 9,20.9999958 L9,12.9999958 C9,12.644 8.811,12.314 8.502,12.135 L8.502,12.135 Z"/>
</svg>
