<svg width="24" height="24" fill="none" xmlns="http://www.w3.org/2000/svg">
  <path fill-rule="evenodd" clip-rule="evenodd" d="M16 13a4 4 0 10-8 0 4 4 0 008 0zm6-3.656v8.16c0 1.485-1.08 2.75-2.55 2.967A51.56 51.56 0 0112 21a51.56 51.56 0 01-7.45-.529A2.992 2.992 0 012 17.504v-8.16a3.004 3.004 0 012.397-2.941C5.207 6.233 6.127 6.074 7 6l1.703-2.555c.186-.278.498-.445.832-.445h4.93c.334 0 .646.167.832.445L17 6c.873.074 1.793.233 2.603.403A3.004 3.004 0 0122 9.344zM14 13c0 1.103-.897 2-2 2s-2-.897-2-2 .897-2 2-2 2 .897 2 2z" fill="#000"/>
</svg>
