<svg width="24" height="24" fill="none" xmlns="http://www.w3.org/2000/svg">
  <path fill-rule="evenodd" clip-rule="evenodd" d="M12 9a4 4 0 100 8 4 4 0 000-8zm0 2c1.103 0 2 .897 2 2s-.897 2-2 2-2-.897-2-2 .897-2 2-2zm2.465-8h-4.93c-.334 0-.646.167-.832.445L7 6c-.873.074-1.793.233-2.603.403A3.004 3.004 0 002 9.344v8.16c0 1.485 1.08 2.75 2.55 2.967A51.56 51.56 0 0012 21c3.116 0 5.693-.27 7.45-.529A2.992 2.992 0 0022 17.504v-8.16a3.004 3.004 0 00-2.397-2.941c-.81-.17-1.73-.329-2.603-.403l-1.703-2.555A1.001 1.001 0 0014.465 3zm-.535 2l1.406 2.109.534.801.959.083c.681.058 1.476.182 2.363.367.476.1.808.504.808.984v8.16a.986.986 0 01-.842.988A49.646 49.646 0 0112 19c-3.073 0-5.589-.276-7.158-.508A.986.986 0 014 17.504v-8.16c0-.48.332-.884.808-.984a20.222 20.222 0 012.363-.367l.959-.083.534-.801L10.07 5h3.86z" fill="#000"/>
</svg>
