<svg xmlns="http://www.w3.org/2000/svg" width="16" height="16" viewBox="0 0 16 16">
  <path fill-rule="evenodd" d="M10.167,12.4854 C10.521,11.4274 10.723,10.1204 10.78,8.7994 L12.919,8.7994 C12.654,10.4294 11.605,11.7874 10.167,12.4854 L10.167,12.4854 Z M3.081,8.7994 L5.22,8.7994 C5.277,10.1204 5.479,11.4274 5.833,12.4854 C4.395,11.7874 3.346,10.4294 3.081,8.7994 L3.081,8.7994 Z M5.833,3.5144 C5.479,4.5724 5.277,5.8804 5.22,7.2004 L3.081,7.2004 C3.346,5.5704 4.395,4.2134 5.833,3.5144 L5.833,3.5144 Z M6.826,7.2004 C6.93,4.9274 7.44,3.5314 7.773,3.0224 C7.851,3.0194 7.923,3.0004 8,3.0004 C8.064,3.0004 8.125,3.0164 8.188,3.0194 C8.554,3.5244 9.069,4.9224 9.174,7.2004 L6.826,7.2004 Z M8,13.0004 C7.936,13.0004 7.875,12.9834 7.812,12.9804 C7.446,12.4754 6.931,11.0784 6.826,8.7994 L9.174,8.7994 C9.07,11.0724 8.56,12.4684 8.227,12.9774 C8.149,12.9804 8.077,13.0004 8,13.0004 L8,13.0004 Z M12.919,7.2004 L10.78,7.2004 C10.723,5.8804 10.521,4.5724 10.167,3.5144 C11.605,4.2134 12.654,5.5704 12.919,7.2004 L12.919,7.2004 Z M8,1.0004 C4.134,1.0004 1,4.1334 1,8.0004 C1,11.8664 4.134,15.0004 8,15.0004 C11.866,15.0004 15,11.8664 15,8.0004 C15,4.1334 11.866,1.0004 8,1.0004 L8,1.0004 Z"/>
</svg>
