<svg width="16" height="16" fill="none" xmlns="http://www.w3.org/2000/svg">
  <path fill-rule="evenodd" clip-rule="evenodd" d="M10.167 12.485c.354-1.058.556-2.365.613-3.686h2.139a4.99 4.99 0 01-2.752 3.686zM3.081 8.8H5.22c.057 1.321.259 2.628.613 3.686A4.99 4.99 0 013.081 8.8zm2.752-5.285C5.479 4.572 5.277 5.88 5.22 7.2H3.081a4.992 4.992 0 012.752-3.686zM6.826 7.2c.104-2.273.614-3.669.947-4.178C7.851 3.02 7.923 3 8 3c.064 0 .125.016.188.02.366.504.881 1.902.986 4.18H6.826zM8 13c-.064 0-.125-.017-.188-.02-.366-.505-.881-1.902-.986-4.18h2.348c-.104 2.272-.614 3.668-.947 4.177-.078.003-.15.023-.227.023zm4.919-5.8H10.78c-.057-1.32-.259-2.628-.613-3.686A4.992 4.992 0 0112.919 7.2zM8 1a7 7 0 100 14A7 7 0 008 1z" fill="#000"/>
</svg>
