<svg xmlns="http://www.w3.org/2000/svg" width="32" height="32" viewBox="0 0 32 32">
  <path fill-rule="evenodd" d="M27,11 C26.609,10.609 25.977,10.609 25.586,11 L24.293,12.293 L25.707,13.707 L27,12.414 C27.391,12.023 27.391,11.391 27,11 L27,11 Z M14.293,22.293 L14,24 L15.707,23.707 L24.707,14.707 L23.293,13.293 L14.293,22.293 Z M11,19 L14,19 L14,17 L11,17 L11,19 Z M11,15 L17,15 L17,13 L11,13 L11,15 Z M11,11 L20,11 L20,9 L11,9 L11,11 Z M22,21 L24,21 L24,26 C24,27.103 23.103,28 22,28 L9,28 C7.897,28 7,27.103 7,26 L7,7 C7,5.897 7.897,5 9,5 L22,5 C23.103,5 24,5.897 24,7 L24,10 L22,10 L22,7 L9,7 L9,26 L22,26 L22,21 Z"/>
</svg>
