<svg xmlns="http://www.w3.org/2000/svg" width="24" height="24" viewBox="0 0 24 24">
  <path fill-rule="evenodd" d="M12,20 L14,20 C14,21.104 13.104,22 12,22 C10.896,22 10,21.104 10,20 L12,20 Z M8,8 C8,5.065 10.393,4 12,4 C13.607,4 16,5.065 16,8 C16,11.696 17.01,14.135 18.006,15.642 C16.754,16.293 14.76,17 12,17 C9.238,17 7.243,16.292 5.993,15.643 C6.989,14.136 8,11.696 8,8 L8,8 Z M21,16 C21,16 18,14 18,8 C18,4 14.762,2 12,2 C9.238,2 6,4 6,8 C6,14 3,16 3,16 C3,16 6,19 12,19 C18,19 21,16 21,16 L21,16 Z"/>
</svg>
