<svg xmlns="http://www.w3.org/2000/svg" width="32" height="32" viewBox="0 0 32 32">
  <path fill-rule="evenodd" d="M28,25.5 L28,26.5 C28,26.776 27.776,27 27.5,27 L4.5,27 C4.224,27 4,26.776 4,26.5 L4,25.5 C4,25.224 4.224,25 4.5,25 L27.5,25 C27.776,25 28,25.224 28,25.5 L28,25.5 Z M9,22 L12,22 L12,12.5 L9,12.5 L9,22 Z M16,7.155 L21.776,10.5 L10.224,10.5 L16,7.155 Z M20,22 L23,22 L23,12.5 L20,12.5 L20,22 Z M14,22 L18,22 L18,12.5 L14,12.5 L14,22 Z M5.482,24 L26.518,24 C26.695,24 26.784,23.785 26.658,23.659 L25,22 L25,12.5 L25.5,12.5 C25.952,12.5 26.349,12.196 26.466,11.759 C26.583,11.322 26.393,10.861 26.001,10.635 L16.501,5.135 C16.19,4.955 15.81,4.955 15.499,5.135 L5.999,10.635 C5.607,10.861 5.417,11.322 5.534,11.759 C5.651,12.196 6.048,12.5 6.5,12.5 L7,12.5 L7,22 L5.342,23.659 C5.216,23.785 5.305,24 5.482,24 L5.482,24 Z"/>
</svg>
