<svg width="24" height="24" fill="none" xmlns="http://www.w3.org/2000/svg">
  <path fill-rule="evenodd" clip-rule="evenodd" d="M22.853 11.477C22.666 11.172 18.204 4 12 4c-1.298 0-2.515.326-3.638.827L19.796 16.26c1.844-1.794 2.966-3.59 3.057-3.738a.99.99 0 00.147-.524.99.99 0 00-.147-.522zm-2.146 7.816a.999.999 0 11-1.414 1.413l-2.261-2.26c-1.478.907-3.175 1.553-5.032 1.553-6.203 0-10.666-7.171-10.852-7.476a1 1 0 010-1.046c.108-.178 1.669-2.68 4.175-4.74l-2.03-2.03a1 1 0 011.414-1.414l16 16z" fill="#000"/>
</svg>
