<svg xmlns="http://www.w3.org/2000/svg" width="24" height="24" viewBox="0 0 24 24">
  <path fill-rule="evenodd" d="M22.8523,11.4775 C22.6653,11.1725 18.2033,3.9995 11.9993,3.9995 C10.7013,3.9995 9.4843,4.3255 8.3613,4.8265 L19.7953,16.2605 C21.6393,14.4665 22.7613,12.6715 22.8523,12.5225 C23.0483,12.2025 23.0483,11.7975 22.8523,11.4775 L22.8523,11.4775 Z M1.1473,11.4775 C0.9513,11.7975 0.9513,12.2025 1.1473,12.5225 C1.3333,12.8275 5.7963,19.9995 11.9993,19.9995 C13.2983,19.9995 14.5153,19.6745 15.6383,19.1735 L4.2043,7.7395 C2.3603,9.5335 1.2383,11.3285 1.1473,11.4775 L1.1473,11.4775 Z M20.7063,19.2925 C21.0973,19.6835 21.0973,20.3165 20.7063,20.7065 C20.5113,20.9025 20.2553,20.9995 19.9993,20.9995 C19.7443,20.9995 19.4883,20.9025 19.2923,20.7065 L3.2923,4.7065 C2.9023,4.3165 2.9023,3.6835 3.2923,3.2925 C3.6833,2.9025 4.3163,2.9025 4.7063,3.2925 L20.7063,19.2925 Z"/>
</svg>
