<svg width="24" height="24" fill="none" xmlns="http://www.w3.org/2000/svg">
  <path fill-rule="evenodd" clip-rule="evenodd" d="M15.583 16.986L6.759 8.162C5.066 9.523 3.801 11.174 3.221 12c1.087 1.548 4.58 6 8.797 6 1.27 0 2.472-.408 3.565-1.014zm5.135 2.307a1 1 0 01-1.414 1.414l-2.257-2.257c-1.477.907-3.174 1.55-5.029 1.55-6.204 0-10.666-7.173-10.853-7.478A1.02 1.02 0 011 12c0-.182.067-.363.165-.523.109-.178 1.664-2.68 4.166-4.743L3.304 4.707a.999.999 0 111.414-1.414l16 16zM23.011 12a.99.99 0 01-.148.522c-.091.15-1.213 1.944-3.056 3.738l-1.415-1.415a20.648 20.648 0 002.417-2.844c-1.087-1.548-4.581-6-8.798-6a6.62 6.62 0 00-2.102.362L8.372 4.826c1.123-.5 2.34-.826 3.639-.826 6.203 0 10.666 7.173 10.852 7.477.099.16.148.341.148.523z" fill="#000"/>
</svg>
