<svg width="32" height="32" fill="none" xmlns="http://www.w3.org/2000/svg">
  <path fill-rule="evenodd" clip-rule="evenodd" d="M27.824 20v4.512c0 .789-.473 1.589-1.374 1.589-.9 0-1.374-.8-1.374-1.59V20H23.9v4.512c0 1.524 1.096 2.673 2.55 2.673 1.454 0 2.55-1.15 2.55-2.673V20h-1.176zm-7 4.509l-2.79-4.51H16.9v7.063h1.176v-4.51l2.791 4.51H22V20h-1.176v4.509zm-9.924 2.52H15v-1.171h-2.929V24.1h1.952v-1.172h-1.952v-1.757h2.93V20h-4.1v7.029zm-4.95-2.276l-1.877-4.691L4.05 20H2.9v7.084h1.18v-3.617l1.87 3.739 1.87-3.74v3.618H9V20H7.851l-1.9 4.753zM30 13.5a1.5 1.5 0 00-1.5-1.5h-25a1.5 1.5 0 100 3h25a1.5 1.5 0 001.5-1.5zM28.5 7h-25a1.5 1.5 0 110-3h25a1.5 1.5 0 110 3z" fill="#000"/>
</svg>
