<svg xmlns="http://www.w3.org/2000/svg" width="32" height="32" viewBox="0 0 32 32">
  <path fill-rule="evenodd" d="M27.8242,19.9999 L27.8242,24.5119 C27.8242,25.3009 27.3512,26.1009 26.4502,26.1009 C25.5492,26.1009 25.0762,25.3009 25.0762,24.5119 L25.0762,19.9999 L23.9002,19.9999 L23.9002,24.5119 C23.9002,26.0359 24.9962,27.1849 26.4502,27.1849 C27.9042,27.1849 29.0002,26.0359 29.0002,24.5119 L29.0002,19.9999 L27.8242,19.9999 Z M20.8242,24.5089 L18.0332,19.9999 L16.9002,19.9999 L16.9002,27.0619 L18.0762,27.0619 L18.0762,22.5529 L20.8672,27.0619 L22.0002,27.0619 L22.0002,19.9999 L20.8242,19.9999 L20.8242,24.5089 Z M10.9002,27.0289 L15.0002,27.0289 L15.0002,25.8579 L12.0712,25.8579 L12.0712,24.1009 L14.0232,24.1009 L14.0232,22.9289 L12.0712,22.9289 L12.0712,21.1719 L15.0002,21.1719 L15.0002,19.9999 L10.9002,19.9999 L10.9002,27.0289 Z M5.9502,24.7529 L4.0732,20.0619 L4.0492,19.9999 L2.9002,19.9999 L2.9002,27.0839 L4.0802,27.0839 L4.0802,23.4669 L5.9502,27.2059 L7.8202,23.4669 L7.8202,27.0839 L9.0002,27.0839 L9.0002,19.9999 L7.8512,19.9999 L5.9502,24.7529 Z M30.0002,13.4999 L30.0002,13.4999 C30.0002,12.6709 29.3282,11.9999 28.5002,11.9999 L3.5002,11.9999 C2.6722,11.9999 2.0002,12.6709 2.0002,13.4999 C2.0002,14.3289 2.6722,14.9999 3.5002,14.9999 L28.5002,14.9999 C29.3282,14.9999 30.0002,14.3289 30.0002,13.4999 L30.0002,13.4999 Z M28.5002,6.9999 L3.5002,6.9999 C2.6722,6.9999 2.0002,6.3289 2.0002,5.4999 C2.0002,4.6709 2.6722,3.9999 3.5002,3.9999 L28.5002,3.9999 C29.3282,3.9999 30.0002,4.6709 30.0002,5.4999 C30.0002,6.3289 29.3282,6.9999 28.5002,6.9999 L28.5002,6.9999 Z"/>
</svg>
