<svg width="24" height="24" fill="none" xmlns="http://www.w3.org/2000/svg">
  <path fill-rule="evenodd" clip-rule="evenodd" d="M12 2C6.478 2 2 6.478 2 12c0 4.686 3.227 8.606 7.576 9.691a1.473 1.473 0 01-.076-.485v-1.71H8.243c-.684 0-1.293-.294-1.588-.84-.327-.608-.384-1.537-1.195-2.105-.24-.19-.058-.405.22-.376.512.144.937.497 1.338 1.018.398.523.586.641 1.33.641.36 0 .9-.02 1.41-.1.272-.695.744-1.335 1.322-1.636-3.33-.342-4.92-1.999-4.92-4.248 0-.968.413-1.906 1.114-2.695-.23-.783-.519-2.38.088-2.989 1.498 0 2.405.972 2.622 1.234a7.514 7.514 0 012.428-.4c.863 0 1.687.145 2.436.402.215-.26 1.121-1.236 2.623-1.236.61.61.317 2.214.085 2.995.696.788 1.106 1.722 1.106 2.69 0 2.247-1.587 3.902-4.91 4.247.914.477 1.581 1.818 1.581 2.83v2.278c0 .086-.019.148-.029.223C19.2 20.063 22 16.363 22 12c0-5.522-4.478-10-10-10z" fill="#000"/>
</svg>
