<svg width="16" height="16" fill="none" xmlns="http://www.w3.org/2000/svg">
  <path fill-rule="evenodd" clip-rule="evenodd" d="M16 11c0 2-1.75 4-4 4-1.777 0-3.389-.817-4-1.714C7.389 14.183 5.777 15 4 15c-2.25 0-4-2-4-4 3.777 1.768 5.598-2 8-2s4.223 3.768 8 2zM3.5 4C4.327 4 5 4.673 5 5.5S4.327 7 3.5 7 2 6.327 2 5.5 2.673 4 3.5 4zm9 0c.827 0 1.5.673 1.5 1.5S13.327 7 12.5 7 11 6.327 11 5.5 11.673 4 12.5 4zm-9 5A3.5 3.5 0 007 5.5a1 1 0 012 0A3.5 3.5 0 1012.5 2a3.479 3.479 0 00-2.61 1.189A2.978 2.978 0 008 2.5c-.72 0-1.372.266-1.89.689A3.479 3.479 0 003.5 2a3.5 3.5 0 100 7z" fill="#000"/>
</svg>
