<svg xmlns="http://www.w3.org/2000/svg" width="16" height="16" viewBox="0 0 16 16">
  <path fill-rule="evenodd" d="M16,11 C16,13 14.25,15 12,15 C10.223,15 8.611,14.183 8,13.286 C7.389,14.183 5.777,15 4,15 C1.75,15 0,13 0,11 C3.777,12.768 5.598,9 8,9 C10.402,9 12.223,12.768 16,11 M3.5,4 C4.327,4 5,4.673 5,5.5 C5,6.327 4.327,7 3.5,7 C2.673,7 2,6.327 2,5.5 C2,4.673 2.673,4 3.5,4 M12.5,4 C13.327,4 14,4.673 14,5.5 C14,6.327 13.327,7 12.5,7 C11.673,7 11,6.327 11,5.5 C11,4.673 11.673,4 12.5,4 M3.5,9 C5.433,9 7,7.433 7,5.5 C7,4.948 7.448,4.5 8,4.5 C8.552,4.5 9,4.948 9,5.5 C9,7.433 10.567,9 12.5,9 C14.433,9 16,7.433 16,5.5 C16,3.567 14.433,2 12.5,2 C11.457,2 10.531,2.466 9.89,3.189 C9.372,2.766 8.72,2.5 8,2.5 C7.28,2.5 6.628,2.766 6.11,3.189 C5.469,2.466 4.543,2 3.5,2 C1.567,2 0,3.567 0,5.5 C0,7.433 1.567,9 3.5,9"/>
</svg>
