<svg width="24" height="24" fill="none" xmlns="http://www.w3.org/2000/svg">
  <path d="M15.656 16.967l2.342-8.86h-1.812s-1.644 6.645-1.682 7c-.038-.355-1.659-7-1.659-7h-1.659s-1.582 6.658-1.632 7.024c-.038-.366-1.646-7.024-1.646-7.024h-1.91l2.379 8.86h2.241s1.366-5.759 1.404-6.088c.026.329 1.393 6.088 1.393 6.088h2.241zm5.785-10.213C21.807 8.446 22 10.2 22 12c0 1.8-.193 3.555-.559 5.245a5.473 5.473 0 01-4.195 4.197A24.783 24.783 0 0112 22c-1.8 0-3.555-.192-5.246-.558a5.474 5.474 0 01-4.197-4.197A24.825 24.825 0 012 12c0-1.801.192-3.555.557-5.246a5.474 5.474 0 014.198-4.196A24.825 24.825 0 0112 2c1.8 0 3.554.193 5.246.559a5.474 5.474 0 014.195 4.195z" fill="#000"/>
</svg>
