<svg width="24" height="24" fill="none" xmlns="http://www.w3.org/2000/svg">
  <path d="M19.487 16.823a3.486 3.486 0 01-2.664 2.664 22.886 22.886 0 01-9.646 0 3.484 3.484 0 01-2.664-2.664A22.82 22.82 0 014 12c0-1.627.172-3.249.513-4.823a3.481 3.481 0 012.664-2.664 22.886 22.886 0 019.646 0 3.486 3.486 0 012.664 2.664C19.828 8.752 20 10.374 20 12a22.82 22.82 0 01-.513 4.823zm1.955-10.069a5.473 5.473 0 00-4.196-4.195A24.711 24.711 0 0012 2c-1.8 0-3.555.192-5.246.558a5.473 5.473 0 00-4.196 4.196A24.762 24.762 0 002 12c0 1.8.192 3.555.558 5.245a5.472 5.472 0 004.196 4.196C8.445 21.808 10.2 22 12 22c1.8 0 3.555-.192 5.246-.559a5.473 5.473 0 004.196-4.196A24.76 24.76 0 0022 12c0-1.8-.192-3.555-.558-5.246zm-6.939 8.352c-.038-.354-1.658-7-1.658-7h-1.658s-1.582 6.659-1.633 7.025c-.038-.366-1.646-7.025-1.646-7.025h-1.91l2.379 8.861h2.241s1.367-5.759 1.405-6.088c.024.329 1.392 6.088 1.392 6.088h2.241l2.342-8.861h-1.811s-1.645 6.646-1.684 7z" fill="#000"/>
</svg>
