<svg xmlns="http://www.w3.org/2000/svg" width="24" height="24" viewBox="0 0 24 24">
  <path fill-rule="evenodd" d="M13.5,17 L13.5,17 C13.5,16.172 12.828,15.5 12,15.5 C11.172,15.5 10.5,16.172 10.5,17 C10.5,17.828 11.172,18.5 12,18.5 C12.828,18.5 13.5,17.828 13.5,17 M13,13 C13,12.577 13.306,12.332 14.055,11.832 C14.876,11.285 16,10.535 16,9 C16,7.117 14.317,5.75 12,5.75 C9.683,5.75 8,7.117 8,9 C8,9.553 8.447,10 9,10 C9.553,10 10,9.553 10,9 C10,8.012 11.309,7.75 12,7.75 C12.582,7.75 13.132,7.894 13.508,8.145 C13.949,8.438 14,8.773 14,9 C14,9.423 13.694,9.668 12.945,10.168 C12.124,10.715 11,11.465 11,13 C11,13.553 11.447,14 12,14 C12.553,14 13,13.553 13,13"/>
</svg>
