<svg width="24" height="24" fill="none" xmlns="http://www.w3.org/2000/svg">
  <path d="M18.83 9.413l1.742-1.742a22.256 22.256 0 01-.075 9.05 4.925 4.925 0 01-3.776 3.777 22.224 22.224 0 01-9.051.073l1.743-1.742c.856.109 1.72.171 2.587.171 1.45 0 2.895-.154 4.298-.457a2.936 2.936 0 002.245-2.244c.303-1.404.457-2.85.457-4.299 0-.866-.062-1.731-.17-2.587zM5.17 14.587L3.428 16.33a22.301 22.301 0 01.074-9.052A4.928 4.928 0 017.28 3.502a22.322 22.322 0 019.05-.073l-1.742 1.742A20.3 20.3 0 0012 5c-1.45 0-2.896.153-4.298.457a2.933 2.933 0 00-2.245 2.244A20.399 20.399 0 005 12c0 .867.061 1.731.171 2.587zM4.001 21a.997.997 0 00.706-.293l16-16a.999.999 0 10-1.414-1.414l-16 16A.999.999 0 004 21z" fill="#000"/>
</svg>
