<svg xmlns="http://www.w3.org/2000/svg" width="24" height="24" viewBox="0 0 24 24">
  <path fill-rule="evenodd" d="M20.9987,11 L5.4127,11 L9.7057,6.707 C10.0967,6.316 10.0967,5.684 9.7057,5.293 C9.3147,4.902 8.6827,4.902 8.2917,5.293 L2.2927,11.292 C2.1997,11.385 2.1267,11.495 2.0757,11.618 C1.9747,11.862 1.9747,12.138 2.0757,12.382 C2.1267,12.505 2.1997,12.615 2.2927,12.708 L8.2917,18.707 C8.4867,18.902 8.7427,19 8.9987,19 C9.2547,19 9.5107,18.902 9.7057,18.707 C10.0967,18.316 10.0967,17.684 9.7057,17.293 L5.4127,13 L20.9987,13 C21.5517,13 21.9987,12.552 21.9987,12 C21.9987,11.448 21.5517,11 20.9987,11"/>
</svg>
