<svg width="24" height="24" fill="none" xmlns="http://www.w3.org/2000/svg">
  <path fill-rule="evenodd" clip-rule="evenodd" d="M19.589 3.416C18.66 2.485 17.469 2 16.229 2c-1.294 0-2.51.459-3.463 1.417l-9.518 9.562a.853.853 0 000 1.201.841.841 0 001.195 0l9.518-9.562a3.13 3.13 0 014.432-.001 3.167 3.167 0 010 4.454L7.55 19.965a1.145 1.145 0 01-1.62 0 1.156 1.156 0 010-1.626L16.775 7.445a.852.852 0 000-1.201.844.844 0 00-1.196 0L4.735 17.139a2.86 2.86 0 000 4.026A2.81 2.81 0 006.74 22c.757 0 1.469-.296 2.004-.835L19.59 10.271A4.839 4.839 0 0021 6.845c0-1.242-.47-2.484-1.411-3.429z" fill="#000"/>
</svg>
