<svg xmlns="http://www.w3.org/2000/svg" width="16" height="16" viewBox="0 0 16 16">
  <path fill-rule="evenodd" d="M4.46462619,7.102 C3.66884094,8.688 2.21374812,11.587 1.47014551,13.072 C1.19618665,13.616 1.46312092,14.282 2.04415454,14.469 C3.18916207,14.839 4.79578525,15 7.02458605,15 C10.0351229,15 12.0742599,14.855 13.0456598,14 C14.2528851,12.938 16,9 16,7.331 C16,6.639 15.7461114,6 15.0526844,6 L6.25790266,6 C5.49724034,6 4.80481686,6.424 4.46462619,7.102 M13.0456598,4 L13.0456598,5 L5.25439037,5 C4.49372805,5 3.79929754,5.428 3.45910687,6.106 L0.380331159,12.243 C0.284997491,12.431 0,12.365 0,12.153 L0,2 C0,1.448 0.448569995,1 1.00351229,1 L3.77621676,1 C4.53687908,1 5.2323131,1.428 5.57250376,2.106 L6.02107376,3 L12.0421475,3 C12.5970898,3 13.0456598,3.448 13.0456598,4"/>
</svg>
