<svg width="16" height="16" fill="none" xmlns="http://www.w3.org/2000/svg">
  <path fill-rule="evenodd" clip-rule="evenodd" d="M11.36 12.232C10.93 12.59 10.046 13 7 13c-2.14 0-3.425-.212-4.454-.517l2.692-4.038A.996.996 0 016.07 8H14c-.03.665-1.544 3.318-2.64 4.232zM14 6H6.07a2.992 2.992 0 00-2.496 1.336L2 9.697V3h1.763c.382 0 .725.211.895.552l.447.895A1 1 0 006 5h6a.36.36 0 01.101.01l-.02-.01h1.92c0-1.197-.805-2-2-2H6.617l-.17-.342A2.984 2.984 0 003.762 1H1a1 1 0 00-1 1v11a1 1 0 00.634.93C2.358 14.608 3.952 15 7 15c2.957 0 4.591-.358 5.64-1.232C13.997 12.636 16 9.404 16 8c0-1.234-.767-2-2-2z" fill="#000"/>
</svg>
