<svg xmlns="http://www.w3.org/2000/svg" width="16" height="16" viewBox="0 0 16 16">
  <path fill-rule="evenodd" d="M8.0003,11 C7.1713,11 6.5003,11.672 6.5003,12.5 C6.5003,13.328 7.1713,14 8.0003,14 C8.8293,14 9.5003,13.328 9.5003,12.5 C9.5003,11.672 8.8293,11 8.0003,11 M12.0003,6 C12.0003,8.101 10.3573,9.78 8.0953,9.995 C8.0623,9.999 8.0303,10 7.9993,10 C7.4893,10 7.0543,9.612 7.0043,9.095 C6.9523,8.545 7.3553,8.057 7.9053,8.005 C9.3533,7.867 10.0003,6.898 10.0003,6 C10.0003,5.17 9.3793,4 8.0003,4 C6.9623,4 6.2863,4.444 5.9333,5.359 C5.7343,5.875 5.1563,6.134 4.6403,5.933 C4.1253,5.734 3.8683,5.155 4.0673,4.641 C4.7143,2.962 6.1473,2 8.0003,2 C10.5043,2 12.0003,4.034 12.0003,6"/>
</svg>
