<svg width="24" height="24" fill="none" xmlns="http://www.w3.org/2000/svg">
  <path fill-rule="evenodd" clip-rule="evenodd" d="M19 12a4.996 4.996 0 01-1.871-.369l-1.121.785 5.186 5.348c.193-.407.343-.838.421-1.297.256-1.49.385-2.992.385-4.467 0-.328-.025-.659-.041-.989A4.955 4.955 0 0119 12zm-7 3.221l-2.348-1.644-5.628 5.803a5.03 5.03 0 002.54 1.209C8.279 20.861 10.108 21 12 21s3.721-.139 5.436-.411a5.03 5.03 0 002.54-1.209l-5.628-5.803L12 15.221zm-9.729-6.81A26.444 26.444 0 002 12c0 1.475.129 2.977.385 4.466.078.459.228.89.421 1.298l5.186-5.348-5.721-4.005zm13.098 2.01A4.976 4.976 0 0114 7c0-1.521.693-2.866 1.765-3.783A35.338 35.338 0 0012 3c-1.876.002-3.797.145-5.519.424-1.666.27-3.037 1.382-3.712 2.893L12 12.779l3.369-2.358zM19 4a3 3 0 110 6 3 3 0 010-6z" fill="#000"/>
</svg>
