<svg width="24" height="24" fill="none" xmlns="http://www.w3.org/2000/svg">
  <path fill-rule="evenodd" clip-rule="evenodd" d="M19 4a3 3 0 110 6 3 3 0 010-6zm-1.879 14.614c-3.221.512-7.021.512-10.243 0a3.034 3.034 0 01-1.447-.657l4.272-4.43L12 15.25l2.297-1.723 4.272 4.43c-.408.334-.9.57-1.448.657zM4.355 16.13A24.694 24.694 0 014 12c0-.867.066-1.747.163-2.628l3.927 2.945-3.722 3.861c-.003-.016-.01-.032-.013-.048zm15.642-4.231c0 .034.003.068.003.101 0 1.36-.12 2.749-.355 4.129-.003.017-.01.032-.013.049l-3.722-3.861 1.029-.772a5 5 0 01-1.67-1.246L12 12.75 4.6 7.2c-.011-.008-.023-.009-.034-.016.397-.934 1.226-1.622 2.236-1.786C8.418 5.136 10.23 5.002 12 5c.806-.001 1.6.033 2.383.087a4.974 4.974 0 011.381-1.869A36.071 36.071 0 0012 3c-1.892 0-3.783.143-5.518.424-2.089.338-3.736 1.99-4.098 4.109A26.58 26.58 0 002 12c0 1.473.129 2.976.384 4.467a5.037 5.037 0 004.18 4.122A34.84 34.84 0 0012 21c1.893 0 3.721-.139 5.435-.411a5.037 5.037 0 004.181-4.123A26.56 26.56 0 0022 12c0-.326-.03-.658-.043-.987a4.947 4.947 0 01-1.96.886z" fill="#000"/>
</svg>
