<svg width="24" height="24" fill="none" xmlns="http://www.w3.org/2000/svg">
  <path fill-rule="evenodd" clip-rule="evenodd" d="M17.5 14a1.5 1.5 0 11.001-3.001A1.5 1.5 0 0117.5 14zM14 9.5a1.5 1.5 0 113.001.001A1.5 1.5 0 0114 9.5zM11 12H9v2H7v-2H5v-2h2V8h2v2h2v2zm10.721-5.649C20.932 4.222 19.211 3 17 3a5.02 5.02 0 00-4 2h-2a5.02 5.02 0 00-4-2C4.789 3 3.068 4.222 2.279 6.351 1.347 8.865 1 10.938 1 14c0 3.484 1.237 7 4 7 2.851 0 4.216-2.654 4.725-4h4.55c.509 1.346 1.874 4 4.725 4 2.763 0 4-3.516 4-7 0-3.062-.347-5.135-1.279-7.649z" fill="#000"/>
</svg>
