<svg width="24" height="24" fill="none" xmlns="http://www.w3.org/2000/svg">
  <path fill-rule="evenodd" clip-rule="evenodd" d="M21 14c0-2.836-.302-4.656-1.154-6.954C19.343 5.688 18.385 5 17 5a3.016 3.016 0 00-2.6 1.501.997.997 0 01-.865.499h-3.07a.997.997 0 01-.866-.5A3.012 3.012 0 007 5c-1.385 0-2.343.688-2.846 2.046C3.302 9.344 3 11.164 3 14c0 2.757.897 5 2 5 2.176 0 3.022-3.213 3.03-3.245.114-.443.513-.755.97-.755h6a1 1 0 01.97.758c.008.029.854 3.242 3.03 3.242 1.103 0 2-2.243 2-5zm2 0c0 3.484-1.237 7-4 7-2.851 0-4.216-2.654-4.725-4h-4.55C9.216 18.346 7.851 21 5 21c-2.763 0-4-3.516-4-7 0-3.062.347-5.135 1.279-7.649C3.068 4.222 4.789 3 7 3a5.02 5.02 0 014 2h2a5.022 5.022 0 014-2c2.211 0 3.932 1.222 4.721 3.351C22.653 8.865 23 10.938 23 14zm-5.5-3a1.5 1.5 0 10.001 3.001A1.5 1.5 0 0017.5 11zM17 9.5a1.5 1.5 0 10-3.001.001A1.5 1.5 0 0017 9.5zM9 10h2v2H9v2H7v-2H5v-2h2V8h2v2z" fill="#000"/>
</svg>
