<svg width="24" height="24" fill="none" xmlns="http://www.w3.org/2000/svg">
  <path d="M14.926 19.863c.676-1.03 1.204-2.42 1.524-4.063h3.032a8.433 8.433 0 01-4.556 4.063zM4.519 15.8h3.03c.32 1.643.85 3.033 1.525 4.063A8.431 8.431 0 014.519 15.8zM9.074 4.135C8.399 5.167 7.87 6.556 7.55 8.2H4.519a8.442 8.442 0 014.555-4.065zM12 3.8c1.063 0 2.21 1.738 2.8 4.4H9.2c.589-2.662 1.738-4.4 2.8-4.4zM3.6 12c0-.763.11-1.498.303-2.2h3.413a21.017 21.017 0 000 4.4H3.903A8.323 8.323 0 013.6 12zm5.332 2.2A18.77 18.77 0 018.8 12c0-.77.05-1.504.132-2.2h6.137a18.777 18.777 0 010 4.4H8.932zm3.068 6c-1.062 0-2.211-1.738-2.8-4.4h5.6c-.59 2.662-1.737 4.4-2.8 4.4zm8.4-8.2c0 .762-.111 1.498-.302 2.2h-3.413a21.313 21.313 0 000-4.4h3.413a8.4 8.4 0 01.303 2.2zm-.918-3.8H16.45c-.32-1.644-.848-3.033-1.524-4.065A8.444 8.444 0 0119.482 8.2zM12 2C6.478 2 2 6.477 2 12c0 5.522 4.478 10 10 10 5.523 0 10-4.478 10-10 0-5.523-4.477-10-10-10z" fill="#000"/>
</svg>
