<svg xmlns="http://www.w3.org/2000/svg" width="24" height="24" viewBox="0 0 24 24">
  <path fill-rule="evenodd" d="M15.5605,19.1533 C16.0065,18.2643 16.3645,17.1983 16.6125,16.0003 L18.9175,16.0003 C18.1325,17.3523 16.9635,18.4523 15.5605,19.1533 L15.5605,19.1533 Z M5.0815,16.0003 L7.3875,16.0003 C7.6355,17.1983 7.9935,18.2643 8.4395,19.1533 C7.0365,18.4523 5.8675,17.3523 5.0815,16.0003 L5.0815,16.0003 Z M8.4395,4.8463 C7.9935,5.7353 7.6345,6.8013 7.3875,8.0003 L5.0815,8.0003 C5.8675,6.6473 7.0365,5.5483 8.4395,4.8463 L8.4395,4.8463 Z M11.9995,4.0003 C12.8435,4.0003 13.9495,5.4803 14.5545,8.0003 L9.4455,8.0003 C10.0505,5.4803 11.1565,4.0003 11.9995,4.0003 L11.9995,4.0003 Z M3.9995,12.0003 C3.9995,11.3083 4.0975,10.6403 4.2635,10.0003 L7.0925,10.0003 C7.0335,10.6433 6.9995,11.3103 6.9995,12.0003 C6.9995,12.6893 7.0335,13.3563 7.0925,14.0003 L4.2635,14.0003 C4.0975,13.3593 3.9995,12.6913 3.9995,12.0003 L3.9995,12.0003 Z M9.1085,14.0003 C9.0405,13.3713 8.9995,12.7073 8.9995,12.0003 C8.9995,11.2933 9.0405,10.6293 9.1085,10.0003 L14.8915,10.0003 C14.9585,10.6293 14.9995,11.2933 14.9995,12.0003 C14.9995,12.7073 14.9585,13.3713 14.8915,14.0003 L9.1085,14.0003 Z M11.9995,20.0003 C11.1565,20.0003 10.0505,18.5193 9.4455,16.0003 L14.5545,16.0003 C13.9495,18.5193 12.8435,20.0003 11.9995,20.0003 L11.9995,20.0003 Z M19.9995,12.0003 C19.9995,12.6913 19.9025,13.3593 19.7365,14.0003 L16.9075,14.0003 C16.9665,13.3563 16.9995,12.6893 16.9995,12.0003 C16.9995,11.3103 16.9665,10.6433 16.9075,10.0003 L19.7365,10.0003 C19.9025,10.6403 19.9995,11.3083 19.9995,12.0003 L19.9995,12.0003 Z M18.9175,8.0003 L16.6125,8.0003 C16.3655,6.8013 16.0065,5.7353 15.5605,4.8463 C16.9635,5.5483 18.1325,6.6473 18.9175,8.0003 L18.9175,8.0003 Z M11.9995,2.0003 C6.4775,2.0003 1.9995,6.4773 1.9995,12.0003 C1.9995,17.5223 6.4775,22.0003 11.9995,22.0003 C17.5225,22.0003 21.9995,17.5223 21.9995,12.0003 C21.9995,6.4773 17.5225,2.0003 11.9995,2.0003 L11.9995,2.0003 Z"/>
</svg>
