<svg width="32" height="32" fill="none" xmlns="http://www.w3.org/2000/svg">
  <path fill-rule="evenodd" clip-rule="evenodd" d="M27.3 20h-3.636c.216-1.269.336-2.609.336-4s-.12-2.731-.336-4H27.3c.445 1.253.7 2.596.7 4s-.255 2.747-.7 4zm-6.27 6.88c.925-1.311 1.673-2.98 2.19-4.88h3.156a12.054 12.054 0 01-5.346 4.88zM5.624 22H8.78c.517 1.9 1.265 3.569 2.19 4.88A12.065 12.065 0 015.624 22zM4.7 12h3.636A23.856 23.856 0 008 16c0 1.391.12 2.731.336 4H4.7a11.922 11.922 0 01-.7-4c0-1.404.255-2.747.7-4zm6.27-6.88C10.045 6.431 9.297 8.1 8.78 10H5.624a12.065 12.065 0 015.346-4.88zM17 10V4.203c1.62.628 3.215 2.727 4.153 5.797H17zm0 17.797V22h4.153c-.938 3.07-2.532 5.169-4.153 5.797zM15 22v5.797c-1.621-.628-3.215-2.727-4.152-5.797H15zm0-17.797V10h-4.152c.937-3.07 2.53-5.169 4.152-5.797zM10 16c0-1.431.135-2.768.364-4H15v8h-4.636A21.874 21.874 0 0110 16zm12 0c0 1.431-.135 2.768-.364 4H17v-8h4.636c.229 1.232.364 2.569.364 4zm4.376-6H23.22c-.517-1.9-1.265-3.569-2.19-4.88A12.054 12.054 0 0126.376 10zM16 2C8.268 2 2 8.268 2 16s6.268 14 14 14c7.733 0 14-6.268 14-14S23.733 2 16 2z" fill="#000"/>
</svg>
