<svg width="24" height="24" fill="none" xmlns="http://www.w3.org/2000/svg">
  <path d="M18.772 11.901c.61 0 1.228.447 1.228 1.298 0 1.583-2.494 6.802-8 6.802a7.951 7.951 0 01-4.04-1.105l-.404.404-.106.11c-.301.317-.562.591-1.094.591-.689 0-1.227-.54-1.227-1.228v-3.386c0-.605.458-1.228 1.227-1.228h3.386c.666 0 1.228.562 1.228 1.228 0 .537-.269.794-.691 1.199l-.495.493a5.47 5.47 0 002.216.466c3.58 0 5.193-2.989 5.547-4.57.154-.682.6-1.074 1.225-1.074zM17.643 4c.689 0 1.228.54 1.228 1.228v3.386c0 .604-.46 1.228-1.228 1.228h-3.386a1.244 1.244 0 01-1.227-1.228c0-.537.268-.795.69-1.199l.495-.494A5.456 5.456 0 0012 6.455c-3.58 0-5.194 2.99-5.548 4.57-.154.683-.6 1.074-1.224 1.074-.61 0-1.228-.446-1.228-1.298C4 9.218 6.494 4 12 4a7.96 7.96 0 014.04 1.105l.403-.404.106-.11c.301-.316.562-.591 1.094-.591z" fill="#000"/>
</svg>
