<svg width="24" height="24" fill="none" xmlns="http://www.w3.org/2000/svg">
  <path fill-rule="evenodd" clip-rule="evenodd" d="M22 5.924a8.214 8.214 0 01-2.356.646 4.11 4.11 0 001.803-2.27 8.221 8.221 0 01-2.606.996 4.104 4.104 0 00-6.991 3.741A11.645 11.645 0 013.393 4.75a4.087 4.087 0 00-.555 2.064c0 1.423.724 2.678 1.824 3.414a4.095 4.095 0 01-1.858-.513v.052a4.103 4.103 0 003.292 4.022 4.107 4.107 0 01-1.854.072 4.11 4.11 0 003.833 2.849A8.229 8.229 0 012 18.409a11.614 11.614 0 006.29 1.843c7.547 0 11.673-6.252 11.673-11.674 0-.177-.004-.354-.012-.531A8.338 8.338 0 0022 5.924z" fill="#000"/>
</svg>
