<svg width="24" height="24" fill="none" xmlns="http://www.w3.org/2000/svg">
  <path fill-rule="evenodd" clip-rule="evenodd" d="M7.888 7.05a1.09 1.09 0 01-.839.838 4.963 4.963 0 01-2.098 0 1.095 1.095 0 01-.84-.839 4.96 4.96 0 010-2.098c.092-.42.42-.748.84-.84a4.96 4.96 0 012.098 0c.42.092.749.42.84.84a4.96 4.96 0 010 2.098zm-.839 6.839c.42-.091.749-.42.84-.84a4.96 4.96 0 000-2.098 1.095 1.095 0 00-.84-.84 4.961 4.961 0 00-2.098 0 1.1 1.1 0 00-.84.84 4.96 4.96 0 000 2.098c.092.42.42.748.84.84a4.96 4.96 0 002.098 0zm0 6c.42-.091.749-.42.84-.84a4.96 4.96 0 000-2.098 1.095 1.095 0 00-.84-.84 4.961 4.961 0 00-2.098 0 1.1 1.1 0 00-.84.84 4.96 4.96 0 000 2.098c.092.42.42.748.84.84a4.96 4.96 0 002.098 0zm6.84-.84c-.091.42-.42.749-.84.84a4.967 4.967 0 01-2.098 0 1.095 1.095 0 01-.84-.84 4.96 4.96 0 010-2.098 1.1 1.1 0 01.84-.84 4.96 4.96 0 012.098 0c.42.091.748.42.84.84a4.96 4.96 0 010 2.098zm-.84-5.16a1.1 1.1 0 00.84-.84 4.96 4.96 0 000-2.098 1.095 1.095 0 00-.84-.84 4.962 4.962 0 00-2.098 0 1.1 1.1 0 00-.84.84 4.96 4.96 0 000 2.098c.091.42.42.748.84.84a4.96 4.96 0 002.098 0zm6.84 5.16c-.091.42-.42.749-.84.84a4.967 4.967 0 01-2.098 0 1.095 1.095 0 01-.84-.84 4.96 4.96 0 010-2.098 1.1 1.1 0 01.84-.84 4.96 4.96 0 012.098 0c.42.091.748.42.84.84a4.96 4.96 0 010 2.098zm-.84-5.16a1.1 1.1 0 00.84-.84 4.96 4.96 0 000-2.098 1.095 1.095 0 00-.84-.84 4.962 4.962 0 00-2.098 0 1.1 1.1 0 00-.84.84 4.96 4.96 0 000 2.098c.091.42.42.748.84.84a4.96 4.96 0 002.098 0zm-6-6a1.1 1.1 0 00.84-.84 4.96 4.96 0 000-2.098 1.095 1.095 0 00-.84-.84 4.962 4.962 0 00-2.098 0c-.42.092-.748.42-.84.84a4.96 4.96 0 000 2.098c.091.42.42.748.84.84a4.957 4.957 0 002.098 0zm6.84-.84c-.091.42-.42.749-.84.84a4.963 4.963 0 01-2.098 0 1.095 1.095 0 01-.84-.84 4.96 4.96 0 010-2.098 1.1 1.1 0 01.84-.84 4.96 4.96 0 012.098 0c.42.092.748.42.84.84a4.96 4.96 0 010 2.098z" fill="#000"/>
</svg>
