<svg xmlns="http://www.w3.org/2000/svg" width="24" height="24" viewBox="0 0 24 24">
  <path fill-rule="evenodd" d="M11.9998585,13 C6.06585851,13 1.90885851,15.032 3.25385851,17.5 C4.47885851,19.75 7.70285851,22 11.9998585,22 C16.2968585,22 19.5208585,19.75 20.7458585,17.5 C22.0908585,15.032 17.9338585,13 11.9998585,13 M11.9998585,2 L11.9998585,2 C10.1358585,2 8.62485851,3.511 8.62485851,5.375 L8.62485851,6.5 C8.62485851,9.225 10.1358585,11 11.9998585,11 C13.8638585,11 15.3748585,9.225 15.3748585,6.5 L15.3748585,5.375 C15.3748585,3.511 13.8638585,2 11.9998585,2 M11.9998585,15 C16.3038585,15 18.4858585,16.106 18.9508585,16.612 C18.0108585,18.258 15.4588585,20 11.9998585,20 C8.56485851,20 6.02485851,18.282 5.05185851,16.61 C5.52085851,16.103 7.70385851,15 11.9998585,15 M11.9998585,4 C12.7578585,4 13.3748585,4.617 13.3748585,5.375 L13.3748585,6.5 C13.3748585,7.925 12.7838585,9 11.9998585,9 C11.2158585,9 10.6248585,7.925 10.6248585,6.5 L10.6248585,5.375 C10.6248585,4.617 11.2418585,4 11.9998585,4"/>
</svg>
