<svg width="24" height="24" fill="none" xmlns="http://www.w3.org/2000/svg">
  <path d="M15 13h-2v-2a1 1 0 10-2 0v2H9a1 1 0 100 2h2v2a1 1 0 102 0v-2h2a1 1 0 100-2zm5-1c0-1.345-.125-2.686-.358-4H4.357A23.033 23.033 0 004 12c0 1.626.173 3.249.513 4.823a3.486 3.486 0 002.664 2.664 22.886 22.886 0 009.646 0 3.487 3.487 0 002.664-2.664c.34-1.574.513-3.197.513-4.823zm2 0c0 1.8-.192 3.555-.559 5.245a5.47 5.47 0 01-4.195 4.196A24.711 24.711 0 0112 22c-1.8 0-3.555-.192-5.246-.559a5.472 5.472 0 01-4.196-4.196A24.76 24.76 0 012 12c0-1.8.192-3.556.558-5.246C3.013 4.651 4.743 3 7 2.512V4a1 1 0 102 0V2.187C9.984 2.067 10.983 2 12 2s2.016.067 3 .187V4a1 1 0 102 0V2.512c2.519.556 3.987 2.14 4.441 4.242C21.808 8.445 22 10.2 22 12z" fill="#000"/>
</svg>
