<svg width="16" height="16" fill="none" xmlns="http://www.w3.org/2000/svg">
  <path fill-rule="evenodd" clip-rule="evenodd" d="M8 0c1.44 0 2.844.154 4.197.447a4.377 4.377 0 013.356 3.356C15.846 5.156 16 6.56 16 8s-.154 2.844-.447 4.196a4.377 4.377 0 01-3.356 3.357A19.769 19.769 0 018 16c-1.44 0-2.844-.154-4.197-.447a4.377 4.377 0 01-3.357-3.357A19.808 19.808 0 010 8c0-1.44.154-2.845.446-4.197A4.379 4.379 0 013.803.446 19.82 19.82 0 018 0zm1.414 8l2.293-2.293a.999.999 0 10-1.414-1.414L8 6.586 5.707 4.293a.999.999 0 10-1.414 1.414L6.586 8l-2.293 2.293a.999.999 0 101.414 1.414L8 9.414l2.293 2.293a.997.997 0 001.414 0 .999.999 0 000-1.414L9.414 8z" fill="#000"/>
</svg>
