<svg width="16" height="16" fill="none" xmlns="http://www.w3.org/2000/svg">
  <path d="M9.414 8l2.293-2.293a.999.999 0 10-1.414-1.414L8 6.586 5.707 4.293a.999.999 0 10-1.414 1.414L6.586 8l-2.293 2.293a.999.999 0 101.414 1.414L8 9.414l2.293 2.293a.997.997 0 001.414 0 .999.999 0 000-1.414L9.414 8z" fill="#000"/>
  <path fill-rule="evenodd" clip-rule="evenodd" d="M8 0c1.44 0 2.844.154 4.197.447a4.377 4.377 0 013.356 3.356C15.846 5.156 16 6.56 16 8s-.154 2.844-.447 4.196a4.377 4.377 0 01-3.356 3.357A19.769 19.769 0 018 16c-1.44 0-2.844-.154-4.197-.447a4.377 4.377 0 01-3.357-3.357A19.808 19.808 0 010 8c0-1.44.154-2.845.446-4.197A4.379 4.379 0 013.803.446 19.82 19.82 0 018 0zm3.773 2.402h.002a2.38 2.38 0 011.823 1.823v.002C13.862 5.441 14 6.703 14 8c0 1.297-.138 2.56-.402 3.772v.002a2.377 2.377 0 01-1.823 1.824h-.002A17.766 17.766 0 018 14a17.73 17.73 0 01-3.773-.402h-.002a2.377 2.377 0 01-1.824-1.825A17.812 17.812 0 012 8c0-1.298.138-2.56.401-3.773A2.38 2.38 0 014.225 2.4 17.83 17.83 0 018 2c1.297 0 2.56.138 3.773.402z" fill="#000"/>
</svg>
