<svg xmlns="http://www.w3.org/2000/svg" xmlns:xlink="http://www.w3.org/1999/xlink" width="24" height="24" viewBox="0 0 24 24">
  <defs>
    <path id="filled-a" d="M22,21 L14.416,13.998 L17.707,10.707 C18.098,10.316 18.098,9.684 17.707,9.293 C15.879,7.465 13.441,7.668 12.308,7.894 L7.707,3.293 C7.316,2.902 6.684,2.902 6.293,3.293 L2.293,7.293 C1.902,7.684 1.902,8.316 2.293,8.707 L6.894,13.308 C6.668,14.441 6.465,16.879 8.293,18.707 C8.488,18.902 8.744,19 9,19 C9.256,19 9.512,18.902 9.707,18.707 L13.002,15.412 L19,21 L22,21 Z"/>
  </defs>
  <use fill-rule="evenodd" xlink:href="#filled-a"/>
</svg>
