<svg width="24" height="24" fill="none" xmlns="http://www.w3.org/2000/svg">
  <path fill-rule="evenodd" clip-rule="evenodd" d="M9.12 16.467c-.706-1.446-.177-3.134-.172-3.15.12-.36.026-.756-.24-1.024L4.413 8 7 5.414l4.293 4.293c.265.266.66.357 1.02.243.02-.005 1.708-.536 3.154.169L9.12 16.467zM22 21l-7.584-7.002 3.291-3.291a.999.999 0 000-1.414c-1.829-1.83-4.266-1.625-5.4-1.4l-4.6-4.6A1.007 1.007 0 007 3a.987.987 0 00-.707.293l-4 4a.997.997 0 000 1.414l4.6 4.6c-.225 1.135-.428 3.572 1.4 5.4A.993.993 0 009 19a.993.993 0 00.707-.293l3.295-3.295L19 21h3z" fill="#000"/>
</svg>
