<svg xmlns="http://www.w3.org/2000/svg" width="16" height="16" viewBox="0 0 16 16">
  <path fill-rule="evenodd" d="M10,5.1387 C9.354,5.0587 8.682,4.9997 8,4.9997 C7.319,4.9997 6.646,5.0587 6,5.1387 L6,3.9997 C6,2.8977 6.897,1.9997 8,1.9997 C9.103,1.9997 10,2.8977 10,3.9997 L10,5.1387 Z M9,11.9997 L7,11.9997 L7,8.9997 C7,8.4477 7.447,7.9997 8,7.9997 C8.553,7.9997 9,8.4477 9,8.9997 L9,11.9997 Z M12.453,5.5757 C12.316,5.5427 12.15,5.5107 12,5.4777 L12,3.9997 C12,1.7937 10.206,-0.0003 8,-0.0003 C5.794,-0.0003 4,1.7937 4,3.9997 L4,5.4777 C3.85,5.5107 3.685,5.5427 3.547,5.5757 C2.641,5.7897 2,6.5927 2,7.5237 L2,12.5637 C2,13.4687 2.604,14.2747 3.482,14.4947 C4.482,14.7467 5.988,14.9997 8,14.9997 C10.012,14.9997 11.518,14.7467 12.518,14.4947 C13.396,14.2747 14,13.4687 14,12.5637 L14,7.5237 C14,6.5927 13.359,5.7897 12.453,5.5757 L12.453,5.5757 Z"/>
</svg>
