<svg width="16" height="16" fill="none" xmlns="http://www.w3.org/2000/svg">
  <path fill-rule="evenodd" clip-rule="evenodd" d="M10 5.139a16.292 16.292 0 00-2-.14c-.681 0-1.354.06-2 .14v-1.14c0-1.101.897-2 2-2s2 .899 2 2v1.14zm-1 6.86H7V9a1 1 0 112 0v3zm3.453-6.423c-.137-.033-.303-.065-.453-.098V4c0-2.206-1.794-4-4-4S4 1.794 4 4v1.478c-.15.033-.315.065-.453.098A2.002 2.002 0 002 7.524v5.04c0 .905.604 1.71 1.482 1.93 1 .253 2.506.506 4.518.506s3.518-.253 4.518-.505c.878-.22 1.482-1.026 1.482-1.931v-5.04c0-.931-.641-1.734-1.547-1.948z" fill="#000"/>
</svg>
