<svg xmlns="http://www.w3.org/2000/svg" width="16" height="16" viewBox="0 0 16 16">
  <path fill-rule="evenodd" d="M9,9 L9,12 L7,12 L7,9 C7,8.447 7.447,8 8,8 C8.553,8 9,8.447 9,9 L9,9 Z M8,13 C6.129,13 4.775,12.759 4,12.563 L4.008,7.521 C5.013,7.283 6.521,7 8,7 C9.479,7 10.987,7.283 12,7.523 L12.03,12.556 C11.225,12.759 9.871,13 8,13 L8,13 Z M6,4 C6,2.897 6.897,2 8,2 C9.103,2 10,2.897 10,4 L10,5.139 C9.354,5.059 8.682,5 8,5 C7.319,5 6.646,5.059 6,5.139 L6,4 Z M12.453,5.575 C12.316,5.543 12.15,5.511 12,5.478 L12,4 C12,1.794 10.206,0 8,0 C5.794,0 4,1.794 4,4 L4,5.478 C3.85,5.511 3.685,5.543 3.547,5.575 C2.641,5.79 2,6.593 2,7.523 L2,12.563 C2,13.469 2.604,14.274 3.482,14.495 C4.482,14.747 5.988,15 8,15 C10.012,15 11.518,14.747 12.518,14.495 C13.396,14.274 14,13.469 14,12.563 L14,7.523 C14,6.593 13.359,5.79 12.453,5.575 L12.453,5.575 Z"/>
</svg>
