<svg width="16" height="16" fill="none" xmlns="http://www.w3.org/2000/svg">
  <path fill-rule="evenodd" clip-rule="evenodd" d="M9 9v3H7V9a1 1 0 112 0zm-1 4c-1.871 0-3.225-.241-4-.437l.008-5.042C5.013 7.283 6.521 7 8 7s2.987.283 4 .523l.03 5.033C11.225 12.759 9.871 13 8 13zM6 4c0-1.103.897-2 2-2s2 .897 2 2v1.139A16.292 16.292 0 008 5c-.681 0-1.354.059-2 .139V4zm6.453 1.575c-.137-.032-.303-.064-.453-.097V4c0-2.206-1.794-4-4-4S4 1.794 4 4v1.478c-.15.033-.315.065-.453.097A2.004 2.004 0 002 7.523v5.04c0 .906.604 1.711 1.482 1.932 1 .252 2.506.505 4.518.505s3.518-.253 4.518-.505c.878-.221 1.482-1.026 1.482-1.932v-5.04c0-.93-.641-1.733-1.547-1.948z" fill="#000"/>
</svg>
