<svg xmlns="http://www.w3.org/2000/svg" width="32" height="32" viewBox="0 0 32 32">
  <path fill-rule="evenodd" d="M5,23 C5,23 9,25 16,25 C17.936,25 19.633,24.845 21.088,24.623 L8.869,12.404 C8.197,18.984 5,23 5,23 L5,23 Z M13,26 C13,27.657 14.343,29 16,29 C17.657,29 19,27.657 19,26 L16,26 L13,26 Z M27,23 C27,23 23,18 23,10 C23,6.134 19.866,3 16,3 C13.435,3 11.197,4.385 9.979,6.443 L26.68,23.145 C26.885,23.057 27,23 27,23 L27,23 Z M28.707,28.707 C28.512,28.902 28.256,29 28,29 C27.744,29 27.488,28.902 27.293,28.707 L3.293,4.707 C2.902,4.316 2.902,3.684 3.293,3.293 C3.684,2.902 4.316,2.902 4.707,3.293 L28.707,27.293 C29.098,27.684 29.098,28.316 28.707,28.707 L28.707,28.707 Z"/>
</svg>
