<svg xmlns="http://www.w3.org/2000/svg" width="32" height="32" viewBox="0 0 32 32">
  <path fill-rule="evenodd" d="M15,23 C11.358,23 8.611,22.102 6.965,21.36 C7.924,19.823 9.064,17.414 9.635,14.17 L7.866,12.401 C7.188,18.794 4,22 4,22 C4,22 8,25 15,25 C16.867,25 18.514,24.783 19.936,24.471 L18.215,22.75 C17.236,22.9 16.17,23 15,23 L15,23 Z M15,5 C17.757,5 20,7.243 20,10 C20,14.094 20.968,17.255 22.015,19.479 L25.098,22.563 C25.686,22.232 26,22 26,22 C26,22 22,18 22,10 C22,6.134 18.866,3 15,3 C12.435,3 10.197,4.385 8.979,6.443 L10.463,7.928 C11.253,6.205 12.984,5 15,5 L15,5 Z M27.707,27.293 L3.707,3.293 C3.316,2.902 2.684,2.902 2.293,3.293 C1.902,3.684 1.902,4.316 2.293,4.707 L26.293,28.707 C26.488,28.902 26.744,29 27,29 C27.256,29 27.512,28.902 27.707,28.707 C28.098,28.316 28.098,27.684 27.707,27.293 L27.707,27.293 Z M15,26 L18,26 C18,27.657 16.657,29 15,29 C13.343,29 12,27.657 12,26 L15,26 Z"/>
</svg>
