<svg width="24" height="24" fill="none" xmlns="http://www.w3.org/2000/svg">
  <path d="M21 17h-2v-2a1 1 0 10-2 0v2h-2a1 1 0 100 2h2v2a1 1 0 102 0v-2h2a1 1 0 100-2zm-9 3c-3.697 0-6.375-2.663-6.908-3.744C5.821 15.767 8.075 15 12 15c1.141 0 2.139.064 3 .167l1.221-1.845C15.008 13.117 13.591 13 12 13c-5.563 0-9 1.439-9 3 0 1.977 4 6 9 6 .96 0 1.882-.149 2.747-.402a4.939 4.939 0 01-.675-1.881A7.839 7.839 0 0112 20zM11 6c0 2.219.823 3 1 3 .177 0 1-.781 1-3 0-2-.486-2-1-2s-1 0-1 2zM9 6c0-2.904 1.136-4 3-4s3 1.096 3 4c0 3.202-1.426 5-3 5S9 9.202 9 6z" fill="#000"/>
</svg>
