<svg xmlns="http://www.w3.org/2000/svg" width="16" height="16" viewBox="0 0 16 16">
  <path fill-rule="evenodd" d="M13.852,5.47755827 C13.564,5.00555827 12.947,4.85955827 12.477,5.14755827 C12.007,5.43655827 11.858,6.05155827 12.147,6.52255827 C12.591,7.24555827 12.707,8.62555827 12.165,9.44955827 C11.861,9.91055827 11.989,10.5315583 12.45,10.8345583 C12.62,10.9475583 12.811,10.9995583 12.999,10.9995583 C13.324,10.9995583 13.644,10.8415583 13.835,10.5495583 C14.887,8.95155827 14.629,6.74355827 13.852,5.47755827 M11,2.99955827 L11,12.9995583 C11,13.3685583 10.797,13.7075583 10.472,13.8815583 C10.324,13.9605583 10.162,13.9995583 10,13.9995583 C9.806,13.9995583 9.612,13.9435583 9.445,13.8315583 L5.197,10.9995583 L4,10.9995583 C2.897,10.9995583 2,10.1025583 2,8.99955827 L2,6.99955827 C2,5.89755827 2.897,4.99955827 4,4.99955827 L5.197,4.99955827 L9.445,2.16755827 C9.751,1.96355827 10.147,1.94455827 10.472,2.11755827 C10.797,2.29155827 11,2.63055827 11,2.99955827"/>
</svg>
