<svg xmlns="http://www.w3.org/2000/svg" width="16" height="16" viewBox="0 0 16 16">
  <path fill-rule="evenodd" d="M13.835,10.5501 C14.887,8.9521 14.629,6.7441 13.852,5.4771 C13.564,5.0061 12.948,4.8591 12.477,5.1471 C12.007,5.4361 11.858,6.0511 12.147,6.5221 C12.591,7.2461 12.707,8.6261 12.165,9.4501 C11.861,9.9111 11.989,10.5311 12.45,10.8351 C12.62,10.9471 12.811,11.0001 12.999,11.0001 C13.324,11.0001 13.644,10.8421 13.835,10.5501 L13.835,10.5501 Z M4,7.0001 L4,9.0001 L5.5,9.0001 C5.697,9.0001 5.891,9.0581 6.055,9.1681 L9,11.1321 L9,4.8681 L6.055,6.8321 C5.891,6.9411 5.697,7.0001 5.5,7.0001 L4,7.0001 Z M10,14.0001 C9.806,14.0001 9.612,13.9431 9.445,13.8321 L5.197,11.0001 L4,11.0001 C2.897,11.0001 2,10.1021 2,9.0001 L2,7.0001 C2,5.8971 2.897,5.0001 4,5.0001 L5.197,5.0001 L9.445,2.1681 C9.751,1.9641 10.147,1.9441 10.472,2.1181 C10.797,2.2921 11,2.6311 11,3.0001 L11,13.0001 C11,13.3691 10.797,13.7081 10.472,13.8821 C10.324,13.9611 10.162,14.0001 10,14.0001 L10,14.0001 Z"/>
</svg>
