<svg width="24" height="24" fill="none" xmlns="http://www.w3.org/2000/svg">
  <path fill-rule="evenodd" clip-rule="evenodd" d="M22 3.353v11.674a.962.962 0 01-.385.766 1.002 1.002 0 01-.857.177c-1.988-.483-3.891-.485-5.758-.023v-2.01a13.552 13.552 0 015-.105V4.097c-2.327-.468-5.295.208-7 1.626v4.44c-.574-.604-1.247-1.2-2-1.587V5.747c-1.703-1.428-4.668-2.12-7-1.65V9.55c-.753.387-1.426.983-2 1.586V3.353c0-.419.275-.79.684-.923C5.66 1.463 9.55 2.181 12 4.033c2.45-1.852 6.34-2.57 9.316-1.603a.974.974 0 01.684.923zM10.895 18.697a1.002 1.002 0 01-1.342.447l-2-1A1.001 1.001 0 017 17.25v-4a1 1 0 112 0v3.382l1.447.724a1 1 0 01.448 1.342zM8 10a6 6 0 10.002 12.002A6 6 0 008 10z" fill="#000"/>
</svg>
