<svg width="16" height="16" fill="none" xmlns="http://www.w3.org/2000/svg">
  <path fill-rule="evenodd" clip-rule="evenodd" d="M11.684 6.73l-4.03 3.774a.994.994 0 01-1.39-.022l-2-2A.999.999 0 115.68 7.068l1.315 1.315 3.323-3.113a1 1 0 111.367 1.459zm2.926-2.402a3.833 3.833 0 00-2.938-2.938A17.35 17.35 0 008 1c-1.26 0-2.488.134-3.671.39A3.832 3.832 0 001.39 4.328 17.35 17.35 0 001 8c0 1.26.135 2.489.39 3.671a3.83 3.83 0 002.94 2.939c1.183.256 2.412.39 3.67.39 1.26 0 2.49-.134 3.673-.39a3.833 3.833 0 002.938-2.938C14.866 10.488 15 9.258 15 8c0-1.26-.134-2.489-.39-3.672z" fill="#000"/>
</svg>
