<svg width="24" height="24" fill="none" xmlns="http://www.w3.org/2000/svg">
  <path fill-rule="evenodd" clip-rule="evenodd" d="M10 18h4v-1h-4v1zm3 2h-2a1 1 0 01-1-1h4a1 1 0 01-1 1zm-3.357-9.284a.8.8 0 01.714-1.432l1.643.821 1.643-.821a.8.8 0 11.714 1.432l-1.557.778V15h-1.6v-3.506l-1.557-.778zM12 2C8.634 2 5 4.677 5 9c0 2.517 1.057 3.736 1.905 4.717C7.564 14.478 8 14.98 8 16v3c0 .505.138.974.358 1.392l.031.055c.067.121.139.239.222.348.009.013.02.023.029.035.155.199.332.376.531.531.033.026.063.055.097.08.07.05.145.091.22.135.081.049.163.095.249.136a3.097 3.097 0 00.537.189c.06.015.118.033.178.043.179.034.36.056.548.056h2c.188 0 .369-.022.548-.056.06-.01.118-.028.178-.043a3.097 3.097 0 00.537-.189 2.85 2.85 0 00.249-.136c.075-.044.15-.085.22-.135.035-.025.064-.054.097-.081.198-.154.376-.331.53-.529.01-.013.021-.023.03-.036.083-.11.155-.227.222-.347l.031-.056c.221-.418.358-.887.358-1.392v-3c0-1.02.436-1.522 1.095-2.283C17.943 12.736 19 11.517 19 9c0-4.323-3.634-7-7-7z" fill="#000"/>
</svg>
