<svg width="24" height="24" fill="none" xmlns="http://www.w3.org/2000/svg">
  <path fill-rule="evenodd" clip-rule="evenodd" d="M15.583 12.407c-.587.678-1.229 1.435-1.475 2.593H13v-3.382l1.447-.724a1 1 0 10-.894-1.789L12 9.882l-1.553-.777a1 1 0 10-.894 1.789l1.447.724V15H9.892c-.246-1.158-.888-1.915-1.475-2.593C7.657 11.53 7 10.77 7 9c0-2.99 2.585-5 5-5s5 2.01 5 5c0 1.77-.657 2.53-1.417 3.407zM13 20h-2a.99.99 0 01-.979-.9h3.958A.99.99 0 0113 20zm-3-2.1h4V17h-4v.9zM12 2C8.634 2 5 4.677 5 9c0 2.516 1.057 3.736 1.905 4.717C7.564 14.477 8 14.98 8 16v3c0 1.654 1.346 3 3 3h2c1.654 0 3-1.346 3-3v-3c0-1.02.436-1.523 1.095-2.283C17.943 12.737 19 11.517 19 9c0-4.323-3.634-7-7-7z" fill="#000"/>
</svg>
