<svg width="24" height="24" fill="none" xmlns="http://www.w3.org/2000/svg">
  <path d="M5 9.618l2.553 1.276.894-1.789-3.419-1.709c.069-.399.357-.73.754-.812C7.085 6.317 9.222 6 12 6s4.915.317 6.218.584a.994.994 0 01.782.977v.44h2v-.44a3 3 0 00-2.382-2.936C17.226 4.34 14.946 4 12 4s-5.226.34-6.618.625A3 3 0 003 7.561v7.994a3.01 3.01 0 002.17 2.883c.978.282 1.894.47 2.725.556l.21-1.988a14.21 14.21 0 01-2.383-.49.99.99 0 01-.722-.96V9.617zM15 18c2.206 0 4-1.795 4-4 0-2.206-1.794-4-4-4-2.205 0-4 1.794-4 4 0 2.205 1.795 4 4 4zm7 1.533c.669.587 1 .914 1 1.467a1 1 0 01-1 1c-.553 0-.812-.229-1.504-1a26.616 26.616 0 01-1.808-2.275A5.962 5.962 0 0115 20a6 6 0 116-6 5.97 5.97 0 01-1.292 3.712c.923.641 1.929 1.504 2.292 1.821z" fill="#000"/>
</svg>
