<svg xmlns="http://www.w3.org/2000/svg" width="24" height="24" viewBox="0 0 24 24">
  <path fill-rule="evenodd" d="M12,14 C10.897,14 10,13.103 10,12 C10,10.897 10.897,10 12,10 C13.103,10 14,10.897 14,12 C14,13.103 13.103,14 12,14 L12,14 Z M12,8 C9.791,8 8,9.791 8,12 C8,14.209 9.791,16 12,16 C14.209,16 16,14.209 16,12 C16,9.791 14.209,8 12,8 L12,8 Z M20,12.8 L19.935,12.8 C18.966,12.8 18.113,13.377 17.765,14.265 L17.68,14.471 C17.298,15.35 17.492,16.359 18.176,17.046 L18.222,17.091 L17.091,18.222 L17.044,18.175 C16.36,17.492 15.352,17.3 14.474,17.678 L14.271,17.763 C13.377,18.113 12.8,18.966 12.8,19.935 L12.8,20 L11.2,20 L11.2,19.935 C11.2,18.966 10.623,18.113 9.731,17.764 L9.529,17.68 C8.65,17.297 7.64,17.491 6.954,18.176 L6.909,18.222 L5.778,17.091 L5.825,17.044 C6.508,16.359 6.702,15.35 6.322,14.474 L6.237,14.271 C5.887,13.377 5.034,12.8 4.065,12.8 L4,12.8 L4,11.2 L4.065,11.2 C5.035,11.2 5.888,10.623 6.235,9.735 L6.32,9.529 C6.702,8.65 6.508,7.64 5.824,6.956 L5.777,6.909 L6.909,5.778 L6.955,5.824 C7.641,6.508 8.651,6.703 9.531,6.32 L9.73,6.237 C10.623,5.886 11.2,5.034 11.2,4.065 L11.2,4 L12.8,4 L12.8,4.065 C12.8,5.034 13.377,5.886 14.269,6.237 L14.471,6.32 C15.349,6.702 16.359,6.508 17.045,5.824 L17.091,5.778 L18.223,6.909 L18.175,6.956 C17.492,7.64 17.298,8.65 17.678,9.526 L17.763,9.729 C18.112,10.623 18.965,11.2 19.935,11.2 L20,11.2 L20,12.8 Z M21,9.2 L19.935,9.2 C19.796,9.2 19.672,9.119 19.622,8.992 L19.514,8.732 C19.461,8.611 19.491,8.469 19.59,8.37 L20.344,7.616 C20.531,7.428 20.637,7.174 20.637,6.909 C20.637,6.644 20.531,6.389 20.344,6.202 L17.798,3.656 C17.423,3.281 16.759,3.283 16.384,3.656 L15.631,4.409 C15.53,4.508 15.39,4.539 15.27,4.487 C15.182,4.448 15.094,4.412 15.002,4.376 C14.881,4.329 14.8,4.204 14.8,4.065 L14.8,3 C14.8,2.448 14.353,2 13.8,2 L10.2,2 C9.647,2 9.2,2.448 9.2,3 L9.2,4.065 C9.2,4.204 9.119,4.329 8.997,4.376 C8.906,4.412 8.818,4.448 8.732,4.486 C8.61,4.539 8.47,4.509 8.369,4.41 L7.616,3.656 C7.429,3.469 7.175,3.363 6.909,3.363 C6.644,3.363 6.39,3.469 6.202,3.656 L3.656,6.202 C3.469,6.389 3.363,6.644 3.363,6.909 C3.363,7.174 3.469,7.428 3.656,7.616 L4.409,8.369 C4.509,8.469 4.539,8.611 4.484,8.735 L4.376,8.999 C4.328,9.119 4.204,9.2 4.065,9.2 L3,9.2 C2.447,9.2 2,9.648 2,10.2 L2,13.8 C2,14.353 2.447,14.8 3,14.8 L4.065,14.8 C4.204,14.8 4.328,14.881 4.378,15.007 L4.486,15.268 C4.539,15.389 4.509,15.532 4.41,15.63 L3.656,16.383 C3.469,16.57 3.363,16.825 3.363,17.091 C3.363,17.355 3.469,17.61 3.656,17.798 L6.202,20.344 C6.39,20.531 6.644,20.637 6.909,20.637 C7.175,20.637 7.43,20.531 7.617,20.344 L8.368,19.591 C8.469,19.492 8.612,19.46 8.735,19.516 L8.999,19.624 C9.119,19.672 9.2,19.796 9.2,19.935 L9.2,21 C9.2,21.553 9.647,22 10.2,22 L13.8,22 C14.353,22 14.8,21.553 14.8,21 L14.8,19.935 C14.8,19.796 14.881,19.672 15.003,19.623 L15.268,19.514 C15.39,19.461 15.533,19.491 15.63,19.59 L16.383,20.344 C16.57,20.531 16.825,20.637 17.091,20.637 C17.356,20.637 17.61,20.531 17.798,20.344 L20.344,17.798 C20.531,17.61 20.637,17.355 20.637,17.091 C20.637,16.825 20.531,16.57 20.344,16.383 L19.591,15.632 C19.491,15.532 19.461,15.389 19.516,15.265 L19.624,15.001 C19.672,14.881 19.796,14.8 19.935,14.8 L21,14.8 C21.553,14.8 22,14.353 22,13.8 L22,10.2 C22,9.648 21.553,9.2 21,9.2 L21,9.2 Z"/>
</svg>
