<svg width="24" height="24" fill="none" xmlns="http://www.w3.org/2000/svg">
  <path d="M8.09 12.318l-3.723 3.86-.012-.047A24.59 24.59 0 014 12c0-.868.066-1.747.162-2.629l3.928 2.946zM4.566 7.183c.397-.933 1.226-1.62 2.235-1.785a32.812 32.812 0 015.16-.397 33.098 33.098 0 015.16.384 3.035 3.035 0 012.31 1.8c-.009.007-.022.008-.03.015L12 12.75 4.6 7.2c-.01-.008-.025-.009-.035-.017zm5.136 6.345L12 15.25l7.837-5.879c.096.882.163 1.76.163 2.629 0 .33-.029.665-.044 1h2c.015-.335.044-.67.044-1 0-1.473-.13-2.977-.384-4.468a5.038 5.038 0 00-4.18-4.122A35.006 35.006 0 0012 3.001c-1.889 0-3.78.14-5.519.422-2.089.34-3.735 1.991-4.098 4.11A26.684 26.684 0 002 12.001c0 1.472.13 2.975.383 4.466a5.038 5.038 0 004.181 4.122A34.83 34.83 0 0012 21v-2.017a32.203 32.203 0 01-5.122-.37 3.042 3.042 0 01-1.448-.657l4.272-4.43zm12.005 3.18a1 1 0 00-1.414-1.414L18.5 17.087l-1.793-1.793a.999.999 0 10-1.414 1.413l1.793 1.793-1.793 1.794a.999.999 0 101.414 1.413l1.793-1.793 1.793 1.793a.997.997 0 001.414 0 1 1 0 000-1.413L19.914 18.5l1.793-1.793z" fill="#000"/>
</svg>
