<svg width="24" height="24" fill="none" xmlns="http://www.w3.org/2000/svg">
  <path d="M11 21.979v-1.994c-2.667-.076-4.38-.486-5.439-1.546C4.374 17.252 4 15.251 4 12c0-.814.023-1.55.077-2.213.054-.664.138-1.257.26-1.786h15.326c.121.529.206 1.122.26 1.786.03.379.049.787.061 1.213h1.995c-.103-3.236-.722-5.44-2.13-6.847-.726-.727-1.67-1.237-2.849-1.583V4a1 1 0 11-2 0V2.172A24.231 24.231 0 0012 2a24.22 24.22 0 00-3 .17V4a1 1 0 11-2 0V2.569c-1.179.346-2.123.856-2.849 1.583C2.601 5.702 2 8.202 2 11.999c0 3.8.601 6.3 2.151 7.85 1.409 1.407 3.612 2.026 6.849 2.13zM6.199 11.203a1.418 1.418 0 112.835-.001 1.418 1.418 0 01-2.835 0zM15 18c1.654 0 3-1.346 3-3 0-1.655-1.346-3-3-3s-3 1.345-3 3c0 1.654 1.346 3 3 3zm6.631 2.241c.239.233.365.474.37.759a.988.988 0 01-1 1c-.215-.002-.507-.113-.76-.37-.862-.87-1.696-1.951-2.222-2.671A4.946 4.946 0 0115 19.998c-2.757 0-5-2.242-5-5 0-2.756 2.243-5 5-5s5 2.244 5 5c0 1.143-.4 2.184-1.047 3.027.731.543 1.833 1.396 2.678 2.215z" fill="#000"/>
</svg>
