<svg xmlns="http://www.w3.org/2000/svg" width="24" height="24" viewBox="0 0 24 24">
  <path fill-rule="evenodd" d="M8.502,12.1348 C8.194,11.9558 7.814,11.9548 7.504,12.1318 L4.234,13.9997958 L3,13.9997958 C1.898,13.9997958 1,14.8978 1,15.9997958 L1,17.9997958 C1,19.1028 1.898,19.9997958 3,19.9997958 L4.234,19.9997958 L7.504,21.8678 C7.657,21.9558 7.829,21.9997958 8,21.9997958 C8.174,21.9997958 8.347,21.9548 8.502,21.8648 C8.811,21.6858 9,21.3568 9,20.9997958 L9,12.9997958 C9,12.6438 8.811,12.3148 8.502,12.1348 M16,7.9998 L11,7.9998 C10.447,7.9998 10,8.4468 10,8.9998 C10,9.5528 10.447,9.9998 11,9.9998 L16,9.9998 C16.553,9.9998 17,9.5528 17,8.9998 C17,8.4468 16.553,7.9998 16,7.9998 M11,6.9998 L16,6.9998 C16.553,6.9998 17,6.5528 17,5.9998 C17,5.4478 16.553,4.9998 16,4.9998 L11,4.9998 C10.447,4.9998 10,5.4478 10,5.9998 C10,6.5528 10.447,6.9998 11,6.9998 M20,1.9998 L7,1.9998 C6.447,1.9998 6,2.4468 6,2.9998 L6,9.9998 L8,9.9998 L8,3.9998 L19,3.9998 L19,19.9998 L17,19.9998 L17,21.9998 L20,21.9998 C20.553,21.9998 21,21.5528 21,20.9998 L21,2.9998 C21,2.4468 20.553,1.9998 20,1.9998 M15.707,15.7068 L14.414,16.9998 L15.707,18.2928 C16.098,18.6838 16.098,19.3168 15.707,19.7068 C15.512,19.9028 15.256,19.9998 15,19.9998 C14.744,19.9998 14.488,19.9028 14.293,19.7068 L13,18.4138 L11.707,19.7068 C11.512,19.9028 11.256,19.9998 11,19.9998 C10.744,19.9998 10.488,19.9028 10.293,19.7068 C9.902,19.3168 9.902,18.6838 10.293,18.2928 L11.586,16.9998 L10.293,15.7068 C9.902,15.3168 9.902,14.6838 10.293,14.2928 C10.684,13.9028 11.316,13.9028 11.707,14.2928 L13,15.5858 L14.293,14.2928 C14.684,13.9028 15.316,13.9028 15.707,14.2928 C16.098,14.6838 16.098,15.3168 15.707,15.7068"/>
</svg>
