<svg xmlns="http://www.w3.org/2000/svg" width="24" height="24" viewBox="0 0 24 24">
  <path fill-rule="evenodd" d="M7,14.7236 L4.996,15.8686 C4.845,15.9536 4.674,15.9996 4.5,15.9996 L3,15.9996 L3,17.9996 L4.5,17.9996 C4.674,17.9996 4.845,18.0456 4.996,18.1316 L7,19.2766 L7,14.7236 Z M9,12.9995958 L9,20.9995958 C9,21.3566 8.811,21.6856 8.502,21.8656 C8.347,21.9546 8.174,21.9995958 8,21.9995958 C7.829,21.9995958 7.657,21.9556 7.504,21.8686 L4.234,19.9995958 L3,19.9995958 C1.897,19.9995958 1,19.1026 1,17.9995958 L1,15.9995958 C1,14.8976 1.897,13.9995958 3,13.9995958 L4.234,13.9995958 L7.504,12.1316 C7.813,11.9546 8.194,11.9556 8.502,12.1346 C8.811,12.3146 9,12.6436 9,12.9995958 L9,12.9995958 Z M16,7.9996 L11,7.9996 C10.447,7.9996 10,8.4476 10,8.9996 C10,9.5526 10.447,9.9996 11,9.9996 L16,9.9996 C16.553,9.9996 17,9.5526 17,8.9996 C17,8.4476 16.553,7.9996 16,7.9996 L16,7.9996 Z M11,6.9996 L16,6.9996 C16.553,6.9996 17,6.5526 17,5.9996 C17,5.4476 16.553,4.9996 16,4.9996 L11,4.9996 C10.447,4.9996 10,5.4476 10,5.9996 C10,6.5526 10.447,6.9996 11,6.9996 L11,6.9996 Z M20,1.9996 L7,1.9996 C6.447,1.9996 6,2.4476 6,2.9996 L6,9.9996 L8,9.9996 L8,3.9996 L19,3.9996 L19,19.9996 L17,19.9996 L17,21.9996 L20,21.9996 C20.553,21.9996 21,21.5526 21,20.9996 L21,2.9996 C21,2.4476 20.553,1.9996 20,1.9996 L20,1.9996 Z M15.707,15.7066 L14.414,16.9996 L15.707,18.2926 C16.098,18.6836 16.098,19.3166 15.707,19.7066 C15.512,19.9026 15.256,19.9996 15,19.9996 C14.744,19.9996 14.488,19.9026 14.293,19.7066 L13,18.4136 L11.707,19.7066 C11.512,19.9026 11.256,19.9996 11,19.9996 C10.744,19.9996 10.488,19.9026 10.293,19.7066 C9.902,19.3166 9.902,18.6836 10.293,18.2926 L11.586,16.9996 L10.293,15.7066 C9.902,15.3166 9.902,14.6836 10.293,14.2926 C10.684,13.9026 11.316,13.9026 11.707,14.2926 L13,15.5856 L14.293,14.2926 C14.684,13.9026 15.316,13.9026 15.707,14.2926 C16.098,14.6836 16.098,15.3166 15.707,15.7066 L15.707,15.7066 Z"/>
</svg>
