<svg width="16" height="16" fill="none" xmlns="http://www.w3.org/2000/svg">
  <path d="M6 5l5 3-5 3V5zm2-5c1.439 0 2.844.154 4.196.446a4.383 4.383 0 013.358 3.358A19.86 19.86 0 0116 8c0 1.44-.154 2.844-.446 4.196a4.383 4.383 0 01-3.358 3.358A19.867 19.867 0 018 16a19.86 19.86 0 01-4.196-.446 4.381 4.381 0 01-3.358-3.358A19.867 19.867 0 010 8c0-1.44.154-2.844.446-4.197A4.38 4.38 0 013.804.446 19.86 19.86 0 018 0zm0 2a17.9 17.9 0 00-3.773.401 2.387 2.387 0 00-1.826 1.825 17.902 17.902 0 000 7.547 2.388 2.388 0 001.825 1.826 17.916 17.916 0 007.547 0 2.388 2.388 0 001.826-1.826 17.9 17.9 0 000-7.546 2.388 2.388 0 00-1.826-1.826C10.543 2.135 9.273 2 8 2z" fill="#000"/>
</svg>
