<svg xmlns="http://www.w3.org/2000/svg" width="16" height="16" viewBox="0 0 16 16">
  <path fill-rule="evenodd" d="M14.5605157,3.561 C15.1464948,2.975 15.1464948,2.026 14.5605157,1.44 C13.9745366,0.854 13.0255705,0.854 12.4395914,1.44 L11.4396272,2.44 L13.5605514,4.561 L14.5605157,3.561 Z M4.99985715,11 L8.06074783,10.061 L12.5605871,5.561 L10.4396629,3.44 L5.93982358,7.94 L4.99985715,11 Z M12.9995714,8 L14.9995,8 L14.9995,11 C14.9995,13.207 13.2055641,15 10.9996429,15 L4.99985715,15 C2.7949359,15 1,13.207 1,11 L1,5 C1,2.794 2.7949359,1 4.99985715,1 L7.99975001,1 L7.99975001,3 L4.99985715,3 C3.89689654,3 2.99992857,3.898 2.99992857,5 L2.99992857,11 C2.99992857,12.103 3.89689654,13 4.99985715,13 L10.9996429,13 C12.1026035,13 12.9995714,12.103 12.9995714,11 L12.9995714,8 Z"/>
</svg>
