<svg width="16" height="16" fill="none" xmlns="http://www.w3.org/2000/svg">
  <path fill-rule="evenodd" clip-rule="evenodd" d="M5.252 10.709a.997.997 0 001.414 0l3.96-3.96a.999.999 0 10-1.414-1.414l-3.96 3.96a.999.999 0 000 1.414zm8.584-8.584c-1.5-1.5-4.115-1.5-5.614 0L6.243 4.104 7.656 5.52l1.98-1.981c.744-.744 2.042-.745 2.786 0 .372.372.577.866.577 1.393 0 .526-.205 1.021-.576 1.392l-1.98 1.98 1.413 1.416 1.98-1.981A3.944 3.944 0 0015 4.932a3.94 3.94 0 00-1.163-2.807zm-5.493 8.279l1.412 1.416-1.978 1.979a3.945 3.945 0 01-2.808 1.163 3.944 3.944 0 01-2.807-1.163A3.94 3.94 0 011 10.992c0-1.06.412-2.057 1.162-2.807l1.981-1.981L5.555 7.62 3.576 9.6A1.953 1.953 0 003 10.992c0 .527.204 1.021.576 1.393.744.744 2.042.744 2.786 0l1.981-1.981z" fill="#000"/>
</svg>
