<svg xmlns="http://www.w3.org/2000/svg" width="16" height="16" viewBox="0 0 16 16">
  <path fill-rule="evenodd" d="M5.2524,10.709 C5.4474,10.904 5.7034,11.002 5.9594,11.002 C6.2154,11.002 6.4714,10.904 6.6664,10.709 L10.6264,6.749 C11.0174,6.358 11.0174,5.726 10.6264,5.335 C10.2354,4.944 9.6034,4.944 9.2124,5.335 L5.2524,9.295 C4.8614,9.686 4.8614,10.318 5.2524,10.709 L5.2524,10.709 Z M13.8364,2.125 C12.3364,0.625 9.7214,0.625 8.2224,2.125 L6.2434,4.104 L7.6564,5.52 L9.6364,3.539 C10.3804,2.795 11.6784,2.794 12.4224,3.539 C12.7944,3.911 12.9994,4.405 12.9994,4.932 C12.9994,5.458 12.7944,5.953 12.4234,6.324 L10.4434,8.304 L11.8564,9.72 L13.8364,7.739 C14.5864,6.989 14.9994,5.992 14.9994,4.932 C14.9994,3.871 14.5864,2.874 13.8364,2.125 L13.8364,2.125 Z M8.3434,10.404 L9.7554,11.82 L7.7774,13.799 C7.0274,14.549 6.0304,14.962 4.9694,14.962 C3.9094,14.962 2.9124,14.549 2.1624,13.799 C1.4124,13.05 1.0004,12.053 1.0004,10.992 C1.0004,9.932 1.4124,8.935 2.1624,8.185 L4.1434,6.204 L5.5554,7.62 L3.5764,9.6 C3.2044,9.971 3.0004,10.466 3.0004,10.992 C3.0004,11.519 3.2044,12.013 3.5764,12.385 C4.3204,13.129 5.6184,13.129 6.3624,12.385 L8.3434,10.404 Z"/>
</svg>
