<svg xmlns="http://www.w3.org/2000/svg" width="24" height="24" viewBox="0 0 24 24">
  <path fill-rule="evenodd" d="M6.00001859,16 C6.36000781,16 6.71099915,16.0385202 7.04916296,16.1116193 C7.46968331,16.2025284 7.79751071,16.530396 7.88841896,16.9508831 C7.96151737,17.2890128 8,17.6400446 8,18.0000372 C8,18.3600669 7.96151737,18.7110615 7.88841896,19.0491913 C7.79751071,19.4696784 7.46964613,19.7975832 7.04908859,19.8884551 C6.71096197,19.961517 6.36000781,20 6.00001859,20 C5.64002937,20 5.28900085,19.961517 4.95087423,19.8883807 C4.53039105,19.7974716 4.20252647,19.469604 4.11161822,19.0491169 C4.03851981,18.7109872 4,18.3599926 4,17.9999628 C4,17.6399703 4.03851981,17.2889756 4.11161822,16.9508831 C4.20252647,16.530396 4.53039105,16.2025284 4.95087423,16.1116193 C5.28900085,16.0385202 5.64002937,16 6.00001859,16 Z M12.0000186,16 C12.3600078,16 12.7109992,16.0385202 13.049163,16.1116193 C13.4696833,16.2025284 13.7975107,16.530396 13.888419,16.9508831 C13.9615174,17.2890128 14,17.6400446 14,18.0000372 C14,18.3600669 13.9615174,18.7110615 13.888419,19.0491913 C13.7975107,19.4696784 13.4696461,19.7975832 13.0490886,19.8884551 C12.710962,19.961517 12.3600078,20 12.0000186,20 C11.6400294,20 11.2890008,19.961517 10.9508742,19.8883807 C10.5303911,19.7974716 10.2025265,19.469604 10.1116182,19.0491169 C10.0385198,18.7109872 10,18.3599926 10,17.9999628 C10,17.6399703 10.0385198,17.2889756 10.1116182,16.9508831 C10.2025265,16.530396 10.5303911,16.2025284 10.9508742,16.1116193 C11.2890008,16.0385202 11.6400294,16 12.0000186,16 Z M18.0000186,16 C18.3600078,16 18.7109992,16.0385202 19.049163,16.1116193 C19.4696833,16.2025284 19.7975107,16.530396 19.888419,16.9508831 C19.9615174,17.2890128 20,17.6400446 20,18.0000372 C20,18.3600669 19.9615174,18.7110615 19.888419,19.0491913 C19.7975107,19.4696784 19.4696461,19.7975832 19.0490886,19.8884551 C18.710962,19.961517 18.3600078,20 18.0000186,20 C17.6400294,20 17.2890008,19.961517 16.9508742,19.8883807 C16.5303911,19.7974716 16.2025265,19.469604 16.1116182,19.0491169 C16.0385198,18.7109872 16,18.3599926 16,17.9999628 C16,17.6399703 16.0385198,17.2889756 16.1116182,16.9508831 C16.2025265,16.530396 16.5303911,16.2025284 16.9508742,16.1116193 C17.2890008,16.0385202 17.6400294,16 18.0000186,16 Z M6.00001859,10 C6.36000781,10 6.71099915,10.0385202 7.04916296,10.1116193 C7.46968331,10.2025284 7.79751071,10.530396 7.88841896,10.9508831 C7.96151737,11.2890128 8,11.6400446 8,12.0000372 C8,12.3600669 7.96151737,12.7110615 7.88841896,13.0491913 C7.79751071,13.4696784 7.46964613,13.7975832 7.04908859,13.8884551 C6.71096197,13.961517 6.36000781,14 6.00001859,14 C5.64002937,14 5.28900085,13.961517 4.95087423,13.8883807 C4.53039105,13.7974716 4.20252647,13.469604 4.11161822,13.0491169 C4.03851981,12.7109872 4,12.3599926 4,11.9999628 C4,11.6399703 4.03851981,11.2889756 4.11161822,10.9508831 C4.20252647,10.530396 4.53039105,10.2025284 4.95087423,10.1116193 C5.28900085,10.0385202 5.64002937,10 6.00001859,10 Z M12.0000186,10 C12.3600078,10 12.7109992,10.0385202 13.049163,10.1116193 C13.4696833,10.2025284 13.7975107,10.530396 13.888419,10.9508831 C13.9615174,11.2890128 14,11.6400446 14,12.0000372 C14,12.3600669 13.9615174,12.7110615 13.888419,13.0491913 C13.7975107,13.4696784 13.4696461,13.7975832 13.0490886,13.8884551 C12.710962,13.961517 12.3600078,14 12.0000186,14 C11.6400294,14 11.2890008,13.961517 10.9508742,13.8883807 C10.5303911,13.7974716 10.2025265,13.469604 10.1116182,13.0491169 C10.0385198,12.7109872 10,12.3599926 10,11.9999628 C10,11.6399703 10.0385198,11.2889756 10.1116182,10.9508831 C10.2025265,10.530396 10.5303911,10.2025284 10.9508742,10.1116193 C11.2890008,10.0385202 11.6400294,10 12.0000186,10 Z M18.0000186,10 C18.3600078,10 18.7109992,10.0385202 19.049163,10.1116193 C19.4696833,10.2025284 19.7975107,10.530396 19.888419,10.9508831 C19.9615174,11.2890128 20,11.6400446 20,12.0000372 C20,12.3600669 19.9615174,12.7110615 19.888419,13.0491913 C19.7975107,13.4696784 19.4696461,13.7975832 19.0490886,13.8884551 C18.710962,13.961517 18.3600078,14 18.0000186,14 C17.6400294,14 17.2890008,13.961517 16.9508742,13.8883807 C16.5303911,13.7974716 16.2025265,13.469604 16.1116182,13.0491169 C16.0385198,12.7109872 16,12.3599926 16,11.9999628 C16,11.6399703 16.0385198,11.2889756 16.1116182,10.9508831 C16.2025265,10.530396 16.5303911,10.2025284 16.9508742,10.1116193 C17.2890008,10.0385202 17.6400294,10 18.0000186,10 Z M6.00001859,4 C6.36000781,4 6.71099915,4.03852017 7.04916296,4.11161926 C7.46968331,4.20252835 7.79751071,4.53039598 7.88841896,4.95088306 C7.96151737,5.28901283 8,5.64004462 8,6.00003718 C8,6.36006693 7.96151737,6.71106154 7.88841896,7.0491913 C7.79751071,7.46967838 7.46964613,7.79758319 7.04908859,7.8884551 C6.71096197,7.96151701 6.36000781,8 6.00001859,8 C5.64002937,8 5.28900085,7.96151701 4.95087423,7.88838074 C4.53039105,7.79747165 4.20252647,7.46960402 4.11161822,7.04911694 C4.03851981,6.71098717 4,6.35999256 4,5.99996282 C4,5.63997025 4.03851981,5.28897565 4.11161822,4.95088306 C4.20252647,4.53039598 4.53039105,4.20252835 4.95087423,4.11161926 C5.28900085,4.03852017 5.64002937,4 6.00001859,4 Z M12.0000186,4 C12.3600078,4 12.7109992,4.03852017 13.049163,4.11161926 C13.4696833,4.20252835 13.7975107,4.53039598 13.888419,4.95088306 C13.9615174,5.28901283 14,5.64004462 14,6.00003718 C14,6.36006693 13.9615174,6.71106154 13.888419,7.0491913 C13.7975107,7.46967838 13.4696461,7.79758319 13.0490886,7.8884551 C12.710962,7.96151701 12.3600078,8 12.0000186,8 C11.6400294,8 11.2890008,7.96151701 10.9508742,7.88838074 C10.5303911,7.79747165 10.2025265,7.46960402 10.1116182,7.04911694 C10.0385198,6.71098717 10,6.35999256 10,5.99996282 C10,5.63997025 10.0385198,5.28897565 10.1116182,4.95088306 C10.2025265,4.53039598 10.5303911,4.20252835 10.9508742,4.11161926 C11.2890008,4.03852017 11.6400294,4 12.0000186,4 Z M18.0000186,4 C18.3600078,4 18.7109992,4.03852017 19.049163,4.11161926 C19.4696833,4.20252835 19.7975107,4.53039598 19.888419,4.95088306 C19.9615174,5.28901283 20,5.64004462 20,6.00003718 C20,6.36006693 19.9615174,6.71106154 19.888419,7.0491913 C19.7975107,7.46967838 19.4696461,7.79758319 19.0490886,7.8884551 C18.710962,7.96151701 18.3600078,8 18.0000186,8 C17.6400294,8 17.2890008,7.96151701 16.9508742,7.88838074 C16.5303911,7.79747165 16.2025265,7.46960402 16.1116182,7.04911694 C16.0385198,6.71098717 16,6.35999256 16,5.99996282 C16,5.63997025 16.0385198,5.28897565 16.1116182,4.95088306 C16.2025265,4.53039598 16.5303911,4.20252835 16.9508742,4.11161926 C17.2890008,4.03852017 17.6400294,4 18.0000186,4 Z"/>
</svg>
