<svg width="24" height="24" fill="none" xmlns="http://www.w3.org/2000/svg">
  <path fill-rule="evenodd" clip-rule="evenodd" d="M19 11a1 1 0 00-1-1h-3a1 1 0 100 2h3a1 1 0 001-1zm0 4a1 1 0 00-1-1h-3a1 1 0 100 2h3a1 1 0 001-1zm-6-2a4 4 0 10-8 0 4 4 0 008 0zm9-2.579v5.158a3.984 3.984 0 01-3 3.859V21a1 1 0 11-2 0v-1.279A49.318 49.318 0 0112 20c-1.737 0-3.473-.121-5-.279V21a1 1 0 11-2 0v-1.562a3.984 3.984 0 01-3-3.859v-5.158a3.994 3.994 0 013.487-3.968C7.315 6.22 9.657 6 12 6h.014L6.641 3.934a1.002 1.002 0 01-.575-1.293 1.003 1.003 0 011.293-.575l11.748 4.519A3.988 3.988 0 0122 10.421zM11 13c0 1.103-.897 2-2 2s-2-.897-2-2 .897-2 2-2 2 .897 2 2z" fill="#000"/>
</svg>
