<svg xmlns="http://www.w3.org/2000/svg" width="24" height="24" viewBox="0 0 24 24">
  <path fill-rule="evenodd" d="M19,10.9999817 C19,10.4469817 18.553,9.99998168 18,9.99998168 L15,9.99998168 C14.447,9.99998168 14,10.4469817 14,10.9999817 C14,11.5529817 14.447,11.9999817 15,11.9999817 L18,11.9999817 C18.553,11.9999817 19,11.5529817 19,10.9999817 M19,14.9999817 C19,14.4469817 18.553,13.9999817 18,13.9999817 L15,13.9999817 C14.447,13.9999817 14,14.4469817 14,14.9999817 C14,15.5529817 14.447,15.9999817 15,15.9999817 L18,15.9999817 C18.553,15.9999817 19,15.5529817 19,14.9999817 M13,12.9999817 C13,10.7909817 11.209,8.99998168 9,8.99998168 C6.791,8.99998168 5,10.7909817 5,12.9999817 C5,15.2089817 6.791,16.9999817 9,16.9999817 C11.209,16.9999817 13,15.2089817 13,12.9999817 M22,10.4209817 L22,15.5789817 C22,17.4229817 20.744,18.9899817 19,19.4379817 L19,20.9999817 C19,21.5529817 18.553,21.9999817 18,21.9999817 C17.447,21.9999817 17,21.5529817 17,20.9999817 L17,19.7209817 C15.473,19.8789817 13.737,19.9999817 12,19.9999817 C10.263,19.9999817 8.527,19.8789817 7,19.7209817 L7,20.9999817 C7,21.5529817 6.553,21.9999817 6,21.9999817 C5.447,21.9999817 5,21.5529817 5,20.9999817 L5,19.4379817 C3.256,18.9899817 2,17.4229817 2,15.5789817 L2,10.4209817 C2,8.40698168 3.49,6.70798168 5.487,6.45298168 C7.315,6.21998168 9.657,5.99998168 12,5.99998168 L12.014,5.99998168 L6.641,3.93398168 C6.126,3.73498168 5.868,3.15598168 6.066,2.64098168 C6.265,2.12498168 6.843,1.86998168 7.359,2.06598168 L19.107,6.58498168 C20.797,7.06898168 22,8.61398168 22,10.4209817 M11,12.9999817 C11,14.1029817 10.103,14.9999817 9,14.9999817 C7.897,14.9999817 7,14.1029817 7,12.9999817 C7,11.8969817 7.897,10.9999817 9,10.9999817 C10.103,10.9999817 11,11.8969817 11,12.9999817"/>
</svg>
