<svg width="24" height="24" fill="none" xmlns="http://www.w3.org/2000/svg">
  <path fill-rule="evenodd" clip-rule="evenodd" d="M18 15a1 1 0 01-1 1h-3a1 1 0 110-2h3a1 1 0 011 1zm0-4a1 1 0 01-1 1h-3a1 1 0 110-2h3a1 1 0 011 1zm-6 2a3 3 0 11-6 0 3 3 0 016 0zm8 2.579a2 2 0 01-1.74 1.984c-2.271.291-4.377.437-6.26.437s-3.989-.146-6.26-.437A2 2 0 014 15.579v-5.158a2 2 0 011.74-1.984C8.011 8.146 10.117 8 12 8s3.989.146 6.26.437c.072.009.14.03.21.046l.276.107c.025.01.051.007.076.014A1.998 1.998 0 0120 10.421v5.158zm-.893-8.994L7.359 2.066a1.003 1.003 0 00-1.293.575c-.198.515.06 1.094.575 1.293L12.014 6H12c-2.343 0-4.685.22-6.513.453A3.994 3.994 0 002 10.421v5.158a3.984 3.984 0 003 3.859V21a1 1 0 102 0v-1.279c1.527.158 3.263.279 5 .279s3.473-.121 5-.279V21a1 1 0 102 0v-1.562a3.984 3.984 0 003-3.859v-5.158a3.988 3.988 0 00-2.893-3.836z" fill="#000"/>
</svg>
