<svg width="16" height="16" fill="none" xmlns="http://www.w3.org/2000/svg">
  <path fill-rule="evenodd" clip-rule="evenodd" d="M11.5 8.5a3.5 3.5 0 10-7 0 3.5 3.5 0 007 0zM16 5.505v6.875c0 .965-.687 1.788-1.636 1.967C12.83 14.636 10.415 15 8 15s-4.83-.364-6.364-.653A2.002 2.002 0 010 12.38V5.505c0-.906.605-1.696 1.48-1.932A27.607 27.607 0 014 3l.724-1.447A.998.998 0 015.618 1h4.764c.379 0 .725.214.894.553L12 3c.818.136 1.758.367 2.52.573A1.998 1.998 0 0116 5.505zM9.5 8.5c0 .827-.673 1.5-1.5 1.5s-1.5-.673-1.5-1.5S7.173 7 8 7s1.5.673 1.5 1.5z" fill="#000"/>
</svg>
