<svg width="16" height="16" fill="none" xmlns="http://www.w3.org/2000/svg">
  <path fill-rule="evenodd" clip-rule="evenodd" d="M8 10c-.827 0-1.5-.673-1.5-1.5S7.173 7 8 7s1.5.673 1.5 1.5S8.827 10 8 10zm0-5a3.5 3.5 0 100 7 3.5 3.5 0 000-7zm5.994 7.381C12.495 12.663 10.237 13 8 13c-2.237 0-4.495-.337-6-.62l.001-6.876a25.566 25.566 0 012.327-.531l1.005-.167.456-.911L6.236 3h3.528l.447.895.456.911 1.005.167c.613.102 1.418.286 2.328.532l-.006 6.876zm.526-8.808A27.607 27.607 0 0012 3l-.724-1.447A.998.998 0 0010.382 1H5.618a.998.998 0 00-.894.553L4 3c-.818.136-1.758.367-2.52.573A1.998 1.998 0 000 5.505v6.875c0 .965.688 1.788 1.636 1.967C3.17 14.636 5.585 15 8 15s4.83-.364 6.364-.653A2.003 2.003 0 0016 12.38V5.505c0-.906-.605-1.696-1.48-1.932z" fill="#000"/>
</svg>
