<svg xmlns="http://www.w3.org/2000/svg" width="16" height="16" viewBox="0 0 16 16">
  <path fill-rule="evenodd" d="M8,10 C7.173,10 6.5,9.327 6.5,8.5 C6.5,7.673 7.173,7 8,7 C8.827,7 9.5,7.673 9.5,8.5 C9.5,9.327 8.827,10 8,10 L8,10 Z M8,5 C6.067,5 4.5,6.567 4.5,8.5 C4.5,10.433 6.067,12 8,12 C9.933,12 11.5,10.433 11.5,8.5 C11.5,6.567 9.933,5 8,5 L8,5 Z M13.994,12.381 C12.495,12.663 10.237,13 8,13 C5.763,13 3.505,12.663 2,12.38 L2.001,5.504 C2.91,5.259 3.715,5.075 4.328,4.973 L5.333,4.806 L5.789,3.895 L6.236,3 L8,3 L9.764,3 L10.211,3.895 L10.667,4.806 L11.672,4.973 C12.285,5.075 13.09,5.259 14,5.505 L13.994,12.381 Z M14.52,3.573 C13.758,3.367 12.818,3.136 12,3 L11.276,1.553 C11.107,1.214 10.761,1 10.382,1 L8,1 L5.618,1 C5.239,1 4.893,1.214 4.724,1.553 L4,3 C3.182,3.136 2.242,3.367 1.48,3.573 C0.605,3.809 0,4.599 0,5.505 L0,12.38 C0,13.345 0.688,14.168 1.636,14.347 C3.17,14.636 5.585,15 8,15 C10.415,15 12.83,14.636 14.364,14.347 C15.312,14.168 16,13.345 16,12.38 L16,5.505 C16,4.599 15.395,3.809 14.52,3.573 L14.52,3.573 Z"/>
</svg>
