<svg xmlns="http://www.w3.org/2000/svg" width="24" height="24" viewBox="0 0 24 24">
  <path fill-rule="evenodd" d="M8,9 C8,7.896 8.896,7 10,7 C11.104,7 12,7.896 12,9 C12,10.104 11.104,11 10,11 C8.896,11 8,10.104 8,9 M12,4 C18.654,4 20,5.346 20,12 C20,13.053 19.961,13.959 19.877,14.762 L15.641,11.231 C15.275,10.928 14.746,10.923 14.375,11.219 L10.074,14.66 L8.707,13.293 C8.355,12.94 7.798,12.9 7.4,13.2 L4.231,15.577 C4.068,14.599 4,13.428 4,12 C4,5.346 5.346,4 12,4 M12,2 C4.215,2 2,4.215 2,12 C2,19.785 4.215,22 12,22 C19.785,22 22,19.785 22,12 C22,4.215 19.785,2 12,2"/>
</svg>
