<svg width="24" height="24" fill="none" xmlns="http://www.w3.org/2000/svg">
  <path fill-rule="evenodd" clip-rule="evenodd" d="M8 9a2 2 0 114.001.001A2 2 0 018 9zm4 11c-4.05 0-6.127-.507-7.138-2.397l3.044-2.283 1.387 1.387c.361.361.936.391 1.332.074l4.362-3.49 4.427 3.689C18.531 19.386 16.462 20 12 20zm0-16c6.654 0 8 1.346 8 8 0 1.053-.039 1.959-.122 2.762l-4.237-3.531a1.004 1.004 0 00-1.266-.012l-4.301 3.441-1.367-1.367A.997.997 0 007.4 13.2l-3.169 2.377C4.068 14.599 4 13.428 4 12c0-6.654 1.346-8 8-8zm0-2C4.215 2 2 4.215 2 12s2.215 10 10 10 10-2.215 10-10S19.785 2 12 2z" fill="#000"/>
</svg>
