<svg xmlns="http://www.w3.org/2000/svg" width="24" height="24" viewBox="0 0 24 24">
  <path fill-rule="evenodd" d="M21,14 C21,11.164 20.698,9.344 19.846,7.046 C19.343,5.688 18.385,5 17,5 C15.933,5 14.937,5.575 14.4,6.501 C14.222,6.81 13.893,7 13.535,7 L10.465,7 C10.107,7 9.777,6.81 9.599,6.5 C9.064,5.575 8.068,5 7,5 C5.615,5 4.657,5.688 4.154,7.046 C3.302,9.344 3,11.164 3,14 C3,16.757 3.897,19 5,19 C7.176,19 8.022,15.787 8.03,15.755 C8.144,15.312 8.543,15 9,15 L15,15 C15.459,15 15.858,15.312 15.97,15.758 C15.978,15.787 16.824,19 19,19 C20.103,19 21,16.757 21,14 L21,14 Z M23,14 C23,17.484 21.763,21 19,21 C16.149,21 14.784,18.346 14.275,17 L9.725,17 C9.216,18.346 7.851,21 5,21 C2.237,21 1,17.484 1,14 C1,10.938 1.347,8.865 2.279,6.351 C3.068,4.222 4.789,3 7,3 C8.579,3 10.063,3.754 11,5 L13,5 C13.938,3.754 15.422,3 17,3 C19.211,3 20.932,4.222 21.721,6.351 C22.653,8.865 23,10.938 23,14 L23,14 Z M17.5,11 C16.672,11 16,11.672 16,12.5 C16,13.328 16.672,14 17.5,14 C18.328,14 19,13.328 19,12.5 C19,11.672 18.328,11 17.5,11 L17.5,11 Z M17,9.5 C17,8.672 16.328,8 15.5,8 C14.672,8 14,8.672 14,9.5 C14,10.328 14.672,11 15.5,11 C16.328,11 17,10.328 17,9.5 L17,9.5 Z M9,10 L11,10 L11,12 L9,12 L9,14 L7,14 L7,12 L5,12 L5,10 L7,10 L7,8 L9,8 L9,10 Z"/>
</svg>
