<svg width="24" height="24" fill="none" xmlns="http://www.w3.org/2000/svg">
  <path d="M22 18a1 1 0 00-1-1h-2v-2a1 1 0 10-2 0v2h-2a1 1 0 100 2h2v2a1 1 0 102 0v-2h2a1 1 0 001-1zM4.368 16.178l3.722-3.861-3.927-2.945A24.103 24.103 0 004 12c0 1.36.12 2.749.355 4.13.003.016.01.032.013.048zm2.433-10.78c-1.009.164-1.838.852-2.235 1.786.011.007.024.008.034.016l7.4 5.55 7.4-5.55c.01-.007.022-.008.032-.014a3.036 3.036 0 00-2.311-1.8 32.975 32.975 0 00-5.16-.385 32.942 32.942 0 00-5.16.397zM12 15.25l-2.297-1.723-4.272 4.43c.408.334.9.57 1.447.657 1.615.257 3.368.377 5.122.37V21a34.84 34.84 0 01-5.436-.411 5.037 5.037 0 01-4.18-4.122A26.58 26.58 0 012 12c0-1.473.129-2.976.384-4.466.362-2.12 2.009-3.771 4.097-4.11A34.95 34.95 0 0112 3c1.861 0 3.721.139 5.436.411a5.037 5.037 0 014.18 4.122A26.58 26.58 0 0122 12c0 .331-.028.666-.043 1h-2c.015-.334.043-.67.043-1 0-.867-.066-1.747-.162-2.628L12 15.25z" fill="#000"/>
</svg>
