<svg xmlns="http://www.w3.org/2000/svg" width="16" height="16" viewBox="0 0 16 16">
  <path fill-rule="evenodd" d="M13,11 L12,11 L12,10 L12,9.5 C12,9.224 11.776,9 11.5,9 L11,9 L5,9 L4.5,9 C4.224,9 4,9.224 4,9.5 L4,10 L4,11 L3,11 L3,8 L13,8 L13,11 Z M10,13 L6,13 L6,12 L6,11 L10,11 L10,12 L10,13 Z M5,6 L11,6 L11,3 L5,3 L5,6 Z M13,6 L13,2 C13,1.447 12.553,1 12,1 L4,1 C3.447,1 3,1.447 3,2 L3,6 C1.897,6 1,6.897 1,8 L1,11 C1,12.103 1.897,13 3,13 L4,13 L4,14.5 C4,14.776 4.224,15 4.5,15 L11.5,15 C11.776,15 12,14.776 12,14.5 L12,13 L13,13 C14.103,13 15,12.103 15,11 L15,8 C15,6.897 14.103,6 13,6 L13,6 Z"/>
</svg>
