<svg xmlns="http://www.w3.org/2000/svg" width="24" height="24" viewBox="0 0 24 24">
  <path fill-rule="evenodd" d="M12,16 C9.791,16 8,14.209 8,12 C8,9.791 9.791,8 12,8 C14.209,8 16,9.791 16,12 C16,14.209 14.209,16 12,16 L12,16 Z M20.815,10 C20.209,10 19.659,9.636 19.437,9.071 C19.402,8.984 19.367,8.897 19.33,8.812 C19.088,8.255 19.219,7.609 19.647,7.181 L20.485,6.343 L17.657,3.515 L16.819,4.352 C16.391,4.781 15.744,4.912 15.188,4.67 C15.103,4.633 15.016,4.598 14.929,4.563 C14.364,4.341 14,3.791 14,3.184 L14,2 L10,2 L10,3.184 C10,3.791 9.636,4.341 9.071,4.563 C8.984,4.598 8.897,4.633 8.812,4.67 C8.255,4.912 7.61,4.781 7.181,4.352 L6.343,3.515 L3.515,6.343 L4.352,7.181 C4.781,7.609 4.912,8.255 4.67,8.812 C4.633,8.897 4.598,8.984 4.563,9.071 C4.341,9.636 3.791,10 3.184,10 L2,10 L2,14 L3.184,14 C3.791,14 4.341,14.364 4.563,14.929 C4.598,15.016 4.633,15.103 4.67,15.188 C4.912,15.744 4.781,16.391 4.352,16.819 L3.515,17.657 L6.343,20.485 L7.181,19.647 C7.61,19.219 8.255,19.088 8.812,19.33 C8.897,19.367 8.984,19.402 9.071,19.437 C9.636,19.659 10,20.209 10,20.815 L10,22 L14,22 L14,20.815 C14,20.209 14.364,19.659 14.929,19.437 C15.016,19.402 15.103,19.367 15.188,19.33 C15.744,19.088 16.391,19.219 16.819,19.647 L17.657,20.485 L20.485,17.657 L19.647,16.819 C19.219,16.391 19.088,15.744 19.33,15.188 C19.367,15.103 19.402,15.016 19.437,14.929 C19.659,14.364 20.209,14 20.815,14 L22,14 L22,10 L20.815,10 Z"/>
</svg>
