<svg width="24" height="24" fill="none" xmlns="http://www.w3.org/2000/svg">
  <path fill-rule="evenodd" clip-rule="evenodd" d="M15 13c0-1.104-1.343-2-3-2s-3 .896-3 2 1.343 2 3 2 3-.896 3-2zm5 3v1.438c0 .946-.656 1.768-1.582 1.958-1.365.279-3.566.604-6.418.604-2.852 0-5.053-.325-6.418-.604A1.991 1.991 0 014 17.438V16c0-2 2-4 4-6V8h8v2c2 2 4 4 4 6zm2-9.31V9a1 1 0 01-1 1h-2a1 1 0 01-1-1V6.935C16.454 6.465 14.334 6 12 6s-4.454.465-6 .935V9a1 1 0 01-1 1H3a1 1 0 01-1-1V6.69c0-.421.259-.795.656-.939C4.145 5.215 7.965 4 12 4c4.035 0 7.855 1.215 9.344 1.751A.994.994 0 0122 6.69z" fill="#000"/>
</svg>
