<svg width="24" height="24" fill="none" xmlns="http://www.w3.org/2000/svg">
  <path d="M17 22a.997.997 0 00.707-.293l4-4a.999.999 0 10-1.414-1.414L17 19.586l-1.293-1.293a.999.999 0 10-1.414 1.414l2 2A.997.997 0 0017 22zm2.4-14.8c.01-.007.022-.008.032-.014a3.036 3.036 0 00-2.31-1.8 32.997 32.997 0 00-5.161-.385 32.942 32.942 0 00-5.16.397c-1.009.165-1.838.852-2.235 1.786.011.007.024.008.034.016l7.4 5.55 7.4-5.55zM4.368 16.178l3.722-3.861-3.927-2.945A24.103 24.103 0 004 12c0 1.36.12 2.749.355 4.13.003.016.01.032.013.048zm17.248-8.645A26.58 26.58 0 0122 12c0 .661-.035 1.33-.087 2h-2c.056-.67.087-1.339.087-2 0-.867-.066-1.747-.163-2.628L12 15.25l-2.297-1.723-4.272 4.43c.408.334.9.57 1.447.657 1.615.257 3.368.377 5.122.37V21a34.84 34.84 0 01-5.436-.411 5.037 5.037 0 01-4.18-4.122A26.58 26.58 0 012 12c0-1.473.129-2.976.384-4.466.362-2.12 2.009-3.771 4.097-4.11A34.95 34.95 0 0112 3c1.861 0 3.72.139 5.436.411a5.037 5.037 0 014.18 4.122z" fill="#000"/>
</svg>
