<svg width="16" height="16" fill="none" xmlns="http://www.w3.org/2000/svg">
  <path fill-rule="evenodd" clip-rule="evenodd" d="M16 2.384v10a1.002 1.002 0 01-1.43.903c-1.231-.586-2.461-.465-3.569-.286v-2c.916-.122 1.931-.25 2.999 0V3c-2.288-.504-4.267.797-5 2v1L7 5c-.732-1.203-2.711-2.504-5-2v2L0 7V2.384c0-.431.275-.812.684-.948C1.473 1.172 2.247 1 3 1c2 0 3.576.577 5 2 1.426-1.424 3-2 5-2 .752 0 1.527.172 2.316.436a.998.998 0 01.684.948zM7.717 13.358a.802.802 0 01-1.073.358l-2-1A.8.8 0 014.201 12L4.2 8a.8.8 0 011.6 0l.001 3.506 1.557.778a.802.802 0 01.359 1.074zM5 6a5 5 0 00-5 5 5 5 0 005 5 5 5 0 005-5 5 5 0 00-5-5z" fill="#000"/>
</svg>
