<svg xmlns="http://www.w3.org/2000/svg" width="16" height="16" viewBox="0 0 16 16">
  <path fill-rule="evenodd" d="M15.3164,0.435 C12.5734,-0.479 9.6564,0.094 8.0004,1.717 C6.3424,0.094 3.4244,-0.479 0.6834,0.435 C0.2754,0.571 0.0004,0.953 0.0004,1.383 L0.0004,6.649 C0.5354,5.935 1.2134,5.334 2.0004,4.903 L2.0004,2.142 C4.2894,1.637 6.2674,2.467 7.0004,3.67 L7.0004,4.467 C7.7374,4.717 8.4154,5.097 9.0004,5.586 L9.0004,3.67 C9.7334,2.467 11.7124,1.637 14.0004,2.142 L14.0004,10.979 C13.0174,10.75 12.0844,10.762 11.2254,10.858 C11.1704,11.598 10.9854,12.301 10.6934,12.948 C11.8784,12.722 13.2224,12.645 14.5704,13.287 C14.7074,13.351 14.8534,13.383 15.0004,13.383 C15.1864,13.383 15.3724,13.331 15.5344,13.229 C15.8244,13.045 16.0004,12.726 16.0004,12.383 L16.0004,1.383 C16.0004,0.953 15.7244,0.571 15.3164,0.435 M6.7074,11.676 L6.0004,10.969 L6.0004,8.383 C6.0004,7.831 5.5524,7.383 5.0004,7.383 C4.4474,7.383 4.0004,7.831 4.0004,8.383 L4.0004,11.383 C4.0004,11.649 4.1054,11.903 4.2934,12.09 L5.2934,13.09 C5.4884,13.286 5.7444,13.383 6.0004,13.383 C6.2554,13.383 6.5114,13.286 6.7074,13.09 C7.0974,12.7 7.0974,12.067 6.7074,11.676 M10.0004,10.383 C10.0004,13.145 7.7614,15.383 5.0004,15.383 C2.2384,15.383 0.0004,13.145 0.0004,10.383 C0.0004,7.622 2.2384,5.383 5.0004,5.383 C7.7614,5.383 10.0004,7.622 10.0004,10.383"/>
</svg>
