<svg xmlns="http://www.w3.org/2000/svg" width="24" height="24" viewBox="0 0 24 24">
  <path fill-rule="evenodd" d="M9,6.6332 L4.249,8.2172 C3.635,8.4212 3,7.9642 3,7.3172 C3,6.9082 3.262,6.5462 3.648,6.4172 L9,4.6332 L9,6.6332 Z M22,1.9492 C22,2.3582 21.738,2.7202 21.352,2.8492 L13,5.6332 L13,3.6332 L20.751,1.0492 C21.365,0.8442 22,1.3022 22,1.9492 L22,1.9492 Z M12,11.9042 L12,14.6332 L8.861,14.6332 C9.075,13.6032 9.384,12.6632 9.691,12.3552 C10.011,12.1112 10.936,11.9602 12,11.9042 L12,11.9042 Z M16.303,12.3502 C16.615,12.6742 16.923,13.6122 17.142,14.6332 L14,14.6332 L14,11.9042 C15.058,11.9602 15.977,12.1092 16.303,12.3502 L16.303,12.3502 Z M14,9.9042 L14,8.6332 C14,8.3672 13.895,8.1132 13.707,7.9262 L12,6.2192 L12,4.4102 C12,3.8582 11.553,3.4102 11,3.4102 C10.447,3.4102 10,3.8582 10,4.4102 L10,6.6332 C10,6.8992 10.105,7.1532 10.293,7.3402 L12,9.0472 L12,9.9042 C10.365,10.0022 8.879,10.3402 8.293,10.9262 C7.065,12.1542 5.729,17.7772 7.293,19.3402 C8.147,20.1952 10.738,20.6332 12.9,20.6332 L13.007,20.6332 C14.85,20.6202 17.836,20.2112 18.707,19.3402 C20.271,17.7772 18.935,12.1542 17.707,10.9262 C17.121,10.3402 15.635,10.0022 14,9.9042 L14,9.9042 Z"/>
</svg>
