<svg width="16" height="16" fill="none" xmlns="http://www.w3.org/2000/svg">
  <path fill-rule="evenodd" clip-rule="evenodd" d="M11 9H9v2a1 1 0 11-2 0V9H5a1 1 0 110-2h2V5a1 1 0 112 0v2h2a1 1 0 110 2zm3.541-4.688a3.81 3.81 0 00-2.923-2.923A17.243 17.243 0 007.965 1c-1.254 0-2.476.134-3.653.389a3.81 3.81 0 00-2.923 2.923A17.229 17.229 0 001 7.965c0 1.254.134 2.475.389 3.653a3.81 3.81 0 002.923 2.923c1.177.255 2.399.389 3.653.389 1.253 0 2.476-.134 3.653-.389a3.81 3.81 0 002.923-2.923 17.308 17.308 0 000-7.306z" fill="#000"/>
</svg>
