<svg xmlns="http://www.w3.org/2000/svg" width="24" height="24" viewBox="0 0 24 24">
  <path fill-rule="evenodd" d="M13.0002,13.9619 C13.0002,14.5149 12.5532,14.9619 12.0002,14.9619 C11.4472,14.9619 11.0002,14.5149 11.0002,13.9619 L11.0002,10.9619 C11.0002,10.4089 11.4472,9.9619 12.0002,9.9619 C12.5532,9.9619 13.0002,10.4089 13.0002,10.9619 L13.0002,13.9619 Z M12.0002,17.9619 C11.4472,17.9619 11.0002,17.5149 11.0002,16.9619 C11.0002,16.4089 11.4472,15.9619 12.0002,15.9619 C12.5532,15.9619 13.0002,16.4089 13.0002,16.9619 C13.0002,17.5149 12.5532,17.9619 12.0002,17.9619 L12.0002,17.9619 Z M21.8712,19.4719 L12.8712,3.4719 C12.5182,2.8429 11.4822,2.8429 11.1292,3.4719 L2.1292,19.4719 C1.9542,19.7809 1.9572,20.1599 2.1372,20.4669 C2.3162,20.7739 2.6452,20.9619 3.0002,20.9619 L21.0002,20.9619 C21.3552,20.9619 21.6842,20.7739 21.8632,20.4669 C22.0432,20.1599 22.0462,19.7809 21.8712,19.4719 L21.8712,19.4719 Z"/>
</svg>
