<svg width="24" height="24" fill="none" xmlns="http://www.w3.org/2000/svg">
  <path fill-rule="evenodd" clip-rule="evenodd" d="M7.48 5h2.01l-1 3H5.081l2.4-3zm8.076 5h3.334l-5 6.111L15.556 10zm-5.38-2l1-3h1.629l1.014 3h-3.643zm3.723 2L12 16.96 10.102 10h3.796zm-5.456 0l1.668 6.111-5-6.111h3.332zM18.92 8h-3.412l-1.014-3h2.027l2.399 3zm2.863.375l-4-5A1.004 1.004 0 0017 3H7c-.304 0-.59.138-.782.375l-4 5a1.005 1.005 0 00.007 1.258l9 11a1.002 1.002 0 001.549 0l9-11A1.02 1.02 0 0022 9a.989.989 0 00-.218-.625z" fill="#000"/>
</svg>
