<svg xmlns="http://www.w3.org/2000/svg" width="24" height="24" viewBox="0 0 24 24">
  <path fill-rule="evenodd" d="M22,6 L22,12 C22,13.654 20.654,15 19,15 L18,15 L18,13 L19,13 C19.552,13 20,12.552 20,12 L20,6 C20,5.448 19.552,5 19,5 L11,5 C10.448,5 10,5.448 10,6 L10,7 L8,7 L8,6 C8,4.346 9.346,3 11,3 L19,3 C20.654,3 22,4.346 22,6 L22,6 Z M14,19 C14,19.552 13.552,20 13,20 L5,20 C4.448,20 4,19.552 4,19 L4,12 C4,11.448 4.448,11 5,11 L13,11 C13.552,11 14,11.448 14,12 L14,19 Z M13,9 L5,9 C3.346,9 2,10.346 2,12 L2,19 C2,20.654 3.346,22 5,22 L13,22 C14.654,22 16,20.654 16,19 L16,12 C16,10.346 14.654,9 13,9 L13,9 Z"/>
</svg>
