<svg width="32" height="32" fill="none" xmlns="http://www.w3.org/2000/svg">
  <path fill-rule="evenodd" clip-rule="evenodd" d="M29 10c0-1.654-1.346-3-3-3H14.629l-.122-.158C13.577 5.643 12.302 4 10 4H6C4.346 4 3 5.346 3 7v4h2V7c0-.552.449-1 1-1h4c1.322 0 2.138 1.052 2.927 2.068.155.2.304.392.451.57.19.229.473.362.77.362H26c.551 0 1 .448 1 1v1h2v-1zM5 14c-.682 0-1 .317-1 1 0 4.255 1.082 9.604 1.71 10.296C6.107 25.693 8.033 27 16 27c7.967 0 9.893-1.307 10.293-1.707C26.918 24.604 28 19.255 28 15c0-.683-.318-1-1-1H5zm11 15c-6.247 0-10.186-.771-11.707-2.293C2.809 25.224 2 18.195 2 15c0-1.794 1.206-3 3-3h22c1.794 0 3 1.206 3 3 0 3.195-.809 10.224-2.293 11.707C26.186 28.229 22.247 29 16 29z" fill="#000"/>
</svg>
