<svg width="16" height="16" fill="none" xmlns="http://www.w3.org/2000/svg">
  <g clip-path="url(#16x16/check_squircle_large/filled__clip0)">
    <path d="M15.55 3.8c.302 1.38.453 2.788.45 4.2a19.447 19.447 0 01-.45 4.2 4.36 4.36 0 01-3.35 3.35c-1.38.302-2.788.453-4.2.45a19.447 19.447 0 01-4.2-.45A4.36 4.36 0 01.45 12.2 19.446 19.446 0 010 8c-.003-1.412.148-2.82.45-4.2A4.36 4.36 0 013.8.45 19.446 19.446 0 018 0c1.412-.003 2.82.148 4.2.45a4.36 4.36 0 013.35 3.35zm-3.84 2.91a1.004 1.004 0 00-1.42-1.42L7 8.59l-1.29-1.3a1.004 1.004 0 10-1.42 1.42l2 2a1 1 0 001.42 0l4-4z" fill="#000"/>
  </g>
  <defs>
    <clipPath id="16x16/check_squircle_large/filled__clip0">
      <path fill="#fff" d="M0 0h16v16H0z"/>
    </clipPath>
  </defs>
</svg>
