<svg width="16" height="16" fill="none" xmlns="http://www.w3.org/2000/svg">
  <path fill-rule="evenodd" clip-rule="evenodd" d="M2 4.543v3.914c0 .466.323.875.769.973C3.952 9.689 5.821 10 8 10v5H4a1 1 0 110-2h1v-1.178a27.136 27.136 0 01-2.661-.439A3.006 3.006 0 010 8.457V4.543c0-1.397.983-2.628 2.339-2.926A26.858 26.858 0 018 1c2.358 0 4.38.336 5.661.617C15.104 1.936 16 2.849 16 4h-2c0-.139-.359-.339-.77-.43A24.838 24.838 0 008 3c-2.179 0-4.048.311-5.231.57A.995.995 0 002 4.543zM11 14h3V7h-3v7zm3-9h-3a2 2 0 00-2 2v7a2 2 0 002 2h3a2 2 0 002-2V7a2 2 0 00-2-2z" fill="#000"/>
</svg>
