<svg xmlns="http://www.w3.org/2000/svg" width="32" height="32" viewBox="0 0 32 32">
  <path fill-rule="evenodd" d="M12,7.75 L4.186,9.486 C3.577,9.622 3,9.158 3,8.535 L3,8.531 C3,8.075 3.317,7.68 3.763,7.58 L12,5.75 L12,7.75 Z M29,2.975 C29,3.429 28.687,3.822 28.245,3.924 L16,6.75 L16,4.75 L27.807,2.025 C28.417,1.885 29,2.349 29,2.975 L29,2.975 Z M10.707,16.457 C10.987,16.177 11.443,15.948 12,15.765 L12,21.75 L8.799,21.75 C9.083,19.461 10.138,17.026 10.707,16.457 L10.707,16.457 Z M16,15.232 C16.682,15.232 17.358,15.275 18,15.351 L18,21.75 L14,21.75 L14,15.351 C14.642,15.275 15.318,15.232 16,15.232 L16,15.232 Z M23.201,21.75 L20,21.75 L20,15.765 C20.557,15.948 21.013,16.177 21.293,16.457 C21.862,17.026 22.917,19.461 23.201,21.75 L23.201,21.75 Z M17,13.283 L17,10.75 C17,10.484 16.895,10.23 16.707,10.043 L15,8.336 L15,5.527 C15,4.975 14.553,4.527 14,4.527 C13.447,4.527 13,4.975 13,5.527 L13,8.75 C13,9.016 13.105,9.27 13.293,9.457 L15,11.164 L15,13.283 C12.597,13.41 10.339,13.996 9.293,15.043 C8.044,16.292 5.928,21.694 7.052,25.066 C8.279,28.75 12.926,28.75 16,28.75 C19.074,28.75 23.721,28.75 24.948,25.066 C26.072,21.694 23.956,16.292 22.707,15.043 C21.661,13.996 19.403,13.41 17,13.283 L17,13.283 Z"/>
</svg>
