<svg width="24" height="24" fill="none" xmlns="http://www.w3.org/2000/svg">
  <path fill-rule="evenodd" clip-rule="evenodd" d="M12.114 17.385c-2.997 0-4.718-1.571-4.718-3.112 0-.786.823-1.038 1.153-1.038.76 0 1.013.621 1.152.905.774 1.59 1.518 1.38 2.25 1.449.646.061 2.165-.225 2.165-1.334 0-.105.167-.827-1.144-1.185-.838-.229-2.316-.51-3.53-.978-1.144-.439-1.814-1.346-1.814-2.514 0-.584.3-2.963 4.347-2.963 2.702 0 4.141 1.384 4.141 2.602 0 .28-.107.526-.322.749a1.175 1.175 0 01-1.482.124c-.166-.107-.303-.329-.468-.618-.198-.362-.524-1.062-2.018-1.062-1.45 0-1.853.692-1.853.98 0 .97 1.85 1.173 2.347 1.302 1.816.467 4.282.897 4.282 3.342 0 2.808-2.921 3.351-4.488 3.351zm9.027-4.17c.054-.398.09-.803.09-1.215 0-5.097-4.134-9.231-9.23-9.231-.412 0-.817.037-1.215.09A5.734 5.734 0 007.768 2 5.769 5.769 0 002 7.769c0 1.107.317 2.137.858 3.016-.053.399-.09.803-.09 1.215 0 5.098 4.134 9.231 9.233 9.231.412 0 .816-.036 1.215-.089.878.54 1.909.858 3.014.858A5.77 5.77 0 0022 16.231a5.74 5.74 0 00-.858-3.016z" fill="#000"/>
</svg>
