<svg xmlns="http://www.w3.org/2000/svg" width="24" height="24" viewBox="0 0 24 24">
  <path fill-rule="evenodd" d="M17.0004,4 L14.0004,4 C13.4474,4 13.0004,4.447 13.0004,5 L13.0004,19 C13.0004,19.553 13.4474,20 14.0004,20 L17.0004,20 C17.5534,20 18.0004,19.553 18.0004,19 L18.0004,5 C18.0004,4.447 17.5534,4 17.0004,4 M11.0004,5 L11.0004,19 C11.0004,19.553 10.5534,20 10.0004,20 L7.0004,20 C6.4474,20 6.0004,19.553 6.0004,19 L6.0004,5 C6.0004,4.447 6.4474,4 7.0004,4 L10.0004,4 C10.5534,4 11.0004,4.447 11.0004,5"/>
</svg>
