<svg xmlns="http://www.w3.org/2000/svg" width="16" height="16" viewBox="0 0 16 16">
  <path fill-rule="evenodd" d="M14.4141,7.9995 L15.7071,6.7065 C16.0981,6.3155 16.0981,5.6835 15.7071,5.2925 C15.3161,4.9015 14.6841,4.9015 14.2931,5.2925 L13.0001,6.5855 L11.7071,5.2925 C11.3161,4.9015 10.6841,4.9015 10.2931,5.2925 C9.9021,5.6835 9.9021,6.3155 10.2931,6.7065 L11.5861,7.9995 L10.2931,9.2925 C9.9021,9.6835 9.9021,10.3155 10.2931,10.7065 C10.4881,10.9015 10.7441,10.9995 11.0001,10.9995 C11.2561,10.9995 11.5121,10.9015 11.7071,10.7065 L13.0001,9.4135 L14.2931,10.7065 C14.4881,10.9015 14.7441,10.9995 15.0001,10.9995 C15.2561,10.9995 15.5121,10.9015 15.7071,10.7065 C16.0981,10.3155 16.0981,9.6835 15.7071,9.2925 L14.4141,7.9995 Z M9.0001,2.9995 L9.0001,12.9995 C9.0001,13.3685 8.7971,13.7075 8.4721,13.8815 C8.3241,13.9605 8.1621,13.9995 8.0001,13.9995 C7.8061,13.9995 7.6121,13.9425 7.4451,13.8315 L3.1971,10.9995 L2.0001,10.9995 C0.8971,10.9995 0.0001,10.1025 0.0001,8.9995 L0.0001,6.9995 C0.0001,5.8965 0.8971,4.9995 2.0001,4.9995 L3.1971,4.9995 L7.4451,2.1675 C7.7511,1.9645 8.1471,1.9435 8.4721,2.1175 C8.7971,2.2915 9.0001,2.6305 9.0001,2.9995 L9.0001,2.9995 Z"/>
</svg>
