<svg width="16" height="16" fill="none" xmlns="http://www.w3.org/2000/svg">
  <path d="M7 5.1v5.8L5.3 9.5 4.7 9H3V7h1.7l.6-.5L7 5.1zM8 2c-.2 0-.4.1-.6.2L4 5H2.5C1.7 5 1 5.7 1 6.5v3c0 .8.7 1.5 1.5 1.5H4l3.4 2.8c.2.1.4.2.6.2.2 0 .3 0 .5-.1.3-.2.5-.5.5-.9V3c0-.4-.2-.7-.5-.9C8.3 2 8.2 2 8 2zm6.3 3.3c-.2 0-.4.1-.5.2L12.7 7l-1.2-1.4c-.1-.2-.3-.2-.5-.2s-.3.1-.4.2c-.3.1-.3.5-.1.8L11.8 8l-1.3 1.6c-.2.3-.2.7.1.9.1.1.2.2.4.2s.4-.1.5-.2L12.7 9l1.2 1.4c.1.2.3.2.5.2s.3-.1.4-.2c.3-.2.3-.7.1-.9L13.5 8l1.3-1.6c.2-.3.2-.7-.1-.9-.1-.1-.2-.2-.4-.2z" fill="#000"/>
</svg>
