<svg xmlns="http://www.w3.org/2000/svg" width="16" height="16" viewBox="0 0 16 16">
  <path fill-rule="evenodd" d="M15.707,9.2925 C16.098,9.6835 16.098,10.3155 15.707,10.7065 C15.512,10.9015 15.256,10.9995 15,10.9995 C14.744,10.9995 14.488,10.9015 14.293,10.7065 L13,9.4135 L11.707,10.7065 C11.512,10.9015 11.256,10.9995 11,10.9995 C10.744,10.9995 10.488,10.9015 10.293,10.7065 C9.902,10.3155 9.902,9.6835 10.293,9.2925 L11.586,7.9995 L10.293,6.7065 C9.902,6.3155 9.902,5.6835 10.293,5.2925 C10.684,4.9015 11.316,4.9015 11.707,5.2925 L13,6.5855 L14.293,5.2925 C14.684,4.9015 15.316,4.9015 15.707,5.2925 C16.098,5.6835 16.098,6.3155 15.707,6.7065 L14.414,7.9995 L15.707,9.2925 Z M7,11.1315 L4.055,9.1675 C3.891,9.0585 3.697,8.9995 3.5,8.9995 L2,8.9995 L2,6.9995 L3.5,6.9995 C3.697,6.9995 3.891,6.9405 4.055,6.8315 L7,4.8675 L7,11.1315 Z M8.472,2.1175 C8.147,1.9435 7.751,1.9645 7.445,2.1675 L3.197,4.9995 L2,4.9995 C0.897,4.9995 0,5.8965 0,6.9995 L0,8.9995 C0,10.1025 0.897,10.9995 2,10.9995 L3.197,10.9995 L7.445,13.8315 C7.612,13.9425 7.806,13.9995 8,13.9995 C8.162,13.9995 8.324,13.9605 8.472,13.8815 C8.797,13.7075 9,13.3685 9,12.9995 L9,2.9995 C9,2.6305 8.797,2.2915 8.472,2.1175 L8.472,2.1175 Z"/>
</svg>
