<svg width="16" height="16" fill="none" xmlns="http://www.w3.org/2000/svg">
  <path d="M12 8a1 1 0 00-1-1H9V5a1 1 0 10-2 0v2H5a1 1 0 100 2h2v2a1 1 0 102 0V9h2a1 1 0 001-1zm4 0c0 1.44-.154 2.844-.446 4.196a4.383 4.383 0 01-3.358 3.358A19.86 19.86 0 018 16a19.86 19.86 0 01-4.196-.446 4.381 4.381 0 01-3.358-3.358A19.867 19.867 0 010 8c0-1.44.154-2.844.446-4.197A4.381 4.381 0 013.804.446 19.86 19.86 0 018 0c1.44 0 2.844.154 4.196.446a4.383 4.383 0 013.358 3.358A19.86 19.86 0 0116 8z" fill="#000"/>
</svg>
