<svg width="16" height="16" fill="none" xmlns="http://www.w3.org/2000/svg">
  <path d="M11 9H9v2a1 1 0 11-2 0V9H5a1 1 0 110-2h2V5a1 1 0 112 0v2h2a1 1 0 110 2zM12.196.446a4.383 4.383 0 013.358 3.358A19.86 19.86 0 0116 8c0 1.44-.154 2.844-.446 4.196a4.383 4.383 0 01-3.358 3.358A19.86 19.86 0 018 16c-1.44 0-2.844-.154-4.197-.446a4.381 4.381 0 01-3.357-3.358A19.867 19.867 0 010 8c0-1.44.154-2.844.446-4.197A4.381 4.381 0 013.804.446 19.86 19.86 0 018 0c1.44 0 2.844.154 4.196.446zm-7.97 1.955a2.385 2.385 0 00-1.825 1.825 17.91 17.91 0 000 7.547 2.387 2.387 0 001.825 1.826 17.916 17.916 0 007.548 0 2.387 2.387 0 001.825-1.826 17.9 17.9 0 000-7.547 2.387 2.387 0 00-1.825-1.825 17.91 17.91 0 00-7.548 0z" fill="#000"/>
</svg>
