<svg width="16" height="16" fill="none" xmlns="http://www.w3.org/2000/svg">
  <path d="M5.8 1H2.2C1.5 1 1 1.5 1 2.2v3.6C1 6.5 1.5 7 2.2 7h3.6C6.5 7 7 6.5 7 5.8V2.2C7 1.5 6.5 1 5.8 1zM5 5H3V3h2v2zm8.8-4h-3.6C9.5 1 9 1.5 9 2.2v3.6c0 .7.5 1.2 1.2 1.2h3.6c.7 0 1.2-.5 1.2-1.2V2.2c0-.7-.5-1.2-1.2-1.2zM13 5h-2V3h2v2zM5.8 9H2.2C1.5 9 1 9.5 1 10.2v3.6c0 .7.5 1.2 1.2 1.2h3.6c.7 0 1.2-.5 1.2-1.2v-3.6C7 9.5 6.5 9 5.8 9zM5 13H3v-2h2v2zm8.8-4h-3.6C9.5 9 9 9.5 9 10.2v3.6c0 .7.5 1.2 1.2 1.2h3.6c.7 0 1.2-.5 1.2-1.2v-3.6c0-.7-.5-1.2-1.2-1.2zm-.8 4h-2v-2h2v2z" fill="#000"/>
</svg>
