<svg xmlns="http://www.w3.org/2000/svg" width="24" height="24" viewBox="0 0 24 24">
  <path fill-rule="evenodd" d="M20,10.4205227 L16,10.4205227 L16,8.99952272 C16,8.44652272 15.553,7.99952272 15,7.99952272 C14.447,7.99952272 14,8.44652272 14,8.99952272 L14,10.4205227 L4,10.4205227 L4,9.42052272 C4,8.41552272 4.748,7.56352272 5.74,7.43652272 C8.011,7.14652272 10.117,6.99952272 12,6.99952272 C13.883,6.99952272 15.989,7.14652272 18.26,7.43652272 C18.332,7.44552272 18.4,7.46652272 18.47,7.48252272 L18.746,7.58952272 C18.771,7.59952272 18.797,7.59652272 18.822,7.60352272 C19.52,7.91952272 20,8.61852272 20,9.42052272 L20,10.4205227 Z M17,14.9995227 L13,14.9995227 C12.447,14.9995227 12,14.5525227 12,13.9995227 C12,13.4465227 12.447,12.9995227 13,12.9995227 L17,12.9995227 C17.553,12.9995227 18,13.4465227 18,13.9995227 C18,14.5525227 17.553,14.9995227 17,14.9995227 L17,14.9995227 Z M17,17.9995227 L13,17.9995227 C12.447,17.9995227 12,17.5525227 12,16.9995227 C12,16.4465227 12.447,15.9995227 13,15.9995227 L17,15.9995227 C17.553,15.9995227 18,16.4465227 18,16.9995227 C18,17.5525227 17.553,17.9995227 17,17.9995227 L17,17.9995227 Z M7.5,17.9995227 C6.119,17.9995227 5,16.8805227 5,15.4995227 C5,14.1185227 6.119,12.9995227 7.5,12.9995227 C8.881,12.9995227 10,14.1185227 10,15.4995227 C10,16.8805227 8.881,17.9995227 7.5,17.9995227 L7.5,17.9995227 Z M19.107,5.58452272 L7.359,1.06652272 C6.842,0.869522721 6.266,1.12452272 6.066,1.64052272 C5.868,2.15552272 6.126,2.73452272 6.641,2.93352272 L12.014,4.99952272 L12,4.99952272 C9.657,4.99952272 7.315,5.21952272 5.487,5.45252272 C3.49,5.70752272 2,7.40652272 2,9.42052272 L2,10.4205227 L2,16.5785227 C2,17.5855227 2.372,18.5135227 2.994,19.2225227 C3.306,19.5765227 3.679,19.8755227 4.1,20.1025227 C4.521,20.3285227 4.987,20.4835227 5.487,20.5465227 C6.858,20.7225227 8.519,20.8895227 10.251,20.9615227 C10.829,20.9855227 11.414,20.9995227 12,20.9995227 C14.343,20.9995227 16.685,20.7795227 18.513,20.5465227 C20.51,20.2915227 22,18.5925227 22,16.5785227 L22,10.4205227 L22,9.42052272 C22,7.61352272 20.797,6.06852272 19.107,5.58452272 L19.107,5.58452272 Z"/>
</svg>
