<svg xmlns="http://www.w3.org/2000/svg" width="24" height="24" viewBox="0 0 24 24">
  <path fill-rule="evenodd" d="M13,13.9999817 L17,13.9999817 C17.553,13.9999817 18,14.4469817 18,14.9999817 C18,15.5529817 17.553,15.9999817 17,15.9999817 L13,15.9999817 C12.447,15.9999817 12,15.5529817 12,14.9999817 C12,14.4469817 12.447,13.9999817 13,13.9999817 L13,13.9999817 Z M10,14.9999817 C10,16.1039817 9.104,16.9999817 8,16.9999817 C6.896,16.9999817 6,16.1039817 6,14.9999817 C6,13.8959817 6.896,12.9999817 8,12.9999817 C9.104,12.9999817 10,13.8959817 10,14.9999817 L10,14.9999817 Z M20,9.99998168 L16,9.99998168 L16,8.99998168 C16,8.44698168 15.553,7.99998168 15,7.99998168 C14.447,7.99998168 14,8.44698168 14,8.99998168 L14,9.99998168 L4,9.99998168 L4,9.42098168 C4,8.41598168 4.748,7.56298168 5.74,7.43698168 C8.011,7.14598168 10.117,6.99998168 12,6.99998168 C13.883,6.99998168 15.989,7.14598168 18.26,7.43698168 C18.332,7.44598168 18.4,7.46698168 18.47,7.48298168 L18.746,7.58998168 C18.771,7.59998168 18.797,7.59698168 18.822,7.60398168 C19.52,7.91998168 20,8.61898168 20,9.42098168 L20,9.99998168 Z M20,16.5789817 C20,17.5839817 19.252,18.4369817 18.26,18.5629817 C15.989,18.8539817 13.883,18.9999817 12,18.9999817 C10.117,18.9999817 8.011,18.8539817 5.74,18.5629817 C4.748,18.4369817 4,17.5839817 4,16.5789817 L4,11.9999817 L20,11.9999817 L20,16.5789817 Z M19.107,5.58498168 L7.359,1.06598168 C6.843,0.869981685 6.265,1.12498168 6.066,1.64098168 C5.868,2.15598168 6.126,2.73498168 6.641,2.93398168 L12.014,4.99998168 L12,4.99998168 C9.657,4.99998168 7.315,5.21998168 5.487,5.45298168 C3.49,5.70798168 2,7.40698168 2,9.42098168 L2,16.5789817 C2,18.5929817 3.49,20.2919817 5.487,20.5469817 C7.315,20.7799817 9.657,20.9999817 12,20.9999817 C14.343,20.9999817 16.685,20.7799817 18.513,20.5469817 C20.51,20.2919817 22,18.5929817 22,16.5789817 L22,9.42098168 C22,7.61398168 20.797,6.06898168 19.107,5.58498168 L19.107,5.58498168 Z"/>
</svg>
