<svg width="16" height="16" fill="none" xmlns="http://www.w3.org/2000/svg">
  <path fill-rule="evenodd" clip-rule="evenodd" d="M5 5.5a1.5 1.5 0 113.001.001A1.5 1.5 0 015 5.5zM8 13c-2.224 0-3.535-.276-4.13-.87a1.738 1.738 0 01-.25-.336L5 10.414l1.293 1.293a.999.999 0 001.414 0l2.387-2.387 2.543 1.907c-.133.392-.299.695-.507.903-.595.594-1.906.87-4.13.87zM3 8c0-2.224.276-3.535.87-4.13C4.465 3.276 5.776 3 8 3s3.535.276 4.13.87c.594.595.87 1.906.87 4.13 0 .353-.01.675-.023.982L10.6 7.2a.996.996 0 00-1.307.093L7 9.586 5.707 8.293a.999.999 0 00-1.414 0L3.056 9.53A18.904 18.904 0 013 8zm10.544-5.544C12.475 1.388 10.725 1 8 1c-2.725 0-4.475.388-5.544 1.456C1.388 3.525 1 5.275 1 8c0 1.31.093 2.39.305 3.281l-.012.012.018.018c.229.95.595 1.683 1.145 2.233C3.525 14.612 5.275 15 8 15c2.725 0 4.475-.388 5.544-1.456C14.612 12.475 15 10.725 15 8c0-2.725-.388-4.475-1.456-5.544z" fill="#000"/>
</svg>
