<svg width="24" height="24" fill="none" xmlns="http://www.w3.org/2000/svg">
  <path d="M22 12l-5 4v-3h-4v-2h4V8l5 4zM4.615 16h2.976c.323 1.557.835 2.875 1.483 3.863A8.441 8.441 0 014.615 16zM3.6 12c0-.763.111-1.498.302-2.2h3.413a21.298 21.298 0 00-.023 4.2H3.851a8.358 8.358 0 01-.251-2zm5.474-7.864C8.398 5.167 7.87 6.557 7.55 8.2H4.519a8.433 8.433 0 014.555-4.064zm9.327 13.284a8.457 8.457 0 01-3.475 2.443c.457-.696.842-1.564 1.144-2.557a5.47 5.47 0 01-1.491-.652C13.951 18.823 12.943 20.2 12 20.2c-1.036 0-2.156-1.65-2.757-4.2h4.489a5.501 5.501 0 01-1.351-2H8.909a18.544 18.544 0 01.023-4.2h3.529a5.52 5.52 0 011.068-1.6H9.2c.589-2.662 1.737-4.4 2.8-4.4.943 0 1.952 1.375 2.58 3.546a5.456 5.456 0 011.487-.651c-.303-.992-.685-1.863-1.141-2.559a8.425 8.425 0 013.463 2.442 5.476 5.476 0 012.692 1.253C19.499 4.393 16.033 2 12 2 6.477 2 2 6.478 2 12s4.477 10 10 10c4.033 0 7.499-2.393 9.081-5.831a5.472 5.472 0 01-2.68 1.251z" fill="#000"/>
</svg>
