<svg width="32" height="32" fill="none" xmlns="http://www.w3.org/2000/svg">
  <path fill-rule="evenodd" clip-rule="evenodd" d="M8.515 6h3.159l-1.43 5h-5.3l3.57-5zm13.206 7h5.09l-8.272 9.543L21.72 13zm-9.394-2l1.428-5h4.49l1.429 5h-7.347zm7.286 2L16 23.839 12.388 13h7.225zm-9.333 0l3.18 9.543L5.19 13h5.09zm16.777-2h-5.302l-1.428-5h3.159l3.57 5zm2.757.419l-5-7A1 1 0 0024 4H8a.997.997 0 00-.813.419l-5 7a.997.997 0 00.057 1.236l13 15a1.003 1.003 0 001.512 0l13-15A.987.987 0 0030 12a1.01 1.01 0 00-.186-.581z" fill="#000"/>
</svg>
