<svg xmlns="http://www.w3.org/2000/svg" width="32" height="32" viewBox="0 0 32 32">
  <path fill-rule="evenodd" d="M9.5145,7 L11.9395,7 L10.2785,12 L5.9435,12 L9.5145,7 Z M21.7035,14 L25.8265,14 L18.7595,22.244 L21.7035,14 Z M12.3855,12 L14.0465,7 L18.1505,7 L19.6545,12 L12.3855,12 Z M19.5805,14 L15.9995,24.027 L12.4185,14 L19.5805,14 Z M10.2955,14 L13.2405,22.244 L6.1735,14 L10.2955,14 Z M26.0565,12 L21.7435,12 L20.2405,7 L22.4855,7 L26.0565,12 Z M28.8135,12.419 L23.8135,5.419 C23.6255,5.156 23.3235,5 22.9995,5 L8.9995,5 C8.6765,5 8.3735,5.156 8.1865,5.419 L3.1865,12.419 C2.9185,12.793 2.9415,13.302 3.2415,13.65 L15.2415,27.65 C15.4305,27.872 15.7075,28 15.9995,28 C16.2915,28 16.5695,27.872 16.7585,27.65 L28.7585,13.65 C29.0585,13.302 29.0805,12.793 28.8135,12.419 L28.8135,12.419 Z"/>
</svg>
