<svg xmlns="http://www.w3.org/2000/svg" width="24" height="24" viewBox="0 0 24 24">
  <path fill-rule="evenodd" d="M8,18.1316 L8,5.8676 L17.197,11.9996 L8,18.1316 Z M19.555,11.1676 L7.555,3.1676 C7.249,2.9636 6.853,2.9436 6.528,3.1176 C6.203,3.2916 6,3.6306 6,3.9996 L6,19.9996 C6,20.3686 6.203,20.7076 6.528,20.8816 C6.676,20.9606 6.838,20.9996 7,20.9996 C7.194,20.9996 7.388,20.9436 7.555,20.8316 L19.555,12.8316 C19.833,12.6466 20,12.3336 20,11.9996 C20,11.6656 19.833,11.3536 19.555,11.1676 L19.555,11.1676 Z"/>
</svg>
