<svg xmlns="http://www.w3.org/2000/svg" width="16" height="16" viewBox="0 0 16 16">
  <path fill-rule="evenodd" d="M12,13 L10,13 L10,9 C10,7.896 9.104,7 8,7 C6.896,7 6,7.896 6,9 L6,13 L4,13 L4,6.414 L8,2.414 L12,6.414 L12,13 Z M15.707,7.293 L8.707,0.293 C8.316,-0.098 7.684,-0.098 7.293,0.293 L0.293,7.293 C-0.098,7.684 -0.098,8.316 0.293,8.707 C0.684,9.098 1.316,9.098 1.707,8.707 L2,8.414 L2,13 C2,14.103 2.897,15 4,15 L12,15 C13.103,15 14,14.103 14,13 L14,8.414 L14.293,8.707 C14.488,8.902 14.744,9 15,9 C15.256,9 15.512,8.902 15.707,8.707 C16.098,8.316 16.098,7.684 15.707,7.293 L15.707,7.293 Z"/>
</svg>
