<svg width="24" height="24" fill="none" xmlns="http://www.w3.org/2000/svg">
  <path fill-rule="evenodd" clip-rule="evenodd" d="M9 16a.999.999 0 01-.707-1.707L10.586 12 8.293 9.707a.999.999 0 111.414-1.414L12 10.586l2.293-2.293a.997.997 0 011.414 0 .999.999 0 010 1.414L13.414 12l2.293 2.293a.999.999 0 11-1.414 1.414L12 13.414l-2.293 2.293A.997.997 0 019 16zm12.441-9.246a5.47 5.47 0 00-4.195-4.195A24.711 24.711 0 0012 2c-1.8 0-3.555.192-5.245.558a5.472 5.472 0 00-4.197 4.196A24.762 24.762 0 002 12c0 1.8.192 3.555.558 5.245a5.472 5.472 0 004.196 4.196C8.445 21.808 10.2 22 12 22c1.8 0 3.555-.192 5.246-.559a5.47 5.47 0 004.195-4.196C21.808 15.555 22 13.8 22 12c0-1.8-.192-3.555-.559-5.246z" fill="#000"/>
</svg>
