<svg width="24" height="24" fill="none" xmlns="http://www.w3.org/2000/svg">
  <path fill-rule="evenodd" clip-rule="evenodd" d="M13.414 12l2.293-2.293a.999.999 0 10-1.414-1.414L12 10.586 9.707 8.293a.999.999 0 10-1.414 1.414L10.586 12l-2.293 2.293a.999.999 0 101.414 1.414L12 13.414l2.293 2.293a.997.997 0 001.414 0 .999.999 0 000-1.414L13.414 12zM12 2c-1.8 0-3.555.192-5.245.558a5.472 5.472 0 00-4.197 4.196A24.762 24.762 0 002 12c0 1.8.192 3.555.558 5.245a5.472 5.472 0 004.196 4.196C8.445 21.808 10.2 22 12 22c1.8 0 3.555-.192 5.246-.559a5.473 5.473 0 004.196-4.196A24.76 24.76 0 0022 12c0-1.8-.192-3.555-.558-5.245a5.473 5.473 0 00-4.196-4.196A24.711 24.711 0 0012 2zm0 2c1.627 0 3.25.173 4.823.513a3.487 3.487 0 012.664 2.664 22.886 22.886 0 010 9.646 3.487 3.487 0 01-2.664 2.664 22.886 22.886 0 01-9.646 0 3.486 3.486 0 01-2.664-2.664 22.886 22.886 0 010-9.646 3.484 3.484 0 012.664-2.664A22.886 22.886 0 0112 4z" fill="#000"/>
</svg>
