<svg xmlns="http://www.w3.org/2000/svg" width="16" height="16" viewBox="0 0 16 16">
  <path fill-rule="evenodd" d="M14.29,12.6131 C15.425,11.1521 16,9.6001 16,8.0001 C16,6.3991 15.425,4.8471 14.29,3.3861 C13.951,2.9511 13.324,2.8711 12.887,3.2101 C12.45,3.5491 12.371,4.1771 12.71,4.6131 C13.566,5.7151 14,6.8541 14,8.0001 C14,9.1451 13.566,10.2851 12.71,11.3861 C12.371,11.8221 12.45,12.4511 12.887,12.7901 C13.069,12.9311 13.285,13.0001 13.499,13.0001 C13.798,13.0001 14.093,12.8671 14.29,12.6131 L14.29,12.6131 Z M11.835,10.5501 C12.887,8.9521 12.629,6.7441 11.852,5.4771 C11.564,5.0061 10.948,4.8591 10.477,5.1471 C10.007,5.4361 9.858,6.0511 10.147,6.5221 C10.591,7.2461 10.707,8.6261 10.165,9.4501 C9.861,9.9111 9.989,10.5311 10.45,10.8351 C10.62,10.9471 10.811,11.0001 10.999,11.0001 C11.324,11.0001 11.644,10.8421 11.835,10.5501 L11.835,10.5501 Z M2,7.0001 L2,9.0001 L3.5,9.0001 C3.697,9.0001 3.891,9.0581 4.055,9.1681 L7,11.1321 L7,4.8681 L4.055,6.8321 C3.891,6.9411 3.697,7.0001 3.5,7.0001 L2,7.0001 Z M8,14.0001 C7.806,14.0001 7.612,13.9431 7.445,13.8321 L3.197,11.0001 L2,11.0001 C0.897,11.0001 0,10.1021 0,9.0001 L0,7.0001 C0,5.8971 0.897,5.0001 2,5.0001 L3.197,5.0001 L7.445,2.1681 C7.751,1.9641 8.147,1.9441 8.472,2.1181 C8.797,2.2921 9,2.6311 9,3.0001 L9,13.0001 C9,13.3691 8.797,13.7081 8.472,13.8821 C8.324,13.9611 8.162,14.0001 8,14.0001 L8,14.0001 Z"/>
</svg>
