<svg width="16" height="16" fill="none" xmlns="http://www.w3.org/2000/svg">
  <path fill-rule="evenodd" clip-rule="evenodd" d="M10.707 6.707L9.414 8l1.293 1.293a.999.999 0 11-1.414 1.414L8 9.414l-1.293 1.293a.997.997 0 01-1.414 0 .999.999 0 010-1.414L6.586 8 5.293 6.707a.999.999 0 111.414-1.414L8 6.586l1.293-1.293a.999.999 0 111.414 1.414zm1.947 4.542a1.835 1.835 0 01-1.405 1.405C10.189 12.884 9.096 13 8 13s-2.189-.116-3.25-.346a1.838 1.838 0 01-1.405-1.405 15.422 15.422 0 010-6.499A1.838 1.838 0 014.75 3.346 15.364 15.364 0 018 3c1.096 0 2.189.116 3.249.346a1.835 1.835 0 011.405 1.405C12.884 5.811 13 6.904 13 8s-.116 2.188-.346 3.249zm1.955-6.921a3.83 3.83 0 00-2.937-2.937A17.357 17.357 0 008 1c-1.26 0-2.488.135-3.672.391a3.828 3.828 0 00-2.937 2.937A17.357 17.357 0 001 8c0 1.26.135 2.488.391 3.672a3.83 3.83 0 002.937 2.937C5.512 14.865 6.74 15 8 15c1.26 0 2.488-.135 3.672-.391a3.83 3.83 0 002.937-2.937C14.865 10.488 15 9.26 15 8c0-1.26-.135-2.488-.391-3.672z" fill="#000"/>
</svg>
