<svg width="24" height="24" fill="none" xmlns="http://www.w3.org/2000/svg">
  <path fill-rule="evenodd" clip-rule="evenodd" d="M12 2c1.8 0 3.555.192 5.246.559a5.47 5.47 0 014.195 4.195C21.808 8.445 22 10.2 22 12c0 1.8-.192 3.555-.559 5.245a5.47 5.47 0 01-4.195 4.196A24.711 24.711 0 0112 22c-1.8 0-3.555-.192-5.246-.559a5.472 5.472 0 01-4.196-4.196A24.76 24.76 0 012 12c0-1.801.192-3.556.558-5.246a5.473 5.473 0 014.196-4.196A24.776 24.776 0 0112 2zM7.293 12.707l3 3A.995.995 0 0011 16l.045-.001c.281-.013.543-.143.723-.358l6.001-6a1.004 1.004 0 00-.128-1.41 1.005 1.005 0 00-1.41.128l-5.298 5.16-2.226-2.226a.997.997 0 00-1.414 0 .999.999 0 000 1.414z" fill="#000"/>
</svg>
