<svg width="24" height="24" fill="none" xmlns="http://www.w3.org/2000/svg">
  <path fill-rule="evenodd" clip-rule="evenodd" d="M11.769 15.641l6-6a1.003 1.003 0 00-.128-1.41 1.002 1.002 0 00-1.41.128c-.352.423-5.298 5.16-5.298 5.16l-2.226-2.226a.999.999 0 10-1.414 1.414l3 3A1 1 0 0011 16l.045-.001c.28-.013.543-.143.724-.358zM11.999 2c-1.8 0-3.554.192-5.244.558a5.472 5.472 0 00-4.197 4.196A24.762 24.762 0 002 12c0 1.8.192 3.555.558 5.245a5.472 5.472 0 004.196 4.196C8.444 21.808 10.2 22 12 22c1.8 0 3.555-.192 5.246-.559a5.473 5.473 0 004.196-4.196A24.76 24.76 0 0022 12c0-1.8-.192-3.555-.558-5.245a5.473 5.473 0 00-4.196-4.196A24.711 24.711 0 0012 2zm4.824 2.513a3.487 3.487 0 012.664 2.664 22.886 22.886 0 010 9.646 3.487 3.487 0 01-2.664 2.664 22.886 22.886 0 01-9.646 0 3.486 3.486 0 01-2.664-2.664 22.886 22.886 0 010-9.646 3.484 3.484 0 012.664-2.664 22.886 22.886 0 019.646 0z" fill="#000"/>
</svg>
