<svg width="32" height="32" fill="none" xmlns="http://www.w3.org/2000/svg">
  <path fill-rule="evenodd" clip-rule="evenodd" d="M16 2c-.389 0-.778.212-.978.635l-3.731 7.926-8.358 1.273A1.09 1.09 0 002 12.928c0 .293.094.598.327.838l6.053 6.183-1.427 8.724A1.13 1.13 0 008.055 30a.964.964 0 00.48-.134L16 25.752l7.465 4.114a.964.964 0 00.48.134 1.13 1.13 0 001.102-1.327l-1.427-8.724 6.053-6.183c.233-.24.327-.545.327-.838a1.09 1.09 0 00-.933-1.094l-8.358-1.273-3.731-7.926A1.074 1.074 0 0016 2zm0 3.254l2.899 6.159.455.964 1.054.161 6.673 1.016-4.891 4.997-.708.722.164.999 1.134 6.933-5.815-3.204-.965-.532-.965.532-5.815 3.204 1.134-6.933.164-.999-.708-.722-4.891-4.997 6.673-1.016 1.054-.161.455-.964L16 5.254z" fill="#000"/>
</svg>
