<svg xmlns="http://www.w3.org/2000/svg" width="32" height="32" viewBox="0 0 32 32">
  <path fill-rule="evenodd" d="M22.2666,18.5596 C21.8216,19.0146 21.6186,19.6546 21.7216,20.2836 L22.8726,27.3126 L16.9636,24.0606 C16.6636,23.8946 16.3316,23.8126 15.9996,23.8126 C15.6676,23.8126 15.3356,23.8946 15.0366,24.0606 L9.1266,27.3126 L10.2786,20.2836 C10.3816,19.6546 10.1786,19.0146 9.7336,18.5596 L4.7726,13.4976 L11.5446,12.4676 C12.2036,12.3676 12.7696,11.9466 13.0526,11.3436 L15.9996,5.0926 L18.9476,11.3436 C19.2306,11.9466 19.7966,12.3676 20.4546,12.4676 L27.2276,13.4976 L22.2666,18.5596 Z M28.9616,11.7386 L20.7556,10.4906 L17.0856,2.7066 C16.8646,2.2356 16.4316,1.9996 15.9996,1.9996 C15.5686,1.9996 15.1356,2.2356 14.9136,2.7066 L11.2446,10.4906 L3.0376,11.7386 C2.0446,11.8896 1.6486,13.1676 2.3676,13.9016 L8.3046,19.9596 L6.9036,28.5146 C6.7686,29.3346 7.3906,29.9996 8.0966,29.9996 C8.2836,29.9996 8.4746,29.9536 8.6606,29.8516 L15.9996,25.8126 L23.3396,29.8516 C23.5256,29.9546 23.7166,29.9996 23.9036,29.9996 C24.6096,29.9996 25.2316,29.3336 25.0966,28.5146 L23.6956,19.9596 L29.6326,13.9016 C30.3516,13.1676 29.9546,11.8896 28.9616,11.7386 L28.9616,11.7386 Z"/>
</svg>
