<svg xmlns="http://www.w3.org/2000/svg" width="16" height="16" viewBox="0 0 16 16">
  <path fill-rule="evenodd" d="M6.0001,10.9998 L4.8191,10.9998 L4.8191,8.4038 L11.8981,3.2558 L6.0001,10.9998 Z M15.7071,0.2928 C15.4281,0.0128 15.0111,-0.0742 14.6411,0.0658 L1.6411,5.0658 C1.3571,5.1758 1.1391,5.4068 1.0471,5.6968 C0.9551,5.9858 0.9991,6.3018 1.1681,6.5548 L3.0001,9.3028 L3.0001,11.9998 C3.0001,12.5528 3.4471,12.9998 4.0001,12.9998 L7.5861,12.9998 L9.2931,14.7068 C9.4821,14.8958 9.7371,14.9998 10.0001,14.9998 C10.0691,14.9998 10.1391,14.9928 10.2081,14.9788 C10.5391,14.9078 10.8121,14.6748 10.9341,14.3588 L15.9341,1.3588 C16.0751,0.9898 15.9861,0.5718 15.7071,0.2928 L15.7071,0.2928 Z"/>
</svg>
