<svg width="16" height="16" fill="none" xmlns="http://www.w3.org/2000/svg">
  <path fill-rule="evenodd" clip-rule="evenodd" d="M9.532 13.118l-1.825-1.825a1.001 1.001 0 00-.949-.263l-.486.121 5.744-6.105-2.484 8.072zm-6.65-6.65l7.284-2.242-5.382 4.166c-.026-.033-.047-.069-.077-.099L2.882 6.468zm11.825-5.175a1 1 0 00-1-.249l-13 4a1.002 1.002 0 00-.413 1.663l2.598 2.599-.862 3.452a.998.998 0 001.212 1.212l3.451-.863 2.6 2.6a1.002 1.002 0 001.663-.413l4-13a1.002 1.002 0 00-.249-1.001z" fill="#000"/>
</svg>
