<svg xmlns="http://www.w3.org/2000/svg" width="16" height="16" viewBox="0 0 16 16">
  <path fill-rule="evenodd" d="M9.6192,13.2049 L8.7072,12.2929 C8.5192,12.1049 8.2652,11.9999 8.0002,11.9999 L6.0002,11.9999 L12.6342,5.3659 L9.6192,13.2049 Z M3.5252,7.4839 L11.8732,4.2739 L4.8092,9.4109 L3.5252,7.4839 Z M15.7072,1.2929 C15.4272,1.0129 15.0122,0.9259 14.6402,1.0659 L1.6402,6.0659 C1.3572,6.1759 1.1392,6.4069 1.0472,6.6969 C0.9552,6.9859 0.9992,7.3019 1.1682,7.5549 L3.0002,10.3029 L3.0002,12.9999 C3.0002,13.5529 3.4472,13.9999 4.0002,13.9999 L7.5862,13.9999 L9.2932,15.7069 C9.4822,15.8959 9.7372,15.9999 10.0002,15.9999 C10.0692,15.9999 10.1392,15.9929 10.2082,15.9779 C10.5392,15.9079 10.8112,15.6749 10.9332,15.3589 L15.9332,2.3589 C16.0752,1.9899 15.9862,1.5719 15.7072,1.2929 L15.7072,1.2929 Z"/>
</svg>
