<svg width="16" height="16" fill="none" xmlns="http://www.w3.org/2000/svg">
  <g clip-path="url(#16x16/file_excel/filled__clip0)">
    <path d="M9.908 12.047H12L9.03 7.942l2.865-3.989H9.966L8.462 6.15c-.16.232-.313.52-.416.798a3.818 3.818 0 00-.405-.786L6.127 3.953h-2.08l2.888 4.024L4 12.047h1.93L7.49 9.78c.173-.254.324-.532.44-.82.092.266.243.555.405.798l1.572 2.289zm5.646-8.243a19.926 19.926 0 010 8.392 4.381 4.381 0 01-3.358 3.358A19.867 19.867 0 018 16a19.86 19.86 0 01-4.196-.446 4.378 4.378 0 01-3.358-3.358A19.86 19.86 0 010 8c0-1.44.154-2.844.446-4.197A4.379 4.379 0 013.804.446 19.853 19.853 0 018 0c1.44 0 2.844.154 4.196.446a4.383 4.383 0 013.358 3.358z" fill="#000"/>
  </g>
  <defs>
    <clipPath id="16x16/file_excel/filled__clip0">
      <path fill="#fff" d="M0 0h16v16H0z"/>
    </clipPath>
  </defs>
</svg>
