<svg width="16" height="16" fill="none" xmlns="http://www.w3.org/2000/svg">
  <path d="M14 8a17.9 17.9 0 01-.401 3.773 2.388 2.388 0 01-1.826 1.826 17.9 17.9 0 01-7.547 0 2.388 2.388 0 01-1.825-1.826 17.902 17.902 0 010-7.547 2.387 2.387 0 011.826-1.825 17.9 17.9 0 017.546 0 2.388 2.388 0 011.826 1.826A17.9 17.9 0 0114 8zm2 0c0-1.44-.154-2.844-.446-4.196A4.383 4.383 0 0012.196.446 19.867 19.867 0 008 0C6.56 0 5.156.154 3.804.446A4.38 4.38 0 00.446 3.803 19.876 19.876 0 000 8c0 1.439.154 2.844.446 4.196a4.381 4.381 0 003.358 3.358A19.86 19.86 0 008 16c1.439 0 2.844-.154 4.196-.446a4.383 4.383 0 003.358-3.358A19.86 19.86 0 0016 8zm-7.199-.045l2.232-3.105H9.531L8.359 6.559a3.011 3.011 0 00-.324.623 2.89 2.89 0 00-.314-.614L6.541 4.85H4.922l2.25 3.132-2.287 3.168h1.504l1.215-1.763c.134-.2.251-.414.341-.639.073.207.19.432.317.621l1.224 1.781h1.629L8.801 7.955z" fill="#000"/>
</svg>
