<svg xmlns="http://www.w3.org/2000/svg" width="24" height="24" viewBox="0 0 24 24">
  <path fill-rule="evenodd" d="M20,17.3816832 L16,15.3816832 L16,6.61768322 L20,8.61768322 L20,17.3816832 Z M10,8.61768322 L14,6.61768322 L14,15.3816832 L10,17.3816832 L10,8.61768322 Z M4,6.61768322 L8,8.61768322 L8,17.3816832 L4,15.3816832 L4,6.61768322 Z M21.447,7.10568322 L15.447,4.10568322 C15.423,4.09368322 15.396,4.08868322 15.371,4.07868322 C15.328,4.06168322 15.287,4.04568322 15.243,4.03468322 C15.206,4.02568322 15.17,4.02068322 15.132,4.01568322 C15.087,4.00968322 15.043,4.00468322 14.997,4.00468322 C14.956,4.00468322 14.916,4.00968322 14.875,4.01468322 C14.834,4.01968322 14.794,4.02568322 14.753,4.03468322 C14.711,4.04568322 14.671,4.06268322 14.631,4.07768322 C14.604,4.08868322 14.578,4.09268322 14.553,4.10568322 L9,6.88168322 L3.447,4.10568322 C3.137,3.95168322 2.77,3.96568322 2.475,4.14968322 C2.18,4.33168322 2,4.65268322 2,4.99968322 L2,15.9996832 C2,16.3786832 2.214,16.7246832 2.553,16.8946832 L8.553,19.8946832 C8.567,19.9026832 8.584,19.8986832 8.6,19.9046832 C8.728,19.9616832 8.862,19.9996832 9,19.9996832 C9.138,19.9996832 9.272,19.9616832 9.4,19.9046832 C9.416,19.8986832 9.433,19.9026832 9.447,19.8946832 L15,17.1176832 L20.553,19.8946832 C20.694,19.9646832 20.847,19.9996832 21,19.9996832 C21.183,19.9996832 21.365,19.9496832 21.525,19.8506832 C21.82,19.6676832 22,19.3466832 22,18.9996832 L22,7.99968322 C22,7.62068322 21.786,7.27568322 21.447,7.10568322 L21.447,7.10568322 Z"/>
</svg>
