<svg xmlns="http://www.w3.org/2000/svg" width="16" height="16" viewBox="0 0 16 16">
  <path fill-rule="evenodd" d="M8,9 C9.104,9 10,8.104 10,7 L10,2 C10,0.896 9.104,0 8,0 C6.896,0 6,0.896 6,2 L6,7 C6,8.104 6.896,9 8,9 M12,14 C12,14.553 11.553,15 11,15 L5,15 C4.447,15 4,14.553 4,14 C4,13.447 4.447,13 5,13 L7,13 L7,11.898 C4.721,11.435 3,9.414 3,7 C3,6.447 3.447,6 4,6 C4.553,6 5,6.447 5,7 C5,8.654 6.346,10 8,10 C9.654,10 11,8.654 11,7 C11,6.447 11.447,6 12,6 C12.553,6 13,6.447 13,7 C13,9.414 11.279,11.435 9,11.898 L9,13 L11,13 C11.553,13 12,13.447 12,14"/>
</svg>
