<svg width="16" height="16" fill="none" xmlns="http://www.w3.org/2000/svg">
  <path fill-rule="evenodd" clip-rule="evenodd" d="M10.881 7.209c.07.254.12.516.12.791a3 3 0 11-3-3c.275 0 .536.049.79.119a1.489 1.489 0 00-.29.881A1.5 1.5 0 0010 7.5c.33 0 .632-.11.88-.291zM8.001 12c-2.207 0-4-1.794-4-4s1.793-4 4-4c2.205 0 4 1.794 4 4s-1.795 4-4 4zm7.857-4.515C15.723 7.262 12.515 2 8 2S.277 7.262.143 7.485a1 1 0 000 1.03C.277 8.738 3.485 14 8 14c4.515 0 7.723-5.262 7.858-5.485a1.012 1.012 0 000-1.03z" fill="#000"/>
</svg>
