<svg width="16" height="16" fill="none" xmlns="http://www.w3.org/2000/svg">
  <path fill-rule="evenodd" clip-rule="evenodd" d="M10 7.5A1.5 1.5 0 018.5 6c0-.33.11-.633.291-.881A2.962 2.962 0 008 5a3 3 0 103 3c0-.275-.049-.537-.119-.791A1.489 1.489 0 0110 7.5zM2.202 8c.84 1.185 3.116 4 5.798 4s4.958-2.815 5.798-4C12.958 6.815 10.682 4 8 4S3.042 6.815 2.202 8zM8 14C3.485 14 .277 8.738.143 8.515a1.004 1.004 0 010-1.03C.277 7.262 3.485 2 8 2c4.515 0 7.723 5.262 7.857 5.485a1 1 0 010 1.03C15.723 8.738 12.515 14 8 14z" fill="#000"/>
</svg>
