<svg xmlns="http://www.w3.org/2000/svg" width="16" height="16" viewBox="0 0 16 16">
  <path fill-rule="evenodd" d="M11.5,11 C10.913,11 10.38,11.211 9.953,11.55 L5.956,9.434 C5.978,9.291 6,9.148 6,9 C6,8.746 5.959,8.504 5.899,8.269 L9.166,6.091 C9.786,6.65 10.6,7 11.5,7 C13.433,7 15,5.433 15,3.5 C15,1.567 13.433,0 11.5,0 C9.567,0 8,1.567 8,3.5 C8,3.807 8.052,4.098 8.126,4.381 L4.789,6.604 C4.289,6.23 3.674,6 3,6 C1.343,6 0,7.343 0,9 C0,10.657 1.343,12 3,12 C3.782,12 4.489,11.693 5.023,11.202 L9.019,13.317 C9.014,13.379 9,13.438 9,13.5 C9,14.881 10.119,16 11.5,16 C12.881,16 14,14.881 14,13.5 C14,12.119 12.881,11 11.5,11"/>
</svg>
