<svg xmlns="http://www.w3.org/2000/svg" width="24" height="24" viewBox="0 0 24 24">
  <path fill-rule="evenodd" d="M16.4998,12 C16.4998,14.485 14.4848,16.5 11.9998,16.5 C9.5148,16.5 7.4998,14.485 7.4998,12 C7.4998,9.515 9.5148,7.5 11.9998,7.5 C12.3768,7.5 12.7378,7.561 13.0878,7.647 C12.4478,7.924 11.9998,8.559 11.9998,9.3 C11.9998,10.294 12.8058,11.1 13.7998,11.1 C14.7858,11.1 15.5858,10.306 15.5978,9.322 C16.1568,10.072 16.4998,10.992 16.4998,12 M11.9998,18 C8.6868,18 5.9998,15.313 5.9998,12 C5.9998,8.687 8.6868,6 11.9998,6 C15.3128,6 17.9998,8.687 17.9998,12 C17.9998,15.313 15.3128,18 11.9998,18 M22.8528,11.478 C22.6658,11.173 18.2028,4 11.9998,4 C5.7968,4 1.3338,11.173 1.1468,11.478 C0.9508,11.798 0.9508,12.202 1.1468,12.522 C1.3338,12.827 5.7968,20 11.9998,20 C18.2028,20 22.6658,12.827 22.8528,12.522 C23.0488,12.202 23.0488,11.798 22.8528,11.478"/>
</svg>
