<svg width="24" height="24" fill="none" xmlns="http://www.w3.org/2000/svg">
  <path fill-rule="evenodd" clip-rule="evenodd" d="M15.615 9.322c.56.75.902 1.67.902 2.678a4.5 4.5 0 11-4.5-4.5c.378 0 .74.06 1.088.147a1.8 1.8 0 102.51 1.675zM12.017 18c-4.216 0-7.71-4.45-8.797-6 1.087-1.549 4.581-6 8.797-6 4.217 0 7.71 4.451 8.797 6-1.087 1.55-4.58 6-8.797 6zm10.853-6.523C22.683 11.173 18.203 4 12 4 5.797 4 1.351 11.173 1.165 11.477 1.067 11.637 1 11.82 1 12s.067.362.165.522C1.351 12.827 5.815 20 12.017 20c6.203 0 10.666-7.173 10.853-7.478A.975.975 0 0023 12a.974.974 0 00-.13-.523z" fill="#000"/>
</svg>
