<svg xmlns="http://www.w3.org/2000/svg" width="24" height="24" viewBox="0 0 24 24">
  <path fill-rule="evenodd" d="M15.5974,9.3223 C15.5854,10.3053 14.7854,11.0993 13.7994,11.0993 C12.8054,11.0993 11.9994,10.2943 11.9994,9.3003 C11.9994,8.5583 12.4484,7.9243 13.0874,7.6473 C12.7384,7.5603 12.3764,7.5003 11.9994,7.5003 C9.5144,7.5003 7.4994,9.5143 7.4994,12.0003 C7.4994,14.4853 9.5144,16.5003 11.9994,16.5003 C14.4854,16.5003 16.4994,14.4853 16.4994,12.0003 C16.4994,10.9923 16.1574,10.0723 15.5974,9.3223 M3.2014,11.9993 C4.2884,13.5473 7.7834,18.0003 11.9994,18.0003 C16.2294,18.0003 19.7134,13.5503 20.7974,12.0013 C19.7104,10.4533 16.2164,6.0003 11.9994,6.0003 C7.7704,6.0003 4.2854,10.4503 3.2014,11.9993 M11.9994,20.0003 C5.7964,20.0003 1.3334,12.8273 1.1474,12.5223 C0.9514,12.2023 0.9514,11.7983 1.1474,11.4773 C1.3334,11.1733 5.7964,4.0003 11.9994,4.0003 C18.2024,4.0003 22.6654,11.1733 22.8524,11.4773 C23.0484,11.7983 23.0484,12.2023 22.8524,12.5223 C22.6654,12.8273 18.2024,20.0003 11.9994,20.0003"/>
</svg>
