<svg width="16" height="16" fill="none" xmlns="http://www.w3.org/2000/svg">
  <path fill-rule="evenodd" clip-rule="evenodd" d="M14 8c0-1.831-.094-3.105-.43-4H2.43C2.094 4.895 2 6.169 2 8c0 .354.004.686.012 1H4.5A1.5 1.5 0 016 10.5v3.439c.583.042 1.239.061 2 .061 5.271 0 6-.729 6-6zm2 0c0 6.43-1.57 8-8 8-2 0-3.444 0-5.707-2.293C.031 11.414 0 10 0 8 0 3.198.878 1.107 4 .356V1a1 1 0 102 0V.069C6.61.023 7.27 0 8 0s1.39.023 2 .069V1a1 1 0 102 0V.356c3.122.751 4 2.842 4 7.644zm-6 4h2v-2h-2v2zm0-4h2V6h-2v2zm-3 4h2v-2H7v2zm0-4h2V6H7v2zM4 8h2V6H4v2z" fill="#000"/>
</svg>
