<svg xmlns="http://www.w3.org/2000/svg" width="16" height="16" viewBox="0 0 16 16">
  <path fill-rule="evenodd" d="M14,8 C14,6.169 13.906,4.895 13.57,4 L2.43,4 C2.094,4.895 2,6.169 2,8 C2,8.354 2.004,8.686 2.012,9 L4.5,9 C5.329,9 6,9.672 6,10.5 L6,13.939 C6.583,13.981 7.239,14 8,14 C13.271,14 14,13.271 14,8 L14,8 Z M16,8 C16,14.43 14.43,16 8,16 C6,16 4.556,16 2.293,13.707 C0.031,11.414 0,10 0,8 C0,3.198 0.878,1.107 4,0.356 L4,1 C4,1.553 4.448,2 5,2 C5.552,2 6,1.553 6,1 L6,0.069 C6.61,0.023 7.27,0 8,0 C8.73,0 9.39,0.023 10,0.069 L10,1 C10,1.553 10.448,2 11,2 C11.552,2 12,1.553 12,1 L12,0.356 C15.122,1.107 16,3.198 16,8 L16,8 Z M10,12 L12,12 L12,10 L10,10 L10,12 Z M10,8 L12,8 L12,6 L10,6 L10,8 Z M7,12 L9,12 L9,10 L7,10 L7,12 Z M7,8 L9,8 L9,6 L7,6 L7,8 Z M4,8 L6,8 L6,6 L4,6 L4,8 Z"/>
</svg>
