<svg width="24" height="24" fill="none" xmlns="http://www.w3.org/2000/svg">
  <path fill-rule="evenodd" clip-rule="evenodd" d="M6.13 15.565c1.987.289 3.962.435 5.87.435v5H7a1 1 0 110-2h2v-1.11a44.76 44.76 0 01-3.157-.345C3.652 17.225 2 15.312 2 13.09V7.91c0-2.222 1.652-4.136 3.844-4.453A42.385 42.385 0 0112 3c2.038 0 4.076.153 6.157.457C20.347 3.774 22 5.727 22 8h-2c0-1.265-.935-2.39-2.131-2.565a39.939 39.939 0 00-11.737 0A2.508 2.508 0 004 7.91v5.182c0 1.235.916 2.296 2.13 2.474zM16 20v-8h4l.002 8H16zm4-10h-4c-1.102 0-2 .898-2 2v8c0 1.102.898 2 2 2h4c1.103 0 2-.898 2-2v-8c0-1.102-.897-2-2-2z" fill="#000"/>
</svg>
