<svg width="16" height="16" fill="none" xmlns="http://www.w3.org/2000/svg">
  <path fill-rule="evenodd" clip-rule="evenodd" d="M11.818 9.426C11.414 10.253 10.29 12 8 12s-3.414-1.747-3.819-2.574A.3.3 0 014.455 9h7.09c.22 0 .37.228.273.426zM5 6.5C5 5.672 5.447 5 6 5c.552 0 1 .672 1 1.5S6.552 8 6 8c-.553 0-1-.672-1-1.5zm4 0c0-.828.447-1.5 1-1.5.552 0 1 .672 1 1.5S10.552 8 10 8c-.553 0-1-.672-1-1.5zm3.654 4.749a1.838 1.838 0 01-1.405 1.406 15.43 15.43 0 01-6.499 0 1.839 1.839 0 01-1.405-1.406 15.436 15.436 0 010-6.499A1.837 1.837 0 014.75 3.346C5.81 3.116 6.904 3 8 3s2.19.116 3.25.346a1.835 1.835 0 011.404 1.405 15.428 15.428 0 010 6.498zm1.955-6.921a3.832 3.832 0 00-2.937-2.937A17.364 17.364 0 008 1c-1.26 0-2.489.135-3.672.39A3.832 3.832 0 001.39 4.329 17.356 17.356 0 001 8c0 1.26.134 2.488.39 3.672a3.835 3.835 0 002.938 2.938 17.43 17.43 0 007.344 0 3.834 3.834 0 002.937-2.938 17.422 17.422 0 00.001-7.344z" fill="#000"/>
</svg>
