<svg xmlns="http://www.w3.org/2000/svg" width="24" height="24" viewBox="0 0 24 24">
  <path fill-rule="evenodd" d="M19.7891,5.4211 C19.4521,4.9871 18.8241,4.9041 18.3861,5.2461 C17.9501,5.5851 17.8711,6.2131 18.2111,6.6501 C19.4321,8.2201 20.0001,9.9311 20.0001,12.0351 C20.0001,14.0841 19.4751,15.6531 18.1861,17.4531 C17.8651,17.9021 17.9691,18.5271 18.4181,18.8491 C18.5951,18.9751 18.7981,19.0351 18.9991,19.0351 C19.3101,19.0351 19.6181,18.8901 19.8131,18.6171 C21.3461,16.4751 22.0001,14.5071 22.0001,12.0351 C22.0001,9.4981 21.2771,7.3351 19.7891,5.4211 M16.8441,7.4121 C16.5191,6.9651 15.8941,6.8671 15.4471,7.1921 C15.0001,7.5161 14.9011,8.1421 15.2271,8.5881 C16.4281,10.2401 16.7151,13.3761 15.2271,15.4101 C14.9021,15.8561 14.9991,16.4821 15.4451,16.8081 C15.6231,16.9381 15.8291,17.0001 16.0341,17.0001 C16.3431,17.0001 16.6461,16.8591 16.8431,16.5901 C18.6881,14.0661 18.6881,9.9481 16.8441,7.4121 M12.8941,4.5531 C12.9391,4.6441 14.0001,6.8231 14.0001,12.0001 C14.0001,17.1771 12.9391,19.3571 12.8941,19.4471 C12.7601,19.7181 12.5101,19.9121 12.2151,19.9771 C12.1431,19.9921 12.0711,20.0001 12.0001,20.0001 C11.7751,20.0001 11.5551,19.9241 11.3751,19.7811 L6.6491,16.0001 L5.0001,16.0001 C3.3461,16.0001 2.0001,14.6541 2.0001,13.0001 L2.0001,11.0001 C2.0001,9.3461 3.3461,8.0001 5.0001,8.0001 L6.6491,8.0001 L11.3751,4.2191 C11.6111,4.0301 11.9191,3.9581 12.2151,4.0241 C12.5101,4.0881 12.7601,4.2821 12.8941,4.5531"/>
</svg>
