<svg xmlns="http://www.w3.org/2000/svg" width="24" height="24" viewBox="0 0 24 24">
  <path fill-rule="evenodd" d="M7,10.0002 C7.228,10.0002 7.447,9.9232 7.625,9.7812 L11.489,6.6892 C11.731,7.7262 12,9.4482 12,12.0002 C12,14.5442 11.73,16.2692 11.487,17.3092 L7.625,14.2192 C7.447,14.0772 7.228,14.0002 7,14.0002 L5,14.0002 C4.448,14.0002 4,13.5522 4,13.0002 L4,11.0002 C4,10.4482 4.448,10.0002 5,10.0002 L7,10.0002 Z M12.215,19.9772 C12.51,19.9122 12.76,19.7182 12.895,19.4472 C12.939,19.3562 14,17.1772 14,12.0002 C14,6.8232 12.939,4.6442 12.895,4.5532 C12.76,4.2822 12.51,4.0882 12.215,4.0232 C11.918,3.9582 11.611,4.0302 11.375,4.2192 L6.649,8.0002 L5,8.0002 C3.346,8.0002 2,9.3462 2,11.0002 L2,13.0002 C2,14.6542 3.346,16.0002 5,16.0002 L6.649,16.0002 L11.375,19.7812 C11.555,19.9242 11.775,20.0002 12,20.0002 C12.071,20.0002 12.144,19.9922 12.215,19.9772 L12.215,19.9772 Z M19.813,18.6172 C21.346,16.4752 22,14.5072 22,12.0352 C22,9.4982 21.277,7.3352 19.789,5.4212 C19.452,4.9872 18.823,4.9042 18.386,5.2462 C17.95,5.5852 17.871,6.2132 18.211,6.6492 C19.432,8.2202 20,9.9312 20,12.0352 C20,14.0842 19.475,15.6532 18.187,17.4532 C17.865,17.9022 17.969,18.5272 18.418,18.8492 C18.595,18.9752 18.798,19.0352 18.999,19.0352 C19.311,19.0352 19.618,18.8902 19.813,18.6172 L19.813,18.6172 Z M16.034,17.0002 C15.829,17.0002 15.623,16.9372 15.445,16.8082 C14.999,16.4812 14.902,15.8552 15.228,15.4102 C16.715,13.3762 16.428,10.2402 15.227,8.5882 C14.901,8.1422 15,7.5162 15.447,7.1912 C15.895,6.8672 16.52,6.9652 16.844,7.4122 C18.688,9.9482 18.688,14.0652 16.843,16.5902 C16.646,16.8582 16.343,17.0002 16.034,17.0002 L16.034,17.0002 Z"/>
</svg>
