<svg xmlns="http://www.w3.org/2000/svg" width="16" height="16" viewBox="0 0 16 16">
  <path fill-rule="evenodd" d="M4.9648,9.4355 C5.7318,9.7405 6.7508,9.9995 7.9998,9.9995 C9.2488,9.9995 10.2678,9.7405 11.0348,9.4355 C10.2998,8.1665 9.9998,6.8015 9.9998,4.9995 C9.9998,3.9155 9.0838,2.9995 7.9998,2.9995 C6.9158,2.9995 5.9998,3.9155 5.9998,4.9995 C5.9998,6.8015 5.6998,8.1665 4.9648,9.4355 L4.9648,9.4355 Z M7.9998,11.9995 C5.1488,11.9995 2.9998,10.8635 1.9998,9.9995 C3.5588,8.4035 3.9998,7.1615 3.9998,4.9995 C3.9998,2.8385 5.7908,0.9995 7.9998,0.9995 C10.2088,0.9995 11.9998,2.8385 11.9998,4.9995 C11.9998,7.1615 12.4408,8.4035 13.9998,9.9995 C12.9998,10.8635 10.8508,11.9995 7.9998,11.9995 L7.9998,11.9995 Z M7.9998,12.9995 L9.9998,12.9995 C9.9998,14.1045 9.1048,14.9995 7.9998,14.9995 C6.8958,14.9995 5.9998,14.1045 5.9998,12.9995 L7.9998,12.9995 Z"/>
</svg>
