<svg width="24" height="24" fill="none" xmlns="http://www.w3.org/2000/svg">
  <path d="M18.777 17.586C19.264 16.119 20 13.902 20 11H4c0 2.902.735 5.119 1.222 6.586l.065.194a.982.982 0 00.724.66c1.182.24 3.088.56 5.99.56 2.9 0 4.806-.32 5.987-.56a.985.985 0 00.725-.66l.064-.194zM20 9c1.336 0 2 .785 2 2 0 3.36-.873 5.849-1.389 7.408a2.969 2.969 0 01-2.224 1.991C17.02 20.678 15 21 12 21c-3 0-5.02-.322-6.388-.601a2.972 2.972 0 01-2.224-1.991C2.872 16.849 2 14.36 2 11c0-1.215.663-2 2-2h16.001zM4.981 5v3h-2V5c0-1.102.916-2 2.02-2h3c1.356 0 2.086 1.122 2.573 2H18c1.755 0 2.981 1.233 2.981 3h-2c0-.663-.33-1-.98-1H9.98a1 1 0 01-.874-.514l-.153-.28C8.694 5.726 8.3 5 8 5H4.981zm7.02 13l5-3-5-3v2H8a1 1 0 100 2h4v2z" fill="#000"/>
</svg>
