<svg width="32" height="32" fill="none" xmlns="http://www.w3.org/2000/svg">
  <path d="M17 15.5v3h-6a1 1 0 100 2h6v3l6-4-6-4zm-12-5v-4c0-.552.449-1 1-1h4c1.322 0 2.138 1.052 2.927 2.068.155.2.304.392.451.57.19.229.473.362.77.362H26c.551 0 1 .448 1 1v1h2v-1c0-1.654-1.346-3-3-3H14.629l-.122-.158C13.577 5.143 12.302 3.5 10 3.5H6c-1.654 0-3 1.346-3 3v4h2zm21.293 14.293C26.918 24.104 28 18.755 28 14.5c0-.683-.318-1-1-1H5c-.682 0-1 .317-1 1 0 4.255 1.082 9.604 1.71 10.296.397.397 2.323 1.704 10.29 1.704 7.967 0 9.893-1.307 10.293-1.707zM27 11.5c1.794 0 3 1.206 3 3 0 3.195-.809 10.224-2.293 11.707C26.186 27.729 22.247 28.5 16 28.5c-6.247 0-10.186-.771-11.707-2.293C2.809 24.724 2 17.695 2 14.5c0-1.794 1.206-3 3-3h22z" fill="#000"/>
</svg>
