<svg xmlns="http://www.w3.org/2000/svg" width="24" height="24" viewBox="0 0 24 24">
  <path fill-rule="evenodd" d="M14.3213,13.5457 L12.0003,15.2337 L9.6783,13.5457 L4.0103,19.3657 C4.7153,19.9907 5.5873,20.4317 6.5643,20.5867 C8.2793,20.8587 10.1083,20.9977 12.0003,20.9977 C13.8913,20.9977 15.7203,20.8587 17.4353,20.5867 C18.4133,20.4317 19.2853,19.9907 19.9893,19.3667 L14.3213,13.5457 Z M2.3003,8.1807 C2.1143,9.4567 2.0003,10.7377 2.0003,11.9977 C2.0003,13.4727 2.1293,14.9747 2.3843,16.4637 C2.4623,16.9167 2.6103,17.3427 2.7993,17.7447 L8.0453,12.3577 L2.3003,8.1807 Z M12.0003,12.7617 L21.1413,6.1127 C20.4253,4.6957 19.0663,3.6677 17.4353,3.4087 C13.9783,2.8597 9.9343,2.8627 6.4813,3.4217 C4.8903,3.6797 3.5603,4.7027 2.8553,6.1107 L12.0003,12.7617 Z M15.9553,12.3577 L21.6993,8.1807 C21.8853,9.4567 22.0003,10.7367 22.0003,11.9977 C22.0003,13.4727 21.8713,14.9747 21.6153,16.4647 C21.5383,16.9177 21.3893,17.3427 21.2013,17.7447 L15.9553,12.3577 Z"/>
</svg>
