<svg width="24" height="24" fill="none" xmlns="http://www.w3.org/2000/svg">
  <path fill-rule="evenodd" clip-rule="evenodd" d="M14.348 13.577L12 15.221l-2.347-1.644-5.628 5.803a5.03 5.03 0 002.54 1.21c1.715.27 3.544.41 5.435.41 1.892 0 3.72-.139 5.436-.41a5.03 5.03 0 002.54-1.21l-5.628-5.803zm1.66-1.16l5.187 5.347a5.04 5.04 0 00.42-1.297A26.46 26.46 0 0022 12c0-1.186-.106-2.389-.271-3.589l-5.721 4.005zM12 12.778l9.23-6.46a5.033 5.033 0 00-3.794-2.909A34.665 34.665 0 0012 3c-1.876.002-3.797.144-5.518.424-1.666.27-3.037 1.382-3.713 2.893l9.23 6.462zm-9.615 3.687A26.45 26.45 0 012 12c0-1.186.107-2.389.272-3.589l5.72 4.005-5.186 5.348a5.022 5.022 0 01-.421-1.298z" fill="#000"/>
</svg>
