<svg width="24" height="24" fill="none" xmlns="http://www.w3.org/2000/svg">
  <path fill-rule="evenodd" clip-rule="evenodd" d="M17.121 18.614c-3.22.512-7.02.512-10.243 0a3.034 3.034 0 01-1.447-.657l4.272-4.43L12 15.25l2.297-1.723 4.272 4.43c-.408.334-.9.57-1.448.657zM4.368 16.177c-.003-.015-.01-.03-.013-.047A24.694 24.694 0 014 12c0-.867.066-1.747.163-2.628l3.927 2.945-3.722 3.86zM6.802 5.398C8.418 5.135 10.23 5.002 12 5a32.59 32.59 0 015.121.386 3.038 3.038 0 012.311 1.8c-.01.006-.022.007-.032.014L12 12.75 4.6 7.2c-.01-.008-.023-.009-.034-.017.397-.933 1.226-1.622 2.236-1.785zm9.108 6.92l3.927-2.946c.097.881.163 1.761.163 2.628 0 1.36-.12 2.75-.356 4.13-.002.015-.009.031-.012.047l-3.722-3.86zm5.706-4.785a5.041 5.041 0 00-4.18-4.123A35.131 35.131 0 0012 3c-1.892 0-3.783.142-5.518.424-2.089.337-3.736 1.99-4.098 4.11A26.58 26.58 0 002 12c0 1.472.13 2.975.384 4.467a5.037 5.037 0 004.18 4.122A34.84 34.84 0 0012 21c1.892 0 3.721-.139 5.435-.41a5.037 5.037 0 004.181-4.124c.255-1.49.384-2.994.384-4.466s-.129-2.975-.384-4.467z" fill="#000"/>
</svg>
