<svg width="24" height="24" fill="none" xmlns="http://www.w3.org/2000/svg">
  <path fill-rule="evenodd" clip-rule="evenodd" d="M14.707 16.707a.997.997 0 01-1.414 0l-3-3a.996.996 0 01-.279-.871l1-6a.999.999 0 111.972.328l-.915 5.493 2.636 2.636a.999.999 0 010 1.414zm6.735-9.953a5.476 5.476 0 00-4.196-4.196A24.776 24.776 0 0012 2c-1.8 0-3.555.192-5.246.558a5.472 5.472 0 00-4.196 4.196A24.762 24.762 0 002 12c0 1.8.192 3.555.558 5.245a5.47 5.47 0 004.196 4.196C8.445 21.808 10.2 22 12 22c1.8 0 3.555-.192 5.246-.559a5.473 5.473 0 004.196-4.196A24.76 24.76 0 0022 12c0-1.8-.192-3.555-.558-5.246z" fill="#000"/>
</svg>
