<svg width="24" height="24" fill="none" xmlns="http://www.w3.org/2000/svg">
  <path fill-rule="evenodd" clip-rule="evenodd" d="M14.707 15.293a.999.999 0 11-1.414 1.414l-3-3a.997.997 0 01-.279-.871l1-6a.995.995 0 011.15-.822 1 1 0 01.822 1.15l-.915 5.493 2.636 2.636zm4.78 1.53a3.487 3.487 0 01-2.664 2.664 22.886 22.886 0 01-9.646 0 3.486 3.486 0 01-2.664-2.664 22.886 22.886 0 010-9.646 3.484 3.484 0 012.664-2.664 22.886 22.886 0 019.646 0 3.487 3.487 0 012.664 2.664 22.886 22.886 0 010 9.646zm1.954-10.069a5.47 5.47 0 00-4.195-4.195A24.711 24.711 0 0012 2c-1.8 0-3.555.192-5.245.558a5.472 5.472 0 00-4.197 4.196A24.762 24.762 0 002 12c0 1.8.192 3.555.558 5.246a5.472 5.472 0 004.196 4.195C8.445 21.808 10.2 22 12 22c1.8 0 3.555-.192 5.246-.559a5.47 5.47 0 004.195-4.195C21.808 15.555 22 13.8 22 12c0-1.8-.192-3.555-.559-5.246z" fill="#000"/>
</svg>
