<svg width="24" height="24" fill="none" xmlns="http://www.w3.org/2000/svg">
  <path fill-rule="evenodd" clip-rule="evenodd" d="M14.293 8.293l-6 6a.999.999 0 101.414 1.414l6-6a.999.999 0 10-1.414-1.414zm6.242-4.828A4.965 4.965 0 0017 2a4.965 4.965 0 00-3.535 1.465l-3.001 3 1.414 1.414 3.001-3c1.133-1.133 3.109-1.133 4.242 0C19.688 5.445 20 6.198 20 7s-.312 1.555-.879 2.121l-3 3 1.414 1.414 3-3A4.96 4.96 0 0022 7a4.96 4.96 0 00-1.465-3.535zm-8.413 12.656l1.414 1.414-3 3A4.967 4.967 0 017 22a4.968 4.968 0 01-3.536-1.465A4.966 4.966 0 012 17c0-1.336.52-2.591 1.464-3.535l3-3 1.415 1.414-3.001 3A2.98 2.98 0 004 17c0 .802.312 1.555.878 2.121 1.134 1.133 3.11 1.133 4.244 0l3-3z" fill="#000"/>
</svg>
