<svg xmlns="http://www.w3.org/2000/svg" width="32" height="32" viewBox="0 0 32 32">
  <path fill-rule="evenodd" d="M27,23.382 L21,20.382 L21,8.618 L27,11.618 L27,23.382 Z M13,11.618 L19,8.618 L19,20.382 L13,23.382 L13,11.618 Z M28.447,10.106 L20.447,6.106 C20.423,6.094 20.396,6.089 20.372,6.079 C20.329,6.062 20.287,6.046 20.243,6.034 C20.206,6.026 20.169,6.021 20.132,6.016 C20.087,6.01 20.043,6.004 19.998,6.004 C19.956,6.004 19.916,6.01 19.875,6.015 C19.834,6.02 19.794,6.026 19.753,6.035 C19.711,6.046 19.672,6.062 19.631,6.078 C19.605,6.088 19.578,6.093 19.553,6.106 L12,9.882 L4.447,6.106 C4.137,5.951 3.77,5.966 3.475,6.15 C3.18,6.332 3,6.653 3,7 L3,21 C3,21.379 3.214,21.725 3.553,21.895 L11.553,25.895 C11.567,25.903 11.584,25.899 11.6,25.905 C11.728,25.962 11.862,26 12,26 C12.138,26 12.272,25.962 12.4,25.905 C12.416,25.899 12.433,25.903 12.447,25.895 L20,22.118 L27.553,25.895 C27.694,25.965 27.847,26 28,26 C28.183,26 28.365,25.95 28.525,25.851 C28.82,25.668 29,25.347 29,25 L29,11 C29,10.621 28.786,10.276 28.447,10.106 L28.447,10.106 Z"/>
</svg>
