<svg xmlns="http://www.w3.org/2000/svg" width="24" height="24" viewBox="0 0 24 24">
  <path fill-rule="evenodd" d="M21.9604,10.5772 C21.9974,9.7222 21.3184,9.0002 20.4624,9.0002 L3.4994,9.0002 C2.6434,9.0002 1.9644,9.7222 2.0014,10.5772 C2.1594,14.1822 2.8344,16.8482 3.3504,18.4082 C3.6864,19.4232 4.5264,20.1852 5.5734,20.3992 C6.9424,20.6782 9.1394,21.0002 11.9814,21.0002 C14.8224,21.0002 17.0194,20.6782 18.3884,20.3992 C19.4354,20.1852 20.2754,19.4232 20.6114,18.4082 C21.1274,16.8482 21.8024,14.1822 21.9604,10.5772 L21.9604,10.5772 Z M19.4814,5.0002 C20.3094,5.0002 20.9814,5.6722 20.9814,6.5002 L20.9814,8.0002 L2.9814,8.0002 L2.9814,4.0002 C2.9814,3.4472 3.4284,3.0002 3.9814,3.0002 L7.7444,3.0002 C8.5024,3.0002 9.1944,3.4282 9.5334,4.1052 L9.9814,5.0002 L19.4814,5.0002 Z"/>
</svg>
