<svg xmlns="http://www.w3.org/2000/svg" width="24" height="24" viewBox="0 0 24 24">
  <path fill-rule="evenodd" d="M16,12.25 L16,5.75 C16,3.679 14.2090667,2 12,2 C9.79093333,2 8,3.679 8,5.75 L8,12.25 C8,14.321 9.79093333,16 12,16 C14.2090667,16 16,14.321 16,12.25 Z M17,21 C17,21.553 16.553,22 16,22 L8,22 C7.447,22 7,21.553 7,21 C7,20.447 7.447,20 8,20 L11,20 L11,18.92 C7.613,18.432 5,15.519 5,12 C5,11.447 5.447,11 6,11 C6.553,11 7,11.447 7,12 C7,14.757 9.243,17 12,17 C14.757,17 17,14.757 17,12 C17,11.447 17.447,11 18,11 C18.553,11 19,11.447 19,12 C19,15.519 16.387,18.432 13,18.92 L13,20 L16,20 C16.553,20 17,20.447 17,21"/>
</svg>
