<svg width="24" height="24" fill="none" xmlns="http://www.w3.org/2000/svg">
  <path fill-rule="evenodd" clip-rule="evenodd" d="M21 10V2l-3.082 3.082a5.203 5.203 0 00-1.944-.873 20.309 20.309 0 00-8.517 0 5.238 5.238 0 00-4.004 4.004A20.15 20.15 0 003 12.471c0 1.435.152 2.869.453 4.258a5.237 5.237 0 004.003 4.004 20.167 20.167 0 008.517 0 5.237 5.237 0 004.005-4.004 1 1 0 00-1.956-.421 3.229 3.229 0 01-2.472 2.47c-2.5.54-5.167.541-7.671 0a3.23 3.23 0 01-2.471-2.471 18.219 18.219 0 010-7.672A3.231 3.231 0 017.88 6.164a18.336 18.336 0 017.672 0c.33.071.639.196.924.36L13 10h8z" fill="#000"/>
</svg>
