<svg xmlns="http://www.w3.org/2000/svg" width="16" height="16" viewBox="0 0 16 16">
  <path fill-rule="evenodd" d="M10.4829,8.7627 C10.1079,9.2527 9.5809,9.6237 8.9999,9.8267 L8.9999,10.9997 C8.9999,11.5527 8.5519,11.9997 7.9999,11.9997 C7.4479,11.9997 6.9999,11.5527 6.9999,10.9997 L6.9999,8.9997 C6.9999,8.4477 7.4479,7.9997 7.9999,7.9997 C8.3329,7.9997 8.6839,7.8227 8.8949,7.5477 C9.0879,7.2937 9.1389,6.9907 9.0459,6.6447 C8.9589,6.3237 8.5659,6.0527 8.0919,5.9877 C7.8369,5.9527 7.2079,5.9327 6.8579,6.5147 C6.5729,6.9887 5.9569,7.1407 5.4859,6.8577 C5.0119,6.5737 4.8579,5.9587 5.1429,5.4857 C5.7999,4.3877 7.0349,3.8167 8.3669,4.0057 C9.6519,4.1847 10.6759,5.0147 10.9759,6.1207 C11.2329,7.0727 11.0589,8.0097 10.4829,8.7627 M14.6089,4.3277 C14.2909,2.8567 13.1439,1.7087 11.6719,1.3907 C10.4879,1.1347 9.2599,0.9997 7.9999,0.9997 C6.7399,0.9997 5.5119,1.1347 4.3279,1.3907 C2.8569,1.7077 1.7089,2.8567 1.3909,4.3277 C1.1349,5.5117 0.9999,6.7407 0.9999,7.9997 C0.9999,9.2597 1.1349,10.4887 1.3909,11.6717 C1.7089,13.1437 2.8559,14.2907 4.3279,14.6097 C5.5119,14.8657 6.7399,14.9997 7.9999,14.9997 C9.2599,14.9997 10.4879,14.8657 11.6719,14.6097 C13.1439,14.2907 14.2909,13.1437 14.6089,11.6717 C14.8649,10.4887 14.9999,9.2597 14.9999,7.9997 C14.9999,6.7407 14.8649,5.5117 14.6089,4.3277"/>
</svg>
