<svg width="16" height="16" fill="none" xmlns="http://www.w3.org/2000/svg">
  <path fill-rule="evenodd" clip-rule="evenodd" d="M8 10H7V8h1a1.001 1.001 0 000-2c-.356 0-.688.192-.867.501a1 1 0 11-1.731-1.002A3.012 3.012 0 018 4c1.654 0 3 1.346 3 3s-1.346 3-3 3zm-1 2h2v-1H7v1zm6.544-9.544C12.474 1.388 10.724 1 8 1c-2.725 0-4.475.388-5.543 1.456C1.387 3.526 1 5.276 1 8c0 2.725.388 4.475 1.457 5.544C3.525 14.612 5.275 15 8 15s4.475-.388 5.544-1.456C14.612 12.474 15 10.724 15 8c0-2.725-.388-4.475-1.456-5.544z" fill="#000"/>
</svg>
