<svg width="16" height="16" fill="none" xmlns="http://www.w3.org/2000/svg">
  <path fill-rule="evenodd" clip-rule="evenodd" d="M8 4a3.012 3.012 0 00-2.598 1.499 1 1 0 101.731 1.002A1.001 1.001 0 118 8H7v2h1c1.654 0 3-1.346 3-3S9.654 4 8 4zm-1 8h2v-1H7v1zm5.654-.75a1.835 1.835 0 01-1.405 1.404C10.19 12.884 9.096 13 8 13s-2.189-.116-3.25-.346a1.838 1.838 0 01-1.405-1.405A15.413 15.413 0 013 8c0-1.097.116-2.19.345-3.25A1.838 1.838 0 014.75 3.346 15.364 15.364 0 018 3c1.096 0 2.19.116 3.25.346a1.835 1.835 0 011.404 1.405c.23 1.06.346 2.153.346 3.25 0 1.095-.116 2.187-.346 3.248zm1.955-6.922a3.831 3.831 0 00-2.937-2.937A17.357 17.357 0 008 1.001c-1.26 0-2.488.134-3.672.39a3.828 3.828 0 00-2.937 2.937A17.357 17.357 0 001.001 8c0 1.26.134 2.488.39 3.672a3.831 3.831 0 002.937 2.937 17.422 17.422 0 007.344.001 3.832 3.832 0 002.937-2.938 17.422 17.422 0 00.001-7.344z" fill="#000"/>
</svg>
