<svg width="32" height="32" fill="none" xmlns="http://www.w3.org/2000/svg">
  <path fill-rule="evenodd" clip-rule="evenodd" d="M19 17h11v6.411a4 4 0 01-3.611 3.982C23.52 27.673 19.433 28 16 28c-3.433 0-7.52-.327-10.389-.607A4 4 0 012 23.411V17h11v2a1 1 0 001 1h4a1 1 0 001-1v-2zm-7-9.901V6a1 1 0 011-1h6a1 1 0 011 1v1.099A87.141 87.141 0 0016 7c-1.352 0-2.699.039-4 .099zm14.416.479c-1.254-.128-2.77-.261-4.416-.368V6c0-1.654-1.346-3-3-3h-6c-1.654 0-3 1.346-3 3v1.21c-1.646.107-3.162.24-4.416.368A3.995 3.995 0 002 11.557V15h28v-3.443a3.995 3.995 0 00-3.584-3.979z" fill="#000"/>
</svg>
