<svg xmlns="http://www.w3.org/2000/svg" width="32" height="32" viewBox="0 0 32 32">
  <path fill-rule="evenodd" d="M26.1943,25.4023 C23.4003,25.6743 19.3643,26.0003 16.0003,26.0003 C12.6353,26.0003 8.5993,25.6743 5.8053,25.4023 C4.7763,25.3013 4.0003,24.4453 4.0003,23.4113 L4.0003,17.0003 L13.0003,17.0003 L13.0003,19.0003 C13.0003,19.5523 13.4473,20.0003 14.0003,20.0003 L18.0003,20.0003 C18.5523,20.0003 19.0003,19.5523 19.0003,19.0003 L19.0003,17.0003 L28.0003,17.0003 L28.0003,23.4113 C28.0003,24.4453 27.2233,25.3013 26.1943,25.4023 L26.1943,25.4023 Z M5.7863,9.5673 C8.3343,9.3083 12.1733,9.0003 16.0003,9.0003 C19.8263,9.0003 23.6663,9.3083 26.2143,9.5673 C27.2323,9.6713 28.0003,10.5263 28.0003,11.5563 L28.0003,15.0003 L4.0003,15.0003 L4.0003,11.5563 C4.0003,10.5263 4.7673,9.6713 5.7863,9.5673 L5.7863,9.5673 Z M12.0003,6.0003 C12.0003,5.4483 12.4483,5.0003 13.0003,5.0003 L19.0003,5.0003 C19.5513,5.0003 20.0003,5.4483 20.0003,6.0003 L20.0003,7.0983 C18.6993,7.0393 17.3513,7.0003 16.0003,7.0003 C14.6483,7.0003 13.3003,7.0393 12.0003,7.0983 L12.0003,6.0003 Z M26.4163,7.5783 C25.1623,7.4503 23.6463,7.3173 22.0003,7.2103 L22.0003,6.0003 C22.0003,4.3453 20.6543,3.0003 19.0003,3.0003 L13.0003,3.0003 C11.3453,3.0003 10.0003,4.3453 10.0003,6.0003 L10.0003,7.2103 C8.3533,7.3173 6.8383,7.4503 5.5843,7.5783 C3.5463,7.7853 2.0003,9.5073 2.0003,11.5563 L2.0003,23.4113 C2.0003,25.4713 3.5603,27.1923 5.6113,27.3923 C8.4803,27.6733 12.5673,28.0003 16.0003,28.0003 C19.4323,28.0003 23.5193,27.6733 26.3883,27.3923 C28.4393,27.1923 30.0003,25.4713 30.0003,23.4113 L30.0003,11.5563 C30.0003,9.5073 28.4543,7.7853 26.4163,7.5783 L26.4163,7.5783 Z"/>
</svg>
