<svg width="32" height="32" fill="none" xmlns="http://www.w3.org/2000/svg">
  <path fill-rule="evenodd" clip-rule="evenodd" d="M26.194 25.402C23.4 25.674 19.364 26 16 26c-3.365 0-7.4-.326-10.195-.598A1.994 1.994 0 014 23.412V17h9v2a1 1 0 001 1h4a1 1 0 001-1v-2h9v6.411c0 1.034-.777 1.89-1.806 1.991zM5.786 9.567C8.334 9.308 12.173 9 16 9c3.826 0 7.666.308 10.214.567A1.989 1.989 0 0128 11.557V15H4v-3.444c0-1.03.767-1.885 1.786-1.989zM12 6a1 1 0 011-1h6c.551 0 1 .448 1 1v1.098A88.64 88.64 0 0016 7c-1.352 0-2.7.04-4 .098V6zm14.416 1.578c-1.254-.128-2.77-.26-4.416-.368V6c0-1.655-1.346-3-3-3h-6c-1.655 0-3 1.345-3 3v1.21c-1.647.107-3.162.24-4.416.368A3.994 3.994 0 002 11.556v11.855c0 2.06 1.56 3.781 3.611 3.981 2.87.281 6.956.608 10.39.608 3.431 0 7.518-.327 10.387-.608A3.998 3.998 0 0030 23.412V11.555a3.994 3.994 0 00-3.584-3.978z" fill="#000"/>
</svg>
