<svg width="16" height="16" fill="none" xmlns="http://www.w3.org/2000/svg">
  <g clip-path="url(#16x16/check_rosette/filled__clip0)">
    <path d="M11.707 5.293a.999.999 0 00-1.414 0L7 8.586 5.707 7.293a.999.999 0 10-1.414 1.414l2 2a.997.997 0 001.414 0l4-4a.999.999 0 000-1.414zm4 3.414l-.963.964.504 1.513a.999.999 0 01-.632 1.264l-1.416.473V14.3a.998.998 0 01-.385.788.988.988 0 01-.857.182l-2.251-.563-1 1a.997.997 0 01-1.414 0l-1-1-2.251.563A.998.998 0 012.8 14.3v-1.379l-1.416-.473a.999.999 0 01-.632-1.264l.504-1.513-.963-.964a.999.999 0 010-1.414l.963-.964-.504-1.513a.999.999 0 01.632-1.264L2.8 3.079V1.7A.998.998 0 014.042.73l2.251.563 1-1a.999.999 0 011.414 0l1 1L11.958.73a.998.998 0 011.242.97v1.379l1.416.473c.524.175.807.74.632 1.264l-.504 1.513.963.964a.999.999 0 010 1.414z" fill="#000"/>
  </g>
  <defs>
    <clipPath id="16x16/check_rosette/filled__clip0">
      <path fill="#fff" d="M0 0h16v16H0z"/>
    </clipPath>
  </defs>
</svg>
