<svg width="16" height="16" fill="none" xmlns="http://www.w3.org/2000/svg">
  <g clip-path="url(#16x16/check_rosette/outline__clip0)">
    <path d="M7 10.75a.75.75 0 01-.53-.22l-2-2a.75.75 0 111.06-1.06L7 8.94l3.47-3.47a.75.75 0 111.06 1.06l-4 4a.748.748 0 01-.53.22zm-.633 2.28l-1.929.48v-1.174a.777.777 0 00-.529-.736l-1.433-.477.48-1.433a.774.774 0 00-.189-.792L1.87 8l.898-.899a.774.774 0 00.188-.792l-.479-1.432L3.91 4.4a.775.775 0 00.53-.735V2.49l1.928.481a.776.776 0 00.734-.203l.9-.898.897.898a.778.778 0 00.735.203l1.928-.48v1.174c0 .334.213.63.53.735l1.432.478-.478 1.432a.773.773 0 00.187.792l.9.9-.9.897a.774.774 0 00-.187.792l.478 1.433-1.432.477a.776.776 0 00-.53.736v1.174l-1.928-.48a.778.778 0 00-.735.202l-.898.9-.899-.9a.774.774 0 00-.734-.203zm2.181 2.743l1.135-1.136 2.465.617a.772.772 0 00.962-.751v-1.61l1.638-.546a.775.775 0 00.49-.979l-.572-1.714 1.107-1.106a.776.776 0 000-1.096l-1.107-1.107.572-1.713a.776.776 0 00-.49-.98l-1.638-.546V1.497a.775.775 0 00-.962-.75l-2.465.615L8.548.226a.778.778 0 00-1.096 0L6.316 1.362 3.851.746a.777.777 0 00-.664.14.778.778 0 00-.298.611v1.61l-1.637.545a.777.777 0 00-.49.98l.572 1.713L.226 7.452a.778.778 0 000 1.096l1.108 1.106-.573 1.714a.775.775 0 00.491.98l1.637.545v1.61a.775.775 0 00.962.751l2.465-.617 1.136 1.136a.771.771 0 001.096 0z" fill="#000"/>
  </g>
  <defs>
    <clipPath id="16x16/check_rosette/outline__clip0">
      <path fill="#fff" d="M0 0h16v16H0z"/>
    </clipPath>
  </defs>
</svg>
