<svg width="16" height="16" fill="none" xmlns="http://www.w3.org/2000/svg">
  <path fill-rule="evenodd" clip-rule="evenodd" d="M14.903 1.06A3.81 3.81 0 0012.25 0c-.962 0-1.924.354-2.657 1.06L1.22 9.21a.71.71 0 000 1.026.772.772 0 001.063 0l8.372-8.152a2.316 2.316 0 013.187 0 2.13 2.13 0 010 3.078l-9.435 9.175a.789.789 0 01-1.062 0 .709.709 0 010-1.025L12.07 4.82a.709.709 0 000-1.026.772.772 0 00-1.063 0l-8.724 8.492a2.126 2.126 0 000 3.078c.424.41.99.635 1.593.635a2.28 2.28 0 001.592-.636l9.435-9.177A3.556 3.556 0 0016 3.626a3.553 3.553 0 00-1.097-2.566z" fill="#000"/>
</svg>
