<svg xmlns="http://www.w3.org/2000/svg" width="32" height="32" viewBox="0 0 32 32">
  <path fill-rule="evenodd" d="M22.4229,20.712 C21.7909,19.522 20.6919,18.615 19.3679,18.235 C19.7689,21.151 17.9379,23.292 15.3869,23.232 C16.0329,22.73 17.9469,20.955 17.3099,18.069 L17.3089,18.069 C16.7029,15.612 14.6029,13.798 12.0389,13.567 C12.0269,13.385 11.9999,13.204 11.9999,13.022 C11.9999,10.974 12.7899,9.115 14.2249,7.79 C15.1599,6.925 16.3069,6.35 17.5169,6.116 C16.9849,7.177 16.5459,8.428 16.5459,9.749 C16.5459,14.099 20.8549,16.791 24.8459,16.791 C25.5249,16.791 26.1729,16.725 26.8019,16.589 C26.1609,18.697 24.6479,20.119 22.4229,20.712 M29.0949,15.217 C29.1289,14.864 28.9739,14.52 28.6859,14.311 C28.3989,14.103 28.0209,14.064 27.6969,14.206 C26.8009,14.6 25.8679,14.791 24.8459,14.791 C21.8169,14.791 18.5459,12.863 18.5459,9.749 C18.5459,8.19 19.4609,6.618 20.1499,5.571 C20.3449,5.275 20.3679,4.899 20.2129,4.582 C20.0579,4.265 19.7449,4.053 19.3929,4.025 C17.0359,3.843 14.6479,4.675 12.8669,6.321 C11.0189,8.03 9.9999,10.409 9.9999,13.022 C9.9999,13.251 10.0339,13.478 10.0499,13.706 C7.4409,14.358 5.4999,16.714 5.4999,19.522 C5.4999,19.779 5.5199,20.04 5.5599,20.307 C4.0609,20.89 2.9999,22.352 2.9999,24.022 C2.9999,26.228 4.7939,28.022 6.9999,28.022 L17.9999,28.022 C20.7569,28.022 22.9999,25.778 22.9999,23.022 C22.9999,22.884 22.9769,22.753 22.9659,22.618 C26.4569,21.662 28.7329,18.971 29.0949,15.217"/>
</svg>
