<svg xmlns="http://www.w3.org/2000/svg" width="32" height="32" viewBox="0 0 32 32">
  <path fill-rule="evenodd" d="M22.4102,20.715 C21.5722,19.122 19.9212,18.022 18.0002,18.022 C17.7672,18.022 17.5372,18.038 17.3082,18.069 C16.7032,15.612 14.6022,13.798 12.0392,13.568 C12.0272,13.385 12.0002,13.204 12.0002,13.022 C12.0002,10.974 12.7902,9.115 14.2242,7.79 C15.1602,6.925 16.3062,6.35 17.5162,6.116 C16.9842,7.177 16.5462,8.428 16.5462,9.749 C16.5462,14.099 20.8542,16.791 24.8462,16.791 C25.5242,16.791 26.1732,16.725 26.8022,16.589 C26.1602,18.701 24.6412,20.125 22.4102,20.715 M18.0002,26.022 L7.0002,26.022 C5.8972,26.022 5.0002,25.124 5.0002,24.022 C5.0002,22.978 5.7922,22.126 6.8412,22.043 C7.1452,22.019 7.4232,21.857 7.5932,21.603 C7.7632,21.349 7.8072,21.031 7.7142,20.74 C7.5682,20.286 7.5002,19.899 7.5002,19.522 C7.5002,17.316 9.2942,15.522 11.5002,15.522 C13.6462,15.522 15.3952,17.209 15.4812,19.364 C15.4832,19.412 15.4952,19.457 15.5042,19.503 C15.5042,19.509 15.5002,19.515 15.5002,19.522 C15.5002,20.439 15.1982,21.302 14.6272,22.017 C14.2822,22.448 14.3522,23.077 14.7842,23.422 C14.9692,23.569 15.1882,23.641 15.4072,23.641 C15.7012,23.641 15.9922,23.512 16.1892,23.265 C16.9182,22.353 17.3442,21.236 17.4532,20.075 C17.6332,20.041 17.8152,20.022 18.0002,20.022 C19.6542,20.022 21.0002,21.367 21.0002,23.022 C21.0002,24.676 19.6542,26.022 18.0002,26.022 M29.0952,15.217 C29.1292,14.864 28.9732,14.52 28.6852,14.311 C28.3982,14.103 28.0202,14.064 27.6972,14.206 C26.8012,14.6 25.8682,14.791 24.8462,14.791 C21.8162,14.791 18.5462,12.863 18.5462,9.749 C18.5462,8.19 19.4612,6.618 20.1492,5.571 C20.3452,5.276 20.3682,4.9 20.2132,4.582 C20.0572,4.265 19.7452,4.053 19.3922,4.025 C17.0392,3.843 14.6472,4.675 12.8672,6.321 C11.0182,8.03 10.0002,10.409 10.0002,13.022 C10.0002,13.251 10.0342,13.478 10.0502,13.706 C7.4402,14.358 5.5002,16.714 5.5002,19.522 C5.5002,19.779 5.5192,20.04 5.5592,20.307 C4.0602,20.89 3.0002,22.352 3.0002,24.022 C3.0002,26.228 4.7942,28.022 7.0002,28.022 L18.0002,28.022 C20.7572,28.022 23.0002,25.778 23.0002,23.022 C23.0002,22.884 22.9712,22.755 22.9592,22.62 C26.4542,21.666 28.7322,18.974 29.0952,15.217"/>
</svg>
