<svg xmlns="http://www.w3.org/2000/svg" width="16" height="16" viewBox="0 0 16 16">
  <path fill-rule="evenodd" d="M13,8 L13,11 C13,12.103 12.103,13 11,13 L5,13 C3.897,13 3,12.103 3,11 L3,5 C3,3.897 3.897,3 5,3 L8,3 L8,1 L5,1 C2.794,1 1,2.794 1,5 L1,11 C1,13.206 2.794,15 5,15 L11,15 C13.206,15 15,13.206 15,11 L15,8 L13,8 Z M11.792,2.793 L10,1 L15,1 L15,6 L13.207,4.207 L8.707,8.707 C8.511,8.902 8.255,9 8,9 C7.744,9 7.488,8.902 7.292,8.707 C6.902,8.316 6.902,7.684 7.292,7.293 L11.792,2.793 Z"/>
</svg>
