<svg xmlns="http://www.w3.org/2000/svg" width="16" height="16" viewBox="0 0 16 16">
  <path fill-rule="evenodd" d="M5,10.00025 L7,10.00025 L7,5.00025 L5,5.00025 L5,10.00025 Z M6.61,3.00025 L9.39,3.00025 L8,2.16625 L6.61,3.00025 Z M9,10.00025 L11,10.00025 L11,5.00025 L9,5.00025 L9,10.00025 Z M1.342,11.65925 L3,10.00025 L3,5.00025 C2.551,5.00025 2.156,4.70025 2.036,4.26725 C1.916,3.83425 2.1,3.37425 2.485,3.14325 L7.485,0.14325 C7.802,-0.04775 8.198,-0.04775 8.515,0.14325 L13.515,3.14325 C13.9,3.37425 14.084,3.83425 13.964,4.26725 C13.844,4.70025 13.449,5.00025 13,5.00025 L13,10.00025 L14.658,11.65925 C14.784,11.78525 14.695,12.00025 14.518,12.00025 L1.482,12.00025 C1.305,12.00025 1.216,11.78525 1.342,11.65925 L1.342,11.65925 Z M15,13.50025 L15,14.50025 C15,14.77625 14.776,15.00025 14.5,15.00025 L1.5,15.00025 C1.224,15.00025 1,14.77625 1,14.50025 L1,13.50025 C1,13.22425 1.224,13.00025 1.5,13.00025 L14.5,13.00025 C14.776,13.00025 15,13.22425 15,13.50025 L15,13.50025 Z"/>
</svg>
