<svg width="32" height="32" fill="none" xmlns="http://www.w3.org/2000/svg">
  <path fill-rule="evenodd" clip-rule="evenodd" d="M27.833 23.427a1.646 1.646 0 00-1.26-1.26 7.476 7.476 0 00-3.146 0 1.646 1.646 0 00-1.26 1.259 7.492 7.492 0 000 3.147 1.645 1.645 0 001.259 1.26c.508.11 1.034.167 1.574.167a7.41 7.41 0 001.573-.167 1.645 1.645 0 001.26-1.26 7.469 7.469 0 000-3.146zm-9 0a1.646 1.646 0 00-1.26-1.26 7.476 7.476 0 00-3.146 0 1.646 1.646 0 00-1.26 1.259 7.492 7.492 0 000 3.147 1.645 1.645 0 001.259 1.26c.508.11 1.034.167 1.574.167a7.41 7.41 0 001.573-.167 1.645 1.645 0 001.26-1.26 7.469 7.469 0 000-3.146zm-9 0a1.646 1.646 0 00-1.26-1.26 7.476 7.476 0 00-3.146 0 1.646 1.646 0 00-1.26 1.259 7.492 7.492 0 000 3.147 1.645 1.645 0 001.259 1.26C5.934 27.943 6.46 28 7 28a7.41 7.41 0 001.573-.167 1.645 1.645 0 001.26-1.26 7.469 7.469 0 000-3.146zm18-9a1.646 1.646 0 00-1.26-1.26 7.476 7.476 0 00-3.146 0 1.646 1.646 0 00-1.26 1.259 7.492 7.492 0 000 3.147 1.645 1.645 0 001.259 1.26c.508.11 1.034.167 1.574.167a7.41 7.41 0 001.573-.167 1.645 1.645 0 001.26-1.26 7.469 7.469 0 000-3.146zm-9 0a1.646 1.646 0 00-1.26-1.26 7.476 7.476 0 00-3.146 0 1.646 1.646 0 00-1.26 1.259 7.492 7.492 0 000 3.147 1.645 1.645 0 001.259 1.26c.508.11 1.034.167 1.574.167a7.41 7.41 0 001.573-.167 1.645 1.645 0 001.26-1.26 7.469 7.469 0 000-3.146zm-9 0a1.646 1.646 0 00-1.26-1.26 7.476 7.476 0 00-3.146 0 1.646 1.646 0 00-1.26 1.259 7.492 7.492 0 000 3.147 1.645 1.645 0 001.259 1.26C5.934 18.943 6.46 19 7 19a7.41 7.41 0 001.573-.167 1.645 1.645 0 001.26-1.26 7.469 7.469 0 000-3.146zm18-9a1.646 1.646 0 00-1.26-1.26 7.476 7.476 0 00-3.146 0 1.646 1.646 0 00-1.26 1.259 7.492 7.492 0 000 3.147 1.645 1.645 0 001.259 1.26c.508.11 1.034.167 1.574.167a7.41 7.41 0 001.573-.167 1.645 1.645 0 001.26-1.26 7.469 7.469 0 000-3.146zm-9 0a1.646 1.646 0 00-1.26-1.26 7.476 7.476 0 00-3.146 0 1.646 1.646 0 00-1.26 1.259 7.492 7.492 0 000 3.147 1.645 1.645 0 001.259 1.26c.508.11 1.034.167 1.574.167a7.41 7.41 0 001.573-.167 1.645 1.645 0 001.26-1.26 7.469 7.469 0 000-3.146zm-9 0a1.646 1.646 0 00-1.26-1.26 7.476 7.476 0 00-3.146 0 1.646 1.646 0 00-1.26 1.259 7.492 7.492 0 000 3.147 1.645 1.645 0 001.259 1.26C5.934 9.943 6.46 10 7 10a7.41 7.41 0 001.573-.167 1.645 1.645 0 001.26-1.26 7.469 7.469 0 000-3.146z" fill="#000"/>
</svg>
