<svg xmlns="http://www.w3.org/2000/svg" width="32" height="32" viewBox="0 0 32 32">
  <path fill-rule="evenodd" d="M10.0000186,20 C10.3600078,20 10.7109992,20.0385202 11.049163,20.1116193 C11.4696833,20.2025284 11.7975107,20.530396 11.888419,20.9508831 C11.9615174,21.2890128 12,21.6400446 12,22.0000372 C12,22.3600669 11.9615174,22.7110615 11.888419,23.0491913 C11.7975107,23.4696784 11.4696461,23.7975832 11.0490886,23.8884551 C10.710962,23.961517 10.3600078,24 10.0000186,24 C9.64002937,24 9.28900085,23.961517 8.95087423,23.8883807 C8.53039105,23.7974716 8.20252647,23.469604 8.11161822,23.0491169 C8.03851981,22.7109872 8,22.3599926 8,21.9999628 C8,21.6399703 8.03851981,21.2889756 8.11161822,20.9508831 C8.20252647,20.530396 8.53039105,20.2025284 8.95087423,20.1116193 C9.28900085,20.0385202 9.64002937,20 10.0000186,20 Z M16.0000186,20 C16.3600078,20 16.7109992,20.0385202 17.049163,20.1116193 C17.4696833,20.2025284 17.7975107,20.530396 17.888419,20.9508831 C17.9615174,21.2890128 18,21.6400446 18,22.0000372 C18,22.3600669 17.9615174,22.7110615 17.888419,23.0491913 C17.7975107,23.4696784 17.4696461,23.7975832 17.0490886,23.8884551 C16.710962,23.961517 16.3600078,24 16.0000186,24 C15.6400294,24 15.2890008,23.961517 14.9508742,23.8883807 C14.5303911,23.7974716 14.2025265,23.469604 14.1116182,23.0491169 C14.0385198,22.7109872 14,22.3599926 14,21.9999628 C14,21.6399703 14.0385198,21.2889756 14.1116182,20.9508831 C14.2025265,20.530396 14.5303911,20.2025284 14.9508742,20.1116193 C15.2890008,20.0385202 15.6400294,20 16.0000186,20 Z M22.0000186,20 C22.3600078,20 22.7109992,20.0385202 23.049163,20.1116193 C23.4696833,20.2025284 23.7975107,20.530396 23.888419,20.9508831 C23.9615174,21.2890128 24,21.6400446 24,22.0000372 C24,22.3600669 23.9615174,22.7110615 23.888419,23.0491913 C23.7975107,23.4696784 23.4696461,23.7975832 23.0490886,23.8884551 C22.710962,23.961517 22.3600078,24 22.0000186,24 C21.6400294,24 21.2890008,23.961517 20.9508742,23.8883807 C20.5303911,23.7974716 20.2025265,23.469604 20.1116182,23.0491169 C20.0385198,22.7109872 20,22.3599926 20,21.9999628 C20,21.6399703 20.0385198,21.2889756 20.1116182,20.9508831 C20.2025265,20.530396 20.5303911,20.2025284 20.9508742,20.1116193 C21.2890008,20.0385202 21.6400294,20 22.0000186,20 Z M10.0000186,14 C10.3600078,14 10.7109992,14.0385202 11.049163,14.1116193 C11.4696833,14.2025284 11.7975107,14.530396 11.888419,14.9508831 C11.9615174,15.2890128 12,15.6400446 12,16.0000372 C12,16.3600669 11.9615174,16.7110615 11.888419,17.0491913 C11.7975107,17.4696784 11.4696461,17.7975832 11.0490886,17.8884551 C10.710962,17.961517 10.3600078,18 10.0000186,18 C9.64002937,18 9.28900085,17.961517 8.95087423,17.8883807 C8.53039105,17.7974716 8.20252647,17.469604 8.11161822,17.0491169 C8.03851981,16.7109872 8,16.3599926 8,15.9999628 C8,15.6399703 8.03851981,15.2889756 8.11161822,14.9508831 C8.20252647,14.530396 8.53039105,14.2025284 8.95087423,14.1116193 C9.28900085,14.0385202 9.64002937,14 10.0000186,14 Z M16.0000186,14 C16.3600078,14 16.7109992,14.0385202 17.049163,14.1116193 C17.4696833,14.2025284 17.7975107,14.530396 17.888419,14.9508831 C17.9615174,15.2890128 18,15.6400446 18,16.0000372 C18,16.3600669 17.9615174,16.7110615 17.888419,17.0491913 C17.7975107,17.4696784 17.4696461,17.7975832 17.0490886,17.8884551 C16.710962,17.961517 16.3600078,18 16.0000186,18 C15.6400294,18 15.2890008,17.961517 14.9508742,17.8883807 C14.5303911,17.7974716 14.2025265,17.469604 14.1116182,17.0491169 C14.0385198,16.7109872 14,16.3599926 14,15.9999628 C14,15.6399703 14.0385198,15.2889756 14.1116182,14.9508831 C14.2025265,14.530396 14.5303911,14.2025284 14.9508742,14.1116193 C15.2890008,14.0385202 15.6400294,14 16.0000186,14 Z M22.0000186,14 C22.3600078,14 22.7109992,14.0385202 23.049163,14.1116193 C23.4696833,14.2025284 23.7975107,14.530396 23.888419,14.9508831 C23.9615174,15.2890128 24,15.6400446 24,16.0000372 C24,16.3600669 23.9615174,16.7110615 23.888419,17.0491913 C23.7975107,17.4696784 23.4696461,17.7975832 23.0490886,17.8884551 C22.710962,17.961517 22.3600078,18 22.0000186,18 C21.6400294,18 21.2890008,17.961517 20.9508742,17.8883807 C20.5303911,17.7974716 20.2025265,17.469604 20.1116182,17.0491169 C20.0385198,16.7109872 20,16.3599926 20,15.9999628 C20,15.6399703 20.0385198,15.2889756 20.1116182,14.9508831 C20.2025265,14.530396 20.5303911,14.2025284 20.9508742,14.1116193 C21.2890008,14.0385202 21.6400294,14 22.0000186,14 Z M10.0000186,8 C10.3600078,8 10.7109992,8.03852017 11.049163,8.11161926 C11.4696833,8.20252835 11.7975107,8.53039598 11.888419,8.95088306 C11.9615174,9.28901283 12,9.64004462 12,10.0000372 C12,10.3600669 11.9615174,10.7110615 11.888419,11.0491913 C11.7975107,11.4696784 11.4696461,11.7975832 11.0490886,11.8884551 C10.710962,11.961517 10.3600078,12 10.0000186,12 C9.64002937,12 9.28900085,11.961517 8.95087423,11.8883807 C8.53039105,11.7974716 8.20252647,11.469604 8.11161822,11.0491169 C8.03851981,10.7109872 8,10.3599926 8,9.99996282 C8,9.63997025 8.03851981,9.28897565 8.11161822,8.95088306 C8.20252647,8.53039598 8.53039105,8.20252835 8.95087423,8.11161926 C9.28900085,8.03852017 9.64002937,8 10.0000186,8 Z M16.0000186,8 C16.3600078,8 16.7109992,8.03852017 17.049163,8.11161926 C17.4696833,8.20252835 17.7975107,8.53039598 17.888419,8.95088306 C17.9615174,9.28901283 18,9.64004462 18,10.0000372 C18,10.3600669 17.9615174,10.7110615 17.888419,11.0491913 C17.7975107,11.4696784 17.4696461,11.7975832 17.0490886,11.8884551 C16.710962,11.961517 16.3600078,12 16.0000186,12 C15.6400294,12 15.2890008,11.961517 14.9508742,11.8883807 C14.5303911,11.7974716 14.2025265,11.469604 14.1116182,11.0491169 C14.0385198,10.7109872 14,10.3599926 14,9.99996282 C14,9.63997025 14.0385198,9.28897565 14.1116182,8.95088306 C14.2025265,8.53039598 14.5303911,8.20252835 14.9508742,8.11161926 C15.2890008,8.03852017 15.6400294,8 16.0000186,8 Z M22.0000186,8 C22.3600078,8 22.7109992,8.03852017 23.049163,8.11161926 C23.4696833,8.20252835 23.7975107,8.53039598 23.888419,8.95088306 C23.9615174,9.28901283 24,9.64004462 24,10.0000372 C24,10.3600669 23.9615174,10.7110615 23.888419,11.0491913 C23.7975107,11.4696784 23.4696461,11.7975832 23.0490886,11.8884551 C22.710962,11.961517 22.3600078,12 22.0000186,12 C21.6400294,12 21.2890008,11.961517 20.9508742,11.8883807 C20.5303911,11.7974716 20.2025265,11.469604 20.1116182,11.0491169 C20.0385198,10.7109872 20,10.3599926 20,9.99996282 C20,9.63997025 20.0385198,9.28897565 20.1116182,8.95088306 C20.2025265,8.53039598 20.5303911,8.20252835 20.9508742,8.11161926 C21.2890008,8.03852017 21.6400294,8 22.0000186,8 Z"/>
</svg>
