<svg width="24" height="24" fill="none" xmlns="http://www.w3.org/2000/svg">
  <path d="M21.707 20.293L19.914 18.5l1.793-1.793a.999.999 0 10-1.414-1.414L18.5 17.086l-1.793-1.793a.999.999 0 10-1.414 1.414l1.793 1.793-1.793 1.793a.999.999 0 101.414 1.414l1.793-1.793 1.793 1.793a.997.997 0 001.414 0 .999.999 0 000-1.414zM12 20c-3.697 0-6.376-2.663-6.908-3.744C5.821 15.767 8.075 15 12 15c.716 0 1.377.025 1.982.069.368-.591.98-1.444 1.447-1.864A26.988 26.988 0 0012 13c-5.564 0-9 1.439-9 3 0 1.977 4 6 9 6 .686 0 1.36-.079 2.001-.215v-2.049A7.807 7.807 0 0112 20zm0-16c-.514 0-1 0-1 2 0 2.219.823 3 1 3 .177 0 1-.781 1-3 0-2-.486-2-1-2zm0 7c-1.574 0-3-1.798-3-5 0-2.904 1.136-4 3-4s3 1.096 3 4c0 3.202-1.426 5-3 5z" fill="#000"/>
</svg>
