<svg width="24" height="24" fill="none" xmlns="http://www.w3.org/2000/svg">
  <path fill-rule="evenodd" clip-rule="evenodd" d="M20 11H4c0 2.902.736 5.119 1.223 6.586l.064.194a.98.98 0 00.724.659C7.193 18.68 9.099 19 12 19s4.807-.32 5.989-.561a.98.98 0 00.724-.659l.064-.194C19.264 16.119 20 13.902 20 11zm2 0c0 3.36-.873 5.849-1.388 7.408a2.972 2.972 0 01-2.224 1.991C17.02 20.678 15 21 12 21s-5.02-.322-6.388-.601a2.972 2.972 0 01-2.224-1.991C2.873 16.849 2 14.36 2 11c0-1.215.664-2 2-2h16c1.336 0 2 .785 2 2zM4.981 8h-2V5c0-1.103.916-2 2.019-2h3c1.357 0 2.087 1.122 2.574 2H18c1.755 0 2.981 1.233 2.981 3h-2c0-.663-.33-1-.981-1H9.981a1 1 0 01-.874-.514l-.153-.28C8.694 5.726 8.301 5 8 5H4.981v3z" fill="#000"/>
</svg>
