<svg xmlns="http://www.w3.org/2000/svg" width="24" height="24" viewBox="0 0 24 24">
  <path fill-rule="evenodd" d="M19.936,11 L4.026,11 C4.209,14.09 4.786,16.378 5.249,17.78 C5.361,18.118 5.638,18.371 5.973,18.439 C7.229,18.695 9.29,19 11.981,19 C14.671,19 16.733,18.695 17.989,18.439 C18.324,18.371 18.601,18.118 18.712,17.78 C19.176,16.378 19.752,14.089 19.936,11 L19.936,11 Z M21.96,10.577 C21.802,14.183 21.127,16.849 20.612,18.408 C20.276,19.423 19.435,20.186 18.388,20.399 C17.019,20.678 14.823,21 11.981,21 C9.139,21 6.943,20.678 5.574,20.399 C4.527,20.186 3.686,19.423 3.35,18.408 C2.834,16.849 2.16,14.183 2.001,10.577 C1.964,9.722 2.643,9 3.499,9 L20.462,9 C21.319,9 21.998,9.722 21.96,10.577 L21.96,10.577 Z M4.981,8 L2.981,8 L2.981,5 C2.981,3.897 3.878,3 4.981,3 L7.745,3 C8.888,3 9.916,3.636 10.428,4.658 L10.599,5 L18.481,5 C19.86,5 20.981,6.121 20.981,7.5 L20.981,8 L18.981,8 L18.981,7.5 C18.981,7.225 18.756,7 18.481,7 L9.363,7 L8.639,5.553 C8.469,5.212 8.126,5 7.745,5 L4.981,5 L4.981,8 Z"/>
</svg>
