<svg xmlns="http://www.w3.org/2000/svg" width="24" height="24" viewBox="0 0 24 24">
  <path fill-rule="evenodd" d="M18,14.9999817 C18,15.5529817 17.553,15.9999817 17,15.9999817 L14,15.9999817 C13.447,15.9999817 13,15.5529817 13,14.9999817 C13,14.4469817 13.447,13.9999817 14,13.9999817 L17,13.9999817 C17.553,13.9999817 18,14.4469817 18,14.9999817 L18,14.9999817 Z M18,10.9999817 C18,11.5529817 17.553,11.9999817 17,11.9999817 L14,11.9999817 C13.447,11.9999817 13,11.5529817 13,10.9999817 C13,10.4469817 13.447,9.99998168 14,9.99998168 L17,9.99998168 C17.553,9.99998168 18,10.4469817 18,10.9999817 L18,10.9999817 Z M12,12.9999817 C12,14.6569817 10.657,15.9999817 9,15.9999817 C7.343,15.9999817 6,14.6569817 6,12.9999817 C6,11.3429817 7.343,9.99998168 9,9.99998168 C10.657,9.99998168 12,11.3429817 12,12.9999817 L12,12.9999817 Z M20,15.5789817 C20,16.5839817 19.252,17.4369817 18.26,17.5629817 C15.989,17.8539817 13.883,17.9999817 12,17.9999817 C10.117,17.9999817 8.011,17.8539817 5.74,17.5629817 C4.748,17.4369817 4,16.5839817 4,15.5789817 L4,10.4209817 C4,9.41598168 4.748,8.56298168 5.74,8.43698168 C8.011,8.14598168 10.117,7.99998168 12,7.99998168 C13.883,7.99998168 15.989,8.14598168 18.26,8.43698168 C18.332,8.44598168 18.4,8.46698168 18.47,8.48298168 L18.746,8.58998168 C18.771,8.59998168 18.797,8.59698168 18.822,8.60398168 C19.52,8.91998168 20,9.61898168 20,10.4209817 L20,15.5789817 Z M19.107,6.58498168 L7.359,2.06598168 C6.842,1.86998168 6.266,2.12498168 6.066,2.64098168 C5.868,3.15598168 6.126,3.73498168 6.641,3.93398168 L12.014,5.99998168 L12,5.99998168 C9.657,5.99998168 7.315,6.21998168 5.487,6.45298168 C3.49,6.70798168 2,8.40698168 2,10.4209817 L2,15.5789817 C2,17.4229817 3.256,18.9899817 5,19.4379817 L5,20.9999817 C5,21.5529817 5.447,21.9999817 6,21.9999817 C6.553,21.9999817 7,21.5529817 7,20.9999817 L7,19.7209817 C8.527,19.8789817 10.263,19.9999817 12,19.9999817 C13.737,19.9999817 15.473,19.8789817 17,19.7209817 L17,20.9999817 C17,21.5529817 17.447,21.9999817 18,21.9999817 C18.553,21.9999817 19,21.5529817 19,20.9999817 L19,19.4379817 C20.744,18.9899817 22,17.4229817 22,15.5789817 L22,10.4209817 C22,8.61398168 20.797,7.06898168 19.107,6.58498168 L19.107,6.58498168 Z"/>
</svg>
