<svg xmlns="http://www.w3.org/2000/svg" width="16" height="16" viewBox="0 0 16 16">
  <path fill-rule="evenodd" d="M15.999,6.0586 C15.845,9.6836 14.931,12.0876 14.017,12.9986 C13.515,13.4986 10.758,13.9996 8,13.9996 C7.62,13.9996 7.242,13.9886 6.867,13.9706 C6.946,13.6586 7,13.3366 7,12.9996 C7,12.6406 6.937,12.2986 6.849,11.9666 C7.22,11.9866 7.602,11.9996 8,11.9996 C10.202,11.9996 12.076,11.6666 12.721,11.4396 C13.06,10.9566 13.697,9.5616 13.933,6.9996 L2.067,6.9996 C2.141,7.8036 2.257,8.4796 2.388,9.0616 C1.689,9.1696 1.058,9.4566 0.527,9.8776 C0.261,8.8196 0.064,7.5486 0.001,6.0586 C-0.023,5.4846 0.426,4.9996 1.003,4.9996 L14.997,4.9996 C15.574,4.9996 16.023,5.4846 15.999,6.0586 L15.999,6.0586 Z M6,12.9996 C6,13.5526 5.553,13.9996 5,13.9996 L4,13.9996 L4,14.9996 C4,15.5526 3.553,15.9996 3,15.9996 C2.447,15.9996 2,15.5526 2,14.9996 L2,13.9996 L1,13.9996 C0.447,13.9996 0,13.5526 0,12.9996 C0,12.4476 0.447,11.9996 1,11.9996 L2,11.9996 L2,10.9996 C2,10.4476 2.447,9.9996 3,9.9996 C3.553,9.9996 4,10.4476 4,10.9996 L4,11.9996 L5,11.9996 C5.553,11.9996 6,12.4476 6,12.9996 L6,12.9996 Z M7,1.9996 L6.553,1.1056 C6.214,0.4276 5.521,-0.0004 4.764,-0.0004 L2,-0.0004 C1.447,-0.0004 1,0.4476 1,0.9996 L1,3.9996 L15,3.9996 L15,2.9996 C15,2.4476 14.553,1.9996 14,1.9996 L7,1.9996 Z"/>
</svg>
