<svg width="24" height="24" fill="none" xmlns="http://www.w3.org/2000/svg">
  <path d="M18 9.027V9c0-3.309-2.691-6-6-6-2.106 0-4.06.95-5.227 2.541-.906 1.235-1.257 2.772-1.03 4.425-.876.093-1.671.421-2.313.966A4.078 4.078 0 002 14c0 .684.176 1.36.509 1.953l1.744-.98A1.979 1.979 0 014 14c0-.58.271-1.158.725-1.543.528-.448 1.258-.61 2.113-.47A1 1 0 007.954 10.7c-.488-1.55-.339-2.926.432-3.977C9.166 5.66 10.551 5 12 5c2.206 0 4 1.794 4 4 0 .09-.024.187-.031.28a4.51 4.51 0 00-2.365 1.968.998.998 0 00.864 1.501 1 1 0 00.866-.499 2.502 2.502 0 014.437 2.298C19.7 14.698 19.05 16 17.782 16h-6l2 2h4c1.9 0 3.233-1.4 3.797-2.599a4.423 4.423 0 00.421-1.9 4.507 4.507 0 00-4-4.474zM7 14l5 4-5 4v-3H3v-2h4v-3z" fill="#000"/>
</svg>
