<svg xmlns="http://www.w3.org/2000/svg" width="24" height="24" viewBox="0 0 24 24">
  <path fill-rule="evenodd" d="M16,18.2627 L13.109,16.3357 C12.773,16.1127 12.387,15.9997 12,15.9997 C11.613,15.9997 11.227,16.1127 10.891,16.3357 L8,18.2627 L8,4.9997 C8,4.1297 8.627,3.9997 9,3.9997 L15,3.9997 C15.373,3.9997 16,4.1297 16,4.9997 L16,18.2627 Z M15,1.9997 L9,1.9997 C7.294,1.9997 6,3.2117 6,4.9997 L6,21.9997 L12,17.9997 L18,21.9997 L18,4.9997 C18,3.2117 16.706,1.9997 15,1.9997 L15,1.9997 Z"/>
</svg>
