<svg xmlns="http://www.w3.org/2000/svg" width="24" height="24" viewBox="0 0 24 24">
  <path fill-rule="evenodd" d="M10.7314,16.5146 C7.5424,16.5146 4.9484,13.9206 4.9484,10.7316 C4.9484,7.5416 7.5424,4.9486 10.7314,4.9486 C13.9204,4.9486 16.5144,7.5416 16.5144,10.7316 C16.5144,13.9206 13.9204,16.5146 10.7314,16.5146 M20.5934,18.5286 C19.9174,17.8226 19.1464,17.2076 18.3484,16.6216 C17.9514,16.3276 17.5334,16.0536 17.1024,15.7916 C16.9824,15.7236 16.8594,15.6576 16.7374,15.5896 C17.8144,14.2606 18.4624,12.5716 18.4624,10.7316 C18.4624,6.4676 14.9944,2.9996 10.7314,2.9996 C6.4674,2.9996 3.0004,6.4676 3.0004,10.7316 C3.0004,14.9946 6.4674,18.4626 10.7314,18.4626 C12.5794,18.4626 14.2754,17.8096 15.6074,16.7246 C15.6724,16.8446 15.7374,16.9656 15.8034,17.0836 C16.0634,17.5166 16.3354,17.9356 16.6274,18.3346 C17.2104,19.1356 17.8194,19.9096 18.5224,20.5896 C19.0844,21.1316 19.9814,21.1396 20.5494,20.5946 C21.1324,20.0356 21.1524,19.1116 20.5934,18.5286"/>
</svg>
