<svg xmlns="http://www.w3.org/2000/svg" width="16" height="16" viewBox="0 0 16 16">
  <path fill-rule="evenodd" d="M3.793,10.793 L1.293,13.293 C0.902,13.684 0.902,14.316 1.293,14.707 C1.488,14.902 1.744,15 2,15 C2.256,15 2.512,14.902 2.707,14.707 L5.207,12.207 L7,14 L7,9 L2,9 L3.793,10.793 Z M14.707,1.293 C14.316,0.902 13.684,0.902 13.293,1.293 L10.793,3.793 L9,2 L9,7 L14,7 L12.207,5.207 L14.707,2.707 C15.098,2.316 15.098,1.684 14.707,1.293 L14.707,1.293 Z M3,6 L3,7 L5,7 L5,6 C5,5.448 5.448,5 6,5 L7,5 L7,3 L6,3 C4.346,3 3,4.346 3,6 L3,6 Z M11,9 L13,9 L13,10 C13,11.654 11.654,13 10,13 L9,13 L9,11 L10,11 C10.552,11 11,10.552 11,10 L11,9 Z"/>
</svg>
