<svg xmlns="http://www.w3.org/2000/svg" width="24" height="24" viewBox="0 0 24 24">
  <path fill-rule="evenodd" d="M16,13 L13,13 L13,16 C13,16.553 12.553,17 12,17 C11.447,17 11,16.553 11,16 L11,13 L8,13 C7.447,13 7,12.553 7,12 C7,11.447 7.447,11 8,11 L11,11 L11,8 C11,7.447 11.447,7 12,7 C12.553,7 13,7.447 13,8 L13,11 L16,11 C16.553,11 17,11.447 17,12 C17,12.553 16.553,13 16,13 M21.441,6.754 C20.987,4.652 19.348,3.013 17.246,2.559 C15.555,2.192 13.8,2 12,2 C10.2,2 8.445,2.192 6.755,2.558 C4.651,3.012 3.013,4.651 2.558,6.754 C2.192,8.444 2,10.199 2,12 C2,13.8 2.192,15.555 2.558,17.245 C3.013,19.348 4.651,20.987 6.754,21.441 C8.445,21.808 10.2,22 12,22 C13.8,22 15.555,21.808 17.246,21.441 C19.348,20.987 20.987,19.348 21.441,17.245 C21.808,15.555 22,13.8 22,12 C22,10.2 21.808,8.445 21.441,6.754"/>
</svg>
