<svg width="24" height="24" fill="none" xmlns="http://www.w3.org/2000/svg">
  <path fill-rule="evenodd" clip-rule="evenodd" d="M12 13H7c0 2 2.266 4 5 4s5-2 5-4h-5zm-3.022-1.603c.829 0 1.5-.839 1.5-1.875s-.671-1.875-1.5-1.875-1.5.839-1.5 1.875.671 1.875 1.5 1.875zm6 0c.829 0 1.5-.839 1.5-1.875s-.671-1.875-1.5-1.875-1.5.839-1.5 1.875.671 1.875 1.5 1.875zM12 22c-1.8 0-3.555-.192-5.246-.558a5.476 5.476 0 01-4.196-4.197A24.76 24.76 0 012 12c0-1.8.192-3.555.558-5.245a5.476 5.476 0 014.196-4.197A24.776 24.776 0 0112 2c1.8 0 3.555.192 5.246.558a5.474 5.474 0 014.196 4.197A24.76 24.76 0 0122 12c0 1.801-.192 3.556-.558 5.246a5.472 5.472 0 01-4.197 4.196A24.76 24.76 0 0112 22z" fill="#000"/>
</svg>
