<svg width="24" height="24" fill="none" xmlns="http://www.w3.org/2000/svg">
  <path fill-rule="evenodd" clip-rule="evenodd" d="M12 13H7c0 2 2.266 4 5 4s5-2 5-4h-5zM8.978 7.647c-.829 0-1.5.839-1.5 1.875s.671 1.875 1.5 1.875c.828 0 1.5-.839 1.5-1.875s-.672-1.875-1.5-1.875zm6 0c-.829 0-1.5.839-1.5 1.875s.671 1.875 1.5 1.875 1.5-.839 1.5-1.875-.671-1.875-1.5-1.875zM12 2c-1.8 0-3.555.192-5.246.559a5.473 5.473 0 00-4.196 4.195A24.776 24.776 0 002 12c0 1.8.192 3.555.558 5.246a5.473 5.473 0 004.196 4.195C8.445 21.808 10.2 22 12 22c1.8 0 3.555-.192 5.245-.558a5.472 5.472 0 004.197-4.196c.366-1.69.558-3.445.558-5.246 0-1.8-.192-3.555-.558-5.246a5.472 5.472 0 00-4.196-4.195A24.711 24.711 0 0012 2zm0 2c1.626 0 3.249.173 4.823.513a3.486 3.486 0 012.664 2.664 22.886 22.886 0 010 9.646 3.484 3.484 0 01-2.664 2.664 22.886 22.886 0 01-9.646 0 3.486 3.486 0 01-2.664-2.664A22.82 22.82 0 014 12c0-1.626.172-3.249.513-4.823a3.486 3.486 0 012.664-2.664A22.886 22.886 0 0112 4z" fill="#000"/>
</svg>
