<svg width="24" height="24" fill="none" xmlns="http://www.w3.org/2000/svg">
  <path d="M7.99 16.948C5.475 16.69 3.5 14.582 3.5 12c0-2.757 2.243-5 5-5s5 2.243 5 5c0 .647-.136 1.26-.361 1.83l1.713 1.096A6.942 6.942 0 0015.5 12c0-3.86-3.14-7-7-7s-7 3.14-7 7 3.14 7 7 7c.416 0 .823-.04 1.219-.112l-1.729-1.94zM22.5 12c0 3.86-3.141 7-7 7-3.86 0-7-3.14-7-7 0-1.045.234-2.035.647-2.926l1.714 1.097a4.947 4.947 0 00-.361 1.83c0 2.756 2.243 5 5 5s5-2.244 5-5c0-2.583-1.976-4.69-4.49-4.949l-1.729-1.94A6.9 6.9 0 0115.5 5c3.859 0 7 3.14 7 7z" fill="#000"/>
</svg>
