<svg xmlns="http://www.w3.org/2000/svg" width="24" height="24" viewBox="0 0 24 24">
  <path fill-rule="evenodd" d="M16,8 L15,8 L15,10 L16,10 C17.103,10 18,10.897 18,12 L18,18 C18,19.103 17.103,20 16,20 L8,20 C6.897,20 6,19.103 6,18 L6,12 C6,10.897 6.897,10 8,10 L9,10 L9,8 L8,8 C5.794,8 4,9.794 4,12 L4,18 C4,20.206 5.794,22 8,22 L16,22 C18.206,22 20,20.206 20,18 L20,12 C20,9.794 18.206,8 16,8 L16,8 Z M11,7 L8,7 L12,1 L16,7 L13,7 L13,14 C13,14.553 12.553,15 12,15 C11.447,15 11,14.553 11,14 L11,7 Z"/>
</svg>
