<svg width="16" height="16" fill="none" xmlns="http://www.w3.org/2000/svg">
  <g clip-path="url(#16x16/checkbox_empty/outline__clip0)">
    <path d="M8 2a17.627 17.627 0 00-3.77.4A2.38 2.38 0 002.4 4.23a18 18 0 000 7.54 2.38 2.38 0 001.83 1.83A18.24 18.24 0 008 14a18.282 18.282 0 003.77-.4 2.38 2.38 0 001.83-1.83A18.24 18.24 0 0014 8a18.282 18.282 0 00-.4-3.77 2.38 2.38 0 00-1.83-1.83A18.288 18.288 0 008 2zm0-2c1.412-.003 2.82.148 4.2.45a4.36 4.36 0 013.35 3.35c.302 1.38.453 2.788.45 4.2a19.447 19.447 0 01-.45 4.2 4.36 4.36 0 01-3.35 3.35c-1.38.302-2.788.453-4.2.45a19.447 19.447 0 01-4.2-.45A4.36 4.36 0 01.45 12.2 19.448 19.448 0 010 8c-.003-1.412.148-2.82.45-4.2A4.36 4.36 0 013.8.45 19.448 19.448 0 018 0z" fill="#000"/>
  </g>
  <defs>
    <clipPath id="16x16/checkbox_empty/outline__clip0">
      <path fill="#fff" d="M0 0h16v16H0z"/>
    </clipPath>
  </defs>
</svg>
