<svg xmlns="http://www.w3.org/2000/svg" width="24" height="24" viewBox="0 0 24 24">
  <path fill-rule="evenodd" d="M11,16 C10.735,16 10.481,15.896 10.293,15.707 L7.293,12.707 C6.902,12.316 6.902,11.684 7.293,11.293 C7.488,11.098 7.744,11 8,11 C8.256,11 8.512,11.098 8.707,11.293 L10.933,13.519 L15.231,8.359 C15.43,8.122 15.714,8 16,8 C16.226,8 16.453,8.076 16.641,8.231 C17.064,8.585 17.122,9.216 16.769,9.641 L11.768,15.641 C11.588,15.856 11.326,15.986 11.045,15.999 C11.03,16 11.015,16 11,16 M21.441,6.754 C20.987,4.652 19.348,3.013 17.246,2.559 C15.555,2.192 13.8,2 12,2 C10.2,2 8.445,2.192 6.754,2.558 C4.652,3.012 3.013,4.651 2.558,6.754 C2.192,8.444 2,10.199 2,12 C2,13.8 2.192,15.555 2.558,17.245 C3.013,19.348 4.651,20.987 6.754,21.441 C8.445,21.808 10.2,22 12,22 C13.8,22 15.555,21.808 17.246,21.441 C19.348,20.987 20.987,19.348 21.441,17.245 C21.808,15.555 22,13.8 22,12 C22,10.2 21.808,8.445 21.441,6.754"/>
</svg>
