<svg width="24" height="24" fill="none" xmlns="http://www.w3.org/2000/svg">
  <path fill-rule="evenodd" clip-rule="evenodd" d="M20 9H4c-1.336 0-2 .785-2 2 0 1.347.143 2.547.344 3.61A4.975 4.975 0 016 13a5 5 0 015 5 4.96 4.96 0 01-.98 2.949c.608.031 1.264.051 1.98.051 3 0 5.02-.322 6.388-.601a2.97 2.97 0 002.223-1.991C21.127 16.849 22 14.36 22 11c0-1.215-.664-2-2-2zm.98-1c0-1.767-1.225-3-2.98-3h-7.426C10.087 4.121 9.357 3 8 3H5c-1.103 0-2.02.897-2.02 2v3h18zM10 18a1 1 0 01-1 1H7v2a1 1 0 11-2 0v-2H3a1 1 0 110-2h2v-2a1 1 0 112 0v2h2a1 1 0 011 1z" fill="#000"/>
</svg>
