<svg width="24" height="24" fill="none" xmlns="http://www.w3.org/2000/svg">
  <path d="M20 9c1.336 0 2 .785 2 2 0 3.36-.873 5.849-1.389 7.408a2.97 2.97 0 01-2.223 1.991C17.02 20.678 15 21 12 21c-.716 0-1.372-.02-1.98-.051A4.96 4.96 0 0011 18a5 5 0 00-5-5 4.975 4.975 0 00-3.656 1.61A19.293 19.293 0 012 11c0-1.215.664-2 2-2h16zm.98-1h-18V5c0-1.103.917-2 2.02-2h3c1.357 0 2.087 1.121 2.574 2H18c1.755 0 2.98 1.233 2.98 3zM9 17H7v-2a1 1 0 10-2 0v2H3a1 1 0 100 2h2v2a1 1 0 102 0v-2h2a1 1 0 100-2z" fill="#000"/>
</svg>
