<svg xmlns="http://www.w3.org/2000/svg" width="24" height="24" viewBox="0 0 24 24">
  <path fill-rule="evenodd" d="M20.5108,9 L3.4918,9 C2.6418,9 1.9628,9.715 2.0018,10.562 C2.0708,12.094 2.2388,13.392 2.4478,14.485 C3.3538,13.569 4.6098,13 5.9998,13 C8.7618,13 10.9998,15.238 10.9998,18 C10.9998,18.7 10.8538,19.365 10.5938,19.971 C11.0448,19.988 11.5098,20 11.9998,20 C14.5208,20 16.5348,19.747 17.9148,19.496 C19.3508,19.235 20.5238,18.202 20.9698,16.815 C21.4118,15.44 21.8708,13.384 21.9978,10.56 C22.0358,9.714 21.3598,9 20.5108,9 L20.5108,9 Z M21.0178,6.5 C21.0178,5.672 20.3448,5 19.5148,5 L9.9958,5 L9.5478,4.105 C9.2088,3.428 8.5148,3 7.7558,3 L3.9848,3 C3.4318,3 2.9828,3.447 2.9828,4 L2.9828,8 L21.0178,8 L21.0178,6.5 Z M9.9998,18 L9.9998,18 C9.9998,18.553 9.5528,19 8.9998,19 L6.9998,19 L6.9998,21 C6.9998,21.553 6.5528,22 5.9998,22 C5.4478,22 4.9998,21.553 4.9998,21 L4.9998,19 L2.9998,19 C2.4478,19 1.9998,18.553 1.9998,18 C1.9998,17.447 2.4478,17 2.9998,17 L4.9998,17 L4.9998,15 C4.9998,14.447 5.4478,14 5.9998,14 C6.5528,14 6.9998,14.447 6.9998,15 L6.9998,17 L8.9998,17 C9.5528,17 9.9998,17.447 9.9998,18 L9.9998,18 Z"/>
</svg>
