<svg xmlns="http://www.w3.org/2000/svg" width="24" height="24" viewBox="0 0 24 24">
  <path fill-rule="evenodd" d="M20.5117,9 L3.4917,9 C2.6427,9 1.9627,9.715 2.0017,10.562 C2.0707,12.094 2.2387,13.392 2.4477,14.485 C2.9567,13.97 3.5837,13.579 4.2777,13.323 C4.1707,12.637 4.0827,11.865 4.0287,11 L19.9717,11 C19.8187,13.437 19.4007,15.162 19.0657,16.202 C18.8437,16.892 18.2657,17.399 17.5567,17.528 C16.3747,17.743 14.4517,18 11.9997,18 C11.6547,18 11.3227,17.993 10.9977,17.984 C10.9977,17.989 10.9997,17.994 10.9997,18 C10.9997,18.7 10.8537,19.365 10.5937,19.971 C11.0447,19.988 11.5097,20 11.9997,20 C14.5207,20 16.5347,19.747 17.9147,19.496 C19.3507,19.234 20.5237,18.202 20.9697,16.815 C21.4117,15.439 21.8707,13.384 21.9977,10.56 C22.0357,9.713 21.3597,9 20.5117,9 L20.5117,9 Z M8.9997,17 L6.9997,17 L6.9997,15 C6.9997,14.447 6.5527,14 5.9997,14 C5.4477,14 4.9997,14.447 4.9997,15 L4.9997,17 L2.9997,17 C2.4477,17 1.9997,17.447 1.9997,18 C1.9997,18.553 2.4477,19 2.9997,19 L4.9997,19 L4.9997,21 C4.9997,21.553 5.4477,22 5.9997,22 C6.5527,22 6.9997,21.553 6.9997,21 L6.9997,19 L8.9997,19 C9.5527,19 9.9997,18.553 9.9997,18 C9.9997,17.447 9.5527,17 8.9997,17 L8.9997,17 Z M4.9827,8 L2.9827,8 L2.9827,5 C2.9827,3.897 3.8807,3 4.9847,3 L7.7557,3 C8.9017,3 9.9307,3.636 10.4427,4.658 L10.6137,5 L18.5147,5 C19.8947,5 21.0177,6.121 21.0177,7.5 L21.0177,8 L19.0177,8 L19.0177,7.5 C19.0177,7.225 18.7917,7 18.5147,7 L9.3787,7 L8.6547,5.554 C8.4837,5.212 8.1387,5 7.7557,5 L4.9847,5 L4.9827,8 Z"/>
</svg>
