<svg width="24" height="24" fill="none" xmlns="http://www.w3.org/2000/svg">
  <path d="M20 9c1.336 0 2 .785 2 2 0 3.36-.873 5.849-1.389 7.408a2.97 2.97 0 01-2.223 1.991C17.02 20.678 15 21 12 21c-.716 0-1.372-.02-1.98-.051a4.948 4.948 0 00.88-1.966c.351.01.715.017 1.1.017 2.901 0 4.808-.32 5.988-.561a.98.98 0 00.725-.659l.064-.194C19.264 16.119 20 13.902 20 11H4c0 .848.067 1.629.168 2.357a5.005 5.005 0 00-1.824 1.253A19.293 19.293 0 012 11c0-1.215.664-2 2-2h16zM4.98 5v3h-2V5c0-1.103.916-2 2.02-2h3c1.357 0 2.088 1.122 2.574 2H18c1.756 0 2.98 1.233 2.98 3h-2c0-.663-.33-1-.98-1H9.98a.999.999 0 01-.873-.514l-.153-.28C8.693 5.726 8.301 5 8 5H4.98zM9 17H7v-2a1 1 0 10-2 0v2H3a1 1 0 100 2h2v2a1 1 0 102 0v-2h2a1 1 0 100-2z" fill="#000"/>
</svg>
