<svg width="24" height="24" fill="none" xmlns="http://www.w3.org/2000/svg">
  <path fill-rule="evenodd" clip-rule="evenodd" d="M20 9H4c-1.336 0-2 .785-2 2 0 1.347.143 2.547.344 3.61a5.005 5.005 0 011.824-1.253A17.031 17.031 0 014 11h16c0 2.902-.736 5.119-1.223 6.586l-.064.194a.98.98 0 01-.725.659C16.808 18.68 14.901 19 12 19c-.385 0-.749-.007-1.1-.017a4.948 4.948 0 01-.88 1.966c.608.031 1.264.051 1.98.051 3 0 5.02-.322 6.388-.601a2.97 2.97 0 002.223-1.991C21.127 16.849 22 14.36 22 11c0-1.215-.664-2-2-2zM4.98 5H8c.301 0 .693.726.954 1.206l.153.28A.999.999 0 009.98 7H18c.65 0 .98.337.98 1h2c0-1.767-1.224-3-2.98-3h-7.426C10.088 4.122 9.357 3 8 3H5c-1.104 0-2.02.897-2.02 2v3h2V5zM10 18a1 1 0 01-1 1H7v2a1 1 0 11-2 0v-2H3a1 1 0 110-2h2v-2a1 1 0 112 0v2h2a1 1 0 011 1z" fill="#000"/>
</svg>
