<svg width="32" height="32" fill="none" xmlns="http://www.w3.org/2000/svg">
  <path d="M18 15a2 2 0 10-4 0 2 2 0 004 0zm-7.5-2a2 2 0 110 4 2 2 0 010-4zm5.5 6a2 2 0 110 4 2 2 0 010-4zm12-3c0-5-.73-7.72-2.5-9.5A7.66 7.66 0 0022 4.6v1.9a1.5 1.5 0 01-3 0V4.12C18.1 4 17.11 4 16 4s-2.1 0-3 .12V6.5a1.5 1.5 0 01-3 0V4.6a7.66 7.66 0 00-3.5 1.9C4.73 8.28 4 11 4 16c0 4.32.44 5.09 3.46 8.46 3.02 3.37 4.19 3.54 8.1 3.54H16c5 0 7.73-.72 9.5-2.5C27.27 23.72 28 21 28 16zm-2 0c0 4.32-.58 6.73-1.92 8.08C22.74 25.43 20.32 26 16 26h-.33a10.66 10.66 0 01-3.67-.33v-3.75a3 3 0 00-3-3H6.16A15.35 15.35 0 016 16a24.06 24.06 0 01.42-5h19.16a24.03 24.03 0 01.42 5zm-4.5 3a2 2 0 110 4 2 2 0 010-4zm0-6a2 2 0 110 4 2 2 0 010-4z" fill="#000"/>
</svg>
