<svg xmlns="http://www.w3.org/2000/svg" width="24" height="24" viewBox="0 0 24 24">
  <path fill-rule="evenodd" d="M18.8441,7.4121 C18.5191,6.9651 17.8941,6.8671 17.4471,7.1921 C17.0001,7.5161 16.9011,8.1421 17.2271,8.5881 C18.4281,10.2401 18.7151,13.3761 17.2271,15.4101 C16.9021,15.8561 16.9991,16.4821 17.4451,16.8081 C17.6231,16.9381 17.8291,17.0001 18.0341,17.0001 C18.3431,17.0001 18.6461,16.8591 18.8431,16.5901 C20.6881,14.0661 20.6881,9.9481 18.8441,7.4121 M14.8941,4.5531 C14.9391,4.6441 16.0001,6.8231 16.0001,12.0001 C16.0001,17.1771 14.9391,19.3571 14.8941,19.4471 C14.7601,19.7181 14.5101,19.9121 14.2151,19.9771 C14.1431,19.9921 14.0711,20.0001 14.0001,20.0001 C13.7751,20.0001 13.5551,19.9241 13.3751,19.7811 L8.6491,16.0001 L7.0001,16.0001 C5.3461,16.0001 4.0001,14.6541 4.0001,13.0001 L4.0001,11.0001 C4.0001,9.3461 5.3461,8.0001 7.0001,8.0001 L8.6491,8.0001 L13.3751,4.2191 C13.6111,4.0301 13.9191,3.9581 14.2151,4.0241 C14.5101,4.0881 14.7601,4.2821 14.8941,4.5531"/>
</svg>
