<svg xmlns="http://www.w3.org/2000/svg" width="24" height="24" viewBox="0 0 24 24">
  <path fill-rule="evenodd" d="M9,10.0002 C9.228,10.0002 9.447,9.9232 9.625,9.7812 L13.489,6.6892 C13.731,7.7262 14,9.4482 14,12.0002 C14,14.5442 13.73,16.2692 13.487,17.3092 L9.625,14.2192 C9.447,14.0772 9.228,14.0002 9,14.0002 L7,14.0002 C6.448,14.0002 6,13.5522 6,13.0002 L6,11.0002 C6,10.4482 6.448,10.0002 7,10.0002 L9,10.0002 Z M14.215,19.9772 C14.51,19.9122 14.76,19.7182 14.895,19.4472 C14.939,19.3562 16,17.1772 16,12.0002 C16,6.8232 14.939,4.6442 14.895,4.5532 C14.76,4.2822 14.51,4.0882 14.215,4.0232 C13.918,3.9582 13.611,4.0302 13.375,4.2192 L8.649,8.0002 L7,8.0002 C5.346,8.0002 4,9.3462 4,11.0002 L4,13.0002 C4,14.6542 5.346,16.0002 7,16.0002 L8.649,16.0002 L13.375,19.7812 C13.555,19.9242 13.775,20.0002 14,20.0002 C14.071,20.0002 14.144,19.9922 14.215,19.9772 L14.215,19.9772 Z M18.034,17.0002 C17.829,17.0002 17.623,16.9372 17.445,16.8082 C16.999,16.4812 16.902,15.8552 17.228,15.4102 C18.715,13.3762 18.428,10.2402 17.227,8.5882 C16.901,8.1422 17,7.5162 17.447,7.1912 C17.895,6.8672 18.52,6.9652 18.844,7.4122 C20.688,9.9482 20.688,14.0652 18.843,16.5902 C18.646,16.8582 18.343,17.0002 18.034,17.0002 L18.034,17.0002 Z"/>
</svg>
