<svg xmlns="http://www.w3.org/2000/svg" width="24" height="24" viewBox="0 0 24 24">
  <path fill-rule="evenodd" d="M16.5,12 C15.672,12 15,11.328 15,10.5 C15,9.672 15.672,9 16.5,9 C17.328,9 18,9.672 18,10.5 C18,11.328 17.328,12 16.5,12 M12,12 C11.172,12 10.5,11.328 10.5,10.5 C10.5,9.672 11.172,9 12,9 C12.828,9 13.5,9.672 13.5,10.5 C13.5,11.328 12.828,12 12,12 M7.5,12 C6.672,12 6,11.328 6,10.5 C6,9.672 6.672,9 7.5,9 C8.328,9 9,9.672 9,10.5 C9,11.328 8.328,12 7.5,12 M12,2 C5.415,2 2,4.073 2,10 C2,13.73 3.355,15.932 6,17.053 L6,22 L12,18 C18.585,18 22,15.927 22,10 C22,4.073 18.585,2 12,2"/>
</svg>
