<svg width="24" height="24" fill="none" xmlns="http://www.w3.org/2000/svg">
  <path fill-rule="evenodd" clip-rule="evenodd" d="M13.5 10.5a1.5 1.5 0 11-3.001-.001 1.5 1.5 0 013.001.001zm4.5 0a1.5 1.5 0 11-3.001-.001A1.5 1.5 0 0118 10.5zm-9 0a1.5 1.5 0 11-3.001-.001A1.5 1.5 0 019 10.5zm3 5.5h-.605l-.504.336L8 18.263v-2.534l-1.22-.517C5.405 14.629 4 13.554 4 10c0-3.8 1.309-6 8-6s8 2.2 8 6-1.309 6-8 6zm0-14C5.415 2 2 4.073 2 10c0 3.73 1.355 5.932 4 7.053V22l6-4c6.585 0 10-2.073 10-8s-3.415-8-10-8z" fill="#000"/>
</svg>
