<svg width="16" height="16" fill="none" xmlns="http://www.w3.org/2000/svg">
  <g clip-path="url(#16x16/time_large/outline__clip0)">
    <path d="M8 2a18.28 18.28 0 013.77.4 2.38 2.38 0 011.83 1.83A18.24 18.24 0 0114 8a18.282 18.282 0 01-.4 3.77 2.38 2.38 0 01-1.83 1.83A18.24 18.24 0 018 14a18.282 18.282 0 01-3.77-.4 2.38 2.38 0 01-1.83-1.83 18 18 0 010-7.54A2.38 2.38 0 014.23 2.4 17.62 17.62 0 018 2zm0-2a19.44 19.44 0 00-4.2.45A4.36 4.36 0 00.45 3.8 19.44 19.44 0 000 8a19.44 19.44 0 00.45 4.2 4.36 4.36 0 003.35 3.35A19.44 19.44 0 008 16a19.44 19.44 0 004.2-.45 4.36 4.36 0 003.35-3.35A19.44 19.44 0 0016 8a19.44 19.44 0 00-.45-4.2A4.36 4.36 0 0012.2.45 19.44 19.44 0 008 0zm1.71 11.71a1 1 0 000-1.42l-1.6-1.6L9 5.24a1.028 1.028 0 10-2-.48l-1 4a1 1 0 00.26 1l2 2a1 1 0 001.42 0l.03-.05z" fill="#000"/>
  </g>
  <defs>
    <clipPath id="16x16/time_large/outline__clip0">
      <path fill="#fff" d="M0 0h16v16H0z"/>
    </clipPath>
  </defs>
</svg>
