<svg xmlns="http://www.w3.org/2000/svg" width="24" height="24" viewBox="0 0 24 24">
  <path fill-rule="evenodd" d="M12.5996,18 L11.4006,18 C11.1786,18 10.9996,17.821 10.9996,17.6 L10.9996,16.4 C10.9996,16.179 11.1786,16 11.4006,16 L12.5996,16 C12.8216,16 12.9996,16.179 12.9996,16.4 L12.9996,17.6 C12.9996,17.821 12.8216,18 12.5996,18 L12.5996,18 Z M7.9996,20 L15.9996,20 L15.9996,4 L7.9996,4 L7.9996,20 Z M15.9996,2 L7.9996,2 C6.8956,2 5.9996,2.896 5.9996,4 L5.9996,20 C5.9996,21.104 6.8956,22 7.9996,22 L15.9996,22 C17.1046,22 17.9996,21.104 17.9996,20 L17.9996,4 C17.9996,2.896 17.1046,2 15.9996,2 L15.9996,2 Z"/>
</svg>
