<svg width="24" height="24" fill="none" xmlns="http://www.w3.org/2000/svg">
  <path d="M15.207 12.293L13.414 10.5l1.793-1.793a.999.999 0 10-1.414-1.414L12 9.086l-1.793-1.793a.999.999 0 10-1.414 1.414l1.793 1.793-1.793 1.793a.999.999 0 101.414 1.414L12 11.914l1.793 1.793a.997.997 0 001.414 0 .999.999 0 000-1.414zm4.878-9.104A1 1 0 0120.5 4v14a1 1 0 01-.836.986c-.92.154-1.737.219-2.474.219-2.355 0-3.876-.671-5.255-1.279C10.81 17.429 9.838 17 8.5 17c-1.522 0-2.319.242-3 .59V21a1 1 0 11-2 0V3a1 1 0 011-1c.38 0 .699.22.868.531A9.42 9.42 0 018.5 2c1.69 0 2.995.43 4.257.846 1.902.626 3.545 1.166 6.427.206a.992.992 0 01.901.137z" fill="#000"/>
</svg>
