<svg width="24" height="24" fill="none" xmlns="http://www.w3.org/2000/svg">
  <path d="M15.207 8.707a.999.999 0 10-1.414-1.414L12 9.086l-1.793-1.793a.999.999 0 10-1.414 1.414l1.793 1.793-1.793 1.793a.999.999 0 101.414 1.414L12 11.914l1.793 1.793a.997.997 0 001.414 0 .999.999 0 000-1.414L13.414 10.5l1.793-1.793zM18.5 17.13V5.315c-2.77.614-4.669-.01-6.369-.57C10.968 4.362 9.87 4 8.5 4c-1.089 0-2.095.206-3 .614v10.805c.79-.272 1.711-.419 3-.419 1.759 0 3.022.557 4.243 1.096 1.554.685 3.028 1.339 5.757 1.034zm1.584-13.942A1 1 0 0120.5 4v14a1 1 0 01-.835.986c-.921.154-1.739.219-2.475.219-2.355 0-3.875-.671-5.255-1.279C10.81 17.429 9.838 17 8.5 17c-1.522 0-2.32.242-3 .589V21a1 1 0 11-2 0V3a1 1 0 011-1c.38 0 .699.22.868.531A9.385 9.385 0 018.5 2c1.69 0 2.995.43 4.257.846 1.902.625 3.543 1.166 6.427.206a.991.991 0 01.9.136z" fill="#000"/>
</svg>
