<svg xmlns="http://www.w3.org/2000/svg" width="32" height="32" viewBox="0 0 32 32">
  <path fill-rule="evenodd" d="M13.7793,17.7217 L11.5573,15.5567 L14.6273,15.1107 L16.0003,12.3287 L17.3733,15.1107 L20.4423,15.5567 L18.2203,17.7217 L18.7453,20.7787 L16.0003,19.3347 L13.2553,20.7787 L13.7793,17.7217 Z M7.0003,23.9997 L25.0003,23.9997 L25.0003,9.9997 L7.0003,9.9997 L7.0003,23.9997 Z M24.0003,5.9997 L8.0003,5.9997 C6.3453,5.9997 5.0003,7.3457 5.0003,8.9997 L5.0003,23.9997 C5.0003,25.1027 5.8973,25.9997 7.0003,25.9997 L25.0003,25.9997 C26.1023,25.9997 27.0003,25.1027 27.0003,23.9997 L27.0003,8.9997 C27.0003,7.3457 25.6543,5.9997 24.0003,5.9997 L24.0003,5.9997 Z"/>
</svg>
