<svg xmlns="http://www.w3.org/2000/svg" width="32" height="32" viewBox="0 0 32 32">
  <path fill-rule="evenodd" d="M16,27 C11.888,27 7.746,24.501 7.012,22.402 C7.444,21.551 11.155,20 16,20 C20.846,20 24.558,21.552 24.988,22.402 C24.268,24.492 20.119,27 16,27 L16,27 Z M16,18 C10.528,18 4.111,20 5.102,23 C6.093,26 11.047,29 16,29 C20.953,29 25.907,26 26.898,23 C27.889,20 21.472,18 16,18 L16,18 Z M13.5,7.5 C13.5,6.121 14.621,5 16,5 C17.379,5 18.5,6.121 18.5,7.5 L18.5,9 C18.5,11.317 17.448,13 16,13 C14.552,13 13.5,11.317 13.5,9 L13.5,7.5 Z M16,15 C18.485,15 20.5,12.633 20.5,9 L20.5,7.5 C20.5,5.015 18.485,3 16,3 C13.515,3 11.5,5.015 11.5,7.5 L11.5,9 C11.5,12.633 13.515,15 16,15 L16,15 Z"/>
</svg>
