<svg xmlns="http://www.w3.org/2000/svg" width="24" height="24" viewBox="0 0 24 24">
  <path fill-rule="evenodd" d="M16.001,6 L8,6 L7.553,5.105 C7.214,4.428 6.522,4 5.764,4 L3,4 C2.447,4 2,4.447 2,5 L2,15.077 C2,15.388 2.413,15.494 2.563,15.222 L5.479,9.912 C5.801,9.348 6.4,9 7.051,9 L18,9 L18,7.999 C18,6.895 17.105,6 16.001,6 M17,19 C15.844,19.813 14,20 11,20 C8.561,20 5.129,20 3.125,19.462 C2.511,19.297 2.235,18.576 2.544,18.021 L6.429,11.028 C6.781,10.394 7.45,10 8.177,10 L20,10 C21,10 21.452,10.689 21.365,11.412 C21,14.458 19.377,17.329 17,19"/>
</svg>
