<svg width="24" height="24" fill="none" xmlns="http://www.w3.org/2000/svg">
  <path fill-rule="evenodd" clip-rule="evenodd" d="M17.419 18.186c-.567.404-2.772.814-6.42.814-2.492 0-4.945-.244-6.628-.642l2.97-6.806A.994.994 0 018.237 11H19c.37 0 1 .211 1 1 0 1.82-1.792 5.623-2.581 6.187zM18.999 9H8.237c-1.143 0-2.171.636-2.705 1.706L4 14.21V5h2.764c.382 0 .724.212.894.553l.448.895A.998.998 0 009 7h7c.552 0 1 .449 1 1h2c0-1.654-1.346-3-3-3H9.618l-.171-.341a2.984 2.984 0 00-2.683-1.66H4c-1.102 0-2 .899-2 2v14a1 1 0 00.66.942C4.829 20.72 8.39 21 11 21c2.7 0 6.208-.206 7.58-1.186 1.44-1.027 3.42-5.556 3.42-7.815 0-1.947-1.546-3-3-3z" fill="#000"/>
</svg>
