<svg xmlns="http://www.w3.org/2000/svg" width="24" height="24" viewBox="0 0 24 24">
  <path fill-rule="evenodd" d="M16.4316,18.1768 C15.8576,18.5728 13.9126,18.9998 10.9996,18.9998 C7.9846,18.9998 5.9226,18.8198 4.4106,18.4138 L7.3416,12.5528 C7.5116,12.2118 7.8546,11.9998 8.2366,11.9998 L19.4886,11.9768 C19.4936,11.9848 19.5096,12.0288 19.4916,12.0998 C18.9726,14.0368 18.1876,16.9638 16.4316,18.1768 M21.0756,10.7598 C20.7046,10.2778 20.1396,9.9998 19.5226,9.9998 L8.2366,9.9998 C7.0926,9.9998 6.0646,10.6358 5.5526,11.6578 L3.9996,14.7638 L3.9996,5.9998 L6.7636,5.9998 C7.1456,5.9998 7.4886,6.2118 7.6586,6.5528 L8.3816,7.9998 L15.9996,7.9998 C16.5516,7.9998 16.9996,8.4478 16.9996,8.9998 L18.9996,8.9998 C18.9996,7.3458 17.6546,5.9998 15.9996,5.9998 L9.6186,5.9998 L9.4476,5.6578 C8.9356,4.6358 7.9076,3.9998 6.7636,3.9998 L3.9996,3.9998 C2.8976,3.9998 1.9996,4.8978 1.9996,5.9998 L1.9996,18.2938 C1.9996,19.1728 2.5646,19.9418 3.4046,20.2068 C5.1696,20.7628 7.4416,20.9998 10.9996,20.9998 C14.0906,20.9998 16.4846,20.5718 17.5686,19.8228 C19.9296,18.1928 20.8276,14.8368 21.4226,12.6178 C21.5976,11.9668 21.4676,11.2728 21.0756,10.7598"/>
</svg>
