<svg xmlns="http://www.w3.org/2000/svg" width="24" height="24" viewBox="0 0 24 24">
  <path fill-rule="evenodd" d="M22.8027,15.5 C21.8487,17.25 18.9997,19 15.9997,19 C15.6637,19 15.3297,18.979 14.9997,18.937 C16.1937,17.829 16.9947,16.463 15.9997,15 C15.0197,13.56 12.5567,13.113 10.5687,12.984 C11.8257,12.376 13.7487,12 15.9997,12 C20.6147,12 23.8487,13.58 22.8027,15.5 M15.9997,10.966 C17.6567,10.966 18.9997,9.395 18.9997,6.983 L18.9997,5.987 C18.9997,4.338 17.6567,3 15.9997,3 C14.3427,3 12.9997,4.338 12.9997,5.987 L12.9997,6.983 C12.9997,9.395 14.3427,10.966 15.9997,10.966 M14.8027,17.5 C13.8487,19.25 10.9997,21 7.9997,21 C4.9997,21 2.1517,19.25 1.1977,17.5 C0.1517,15.58 3.3857,14 7.9997,14 C12.6147,14 15.8487,15.58 14.8027,17.5 M7.9997,12.966 C9.6567,12.966 10.9997,11.395 10.9997,8.983 L10.9997,7.987 C10.9997,6.338 9.6567,5 7.9997,5 C6.3427,5 4.9997,6.338 4.9997,7.987 L4.9997,8.983 C4.9997,11.395 6.3427,12.966 7.9997,12.966"/>
</svg>
