<svg width="24" height="24" fill="none" xmlns="http://www.w3.org/2000/svg">
  <path fill-rule="evenodd" clip-rule="evenodd" d="M16 3c-1.657 0-3 1.351-3 3v1c0 2.412 1.343 4 3 4s3-1.588 3-4V6c0-1.649-1.343-3-3-3zM8 5C6.343 5 5 6.351 5 8v1c0 2.412 1.343 4 3 4s3-1.588 3-4V8c0-1.649-1.343-3-3-3zm-.019 8.965C4 13.965 1 15 1 17c0 1.53 2.981 4 7 4s7-2.478 7-4c0-2-3.036-3.035-7.019-3.035zM23 15c0 2.031-4 4-8 4 1.197-1.108 1.907-2.737 1-4-.821-1.145-2.006-1.871-4-2 .804-.413 2-1.035 3.979-1.035C21 11.965 23 13.602 23 15z" fill="#000"/>
</svg>
