<svg xmlns="http://www.w3.org/2000/svg" width="24" height="24" viewBox="0 0 24 24">
  <path fill-rule="evenodd" d="M18.2289,14 L15.7909,14 C14.8729,14 14.0729,14.625 13.8499,15.515 L13.3039,17.699 C9.6009,16.533 6.6409,13.59 5.5029,9.932 L7.7139,9.379 C8.6039,9.156 9.2289,8.356 9.2289,7.438 L9.2289,5 C9.2289,3.896 8.3329,3 7.2289,3 L5.0659,3 C4.0049,3 3.1299,3.827 3.0689,4.886 C2.9919,6.198 2.9139,7.363 3.2289,9 C4.2289,14.187 7.8849,18.484 14.2289,20 C15.5069,20.306 17.0359,20.237 18.3489,20.16 C19.4069,20.098 20.2289,19.223 20.2289,18.163 L20.2289,16.275 C20.2289,14.894 19.3329,14 18.2289,14"/>
</svg>
