<svg width="32" height="32" fill="none" xmlns="http://www.w3.org/2000/svg">
  <path fill-rule="evenodd" clip-rule="evenodd" d="M10.242 5.3a13.388 13.388 0 011.86 3.694c.39 1.28.618 2.575.717 3.902.097 1.028.114 2.029.146 3.104H8l8 10 8-10h-4.995a16.774 16.774 0 00-.644-4.226c-.518-1.736-1.316-3.435-2.45-4.89a12.81 12.81 0 00-4.062-3.511C10.304 2.529 8.614 2.146 7 2c1.263 1.066 2.388 2.118 3.242 3.3zM30 23v3c0 2.206-1.794 4-4 4H6c-2.206 0-4-1.794-4-4v-3a1 1 0 112 0v3c0 1.103.897 2 2 2h20c1.102 0 2-.897 2-2v-3a1 1 0 112 0z" fill="#000"/>
</svg>
