<svg xmlns="http://www.w3.org/2000/svg" width="32" height="32" viewBox="0 0 32 32">
  <path fill-rule="evenodd" d="M8,4 C11.859,4 15,7.141 15,11 L15,16 L8,16 L16,26 L24,16 L17,16 L17,11 C17,6.037 12.963,2 8,2 C7.447,2 7,2.447 7,3 C7,3.553 7.447,4 8,4 M30,23 L30,26 C30,28.206 28.206,30 26,30 L6,30 C3.794,30 2,28.206 2,26 L2,23 C2,22.447 2.447,22 3,22 C3.553,22 4,22.447 4,23 L4,26 C4,27.103 4.897,28 6,28 L26,28 C27.103,28 28,27.103 28,26 L28,23 C28,22.447 28.447,22 29,22 C29.553,22 30,22.447 30,23"/>
</svg>
