<svg xmlns="http://www.w3.org/2000/svg" width="24" height="24" viewBox="0 0 24 24">
  <path fill-rule="evenodd" d="M20.4141,12.0002 L21.7071,10.7072 C22.0981,10.3162 22.0981,9.6842 21.7071,9.2932 C21.3161,8.9022 20.6841,8.9022 20.2931,9.2932 L19.0001,10.5862 L17.7071,9.2932 C17.3161,8.9022 16.6841,8.9022 16.2931,9.2932 C15.9021,9.6842 15.9021,10.3162 16.2931,10.7072 L17.5861,12.0002 L16.2931,13.2932 C15.9021,13.6842 15.9021,14.3162 16.2931,14.7072 C16.4881,14.9022 16.7441,15.0002 17.0001,15.0002 C17.2561,15.0002 17.5121,14.9022 17.7071,14.7072 L19.0001,13.4142 L20.2931,14.7072 C20.4881,14.9022 20.7441,15.0002 21.0001,15.0002 C21.2561,15.0002 21.5121,14.9022 21.7071,14.7072 C22.0981,14.3162 22.0981,13.6842 21.7071,13.2932 L20.4141,12.0002 Z M12.8941,4.5532 C12.9391,4.6442 14.0001,6.8232 14.0001,12.0002 C14.0001,17.1772 12.9391,19.3562 12.8941,19.4472 C12.7601,19.7182 12.5101,19.9122 12.2151,19.9772 C12.1431,19.9922 12.0711,20.0002 12.0001,20.0002 C11.7751,20.0002 11.5551,19.9242 11.3751,19.7812 L6.6491,16.0002 L5.0001,16.0002 C3.3461,16.0002 2.0001,14.6542 2.0001,13.0002 L2.0001,11.0002 C2.0001,9.3462 3.3461,8.0002 5.0001,8.0002 L6.6491,8.0002 L11.3751,4.2192 C11.6111,4.0302 11.9191,3.9582 12.2151,4.0232 C12.5101,4.0882 12.7601,4.2822 12.8941,4.5532 L12.8941,4.5532 Z"/>
</svg>
