<svg xmlns="http://www.w3.org/2000/svg" width="24" height="24" viewBox="0 0 24 24">
  <path fill-rule="evenodd" d="M12,12.0002 C12,9.4482 11.731,7.7262 11.489,6.6892 L7.625,9.7812 C7.447,9.9232 7.228,10.0002 7,10.0002 L5,10.0002 C4.448,10.0002 4,10.4482 4,11.0002 L4,13.0002 C4,13.5522 4.448,14.0002 5,14.0002 L7,14.0002 C7.228,14.0002 7.447,14.0772 7.625,14.2192 L11.487,17.3092 C11.73,16.2692 12,14.5442 12,12.0002 L12,12.0002 Z M12.895,4.5532 C12.939,4.6442 14,6.8232 14,12.0002 C14,17.1772 12.939,19.3562 12.895,19.4472 C12.76,19.7182 12.51,19.9122 12.215,19.9772 C12.144,19.9922 12.071,20.0002 12,20.0002 C11.775,20.0002 11.555,19.9242 11.375,19.7812 L6.649,16.0002 L5,16.0002 C3.346,16.0002 2,14.6542 2,13.0002 L2,11.0002 C2,9.3462 3.346,8.0002 5,8.0002 L6.649,8.0002 L11.375,4.2192 C11.611,4.0302 11.918,3.9582 12.215,4.0232 C12.51,4.0882 12.76,4.2822 12.895,4.5532 L12.895,4.5532 Z M21.707,13.2932 C22.098,13.6842 22.098,14.3162 21.707,14.7072 C21.512,14.9022 21.256,15.0002 21,15.0002 C20.744,15.0002 20.488,14.9022 20.293,14.7072 L19,13.4142 L17.707,14.7072 C17.512,14.9022 17.256,15.0002 17,15.0002 C16.744,15.0002 16.488,14.9022 16.293,14.7072 C15.902,14.3162 15.902,13.6842 16.293,13.2932 L17.586,12.0002 L16.293,10.7072 C15.902,10.3162 15.902,9.6842 16.293,9.2932 C16.684,8.9022 17.316,8.9022 17.707,9.2932 L19,10.5862 L20.293,9.2932 C20.684,8.9022 21.316,8.9022 21.707,9.2932 C22.098,9.6842 22.098,10.3162 21.707,10.7072 L20.414,12.0002 L21.707,13.2932 Z"/>
</svg>
