<svg width="24" height="24" fill="none" xmlns="http://www.w3.org/2000/svg">
  <path d="M13 5v14c0 .6-.5 1-1 1-.2 0-.4-.1-.6-.2L6 16H4c-1.1 0-2-.9-2-2v-4c0-1.1.9-2 2-2h2l5.4-3.8c.2-.1.4-.2.6-.2.5 0 1 .4 1 1zm-2 1.9L7.2 9.6l-.6.4H4v4h2.6l.5.4 3.9 2.7V6.9zm10.8 7.5c.4.4.3 1.1-.1 1.4-.2.1-.5.2-.7.2-.3 0-.6-.1-.8-.4l-1.7-2.1-1.7 2.1c-.2.3-.5.4-.8.4-.2 0-.5-.1-.6-.2-.4-.4-.5-1-.1-1.4l2-2.4-2-2.4c-.4-.4-.3-1.1.1-1.4.1-.1.4-.2.6-.2.3 0 .6.1.8.4l1.7 2.1 1.7-2.1c.2-.3.5-.4.8-.4.2 0 .5.1.6.2.4.4.5 1 .1 1.4l-2 2.4 2.1 2.4z" fill="#000"/>
</svg>
