<svg width="16" height="16" fill="none" xmlns="http://www.w3.org/2000/svg">
  <g clip-path="url(#16x16/file_powerpoint/filled__clip0)">
    <path d="M8.947 9.117h-1.91v2.75H5.443V4.134h3.591c1.581 0 2.41 1.116 2.41 2.464 0 1.38-.797 2.52-2.498 2.52zm6.606-5.313A4.377 4.377 0 0012.196.447a19.874 19.874 0 00-8.393 0A4.376 4.376 0 00.446 3.803 19.883 19.883 0 000 8c0 1.44.154 2.844.446 4.197a4.379 4.379 0 003.357 3.357A19.87 19.87 0 008 16c1.44 0 2.843-.154 4.196-.446a4.379 4.379 0 003.357-3.357 19.87 19.87 0 000-8.393zM8.637 5.382h-1.6v2.585h1.6c.84 0 1.172-.553 1.172-1.325 0-.741-.309-1.26-1.172-1.26z" fill="#000"/>
  </g>
  <defs>
    <clipPath id="16x16/file_powerpoint/filled__clip0">
      <path fill="#fff" d="M0 0h16v16H0z"/>
    </clipPath>
  </defs>
</svg>
