<svg width="32" height="32" fill="none" xmlns="http://www.w3.org/2000/svg">
  <path d="M11.05 23.5a1 1 0 110 2h-3v3a1 1 0 11-2 0v-3h-3a1 1 0 110-2h3v-3a1 1 0 112 0v3h3zM27 11.5c1.795 0 3 1.206 3 3 0 3.195-.808 10.224-2.293 11.707C26.186 27.729 22.246 28.5 16 28.5c-1.134 0-2.164-.034-3.145-.085A7 7 0 007.05 17.5a6.968 6.968 0 00-4.702 1.825c-.23-1.819-.35-3.602-.35-4.825 0-1.794 1.206-3 3-3h22zm-23.95-2h26l-.05-1a2 2 0 00-2-2H14.149c-.967-1.166-2.028-3-4.15-3H5a2 2 0 00-2 2l.052 4z" fill="#000"/>
</svg>
