<svg width="32" height="32" fill="none" xmlns="http://www.w3.org/2000/svg">
  <path d="M11 23.5a1 1 0 110 2H8v3a1 1 0 11-2 0v-3H3a1 1 0 110-2h3v-3a1 1 0 112 0v3h3zm16-12c1.795 0 3 1.206 3 3 0 3.195-.809 10.224-2.293 11.707C26.186 27.729 22.246 28.5 16 28.5a59.32 59.32 0 01-3.194-.088 6.96 6.96 0 00.911-1.955c.704.026 1.453.043 2.283.043 7.967 0 9.893-1.307 10.293-1.707C26.918 24.104 28 18.755 28 14.5c0-.683-.318-1-1-1H5c-.682 0-1 .317-1 1 0 1.152.081 2.384.209 3.582-.688.3-1.314.709-1.866 1.202C2.117 17.479 2 15.713 2 14.5c0-1.794 1.205-3 3-3h22zm-22-1v-4c0-.552.449-1 1-1h4c1.322 0 2.139 1.052 2.927 2.068.155.2.303.392.452.57a.999.999 0 00.769.362H26c.551 0 1 .448 1 1v1h2v-1c0-1.654-1.346-3-3-3H14.629l-.122-.158C13.576 5.143 12.303 3.5 10 3.5H6c-1.654 0-3 1.346-3 3v4h2z" fill="#000"/>
</svg>
