<svg xmlns="http://www.w3.org/2000/svg" width="16" height="16" viewBox="0 0 16 16">
  <path fill-rule="evenodd" d="M9.8945,10.4473 C9.7195,10.7983 9.3665,11.0003 8.9985,11.0003 C8.8495,11.0003 8.6965,10.9663 8.5525,10.8943 L6.5525,9.8943 C6.1335,9.6843 5.9155,9.2123 6.0295,8.7583 L7.0295,4.7583 C7.1645,4.2203 7.7075,3.8953 8.2425,4.0303 C8.7785,4.1643 9.1035,4.7073 8.9705,5.2423 L8.1645,8.4643 L9.4475,9.1053 C9.9415,9.3523 10.1415,9.9533 9.8945,10.4473 M7.9995,1.0003 C4.1335,1.0003 0.9995,4.1343 0.9995,8.0003 C0.9995,11.8663 4.1335,15.0003 7.9995,15.0003 C11.8665,15.0003 14.9995,11.8663 14.9995,8.0003 C14.9995,4.1343 11.8665,1.0003 7.9995,1.0003"/>
</svg>
