<svg width="24" height="24" fill="none" xmlns="http://www.w3.org/2000/svg">
  <path d="M14.384 17H17l-3.714-5.071L16.869 7h-2.413l-1.878 2.715c-.202.286-.39.641-.52.985a4.713 4.713 0 00-.506-.971L9.659 7H7.058l3.613 4.972L7 17h2.413l1.95-2.8a5.25 5.25 0 00.55-1.014c.117.329.304.685.506.985L14.384 17zm7.058-10.246C21.808 8.445 22 10.2 22 12c0 1.8-.192 3.555-.558 5.245a5.472 5.472 0 01-4.196 4.196A24.711 24.711 0 0112 22c-1.8 0-3.554-.192-5.246-.559a5.473 5.473 0 01-4.196-4.196A24.825 24.825 0 012 12c0-1.801.193-3.556.558-5.246a5.473 5.473 0 014.197-4.196A24.766 24.766 0 0112 2c1.8 0 3.555.192 5.246.559a5.472 5.472 0 014.196 4.195z" fill="#000"/>
</svg>
