<svg width="24" height="24" fill="none" xmlns="http://www.w3.org/2000/svg">
  <path fill-rule="evenodd" clip-rule="evenodd" d="M8.69 6.973c.334.838.531 1.635.626 2.458.072.507.103 1.032.13 1.569H6l6 8 6-8h-3.513a9.823 9.823 0 00-.64-2.865c-.504-1.264-1.282-2.442-2.254-3.338a9.81 9.81 0 00-3.17-2.008A11.887 11.887 0 005 1.999c.802.84 1.553 1.66 2.194 2.484.64.827 1.151 1.663 1.496 2.49zM22 17v2c0 1.655-1.346 3-3 3H5c-1.655 0-3-1.345-3-3v-2a1 1 0 112 0v2a1 1 0 001 1h14c.551 0 1-.448 1-1v-2a1 1 0 112 0z" fill="#000"/>
</svg>
