<svg xmlns="http://www.w3.org/2000/svg" width="16" height="16" viewBox="0 0 16 16">
  <path fill-rule="evenodd" d="M7.99981992,0 C7.77481992,0 7.55081992,0.111 7.43881992,0.335 L5.32181992,4.576 L0.525819918,5.265 C0.0278199175,5.336 -0.175180082,5.907 0.176819918,6.246 L3.66781992,9.61 L2.85081992,14.323 C2.78481992,14.698 3.10381992,15 3.46081992,15 C3.56081992,15 3.66181992,14.977 3.76081992,14.926 L7.99981992,12.723 L12.2388199,14.926 C12.3378199,14.977 12.4388199,15 12.5388199,15 C12.8958199,15 13.2148199,14.698 13.1488199,14.323 L12.3318199,9.61 L15.8228199,6.246 C16.1748199,5.907 15.9718199,5.336 15.4738199,5.265 L10.6778199,4.576 L8.56081992,0.335 C8.44881992,0.111 8.22481992,0 7.99981992,0 M7.99981992,3.69 L8.88781992,5.469 L9.35581992,6.406 L10.3938199,6.556 L12.3308199,6.834 L10.9438199,8.171 L10.1808199,8.907 L10.3608199,9.953 L10.6938199,11.869 L8.92181992,10.948 L7.99981992,10.469 L7.07781992,10.948 L5.30581992,11.869 L5.63881992,9.953 L5.81881992,8.907 L5.05581992,8.171 L3.66881992,6.834 L5.60581992,6.556 L6.64381992,6.406 L7.11181992,5.469 L7.99981992,3.69"/>
</svg>
