<svg width="16" height="16" fill="none" xmlns="http://www.w3.org/2000/svg">
  <path fill-rule="evenodd" clip-rule="evenodd" d="M8 0a.607.607 0 00-.561.357L5.322 4.881l-4.796.735A.624.624 0 000 6.239c0 .155.057.301.177.424l3.491 3.589-.817 5.026a.617.617 0 00.91.643L8 13.57l4.239 2.351a.617.617 0 00.91-.643l-.817-5.026 3.491-3.589A.594.594 0 0016 6.239a.624.624 0 00-.526-.623l-4.796-.735L8.561.357A.607.607 0 008 0zm0 3.878l.866 1.851.452.967 1.057.161 2.148.33-1.625 1.669-.702.722.162.994.361 2.219-1.749-.97-.97-.537-.97.537-1.749.97.361-2.219.162-.994-.702-.722-1.625-1.669 2.148-.33 1.057-.161.452-.967L8 3.878z" fill="#000"/>
</svg>
