<svg width="24" height="24" fill="none" xmlns="http://www.w3.org/2000/svg">
  <path d="M10.976 2.001h2.089c1.772.004 2.154.018 3.066.062 1.063.047 1.79.218 2.427.465a4.92 4.92 0 011.77 1.152c.512.5.902 1.102 1.157 1.774.246.633.418 1.364.465 2.426.04.915.048 1.295.05 3.095v1.574c-.002 2.221-.015 2.585-.058 3.576-.047 1.062-.22 1.789-.465 2.426a5.116 5.116 0 01-2.927 2.926c-.633.246-1.364.418-2.427.465-.99.044-1.355.057-3.576.058h-1.094c-2.221-.001-2.585-.014-3.576-.058-1.063-.047-1.79-.219-2.426-.465a4.922 4.922 0 01-1.77-1.152 4.931 4.931 0 01-1.157-1.774c-.247-.633-.419-1.364-.466-2.426-.04-.915-.054-1.295-.057-3.095v-2.088c.003-1.772.018-2.154.061-3.066.047-1.062.22-1.789.465-2.426.25-.664.645-1.27 1.153-1.77a4.881 4.881 0 011.774-1.156c.634-.246 1.364-.418 2.427-.465.915-.04 1.295-.055 3.095-.058h2.089-2.089zm1.592 1.816h-1.112c-2.164.002-2.508.015-3.485.059-.973.043-1.504.207-1.856.343-.434.16-.825.415-1.149.747a3.04 3.04 0 00-.75 1.148c-.137.352-.301.88-.344 1.856-.042.935-.056 1.291-.058 3.233v1.614c.002 1.941.016 2.296.058 3.233.043.973.207 1.505.344 1.856.16.434.414.825.746 1.149.32.332.715.586 1.149.746.352.137.88.301 1.856.344 1.012.045 1.347.058 3.754.058h.574c2.406 0 2.738-.013 3.754-.058.973-.043 1.504-.207 1.856-.344a3.318 3.318 0 001.9-1.899c.136-.351.3-.879.343-1.856.042-.937.056-1.288.058-3.23v-1.612c-.002-1.942-.016-2.296-.058-3.234-.043-.973-.207-1.504-.344-1.856a3.109 3.109 0 00-.746-1.148 3.076 3.076 0 00-1.15-.747c-.35-.136-.878-.3-1.855-.343-.974-.044-1.317-.057-3.485-.059zM12 6.932a5.07 5.07 0 010 10.137 5.07 5.07 0 01-5.069-5.068 5.07 5.07 0 015.07-5.07zm0 1.78a3.288 3.288 0 10.001 6.577 3.288 3.288 0 000-6.576zm5.206-3.15a1.233 1.233 0 110 2.466 1.233 1.233 0 010-2.466z" fill="#000"/>
</svg>
