<svg width="16" height="16" fill="none" xmlns="http://www.w3.org/2000/svg">
  <path fill-rule="evenodd" clip-rule="evenodd" d="M5.001 12.001h-1v-1a1 1 0 10-2 0v1h-1a1 1 0 100 2h1v1a1 1 0 002 0v-1h1a1 1 0 100-2zM15 6H1c-.577 0-1 .432-1 1 0 1.151.115 2.17.292 3.074a3.97 3.97 0 012.709-1.073 4 4 0 014 4c0 .71-.2 1.367-.525 1.945.5.032 1.009.054 1.524.054 2.758 0 5.515-.501 6.017-1.001C14.931 13.088 16 10.633 16 7c0-.573-.423-1-1-1zm0-1H1V2a1 1 0 011-1h3c.757 0 1.214.428 1.553 1.105L7 3h7a1 1 0 011 1v1z" fill="#000"/>
</svg>
