<svg xmlns="http://www.w3.org/2000/svg" width="16" height="16" viewBox="0 0 16 16">
  <path fill-rule="evenodd" d="M14.9971,5 L1.0031,5 C0.4261,5 -0.0239,5.484 0.0011,6.059 C0.0641,7.549 0.2611,8.819 0.5271,9.878 C1.2101,9.337 2.0611,9 3.00010672,9 C5.2091,9 7.00010672,10.791 7.00010672,13 C7.00010672,13.337 6.9461,13.658 6.8671,13.971 C7.2421,13.988 7.6201,14 8.00010672,14 C10.7581,14 13.5151,13.499 14.0171,12.999 C14.9311,12.088 15.8451,9.684 15.9991,6.059 C16.0231,5.484 15.5741,5 14.9971,5 L14.9971,5 Z M15.0001,3 C15.0001,2.447 14.5531,2 14.0001,2 L7.0001,2 L6.5531,1.105 C6.2141,0.428 5.5211,0 4.7641,0 L2.0001,0 C1.4471,0 1.0001,0.447 1.0001,1 L1.0001,4 L15.0001,4 L15.0001,3 Z M6.0001,13 C6.0001,13.553 5.5531,14 5.0001,14 L4.0001,14 L4.0001,15 C4.0001,15.553 3.5531,16 3.0001,16 C2.4471,16 2.0001,15.553 2.0001,15 L2.0001,14 L1.0001,14 C0.4471,14 0.0001,13.553 0.0001,13 C0.0001,12.447 0.4471,12 1.0001,12 L2.0001,12 L2.0001,11 C2.0001,10.447 2.4471,10 3.0001,10 C3.5531,10 4.0001,10.447 4.0001,11 L4.0001,12 L5.0001,12 C5.5531,12 6.0001,12.447 6.0001,13 L6.0001,13 Z"/>
</svg>
