<svg width="16" height="16" fill="none" xmlns="http://www.w3.org/2000/svg">
  <path fill-rule="evenodd" clip-rule="evenodd" d="M15 6H1c-.577 0-1 .428-1 1 0 1.151.115 2.17.292 3.074a3.977 3.977 0 011.837-.971A10.402 10.402 0 012.067 8h11.866c0 2.607-.873 3.957-1.212 4.438-.645.229-2.519.562-4.721.562-.345 0-.677-.011-1.002-.025 0 .008.003.017.003.026 0 .71-.2 1.367-.525 1.945.5.032 1.009.054 1.524.054 2.758 0 5.515-.501 6.017-1.001C14.931 13.088 16 10.628 16 7c0-.574-.423-1-1-1zm0-2a1 1 0 00-1-1H7l-.447-.896C6.214 1.428 5.757 1 5 1H2a1 1 0 00-1 1v3h14V4zm-8.999 9.001a1 1 0 01-1 1h-1v1a1 1 0 11-2 0v-1h-1a1 1 0 110-2h1v-1a1 1 0 112 0v1h1a1 1 0 011 1z" fill="#000"/>
</svg>
