<svg width="24" height="24" fill="none" xmlns="http://www.w3.org/2000/svg">
  <path fill-rule="evenodd" clip-rule="evenodd" d="M20 13.09a2.509 2.509 0 01-2.132 2.475 39.94 39.94 0 01-11.737 0A2.509 2.509 0 014 13.09V7.909c0-1.234.916-2.297 2.132-2.473A40.9 40.9 0 0112 5c1.908 0 3.883.147 5.869.436A2.507 2.507 0 0120 7.909v5.182zm-1.843-9.633A42.409 42.409 0 0012 3c-2.038 0-4.076.153-6.156.457C3.652 3.775 2 5.689 2 7.909v5.182c0 2.22 1.652 4.135 3.843 4.452 1.057.154 2.112.269 3.157.346v1.11H7a1 1 0 100 2h10a1 1 0 100-2h-2v-1.11a44.61 44.61 0 003.156-.346C20.348 17.226 22 15.312 22 13.09V7.909c0-2.22-1.652-4.134-3.843-4.452z" fill="#000"/>
</svg>
