<svg xmlns="http://www.w3.org/2000/svg" width="24" height="24" viewBox="0 0 24 24">
  <path fill-rule="evenodd" d="M19,18 C19,18.552 18.552,19 18,19 L17,19 L17,21 L18,21 C19.654,21 21,19.654 21,18 L21,16 L19,16 L19,18 Z M5,19 L13,19 L13,11 L5,11 L5,19 Z M15,11 L15,19 C15,20.104 14.104,21 13,21 L5,21 C3.896,21 3,20.104 3,19 L3,11 C3,9.896 3.896,9 5,9 L13,9 C14.104,9 15,9.896 15,11 L15,11 Z M19,14 L21,14 L21,10 L19,10 L19,14 Z M18,3 L16,3 L16,5 L18,5 C18.552,5 19,5.448 19,6 L19,8 L21,8 L21,6 C21,4.346 19.654,3 18,3 L18,3 Z M5,6 C5,5.448 5.449,5 6,5 L8,5 L8,3 L6,3 C4.346,3 3,4.346 3,6 L3,7 L5,7 L5,6 Z M10,5 L14,5 L14,3 L10,3 L10,5 Z"/>
</svg>
