<svg xmlns="http://www.w3.org/2000/svg" width="32" height="32" viewBox="0 0 32 32">
  <path fill-rule="evenodd" d="M28,7 L24,7 L24,3 C24,2.447 23.553,2 23,2 C22.447,2 22,2.447 22,3 L22,7 L18,7 C17.447,7 17,7.447 17,8 C17,8.553 17.447,9 18,9 L22,9 L22,13 C22,13.553 22.447,14 23,14 C23.553,14 24,13.553 24,13 L24,9 L28,9 C28.553,9 29,8.553 29,8 C29,7.447 28.553,7 28,7 M23,16 L24,16 L24,30 L16,25 L8,30 L8,5 C8,3.343 9.343,2 11,2 L20,2 L20,5 L18,5 C16.343,5 15,6.343 15,8 C15,9.657 16.343,11 18,11 L20,11 L20,13 C20,14.657 21.343,16 23,16"/>
</svg>
