<svg width="32" height="32" fill="none" xmlns="http://www.w3.org/2000/svg">
  <path fill-rule="evenodd" clip-rule="evenodd" d="M22 9a4 4 0 108 0 4 4 0 00-8 0zm-6 12.271l-4.327-3.399-6.859 7.717C6.918 27.393 10.418 28 16 28s9.082-.607 11.186-2.411l-6.859-7.717L16 21.271zM26 15a6.012 6.012 0 01-1.702-.248l-2.397 1.883 6.585 7.407C29.592 22.211 30 19.616 30 16c0-.886-.033-1.693-.088-2.456A5.975 5.975 0 0126 15zm-3.66-1.253A5.984 5.984 0 0120 9c0-1.846.834-3.495 2.146-4.595C20.447 4.125 18.432 4 16 4c-5.582 0-9.082.608-11.187 2.412-.699.599-1.232 1.346-1.648 2.231L16 18.729l6.34-4.982zm-12.241 2.888l-6.585 7.407C2.408 22.211 2 19.616 2 16c0-2.121.151-3.873.489-5.344l7.61 5.979z" fill="#000"/>
</svg>
