<svg width="32" height="32" fill="none" xmlns="http://www.w3.org/2000/svg">
  <path fill-rule="evenodd" clip-rule="evenodd" d="M26 5a4 4 0 110 8 4 4 0 010-8zM16 26c-5.254 0-8.192-.562-9.791-1.863l5.404-6.177L16 21.25l4.387-3.29 5.405 6.177C24.192 25.438 21.254 26 16 26zM4 16c0-1.396.072-2.572.208-3.595l5.801 4.352-5.03 5.749C4.309 21.085 4 19.018 4 16zm23.973-1.339c.016.426.027.865.027 1.339 0 3.018-.309 5.085-.979 6.506l-5.029-5.749 2.579-1.936a5.936 5.936 0 01-2.065-.95L16 18.75 4.674 10.257c.341-1.02.809-1.785 1.442-2.327C7.693 6.577 10.649 6 16 6c1.837 0 3.373.074 4.687.218a5.987 5.987 0 011.459-1.813C20.447 4.125 18.432 4 16 4c-5.583 0-9.083.608-11.187 2.412C2.709 8.216 2 11.216 2 16c0 4.784.709 7.784 2.813 9.588C6.917 27.393 10.417 28 16 28c5.583 0 9.083-.607 11.187-2.412C29.292 23.784 30 20.784 30 16c0-.886-.034-1.691-.086-2.458a6 6 0 01-1.941 1.119z" fill="#000"/>
</svg>
