<svg width="16" height="16" fill="none" xmlns="http://www.w3.org/2000/svg">
  <g clip-path="url(#16x16/file_word/filled__clip0)">
    <path d="M11.049 11.955l1.95-7.384h-1.507L10.247 9.54c-.052.21-.126.569-.158.864a7.127 7.127 0 00-.158-.864L8.707 4.571H7.325L6.123 9.54c-.053.21-.117.58-.158.886-.032-.306-.106-.676-.148-.886L4.593 4.571H3l1.984 7.384H6.85l1.033-4.187c.053-.253.106-.613.138-.886.02.273.063.633.127.886l1.033 4.187h1.867zm4.505-8.151C15.846 5.156 16 6.559 16 8c0 1.44-.154 2.844-.446 4.196a4.381 4.381 0 01-3.358 3.358A19.86 19.86 0 018 16a19.86 19.86 0 01-4.196-.446 4.381 4.381 0 01-3.358-3.358A19.867 19.867 0 010 8c0-1.441.154-2.844.446-4.197A4.379 4.379 0 013.804.446 19.86 19.86 0 018 0c1.44 0 2.844.154 4.196.446a4.38 4.38 0 013.358 3.358z" fill="#000"/>
  </g>
  <defs>
    <clipPath id="16x16/file_word/filled__clip0">
      <path fill="#fff" d="M0 0h16v16H0z"/>
    </clipPath>
  </defs>
</svg>
