<svg width="16" height="16" fill="none" xmlns="http://www.w3.org/2000/svg">
  <g clip-path="url(#16x16/file_word/outline__clip0)">
    <path d="M10.98 5.112l-1.062 4.24c-.044.18-.107.487-.134.74a6.32 6.32 0 00-.136-.74l-1.044-4.24h-1.18l-1.026 4.24c-.044.18-.1.495-.135.756-.026-.26-.091-.576-.127-.756l-1.045-4.24H3.732l1.694 6.302h1.593L7.9 7.84c.045-.216.092-.523.117-.756.02.233.056.54.11.756l.88 3.574h1.595l1.665-6.302H10.98zm2.618 6.661c.268-1.23.402-2.5.402-3.773a17.78 17.78 0 00-.402-3.774 2.385 2.385 0 00-1.825-1.825 17.82 17.82 0 00-3.772-.4c-1.273 0-2.542.133-3.774.4A2.384 2.384 0 002.4 4.225 17.846 17.846 0 002.002 8c0 1.272.134 2.543.4 3.773a2.386 2.386 0 001.825 1.825 17.86 17.86 0 007.548 0 2.385 2.385 0 001.825-1.825zm1.955-7.97a19.87 19.87 0 010 8.393 4.379 4.379 0 01-3.357 3.357 19.874 19.874 0 01-8.393 0 4.377 4.377 0 01-3.356-3.357A19.874 19.874 0 010 8c0-1.44.154-2.844.446-4.198A4.378 4.378 0 013.804.446 19.87 19.87 0 018 0c1.439 0 2.843.154 4.196.446a4.38 4.38 0 013.357 3.357z" fill="#000"/>
  </g>
  <defs>
    <clipPath id="16x16/file_word/outline__clip0">
      <path fill="#fff" d="M0 0h16v16H0z"/>
    </clipPath>
  </defs>
</svg>
