<svg width="24" height="24" fill="none" xmlns="http://www.w3.org/2000/svg">
  <path fill-rule="evenodd" clip-rule="evenodd" d="M12.435 17.652v2.174a2.174 2.174 0 102.174-2.174h-2.174zm2.174-5.218a2.174 2.174 0 100 4.348h5.218a2.173 2.173 0 000-4.348h-5.218zm-5.218 0c-1.2 0-2.174.974-2.174 2.175v5.217a2.175 2.175 0 004.349 0v-5.218a2.174 2.174 0 00-2.175-2.174zm-5.217 0a2.174 2.174 0 102.174 2.175v-2.175H4.174zm15.653-5.218a2.174 2.174 0 00-2.174 2.174v2.175h2.174a2.174 2.174 0 000-4.349zm-15.653 0a2.174 2.174 0 000 4.35H9.39a2.175 2.175 0 000-4.35H4.174zM14.609 2a2.173 2.173 0 00-2.174 2.173V9.39a2.174 2.174 0 104.348 0V4.173A2.173 2.173 0 0014.609 2zM9.39 2a2.173 2.173 0 100 4.347h2.175V4.173A2.174 2.174 0 009.39 2z" fill="#000"/>
</svg>
