<svg width="24" height="24" fill="none" xmlns="http://www.w3.org/2000/svg">
  <path fill-rule="evenodd" clip-rule="evenodd" d="M14.5 8.102A35.212 35.212 0 0012 8c-.784 0-1.65.04-2.5.102V6.5C9.5 5.122 10.621 4 12 4s2.5 1.122 2.5 2.5v1.602zm-1.5 6.62V19h-2v-4.277A1.99 1.99 0 0110 13a2 2 0 014 0 1.99 1.99 0 01-1 1.723zm5.446-6.128A22.277 22.277 0 0016.5 8.29V6.5C16.5 4.019 14.481 2 12 2a4.505 4.505 0 00-4.5 4.5v1.79c-.795.096-1.484.203-1.946.304A1.991 1.991 0 004 10.543v8.914c0 .933.643 1.749 1.554 1.95C6.815 21.684 9.749 22 12 22c2.251 0 5.185-.316 6.446-.593A1.993 1.993 0 0020 19.457v-8.914c0-.932-.643-1.75-1.554-1.95z" fill="#000"/>
</svg>
