<svg width="24" height="24" fill="none" xmlns="http://www.w3.org/2000/svg">
  <path fill-rule="evenodd" clip-rule="evenodd" d="M14 13c0 .738-.404 1.376-1 1.723V19h-2v-4.277c-.596-.347-1-.985-1-1.723a2 2 0 014 0zm-2 7c-2.185 0-4.977-.318-6-.543l-.017-8.91C7.023 10.318 9.815 10 12 10c2.185 0 4.977.318 6 .543l.017 8.91c-1.04.229-3.832.547-6.017.547zM9.5 6.5C9.5 5.121 10.621 4 12 4s2.5 1.121 2.5 2.5v1.602A35.212 35.212 0 0012 8c-.784 0-1.65.04-2.5.102V6.5zm8.946 2.094a21.899 21.899 0 00-1.946-.303V6.5C16.5 4.019 14.481 2 12 2a4.505 4.505 0 00-4.5 4.5v1.791c-.795.095-1.484.201-1.946.303A1.99 1.99 0 004 10.543v8.914a1.99 1.99 0 001.554 1.949C6.815 21.684 9.749 22 12 22c2.251 0 5.185-.316 6.446-.594A1.99 1.99 0 0020 19.457v-8.914a1.99 1.99 0 00-1.554-1.949z" fill="#000"/>
</svg>
