<svg xmlns="http://www.w3.org/2000/svg" width="24" height="24" viewBox="0 0 24 24">
  <path fill-rule="evenodd" d="M14,13 C14,13.738 13.596,14.376 13,14.723 L13,19 L11,19 L11,14.723 C10.404,14.376 10,13.738 10,13 C10,11.896 10.896,11 12,11 C13.104,11 14,11.896 14,13 L14,13 Z M12,20 C9.815,20 7.023,19.682 6,19.457 L5.983,10.547 C7.023,10.318 9.815,10 12,10 C14.185,10 16.977,10.318 18,10.543 L18.017,19.453 C16.977,19.682 14.185,20 12,20 L12,20 Z M9.5,6.5 C9.5,5.121 10.621,4 12,4 C13.379,4 14.5,5.121 14.5,6.5 L14.5,8.102 C13.65,8.04 12.784,8 12,8 C11.216,8 10.35,8.04 9.5,8.102 L9.5,6.5 Z M18.446,8.594 C17.984,8.492 17.295,8.386 16.5,8.291 L16.5,6.5 C16.5,4.019 14.481,2 12,2 C9.519,2 7.5,4.019 7.5,6.5 L7.5,8.291 C6.705,8.386 6.016,8.492 5.554,8.594 C4.643,8.794 4,9.61 4,10.543 L4,19.457 C4,20.39 4.643,21.206 5.554,21.406 C6.815,21.684 9.749,22 12,22 C14.251,22 17.185,21.684 18.446,21.406 C19.357,21.206 20,20.39 20,19.457 L20,10.543 C20,9.61 19.357,8.794 18.446,8.594 L18.446,8.594 Z"/>
</svg>
