<svg xmlns="http://www.w3.org/2000/svg" width="24" height="24" viewBox="0 0 24 24">
  <path fill-rule="evenodd" d="M20,12 C20,7.589 16.411,4 12,4 C7.589,4 4,7.589 4,12 C4,16.411 7.589,20 12,20 C16.411,20 20,16.411 20,12 L20,12 Z M22,12 C22,17.522 17.522,22 12,22 C6.478,22 2,17.522 2,12 C2,6.478 6.478,2 12,2 C17.522,2 22,6.478 22,12 L22,12 Z M14.707,15.293 C15.098,15.684 15.098,16.316 14.707,16.707 C14.512,16.902 14.256,17 14,17 C13.744,17 13.488,16.902 13.293,16.707 L10.293,13.707 C10.064,13.479 9.961,13.154 10.014,12.836 L11.014,6.836 C11.104,6.291 11.618,5.917 12.164,6.014 C12.709,6.104 13.077,6.62 12.986,7.164 L12.071,12.657 L14.707,15.293 Z"/>
</svg>
