<svg xmlns="http://www.w3.org/2000/svg" width="24" height="24" viewBox="0 0 24 24">
  <path fill-rule="evenodd" d="M22,10.5 L22,10.5 C22,9.671 21.328,9 20.5,9 L3.5,9 C2.672,9 2,9.671 2,10.5 C2,11.329 2.672,12 3.5,12 L20.5,12 C21.328,12 22,11.329 22,10.5 L22,10.5 Z M22,5.5 L22,5.5 C22,4.671 21.328,4 20.5,4 L3.5,4 C2.672,4 2,4.671 2,5.5 C2,6.329 2.672,7 3.5,7 L20.5,7 C21.328,7 22,6.329 22,5.5 L22,5.5 Z M20,15 L20,18.161 C20,18.907 19.632,19.322 19,19.322 C18.368,19.322 18,18.746 18,18 L18,15 L17,15 L17,18 C17,19.526 17.981,20.168 19,20.168 C20.019,20.168 21,19.687 21,18.161 L21,15 L20,15 Z M15,18 L13,15 L12,15 L12,20 L13,20 L13,17 L15,20 L16,20 L16,15 L15,15 L15,18 Z M8,20 L11,20 L11,19 L9,19 L9,18 L11,18 L11,17 L9,17 L9,16 L11,16 L11,15 L8,15 L8,20 Z M6,15 L7,15 L7,20 L6,20 L6,17 L5,19.133 L4,17 L4,20 L3,20 L3,15 L4,15 L5,17.345 L6,15 Z"/>
</svg>
