<svg width="24" height="24" fill="none" xmlns="http://www.w3.org/2000/svg">
  <path fill-rule="evenodd" clip-rule="evenodd" d="M17.73 17.728h-2.41V13.95c0-.901-.017-2.06-1.254-2.06-1.256 0-1.45.982-1.45 1.994v3.843h-2.411V9.96h2.315v1.062h.032c.324-.61 1.11-1.255 2.284-1.255 2.444 0 2.896 1.608 2.896 3.7v4.26zM7.46 8.85a1.407 1.407 0 11-.002-2.815A1.407 1.407 0 017.46 8.85zm-1.183 8.877H8.69V9.96H6.276v7.767zM19.364 3H4.636C3.733 3 3 3.733 3 4.636v14.728C3 20.268 3.733 21 4.636 21h14.728c.904 0 1.637-.732 1.637-1.636V4.636A1.638 1.638 0 0019.364 3z" fill="#000"/>
</svg>
