<svg width="24" height="24" fill="none" xmlns="http://www.w3.org/2000/svg">
  <path d="M18 14a3.99 3.99 0 00-1.637.363L15 13l-2 2 1.364 1.364A4.013 4.013 0 0014 18a3.993 3.993 0 001.174 2.84 4.006 4.006 0 003.857 1.024l-2.441-2.44.709-2.125 2.125-.709 2.44 2.44a3.998 3.998 0 00-1.024-3.856A4.012 4.012 0 0018 14zm-.793-5.793l-12.5 12.5a.997.997 0 01-1.414 0 .999.999 0 010-1.414l7-7-2.656-2.656A3.99 3.99 0 016 10a4.012 4.012 0 01-2.84-1.174A3.998 3.998 0 012.136 4.97l2.44 2.44 2.125-.709.709-2.125-2.441-2.44A4.006 4.006 0 018.826 3.16 3.993 3.993 0 0110 6a4.01 4.01 0 01-.364 1.636l2.657 2.657 3.5-3.5L12 3h4l6 6-2 2-2.793-2.793z" fill="#000"/>
</svg>
