<svg width="16" height="16" fill="none" xmlns="http://www.w3.org/2000/svg">
  <path fill-rule="evenodd" clip-rule="evenodd" d="M10.206 9.408L8 11.062 5.794 9.408 1.41 13.793c.373.314.821.546 1.32.651C3.99 14.711 5.85 15 8 15c2.098 0 3.921-.276 5.181-.537a2.988 2.988 0 001.38-.7l-4.355-4.355zM.186 5.201A20.67 20.67 0 000 8.001c0 1.803.204 3.2.427 4.191.01.047.03.091.042.138L4.42 8.378.185 5.201zM16 8.001c0-.955-.106-1.899-.244-2.756L11.58 8.378l3.885 3.884c.004-.019.012-.037.017-.056C15.738 11.072 16 9.536 16 8zM.567 3.362a2.99 2.99 0 012.161-1.808A25.896 25.896 0 018 1c2.098 0 3.921.275 5.181.537a2.976 2.976 0 012.185 1.876L8 8.937.567 3.363z" fill="#000"/>
</svg>
