<svg width="16" height="16" fill="none" xmlns="http://www.w3.org/2000/svg">
  <path fill-rule="evenodd" clip-rule="evenodd" d="M8 13c-2.015 0-3.753-.278-4.857-.513a1.006 1.006 0 01-.307-.122l2.922-2.922L8 11.045l2.242-1.602 2.894 2.895a.98.98 0 01-.363.167A23.93 23.93 0 018 13zm-5.805-2.396A18.423 18.423 0 012 8c0-.418.034-.804.058-1.2l2.298 1.642-2.161 2.162zm.948-7.091A23.77 23.77 0 018 3c1.977 0 3.687.27 4.773.495a.979.979 0 01.758.74c.045.2.093.432.138.67L8 8.956 2.279 4.869c.036-.203.055-.427.099-.621a.972.972 0 01.765-.735zM14 8c0 .89-.107 1.778-.238 2.56l-2.118-2.118 2.296-1.64c.035.394.06.796.06 1.198zm1.482-4.205a2.973 2.973 0 00-2.301-2.258A25.778 25.778 0 008 1c-2.149 0-4.01.289-5.272.556A2.977 2.977 0 00.427 3.809C.204 4.799 0 6.195 0 7.999c0 1.806.204 3.202.427 4.193a2.977 2.977 0 002.301 2.252C3.99 14.71 5.851 15 8 15c2.098 0 3.921-.275 5.181-.537a2.973 2.973 0 002.301-2.257C15.738 11.072 16 9.536 16 8c0-1.536-.262-3.072-.518-4.205z" fill="#000"/>
</svg>
