<svg width="24" height="24" fill="none" xmlns="http://www.w3.org/2000/svg">
  <path fill-rule="evenodd" clip-rule="evenodd" d="M16.508 13.982c-.248-.124-1.465-.723-1.692-.806-.227-.082-.392-.124-.557.124-.165.248-.64.805-.784.97-.144.166-.288.187-.536.063-.248-.124-1.045-.386-1.99-1.23-.737-.655-1.234-1.466-1.378-1.714-.144-.248-.015-.382.109-.505.111-.111.247-.29.37-.434.125-.144.166-.248.248-.413.083-.165.042-.31-.02-.434s-.557-1.342-.763-1.838c-.201-.482-.405-.417-.557-.425a9.919 9.919 0 00-.475-.008.91.91 0 00-.66.31c-.227.247-.866.846-.866 2.065 0 1.218.887 2.395 1.01 2.56.124.166 1.746 2.666 4.23 3.739.59.255 1.051.407 1.41.52.594.19 1.133.163 1.56.099.476-.071 1.464-.599 1.67-1.177.207-.578.207-1.074.145-1.177-.062-.104-.227-.166-.474-.29zm-4.517 6.167h-.003a8.223 8.223 0 01-4.192-1.148l-.3-.178-3.117.817.832-3.038-.196-.312a8.215 8.215 0 01-1.26-4.382c.003-4.54 3.697-8.235 8.24-8.235a8.181 8.181 0 015.821 2.415 8.185 8.185 0 012.41 5.826c-.002 4.54-3.696 8.235-8.235 8.235zm7.008-15.243A9.843 9.843 0 0011.991 2C6.53 2 2.085 6.444 2.083 11.907a9.89 9.89 0 001.323 4.953L2 21.994l5.252-1.378a9.898 9.898 0 004.735 1.206h.004c5.46 0 9.905-4.444 9.907-9.907A9.848 9.848 0 0019 4.905z" fill="#000"/>
</svg>
