<svg xmlns="http://www.w3.org/2000/svg" width="24" height="24" viewBox="0 0 24 24">
  <path fill-rule="evenodd" d="M16.5,4 C14.638,4 12.995,4.928 12,6.344 C11.005,4.928 9.362,4 7.5,4 C4.463,4 2,6.463 2,9.5 C2,9.723 2.017,9.94 2.043,10.155 C2.475,14.613 7.232,18.14 12,21 C16.768,18.14 21.525,14.613 21.957,10.155 C21.983,9.94 22,9.723 22,9.5 C22,6.463 19.537,4 16.5,4 M16.5,6 C18.43,6 20,7.57 20,9.5 C20,9.62 19.99,9.758 19.967,9.963 C19.639,13.343 15.728,16.334 12,18.656 C8.272,16.334 4.361,13.34 4.028,9.919 C4.01,9.758 4,9.62 4,9.5 C4,7.57 5.57,6 7.5,6 C10,6 12,9 12,9 C12,9 14,6 16.5,6"/>
</svg>
