<svg width="24" height="24" fill="none" xmlns="http://www.w3.org/2000/svg">
  <path fill-rule="evenodd" clip-rule="evenodd" d="M12 2c5.634 0 10 4.127 10 9.7 0 5.574-4.366 9.7-10 9.7-1.012 0-1.984-.132-2.895-.384a.798.798 0 00-.534.04l-1.983.876a.801.801 0 01-1.123-.709l-.055-1.778a.806.806 0 00-.27-.57C3.196 17.135 2 14.615 2 11.7 2 6.127 6.366 2 12 2zm6.004 7.465c.284-.447-.268-.952-.688-.632l-3.155 2.394a.6.6 0 01-.722.002l-2.336-1.752a1.501 1.501 0 00-2.17.4l-2.937 4.66c-.284.447.268.952.688.632l3.155-2.394a.6.6 0 01.722-.002l2.336 1.752c.7.525 1.703.34 2.17-.4l2.937-4.66z" fill="#000"/>
</svg>
