<svg width="16" height="16" fill="none" xmlns="http://www.w3.org/2000/svg">
  <path d="M9 9.913c.305-.274.5-.668.5-1.11a1.5 1.5 0 10-3 0c0 .442.195.836.5 1.11v3.39h2v-3.39zM6 4v1.07C6.573 5.027 7.229 5 8 5c.771 0 1.427.027 2 .07V4a2 2 0 00-4 0zm6.518 1.47A2.006 2.006 0 0114 7.403v6.194c0 .907-.608 1.692-1.482 1.933-.87.239-2.865.47-4.518.47-1.653 0-3.648-.231-4.518-.47A2.006 2.006 0 012 13.597V7.403c0-.907.608-1.692 1.482-1.933.156-.043.331-.084.518-.125V4c0-2.205 1.795-4 4-4s4 1.795 4 4v1.345c.187.041.362.082.518.125z" fill="#000"/>
</svg>
