<svg width="16" height="16" fill="none" xmlns="http://www.w3.org/2000/svg">
  <path d="M9.5 9.5a1.5 1.5 0 00-3 0c0 .442.195.836.5 1.11V13h2v-2.39c.305-.274.5-.668.5-1.11zM8 14c1.871 0 3.225-.241 4.03-.444L12 7.523C10.987 7.283 9.479 7 8 7s-2.987.283-3.992.521L4 13.563c.775.196 2.129.437 4 .437zM6 4v1.139C6.646 5.059 7.319 5 8 5c.682 0 1.354.059 2 .139V4c0-1.103-.897-2-2-2s-2 .897-2 2zm6.453 1.575A2.004 2.004 0 0114 7.523v6.04c0 .906-.604 1.711-1.482 1.932-1 .252-2.506.505-4.518.505s-3.518-.253-4.518-.505C2.604 15.274 2 14.469 2 13.563v-6.04c0-.93.641-1.733 1.547-1.948.138-.032.303-.064.453-.097V4c0-2.206 1.794-4 4-4s4 1.794 4 4v1.478c.15.033.316.065.453.097z" fill="#000"/>
</svg>
