<svg width="16" height="16" fill="none" xmlns="http://www.w3.org/2000/svg">
  <path fill-rule="evenodd" clip-rule="evenodd" d="M12 3a2 2 0 104-.001A2 2 0 0012 3zm2 4c-.176 0-.344-.03-.514-.052l-1.906 1.43 3.885 3.884c.004-.019.013-.037.017-.056C15.738 11.072 16 9.536 16 8c0-.511-.033-1.016-.083-1.51A3.95 3.95 0 0114 7zm-6 4.063L5.794 9.408l-4.385 4.385c.373.314.82.546 1.32.651 1.26.267 3.123.556 5.27.556 2.099 0 3.922-.276 5.182-.537a2.996 2.996 0 001.38-.701l-4.355-4.354L8 11.063zm3.635-4.852A3.984 3.984 0 0110 3c0-.678.185-1.308.482-1.867A24.672 24.672 0 008 1c-2.148 0-4.01.289-5.271.555A2.989 2.989 0 00.567 3.363L8 8.937l3.635-2.726zM4.42 8.378L.469 12.33c-.013-.047-.032-.091-.042-.138C.204 11.201 0 9.804 0 8c0-1.087.078-2.008.186-2.799L4.42 8.378z" fill="#000"/>
</svg>
