<svg width="16" height="16" fill="none" xmlns="http://www.w3.org/2000/svg">
  <path fill-rule="evenodd" clip-rule="evenodd" d="M13.136 12.338l-2.894-2.895L8 11.045 5.758 9.443l-2.922 2.922c.094.055.196.099.307.122A23.77 23.77 0 008 13c1.977 0 3.688-.27 4.774-.495a.975.975 0 00.362-.167zM4.357 8.442L2.058 6.8C2.034 7.196 2 7.582 2 8c0 .933.08 1.788.196 2.604l2.161-2.162zm11.559-1.951C15.964 6.986 16 7.49 16 8c0 1.536-.261 3.072-.517 4.206a2.976 2.976 0 01-2.302 2.257C11.921 14.725 10.098 15 8 15c-2.149 0-4.01-.289-5.271-.556a2.977 2.977 0 01-2.302-2.252C.204 11.201 0 9.805 0 8c0-1.805.204-3.201.427-4.191a2.977 2.977 0 012.302-2.253A25.794 25.794 0 018 1c.89 0 1.714.056 2.483.133A3.953 3.953 0 0010 3c0 .031.009.06.009.091A22.902 22.902 0 008 3c-2.013 0-3.753.278-4.857.513a.972.972 0 00-.765.735c-.044.194-.062.418-.098.621L8 8.955l3.732-2.665a3.958 3.958 0 001.972.68l-2.06 1.472 2.118 2.119C13.893 9.778 14 8.891 14 8c0-.337-.024-.673-.051-1.005.018 0 .034.005.051.005a3.96 3.96 0 001.916-.509zM12 3a2 2 0 114.001.001A2 2 0 0112 3z" fill="#000"/>
</svg>
