<svg width="16" height="16" fill="none" xmlns="http://www.w3.org/2000/svg">
  <path fill-rule="evenodd" clip-rule="evenodd" d="M14 8.457a.995.995 0 01-.769.973C12.048 9.689 10.179 10 8 10s-4.048-.311-5.231-.57A.995.995 0 012 8.457V4.543c0-.466.323-.875.769-.973A24.857 24.857 0 018 3c2.179 0 4.048.311 5.231.57a.995.995 0 01.769.973v3.914zm-.339-6.84A26.858 26.858 0 008 1c-2.358 0-4.38.336-5.661.617A3.006 3.006 0 000 4.543v3.914c0 1.397.983 2.628 2.339 2.926.691.151 1.602.317 2.661.439V13H4a1 1 0 100 2h8a1 1 0 100-2h-1v-1.178a27.136 27.136 0 002.661-.439A3.007 3.007 0 0016 8.457V4.543a3.006 3.006 0 00-2.339-2.926z" fill="#000"/>
</svg>
