<svg xmlns="http://www.w3.org/2000/svg" width="16" height="16" viewBox="0 0 16 16">
  <path fill-rule="evenodd" d="M5.8975,8.6327 L6.2885,7.4597 L5.4145,6.5857 L2.8285,3.9997 L4.0005,2.8277 L6.5855,5.4137 L7.4245,6.2997 L8.5965,5.9087 C8.5995,5.9077 8.8385,5.8397 9.1845,5.8397 C9.5285,5.8397 9.8455,5.9037 10.1385,6.0327 L6.0295,10.1417 C5.7165,9.4617 5.8355,8.8517 5.8975,8.6327 L5.8975,8.6327 Z M16.0005,14.4667 L10.2075,8.7927 C11.0475,7.9517 11.9615,7.0387 13.0005,5.9997 C11.7995,4.1997 10.2405,3.8397 9.1845,3.8397 C8.4805,3.8397 8.0005,3.9997 8.0005,3.9997 L4.0005,-0.0003 L0.0005,3.9997 L4.0005,7.9997 C4.0005,7.9997 3.0005,10.9997 6.0005,12.9997 C6.8995,12.1007 7.8035,11.1957 8.7935,10.2067 L13.1765,14.4667 L16.0005,14.4667 Z"/>
</svg>
