<svg xmlns="http://www.w3.org/2000/svg" width="24" height="24" viewBox="0 0 24 24">
  <path fill-rule="evenodd" d="M21.664,19.4502 L3.664,3.4502 C3.251,3.0822 2.62,3.1192 2.253,3.5332 C1.886,3.9452 1.923,4.5782 2.336,4.9442 L20.336,20.9442 C20.526,21.1142 20.764,21.1972 21,21.1972 C21.275,21.1972 21.55,21.0842 21.747,20.8612 C22.114,20.4492 22.077,19.8162 21.664,19.4502 L21.664,19.4502 Z M10.011,20.0002 C10.011,21.1042 10.906,22.0002 12.011,22.0002 C13.115,22.0002 14.011,21.1042 14.011,20.0002 L12.011,20.0002 L10.011,20.0002 Z M3.011,16.0002 C3.011,16.0002 6.011,19.0002 12.011,19.0002 C13.134,19.0002 14.141,18.8882 15.052,18.7172 L5.809,10.5012 C5.143,14.5602 3.011,16.0002 3.011,16.0002 L3.011,16.0002 Z M20.011,15.4432 L7.501,3.9772 C8.697,2.6652 10.429,2.0002 12.011,2.0002 C14.772,2.0002 18.011,4.0002 18.011,8.0002 C18.011,11.6822 19.139,13.8532 20.011,14.9832 L20.011,15.4432 Z"/>
</svg>
