<svg width="24" height="24" fill="none" xmlns="http://www.w3.org/2000/svg">
  <path d="M12 20h2c0 1.1-.9 2-2 2s-2-.9-2-2h2zm9.7 1.7c-.2.2-.4.3-.7.3-.3 0-.5-.1-.7-.3l-3.4-3.4c-1.4.4-3 .7-4.9.7-6 0-9-3-9-3s3-2 3-8v-.5L2.3 3.7C2.1 3.5 2 3.3 2 3c0-.3.1-.5.3-.7.4-.4 1-.4 1.4 0l18 18c.2.2.3.5.3.7 0 .3-.1.5-.3.7zm-6.5-5.1L8 9.4c-.2 2.9-1.1 5-2 6.3 1.2.6 3.2 1.4 6 1.4 1.2-.1 2.3-.3 3.2-.5zM12 4c1.6 0 4 1.1 4 4 0 2.3.4 4.1.9 5.5l3.2 3.2c.6-.4.9-.7.9-.7s-3-2-3-8c0-4-3.2-6-6-6-1.6 0-3.4.7-4.6 2l1.4 1.4C9.7 4.4 11 4 12 4z" fill="#000"/>
</svg>
