<svg xmlns="http://www.w3.org/2000/svg" width="24" height="24" viewBox="0 0 24 24">
  <path fill-rule="evenodd" d="M12.0107,17 C9.2487,17 7.2537,16.292 6.0037,15.643 C6.5567,14.807 7.1077,13.671 7.4937,12.206 L5.7807,10.683 C5.0827,14.605 3.0107,16 3.0107,16 C3.0107,16 6.0107,19 12.0107,19 C13.0537,19 13.9997,18.905 14.8627,18.756 L12.8577,16.973 C12.5817,16.988 12.3027,17 12.0107,17 L12.0107,17 Z M12.0107,4 C13.6187,4 16.0107,5.065 16.0107,8 C16.0107,9.647 16.2177,11.032 16.5287,12.209 L20.0107,15.304 L20.0217,15 C19.1477,13.872 18.0107,11.693 18.0107,8 C18.0107,4 14.7727,2 12.0107,2 C10.3827,2 8.5937,2.701 7.3957,4.091 L8.8837,5.414 C9.7267,4.41 11.0177,4 12.0107,4 L12.0107,4 Z M21.6637,19.45 L3.6637,3.45 C3.2507,3.082 2.6177,3.119 2.2527,3.533 C1.8857,3.945 1.9227,4.578 2.3357,4.944 L20.3357,20.944 C20.5267,21.114 20.7637,21.197 20.9997,21.197 C21.2757,21.197 21.5497,21.084 21.7467,20.861 C22.1147,20.449 22.0767,19.816 21.6637,19.45 L21.6637,19.45 Z M12.0107,20 L14.0107,20 C14.0107,21.104 13.1147,22 12.0107,22 C10.9067,22 10.0107,21.104 10.0107,20 L12.0107,20 Z"/>
</svg>
