<svg width="24" height="24" fill="none" xmlns="http://www.w3.org/2000/svg">
  <path d="M18 11V9h2v2h-2zm-1.59-7.514a1 1 0 101.725 1.01A1.001 1.001 0 1119 6a1 1 0 100 2c1.654 0 3-1.346 3-3s-1.346-3-3-3a3.01 3.01 0 00-2.59 1.486zm.711 15.128a3.033 3.033 0 001.448-.657l-4.272-4.43L12 15.25l-2.297-1.723-4.272 4.43c.408.334.9.57 1.447.657 3.222.512 7.022.512 10.243 0zM4.355 16.13c.003.016.01.032.013.048l3.722-3.861-3.927-2.945A24.103 24.103 0 004 12c0 1.36.12 2.749.355 4.13zm15.29-.001C19.88 14.749 20 13.36 20 12h2a26.56 26.56 0 01-.384 4.466 5.037 5.037 0 01-4.181 4.123A34.817 34.817 0 0112 21a34.84 34.84 0 01-5.436-.411 5.037 5.037 0 01-4.18-4.122A26.58 26.58 0 012 12c0-1.473.129-2.976.384-4.467.362-2.119 2.009-3.771 4.098-4.109A34.982 34.982 0 0112 3c1.013 0 2.015.056 3 .144 0 0-.313 1.21-.617 1.943A33.976 33.976 0 0012 5c-1.77.002-3.582.136-5.198.398-1.01.164-1.839.852-2.236 1.786.011.007.023.008.034.016l7.4 5.55 3.269-2.451a5 5 0 001.67 1.246l-1.029.772 3.722 3.861c.003-.017.01-.032.013-.049z" fill="#000"/>
</svg>
