<svg xmlns="http://www.w3.org/2000/svg" width="16" height="16" viewBox="0 0 16 16">
  <path fill-rule="evenodd" d="M14.29,3.38655827 C13.951,2.95055827 13.325,2.87055827 12.887,3.20955827 C12.45,3.54855827 12.371,4.17755827 12.71,4.61355827 C13.566,5.71455827 14,6.85455827 14,7.99955827 C14,9.14555827 13.566,10.2845583 12.71,11.3865583 C12.371,11.8225583 12.45,12.4505583 12.887,12.7895583 C13.069,12.9315583 13.285,12.9995583 13.499,12.9995583 C13.798,12.9995583 14.093,12.8665583 14.29,12.6135583 C15.425,11.1525583 16,9.60055827 16,7.99955827 C16,6.39955827 15.425,4.84755827 14.29,3.38655827 M11.852,5.47755827 C11.564,5.00555827 10.947,4.85955827 10.477,5.14755827 C10.007,5.43655827 9.858,6.05155827 10.147,6.52255827 C10.591,7.24555827 10.707,8.62555827 10.165,9.44955827 C9.861,9.91055827 9.989,10.5315583 10.45,10.8345583 C10.62,10.9475583 10.811,10.9995583 10.999,10.9995583 C11.324,10.9995583 11.644,10.8415583 11.835,10.5495583 C12.887,8.95155827 12.629,6.74355827 11.852,5.47755827 M9,2.99955827 L9,12.9995583 C9,13.3685583 8.797,13.7075583 8.472,13.8815583 C8.324,13.9605583 8.162,13.9995583 8,13.9995583 C7.806,13.9995583 7.612,13.9435583 7.445,13.8315583 L3.197,10.9995583 L2,10.9995583 C0.897,10.9995583 0,10.1025583 0,8.99955827 L0,6.99955827 C0,5.89755827 0.897,4.99955827 2,4.99955827 L3.197,4.99955827 L7.445,2.16755827 C7.751,1.96355827 8.147,1.94455827 8.472,2.11755827 C8.797,2.29155827 9,2.63055827 9,2.99955827"/>
</svg>
