<svg xmlns="http://www.w3.org/2000/svg" width="24" height="24" viewBox="0 0 24 24">
  <path fill-rule="evenodd" d="M13.0002,16.9619 C13.0002,16.4089 12.5532,15.9619 12.0002,15.9619 C11.4472,15.9619 11.0002,16.4089 11.0002,16.9619 C11.0002,17.5149 11.4472,17.9619 12.0002,17.9619 C12.5532,17.9619 13.0002,17.5149 13.0002,16.9619 L13.0002,16.9619 Z M12.0002,9.9619 L12.0002,9.9619 C11.4472,9.9619 11.0002,10.4089 11.0002,10.9619 L11.0002,13.9619 C11.0002,14.5149 11.4472,14.9619 12.0002,14.9619 C12.5532,14.9619 13.0002,14.5149 13.0002,13.9619 L13.0002,10.9619 C13.0002,10.4089 12.5532,9.9619 12.0002,9.9619 L12.0002,9.9619 Z M4.7102,18.9619 L19.2902,18.9619 L12.0002,6.0019 L4.7102,18.9619 Z M21.0002,20.9619 L3.0002,20.9619 C2.6452,20.9619 2.3162,20.7739 2.1372,20.4669 C1.9572,20.1599 1.9542,19.7809 2.1292,19.4719 L11.1292,3.4719 C11.4822,2.8429 12.5182,2.8429 12.8712,3.4719 L21.8712,19.4719 C22.0462,19.7809 22.0432,20.1599 21.8632,20.4669 C21.6842,20.7739 21.3552,20.9619 21.0002,20.9619 L21.0002,20.9619 Z"/>
</svg>
