<svg width="24" height="24" fill="none" xmlns="http://www.w3.org/2000/svg">
  <path d="M17.121 18.614a3.033 3.033 0 001.448-.657l-4.272-4.43L12 15.25l-2.297-1.723-4.272 4.43c.408.334.9.57 1.447.657 3.222.512 7.022.512 10.243 0zM4.368 16.177l3.722-3.86-3.928-2.946A24.386 24.386 0 004 12.001c0 1.36.12 2.748.355 4.13.003.015.01.031.013.046zM7 4v5l5 3.75L17 9V4H7zm8.91 8.317l3.722 3.86c.003-.016.01-.032.012-.048A24.57 24.57 0 0020 12c0-.867-.066-1.747-.162-2.629l-3.928 2.946zm5.706-4.783A26.56 26.56 0 0122 12c0 1.472-.129 2.975-.384 4.466a5.037 5.037 0 01-4.18 4.123A34.827 34.827 0 0112 21a34.84 34.84 0 01-5.436-.41 5.037 5.037 0 01-4.18-4.123A26.598 26.598 0 012 12c0-1.473.13-2.976.384-4.466a.999.999 0 01.447-.675l2.17-1.385V3a1 1 0 011-1h12a1 1 0 011 1v2.437l2.178 1.43a1 1 0 01.437.667z" fill="#000"/>
</svg>
