<svg width="16" height="16" fill="none" xmlns="http://www.w3.org/2000/svg">
  <g clip-path="url(#16x16/calendar_plus/filled__clip0)">
    <path d="M12 9a1 1 0 00-1-1H9V6a1 1 0 10-2 0v2H5a1 1 0 100 2h2v2a1 1 0 102 0v-2h2a1 1 0 001-1zm4-1a19.447 19.447 0 00-.45-4.2A4.36 4.36 0 0012.2.41H12V1a1 1 0 11-2 0V.1C9.34 0 8.68 0 8 0c-.68 0-1.34 0-2 .1V1a1 1 0 11-2 0V.45h-.2A4.36 4.36 0 00.45 3.8 19.448 19.448 0 000 8c-.003 1.412.148 2.82.45 4.2a4.36 4.36 0 003.35 3.35c1.38.302 2.788.453 4.2.45 1.412.003 2.82-.148 4.2-.45a4.36 4.36 0 003.35-3.35c.302-1.38.453-2.788.45-4.2zm-2 0a18.282 18.282 0 01-.4 3.77 2.38 2.38 0 01-1.83 1.83A18.24 18.24 0 018 14a18.282 18.282 0 01-3.77-.4 2.38 2.38 0 01-1.81-1.83 18 18 0 010-7.54A2.18 2.18 0 012.51 4h11c.034.075.065.152.09.23A18.24 18.24 0 0114 8z" fill="#000"/>
  </g>
  <defs>
    <clipPath id="16x16/calendar_plus/filled__clip0">
      <path fill="#fff" d="M0 0h16v16H0z"/>
    </clipPath>
  </defs>
</svg>
