<svg xmlns="http://www.w3.org/2000/svg" width="24" height="24" viewBox="0 0 24 24">
  <path fill-rule="evenodd" d="M16.9998,12 C16.9998,14.762 14.7618,17 11.9998,17 C9.2378,17 6.9998,14.762 6.9998,12 C6.9998,9.238 9.2378,7 11.9998,7 C12.4188,7 12.8198,7.066 13.2088,7.164 C12.4978,7.471 11.9998,8.177 11.9998,9 C11.9998,10.104 12.8958,11 13.9998,11 C15.0958,11 15.9838,10.117 15.9978,9.024 C16.6188,9.857 16.9998,10.881 16.9998,12 M11.9998,18 C8.6868,18 5.9998,15.313 5.9998,12 C5.9998,8.687 8.6868,6 11.9998,6 C15.3128,6 17.9998,8.687 17.9998,12 C17.9998,15.313 15.3128,18 11.9998,18 M22.8528,11.478 C22.6658,11.173 18.2028,4 11.9998,4 C5.7968,4 1.3338,11.173 1.1468,11.478 C0.9508,11.798 0.9508,12.202 1.1468,12.522 C1.3338,12.827 5.7968,20 11.9998,20 C18.2028,20 22.6658,12.827 22.8528,12.522 C23.0488,12.202 23.0488,11.798 22.8528,11.478"/>
</svg>
