<svg xmlns="http://www.w3.org/2000/svg" width="24" height="24" viewBox="0 0 24 24">
  <path fill-rule="evenodd" d="M15.9978,9.0244 C16.6188,9.8574 16.9998,10.8804 16.9998,12.0004 C16.9998,14.7614 14.7618,17.0004 11.9998,17.0004 C9.2378,17.0004 6.9998,14.7614 6.9998,12.0004 C6.9998,9.2384 9.2378,7.0004 11.9998,7.0004 C12.4188,7.0004 12.8198,7.0664 13.2088,7.1644 C12.4978,7.4704 11.9998,8.1764 11.9998,9.0004 C11.9998,10.1044 12.8948,11.0004 13.9998,11.0004 C15.0958,11.0004 15.9838,10.1174 15.9978,9.0244 M11.9998,18.0004 C7.7828,18.0004 4.2888,13.5464 3.2018,11.9994 C4.2858,10.4504 7.7698,6.0004 11.9998,6.0004 C16.2168,6.0004 19.7108,10.4534 20.7978,12.0014 C19.7138,13.5494 16.2288,18.0004 11.9998,18.0004 M22.8518,11.4774 C22.6658,11.1724 18.2028,4.0004 11.9998,4.0004 C5.7968,4.0004 1.3338,11.1724 1.1468,11.4774 C0.9508,11.7974 0.9508,12.2024 1.1468,12.5224 C1.3338,12.8274 5.7968,20.0004 11.9998,20.0004 C18.2028,20.0004 22.6658,12.8274 22.8518,12.5224 C23.0488,12.2024 23.0488,11.7974 22.8518,11.4774"/>
</svg>
