<svg xmlns="http://www.w3.org/2000/svg" width="16" height="16" viewBox="0 0 16 16">
  <path fill-rule="evenodd" d="M5.293,9.293 L2.793,11.793 L1,10 L1,15 L6,15 L4.207,13.207 L6.707,10.707 C7.098,10.316 7.098,9.684 6.707,9.293 C6.316,8.902 5.684,8.902 5.293,9.293 L5.293,9.293 Z M10,1 L11.793,2.793 L9.293,5.293 C8.902,5.684 8.902,6.316 9.293,6.707 C9.488,6.902 9.744,7 10,7 C10.256,7 10.512,6.902 10.707,6.707 L13.207,4.207 L15,6 L15,1 L10,1 Z M13,12 C13,12.552 12.552,13 12,13 L9,13 L9,15 L12,15 C13.654,15 15,13.654 15,12 L15,9 L13,9 L13,12 Z M4,1 L7,1 L7,3 L4,3 C3.448,3 3,3.448 3,4 L3,7 L1,7 L1,4 C1,2.346 2.346,1 4,1 L4,1 Z"/>
</svg>
