<svg xmlns="http://www.w3.org/2000/svg" width="24" height="24" viewBox="0 0 24 24">
  <path fill-rule="evenodd" d="M15,3 L17.293,5.293 L14.293,8.293 C13.902,8.684 13.902,9.316 14.293,9.707 C14.488,9.902 14.744,10 15,10 C15.256,10 15.512,9.902 15.707,9.707 L18.707,6.707 L21,9 L21,3 L15,3 Z M8.293,14.293 L5.293,17.293 L3,15 L3,21 L9,21 L6.707,18.707 L9.707,15.707 C10.098,15.316 10.098,14.684 9.707,14.293 C9.316,13.902 8.684,13.902 8.293,14.293 L8.293,14.293 Z M19,18 C19,18.552 18.552,19 18,19 L13,19 L13,21 L18,21 C19.654,21 21,19.654 21,18 L21,13 L19,13 L19,18 Z M6,3 L11,3 L11,5 L6,5 C5.448,5 5,5.448 5,6 L5,11 L3,11 L3,6 C3,4.346 4.346,3 6,3 L6,3 Z"/>
</svg>
