<svg xmlns="http://www.w3.org/2000/svg" width="16" height="16" viewBox="0 0 16 16">
  <path fill-rule="evenodd" d="M14.9999219,7.00014583 L3.41301664,7.00014583 L6.70627393,3.70721443 C7.09730448,3.31622258 7.09730448,2.68423575 6.70627393,2.29324389 C6.31524338,1.90225204 5.683194,1.90225204 5.29216345,2.29324389 L0.292772873,7.29213975 C0.199765607,7.38513781 0.126759903,7.49513552 0.0757559184,7.61813296 C-0.0252519728,7.86212787 -0.0252519728,8.13812212 0.0757559184,8.38211704 C0.126759903,8.50511448 0.199765607,8.61511219 0.292772873,8.70811025 L5.29216345,13.7070061 C5.48717869,13.902002 5.74319869,14 5.99921869,14 C6.25523869,14 6.51125869,13.902002 6.70627393,13.7070061 C7.09730448,13.3160142 7.09730448,12.6840274 6.70627393,12.2930356 L3.41301664,9.00010416 L14.9999219,9.00010416 C15.5529651,9.00010416 16,8.5521135 16,8.000125 C16,7.4481365 15.5529651,7.00014583 14.9999219,7.00014583"/>
</svg>
