<svg width="32" height="32" fill="none" xmlns="http://www.w3.org/2000/svg">
  <path fill-rule="evenodd" clip-rule="evenodd" d="M10.5 11a3 3 0 116 0 3 3 0 01-6 0zM16 27c-6.143 0-9.01-.908-10.221-4.317l5.094-3.396 2.42 2.42a1 1 0 001.288.106L21 17.229l5.607 4.004C25.692 25.84 22.932 27 16 27zm0-22c9.047 0 11 1.953 11 11 0 1.099-.03 2.089-.098 2.987l-5.321-3.8a.997.997 0 00-1.162 0l-6.311 4.507-2.401-2.401a.998.998 0 00-1.262-.125L5.282 20.61C5.084 19.326 5 17.812 5 16 5 6.953 6.953 5 16 5zm0-2C5.879 3 3 5.879 3 16s2.879 13 13 13 13-2.879 13-13S26.121 3 16 3z" fill="#000"/>
</svg>
