<svg xmlns="http://www.w3.org/2000/svg" width="24" height="24" viewBox="0 0 24 24">
  <path fill-rule="evenodd" d="M15.9043,14.9154 C15.2273,14.2754 14.3013,13.8954 13.3083,13.9364 C12.9733,12.8504 12.2113,11.9464 11.2203,11.4224 C11.1153,11.0784 11.0403,10.7284 11.0133,10.3764 C10.8643,8.3514 11.8673,6.5374 13.4953,5.6034 C13.3373,6.3294 13.2953,7.0904 13.3333,8.0574 C13.4173,10.1924 14.8563,12.1324 16.9993,12.9984 C17.9023,13.3634 18.6093,13.5424 19.3353,13.6524 C18.4063,14.4844 17.1843,14.9404 15.9043,14.9154 M22.1243,12.3704 C21.9643,12.0714 21.6633,11.8734 21.3253,11.8464 L21.1363,11.8294 C19.7633,11.7164 19.0073,11.6524 17.7493,11.1444 C16.3343,10.5724 15.3843,9.3294 15.3313,7.9784 C15.2653,6.3174 15.4973,5.5454 16.0413,4.4414 C16.2043,4.1094 16.1713,3.7134 15.9533,3.4134 C15.7343,3.1124 15.3663,2.9574 15.0023,3.0104 C11.3133,3.5394 8.7413,6.7694 9.0193,10.5244 C9.0303,10.6674 9.0593,10.8074 9.0793,10.9484 C6.8423,11.0394 5.0423,12.8534 5.0013,15.1024 C3.8363,15.5164 3.0003,16.6284 3.0003,17.9324 C3.0003,19.5864 4.3453,20.9324 6.0003,20.9324 L13.5003,20.9324 C15.4293,20.9324 17.0003,19.3614 17.0003,17.4324 C17.0003,17.2384 16.9703,17.0544 16.9393,16.8694 C19.0943,16.5734 21.0393,15.2724 22.1173,13.3264 C22.2813,13.0294 22.2843,12.6704 22.1243,12.3704"/>
</svg>
