<svg xmlns="http://www.w3.org/2000/svg" width="24" height="24" viewBox="0 0 24 24">
  <path fill-rule="evenodd" d="M15.9102,14.9144 C15.2352,14.2744 14.3102,13.8954 13.3082,13.9364 C12.9732,12.8504 12.2112,11.9464 11.2212,11.4224 C11.1152,11.0784 11.0402,10.7284 11.0142,10.3764 C10.8642,8.3514 11.8672,6.5374 13.4952,5.6034 C13.3372,6.3294 13.2952,7.0904 13.3332,8.0574 C13.4172,10.1924 14.8562,12.1324 16.9992,12.9984 C17.9022,13.3634 18.6092,13.5424 19.3352,13.6524 C18.4072,14.4834 17.1842,14.9384 15.9102,14.9144 M13.5002,18.9324 L6.0002,18.9324 C5.4482,18.9324 5.0002,18.4834 5.0002,17.9324 C5.0002,17.3804 5.4482,16.9324 5.9202,16.9284 C5.9462,16.9314 6.0142,16.9384 6.0402,16.9394 C6.3532,16.9534 6.6622,16.8264 6.8652,16.5844 C7.0682,16.3414 7.1442,16.0174 7.0712,15.7094 C7.0222,15.5064 7.0002,15.3384 7.0002,15.1824 C7.0002,13.9414 8.0102,12.9324 9.2502,12.9324 C10.4742,12.9324 11.4822,13.9304 11.4962,15.1564 C11.5002,15.4914 11.6722,15.8034 11.9542,15.9844 C12.2362,16.1674 12.5892,16.1964 12.8972,16.0604 C13.8822,15.6294 15.0002,16.3994 15.0002,17.4324 C15.0002,18.2594 14.3272,18.9324 13.5002,18.9324 M22.1242,12.3704 C21.9642,12.0714 21.6632,11.8734 21.3252,11.8464 L21.1372,11.8294 C19.7642,11.7164 19.0072,11.6524 17.7492,11.1444 C16.3342,10.5724 15.3852,9.3294 15.3312,7.9774 C15.2652,6.3174 15.4972,5.5454 16.0412,4.4414 C16.2042,4.1094 16.1712,3.7134 15.9532,3.4134 C15.7342,3.1124 15.3652,2.9574 15.0022,3.0104 C11.3132,3.5394 8.7412,6.7694 9.0192,10.5244 C9.0302,10.6674 9.0592,10.8074 9.0792,10.9484 C6.8432,11.0394 5.0422,12.8534 5.0012,15.1024 C3.8362,15.5164 3.0002,16.6284 3.0002,17.9324 C3.0002,19.5864 4.3462,20.9324 6.0002,20.9324 L13.5002,20.9324 C15.4302,20.9324 17.0002,19.3614 17.0002,17.4324 C17.0002,17.2384 16.9712,17.0544 16.9402,16.8694 C19.0952,16.5734 21.0392,15.2724 22.1172,13.3264 C22.2812,13.0294 22.2842,12.6704 22.1242,12.3704"/>
</svg>
