<svg xmlns="http://www.w3.org/2000/svg" width="16" height="16" viewBox="0 0 16 16">
  <path fill-rule="evenodd" d="M6.99991903,3 L6.55291903,2.105 C6.21391903,1.428 5.52091903,1 4.76391903,1 L1.99991903,1 C1.44691903,1 0.999919032,1.447 0.999919032,2 L0.999919032,5 L14.999919,5 L14.999919,4 C14.999919,3.447 14.552919,3 13.999919,3 L6.99991903,3 Z M15.998919,7.059 C15.844919,10.684 14.930919,13.088 14.016919,13.999 C13.514919,14.499 10.757919,15 7.99991903,15 C5.24191903,15 2.48491903,14.499 1.98291903,13.999 C1.06891903,13.088 0.154919032,10.684 0.000919032416,7.059 C-0.0230809676,6.484 0.425919032,6 1.00291903,6 L14.996919,6 C15.573919,6 16.022919,6.484 15.998919,7.059 L15.998919,7.059 Z"/>
</svg>
