<svg width="16" height="16" fill="none" xmlns="http://www.w3.org/2000/svg">
  <path fill-rule="evenodd" clip-rule="evenodd" d="M9.708 10.293a.999.999 0 11-1.414 1.414l-2-2a.997.997 0 01-.263-.949l1-4a1 1 0 011.94.484l-.863 3.451 1.6 1.6zm2.947.956a1.836 1.836 0 01-1.405 1.405C10.189 12.884 9.096 13 8 13c-1.095 0-2.188-.116-3.25-.346a1.836 1.836 0 01-1.404-1.405 15.413 15.413 0 010-6.499A1.837 1.837 0 014.75 3.346 15.362 15.362 0 018 3c1.097 0 2.19.116 3.25.346a1.836 1.836 0 011.405 1.405 15.42 15.42 0 010 6.498zm1.955-6.921a3.832 3.832 0 00-2.938-2.937A17.35 17.35 0 008 1c-1.26 0-2.488.135-3.671.391A3.828 3.828 0 001.39 4.328 17.357 17.357 0 001 8c0 1.26.135 2.488.39 3.672a3.83 3.83 0 002.938 2.937C5.512 14.865 6.74 15 8 15c1.26 0 2.489-.135 3.672-.391a3.832 3.832 0 002.938-2.937C14.866 10.488 15 9.26 15 8c0-1.26-.134-2.488-.39-3.672z" fill="#000"/>
</svg>
