<svg xmlns="http://www.w3.org/2000/svg" width="32" height="32" viewBox="0 0 32 32">
  <path fill-rule="evenodd" d="M16,3 C19.866,3 23,6.134 23,10 C23,18 27,22 27,22 C27,22 23,25 16,25 C9,25 5,22 5,22 C5,22 9,18 9,10 C9,6.134 12.134,3 16,3 M16,5 C13.243,5 11,7.243 11,10 C11,15.431 9.297,19.225 7.965,21.36 C9.611,22.102 12.358,23 16,23 C19.64,23 22.387,22.102 24.034,21.36 C22.703,19.224 21,15.431 21,10 C21,7.243 18.757,5 16,5 M13,26 L16,26 L19,26 C19,27.657 17.657,29 16,29 C14.343,29 13,27.657 13,26"/>
</svg>
