<svg width="24" height="24" fill="none" xmlns="http://www.w3.org/2000/svg">
  <path d="M16 9c0-1.883-1.682-3.25-4-3.25-2.317 0-4 1.367-4 3.25a1 1 0 102 0c0-.988 1.309-1.25 2-1.25.582 0 1.132.144 1.508.394.442.294.492.629.492.856 0 .423-.305.668-1.054 1.168C12.124 10.715 11 11.465 11 13v1h2v-1c0-.423.306-.668 1.055-1.168C14.875 11.285 16 10.535 16 9zm-2.5 7.5a1.5 1.5 0 10-3.001.001 1.5 1.5 0 003-.001zM22 12c0 5.522-4.477 10-10 10-5.522 0-10-4.478-10-10S6.478 2 12 2c5.523 0 10 4.478 10 10z" fill="#000"/>
</svg>
