<svg width="24" height="24" fill="none" xmlns="http://www.w3.org/2000/svg">
  <path d="M22 12c0 5.522-4.478 10-10 10-5.523 0-10-4.478-10-10S6.477 2 12 2c5.522 0 10 4.478 10 10zM4 12c0 4.411 3.589 8 8 8s8-3.589 8-8-3.589-8-8-8-8 3.589-8 8zm8 3a1.5 1.5 0 100 3 1.5 1.5 0 000-3zm0-9C9.683 6 8 7.117 8 9a1 1 0 102 0c0-.731 1.196-1 2-1 1.144 0 2 .397 2 1 0 .355-.306.668-1.055 1.168C12.124 10.715 11 11.465 11 13v1h2v-1c0-.423.306-.668 1.055-1.168C14.876 11.285 16 10.535 16 9c0-1.883-1.683-3-4-3z" fill="#000"/>
</svg>
