<svg xmlns="http://www.w3.org/2000/svg" width="16" height="16" viewBox="0 0 16 16">
  <path fill-rule="evenodd" d="M2,4.543 L2,8.457 C2,8.923 2.323,9.332 2.769,9.43 C3.952,9.689 5.821,10 8,10 L8,15 L4,15 C3.447,15 3,14.553 3,14 C3,13.447 3.447,13 4,13 L5,13 L5,11.822 C3.941,11.7 3.03,11.534 2.339,11.383 C0.983,11.085 0,9.855 0,8.457 L0,4.543 C0,3.146 0.983,1.915 2.339,1.617 C3.62,1.336 5.642,1 8,1 C10.358,1 12.38,1.336 13.661,1.617 C15.104,1.936 16,2.849 16,4 L14,4 C14,3.861 13.641,3.661 13.23,3.57 C12.048,3.311 10.179,3 8,3 C5.821,3 3.952,3.311 2.769,3.57 C2.323,3.668 2,4.077 2,4.543 L2,4.543 Z M11,14 L14,14 L14,7 L11,7 L11,14 Z M14,5 L11,5 C9.896,5 9,5.896 9,7 L9,14 C9,15.105 9.896,16 11,16 L14,16 C15.104,16 16,15.105 16,14 L16,7 C16,5.896 15.104,5 14,5 L14,5 Z"/>
</svg>
