<svg width="24" height="24" fill="none" xmlns="http://www.w3.org/2000/svg">
  <path fill-rule="evenodd" clip-rule="evenodd" d="M12 2a.8.8 0 00-.736.479L8.619 8.091l-5.916.9C2.27 9.057 2 9.449 2 9.838c0 .274.075.442.249.619l4.28 4.368-1.01 6.168c-.092.558.332 1.007.814 1.007a.77.77 0 00.376-.101L12 19l5.291 2.899a.767.767 0 00.376.101c.482 0 .905-.449.814-1.007l-1.01-6.168 4.28-4.368A.79.79 0 0022 9.838c0-.389-.27-.781-.703-.847l-5.916-.9-2.645-5.612A.8.8 0 0012 2zm0 3.608l1.572 3.336.454.964 1.054.16 3.7.563-2.738 2.795-.708.723.163.999.628 3.831-3.164-1.733L12 16.72l-.961.526-3.164 1.733.628-3.831.163-.999-.709-.723-2.737-2.795 3.7-.563 1.054-.16.454-.964L12 5.608z" fill="#000"/>
</svg>
