<svg width="32" height="32" fill="none" xmlns="http://www.w3.org/2000/svg">
  <path fill-rule="evenodd" clip-rule="evenodd" d="M17 18l.93 7.505a.997.997 0 01-.283.848L16 28l-1.647-1.647a.997.997 0 01-.283-.848L15 18h2zm-6-1v12c-1.676 0-6-1-6-4 0-3.065 2.646-6.213 6-8zm16 8c0 3-4.324 4-6 4V17c3.354 1.787 6 4.935 6 8zm-7.273-12.742l-.531.056-.248.472C18.385 13.856 17.314 15 16.001 15c-1.314 0-2.384-1.144-2.947-2.214l-.248-.472-.531-.056a.812.812 0 01-.731-.806c0-.3.17-.575.444-.719l.363-.19h.011l.004-.008.069-.036.03-.197c.945-2.184 3.344-.12 5.089-2.934A3.511 3.511 0 0119.489 10l.077.498.447.235a.814.814 0 01.444.719.812.812 0 01-.73.806zm1.906-2.764C22.179 7.942 21.796 6.809 21 6c-.614-.625-1.342-.914-2.271-.914C17.749 4.404 16.399 4 15 4c-1.746 0-3.246 1-4 2-.791 1.05-1.041 2.44-.737 3.598a2.787 2.787 0 00-.719 1.854c0 1.252.818 2.323 1.977 2.683C12.605 15.913 14.288 17 16.001 17c1.713 0 3.395-1.087 4.48-2.865a2.806 2.806 0 001.976-2.683 2.78 2.78 0 00-.824-1.958z" fill="#000"/>
</svg>
