<svg xmlns="http://www.w3.org/2000/svg" width="24" height="24" viewBox="0 0 24 24">
  <path fill-rule="evenodd" d="M17,16 C16.231,16 15.537,16.298 15.006,16.773 L9.868,13.971 C9.946,13.658 10,13.337 10,13 C10,12.569 9.914,12.163 9.788,11.774 L14.279,8.917 C14.993,9.584 15.945,10 17,10 C19.209,10 21,8.209 21,6 C21,3.791 19.209,2 17,2 C14.791,2 13,3.791 13,6 C13,6.431 13.086,6.837 13.211,7.226 L8.721,10.083 C8.007,9.416 7.055,9 6,9 C3.791,9 2,10.791 2,13 C2,15.209 3.791,17 6,17 C7.151,17 8.182,16.506 8.912,15.728 L14.048,18.528 C14.023,18.684 14,18.839 14,19 C14,20.657 15.343,22 17,22 C18.657,22 20,20.657 20,19 C20,17.343 18.657,16 17,16"/>
</svg>
