<svg width="24" height="24" fill="none" xmlns="http://www.w3.org/2000/svg">
  <path fill-rule="evenodd" clip-rule="evenodd" d="M15.5 17a1.5 1.5 0 110 3 1.5 1.5 0 010-3zM6 14a2 2 0 11.001-4.001A2 2 0 016 14zM17 4a2 2 0 11-.001 4.001A2 2 0 0117 4zm0 6c2.206 0 4-1.794 4-4s-1.794-4-4-4-4 1.794-4 4c0 .312.045.613.112.905L8.891 9.25A3.98 3.98 0 006 8c-2.206 0-4 1.794-4 4s1.794 4 4 4c.976 0 1.858-.365 2.554-.947l3.576 2.554c-.076.287-.13.582-.13.893 0 1.93 1.57 3.5 3.5 3.5s3.5-1.57 3.5-3.5-1.57-3.5-3.5-3.5c-.894 0-1.701.347-2.32.899l-3.456-2.468A3.96 3.96 0 0010 12c0-.347-.059-.678-.142-1l4.188-2.326A3.976 3.976 0 0017 10z" fill="#000"/>
</svg>
