<svg width="32" height="32" fill="none" xmlns="http://www.w3.org/2000/svg">
  <path d="M16 26h3c0 1.7-1.3 3-3 3s-3-1.3-3-3h3zm13 2c0 .3-.1.5-.3.7-.2.2-.4.3-.7.3-.3 0-.5-.1-.7-.3l-4.9-4.9c-1.7.7-3.9 1.2-6.4 1.2-7 0-11-4-11-4s3.9-2.9 4-10.6L3.3 4.7C3.1 4.5 3 4.3 3 4c0-.3.1-.5.3-.7.2-.2.4-.3.7-.3.3 0 .5.1.7.3l24 24c.2.2.3.4.3.7zm-8.2-5.8l-9.9-9.9c-.4 4.1-1.8 6.8-3 8.4 1.6 1 4.3 2.3 8.1 2.3 1.9 0 3.5-.3 4.8-.8zM16 5c2.8 0 5 2.2 5 5 0 4.3 1.1 7.4 2.2 9.4l2.6 2.6c.8-.6 1.2-1 1.2-1s-4-3-4-11c0-3.9-3.1-7-7-7-2.5 0-4.7 1.3-5.9 3.3l1.5 1.5C12.4 6.1 14.1 5 16 5z" fill="#000"/>
</svg>
