<svg xmlns="http://www.w3.org/2000/svg" width="24" height="24" viewBox="0 0 24 24">
  <path fill-rule="evenodd" d="M10.8008,4.0956 L10.4198,5.9996 L17.4688,5.9996 L17.7518,4.8666 L10.8008,4.0956 Z M15.9998,13.9996 C15.9998,15.1036 16.8978,15.9996 17.9998,15.9996 L19.9998,15.9996 C20.5528,15.9996 20.9998,16.4476 20.9998,16.9996 L20.9998,17.9996 C20.9998,19.6546 19.6548,20.9996 17.9998,20.9996 L5.9998,20.9996 C4.3458,20.9996 2.9998,19.6546 2.9998,17.9996 L2.9998,6.9996 C2.9998,5.3456 4.3458,3.9996 5.9998,3.9996 L8.7798,3.9996 L9.0198,2.8036 C9.1208,2.2946 9.5998,1.9496 10.1108,2.0056 L19.1108,3.0056 C19.3978,3.0376 19.6558,3.1926 19.8218,3.4296 C19.9858,3.6656 20.0398,3.9626 19.9698,4.2416 L19.4808,6.1396 C19.7848,6.3116 19.9998,6.6246 19.9998,6.9996 L19.9998,7.9996 L18.9998,7.9996 L8.9998,7.9996 L6.9998,7.9996 C5.9998,7.9996 5.9998,8.9996 6.9998,8.9996 L20.9998,8.9996 L20.9998,10.9996 C20.9998,11.5526 20.5528,11.9996 19.9998,11.9996 L17.9998,11.9996 C16.8978,11.9996 15.9998,12.8966 15.9998,13.9996 L15.9998,13.9996 Z M17.9998,12.9996 L19.9998,12.9996 C20.5528,12.9996 20.9998,13.4476 20.9998,13.9996 C20.9998,14.5526 20.5528,14.9996 19.9998,14.9996 L17.9998,14.9996 C17.4468,14.9996 16.9998,14.5526 16.9998,13.9996 C16.9998,13.4476 17.4468,12.9996 17.9998,12.9996 L17.9998,12.9996 Z"/>
</svg>
