<svg xmlns="http://www.w3.org/2000/svg" width="24" height="24" viewBox="0 0 24 24">
  <path fill-rule="evenodd" d="M19,17.9993 C19,18.5513 18.552,18.9993 18,18.9993 L6,18.9993 C5.448,18.9993 5,18.5513 5,17.9993 L5,6.9993 C5,6.4473 5.448,5.9993 6,5.9993 L8.38,5.9993 L8.181,6.9993 L8,6.9993 C7.447,6.9993 7,7.4463 7,7.9993 C7,8.5523 7.447,8.9993 8,8.9993 L9,8.9993 L18,8.9993 L19,8.9993 L19,10.9993 L17,10.9993 C15.346,10.9993 14,12.3453 14,13.9993 C14,15.6533 15.346,16.9993 17,16.9993 L19,16.9993 L19,17.9993 Z M10.801,4.0943 L17.752,4.8663 L17.219,6.9993 L10.22,6.9993 L10.801,4.0943 Z M17,14.9993 C16.448,14.9993 16,14.5513 16,13.9993 C16,13.4473 16.448,12.9993 17,12.9993 L20,12.9993 L20,14.9993 L17,14.9993 Z M21,10.9993 L21,8.9993 C21,7.9903 20.246,7.1613 19.273,7.0263 L19.97,4.2413 C20.04,3.9623 19.985,3.6653 19.821,3.4283 C19.656,3.1913 19.397,3.0373 19.11,3.0053 L10.11,2.0053 C9.602,1.9533 9.12,2.2943 9.02,2.8033 L8.78,3.9993 L6,3.9993 C4.346,3.9993 3,5.3453 3,6.9993 L3,17.9993 C3,19.6533 4.346,20.9993 6,20.9993 L18,20.9993 C19.654,20.9993 21,19.6533 21,17.9993 L21,16.9993 C21.553,16.9993 22,16.5523 22,15.9993 L22,11.9993 C22,11.4463 21.553,10.9993 21,10.9993 L21,10.9993 Z"/>
</svg>
