<svg xmlns="http://www.w3.org/2000/svg" width="32" height="32" viewBox="0 0 32 32">
  <path fill-rule="evenodd" d="M21.9014,16.6348 L28.4854,24.0418 C29.5914,22.2108 30.0004,19.6158 30.0004,15.9998 C30.0004,13.8788 29.8484,12.1268 29.5104,10.6558 L21.9014,16.6348 Z M20.3274,17.8718 L16.0004,21.2718 L11.6724,17.8718 L4.8144,25.5888 C6.9194,27.3928 10.4184,27.9998 16.0004,27.9998 C21.5824,27.9998 25.0814,27.3928 27.1854,25.5888 L20.3274,17.8718 Z M10.0984,16.6348 L2.4894,10.6558 C2.1514,12.1268 2.0004,13.8788 2.0004,15.9998 C2.0004,19.6158 2.4084,22.2108 3.5144,24.0418 L10.0984,16.6348 Z M3.1654,8.6438 C3.5814,7.7578 4.1144,7.0118 4.8134,6.4118 C6.9184,4.6078 10.4184,3.9998 16.0004,3.9998 C21.5824,3.9998 25.0824,4.6078 27.1864,6.4118 C27.8854,7.0118 28.4194,7.7578 28.8354,8.6438 L16.0004,18.7288 L3.1654,8.6438 Z"/>
</svg>
