<svg width="32" height="32" fill="none" xmlns="http://www.w3.org/2000/svg">
  <path fill-rule="evenodd" clip-rule="evenodd" d="M21.901 16.635l6.584 7.407C29.591 22.21 30 19.616 30 16c0-2.121-.152-3.873-.49-5.344l-7.609 5.979zm-1.574 1.237L16 21.272l-4.328-3.4-6.858 7.717c2.105 1.804 5.604 2.41 11.186 2.41s9.081-.606 11.185-2.41l-6.858-7.717zm-10.229-1.237l-7.609-5.98C2.151 12.128 2 13.88 2 16c0 3.616.408 6.21 1.514 8.042l6.584-7.407zM3.165 8.644c.416-.886.95-1.632 1.648-2.232C6.918 4.608 10.418 4 16 4c5.582 0 9.082.608 11.186 2.412.7.6 1.233 1.346 1.65 2.232L16 18.729 3.165 8.644z" fill="#000"/>
</svg>
