<svg xmlns="http://www.w3.org/2000/svg" width="32" height="32" viewBox="0 0 32 32">
  <path fill-rule="evenodd" d="M27.0215,22.5059 L21.9915,16.7569 L27.7925,12.4049 C27.9275,13.4279 28.0005,14.6049 28.0005,15.9999 C28.0005,19.0179 27.6915,21.0849 27.0215,22.5059 M6.2095,24.1369 L11.6135,17.9599 L16.0005,21.2499 L20.3865,17.9599 L25.7915,24.1369 C24.1925,25.4389 21.2545,25.9999 16.0005,25.9999 C10.7455,25.9999 7.8075,25.4389 6.2095,24.1369 M4.2075,12.4049 L10.0085,16.7569 L4.9785,22.5059 C4.3085,21.0849 4.0005,19.0179 4.0005,15.9999 C4.0005,14.6049 4.0725,13.4279 4.2075,12.4049 M6.1155,7.9299 C7.6935,6.5769 10.6495,5.9999 16.0005,5.9999 C21.3505,5.9999 24.3065,6.5769 25.8845,7.9299 C26.5165,8.4719 26.9855,9.2369 27.3255,10.2569 L16.0005,18.7499 L4.6745,10.2569 C5.0145,9.2369 5.4835,8.4719 6.1155,7.9299 M27.1865,6.4119 C25.0825,4.6079 21.5825,3.9999 16.0005,3.9999 C10.4175,3.9999 6.9175,4.6079 4.8135,6.4119 C2.7095,8.2159 2.0005,11.2159 2.0005,15.9999 C2.0005,20.7839 2.7095,23.7839 4.8135,25.5879 C6.9175,27.3929 10.4175,27.9999 16.0005,27.9999 C21.5825,27.9999 25.0825,27.3929 27.1865,25.5879 C29.2915,23.7839 30.0005,20.7839 30.0005,15.9999 C30.0005,11.2159 29.2915,8.2159 27.1865,6.4119"/>
</svg>
