<svg width="32" height="32" fill="none" xmlns="http://www.w3.org/2000/svg">
  <path fill-rule="evenodd" clip-rule="evenodd" d="M27.021 22.506l-5.03-5.75 5.802-4.351c.134 1.023.207 2.2.207 3.595 0 3.018-.308 5.085-.979 6.506zM6.21 24.136l5.405-6.176L16 21.25l4.387-3.29 5.404 6.177C24.192 25.439 21.255 26 16.002 26c-5.256 0-8.194-.561-9.792-1.863zm-2.003-11.73l5.801 4.352-5.03 5.749C4.308 21.085 4 19.018 4 16c0-1.395.072-2.572.207-3.595zM6.115 7.93C7.693 6.577 10.65 6 16 6s8.306.577 9.884 1.93c.633.542 1.101 1.307 1.442 2.327L16 18.75 4.674 10.257c.34-1.02.81-1.785 1.441-2.327zm21.071-1.518C25.082 4.608 21.582 4 16 4s-9.083.608-11.187 2.412C2.71 8.216 2 11.216 2 16c0 4.784.71 7.784 2.813 9.588C6.917 27.393 10.418 28 16.001 28c5.581 0 9.081-.607 11.185-2.412C29.291 23.784 30 20.784 30 16c0-4.784-.709-7.784-2.814-9.588z" fill="#000"/>
</svg>
