<svg width="16" height="16" fill="none" xmlns="http://www.w3.org/2000/svg">
  <path d="M6.5 7a1.5 1.5 0 100-3 1.5 1.5 0 000 3zM2 8c0 .953.047 1.762.14 2.446l2.153-2.153a.999.999 0 011.414 0L7 9.586l2.293-2.293a1.001 1.001 0 011.332-.074l3.301 2.64C13.975 9.309 14 8.694 14 8c0-2.622-.343-4.186-1.078-4.921C12.186 2.343 10.622 2 8 2s-4.186.343-4.922 1.079C2.343 3.814 2 5.378 2 8zm14 0c0 3.114-.443 5.114-1.664 6.336C13.114 15.557 11.114 16 8 16c-3.114 0-5.114-.443-6.336-1.664C.443 13.114 0 11.114 0 8c0-3.114.443-5.114 1.664-6.336C2.886.443 4.886 0 8 0c3.114 0 5.114.443 6.336 1.664C15.557 2.886 16 4.886 16 8z" fill="#000"/>
</svg>
