<svg xmlns="http://www.w3.org/2000/svg" width="24" height="24" viewBox="0 0 24 24">
  <path fill-rule="evenodd" d="M6.9999,18 L6.9999,13 L17.9999,5 L6.9999,18 Z M21.6889,2.275 C21.4079,2.008 20.9959,1.928 20.6379,2.068 L2.6379,9.068 C2.3219,9.19 2.0909,9.464 2.0209,9.794 C1.9519,10.125 2.0539,10.468 2.2929,10.707 L4.9999,13.414 L4.9999,19 C4.9999,19.321 5.1539,19.623 5.4149,19.812 C5.6769,19.999 6.0119,20.051 6.3159,19.948 L11.6329,18.177 L14.1999,21.6 C14.3909,21.854 14.6879,22 14.9999,22 C15.0529,22 15.1059,21.996 15.1599,21.987 C15.5269,21.928 15.8309,21.669 15.9479,21.316 L21.9479,3.316 C22.0709,2.948 21.9709,2.543 21.6889,2.275 L21.6889,2.275 Z"/>
</svg>
