<svg xmlns="http://www.w3.org/2000/svg" width="24" height="24" viewBox="0 0 24 24">
  <path fill-rule="evenodd" d="M14.655271,18.8727065 L12.800271,16.3997065 C12.607271,16.1437065 12.308271,15.9997065 12.000271,15.9997065 C11.894271,15.9997065 11.788271,16.0167065 11.683271,16.0517065 L7.58127098,17.4187065 L18.919271,6.08070652 L14.655271,18.8727065 Z M4.79127098,10.3767065 L17.135271,5.57570652 L6.81627098,12.4557065 C6.77927098,12.4007065 6.75427098,12.3397065 6.70727098,12.2927065 L4.79127098,10.3767065 Z M21.689271,2.27470652 C21.408271,2.00870652 20.996271,1.92770652 20.637271,2.06770652 L2.63727098,9.06770652 C2.32227098,9.18970652 2.09127098,9.46370652 2.02127098,9.79370652 C1.95227098,10.1247065 2.05327098,10.4677065 2.29327098,10.7067065 L5.00027098,13.4137065 L5.00027098,18.9997065 C5.00027098,19.3207065 5.15427098,19.6227065 5.41527098,19.8107065 C5.67627098,19.9987065 6.01127098,20.0507065 6.31627098,19.9477065 L11.633271,18.1767065 L14.200271,21.5997065 C14.390271,21.8537065 14.688271,21.9997065 15.000271,21.9997065 C15.052271,21.9997065 15.106271,21.9957065 15.160271,21.9867065 C15.527271,21.9277065 15.831271,21.6687065 15.948271,21.3157065 L21.948271,3.31570652 C22.071271,2.94770652 21.970271,2.54270652 21.689271,2.27470652 L21.689271,2.27470652 Z"/>
</svg>
