<svg width="24" height="24" fill="none" xmlns="http://www.w3.org/2000/svg">
  <path fill-rule="evenodd" clip-rule="evenodd" d="M20 12c0-1.629-.173-3.252-.514-4.822a3.479 3.479 0 00-2.662-2.664A22.789 22.789 0 0012 4c-1.629 0-3.251.173-4.821.513a3.484 3.484 0 00-2.666 2.664A22.844 22.844 0 004 12c0 1.629.173 3.251.513 4.822a3.483 3.483 0 002.663 2.664C8.748 19.827 10.37 20 12 20s3.252-.173 4.821-.514a3.48 3.48 0 002.665-2.663C19.827 15.252 20 13.63 20 12zm2 0c0 1.8-.192 3.555-.559 5.245a5.47 5.47 0 01-4.195 4.196A24.711 24.711 0 0112 22c-1.8 0-3.555-.192-5.246-.559a5.472 5.472 0 01-4.196-4.196A24.76 24.76 0 012 12c0-1.801.192-3.556.558-5.246a5.472 5.472 0 014.197-4.196A24.695 24.695 0 0112 2c1.8 0 3.555.191 5.246.559a5.47 5.47 0 014.195 4.195C21.808 8.445 22 10.2 22 12zm-6 1H8a1 1 0 110-2h8a1 1 0 110 2z" fill="#000"/>
</svg>
