<svg width="24" height="24" fill="none" xmlns="http://www.w3.org/2000/svg">
  <path fill-rule="evenodd" clip-rule="evenodd" d="M14.055 11.832c-.75.5-1.055.745-1.055 1.168v1h-2v-1c0-1.535 1.124-2.285 1.946-2.832C13.695 9.668 14 9.355 14 9c0-.603-.856-1-2-1-.804 0-2 .269-2 1a1 1 0 11-2 0c0-1.883 1.683-3 4-3 2.318 0 4 1.117 4 3 0 1.535-1.124 2.285-1.945 2.832zM12 18a1.5 1.5 0 110-3.001A1.5 1.5 0 0112 18zm9.442-11.246a5.472 5.472 0 00-4.196-4.195A24.711 24.711 0 0012 2c-1.8 0-3.554.192-5.245.558a5.473 5.473 0 00-4.197 4.196A24.827 24.827 0 002 12c0 1.8.193 3.555.558 5.245a5.473 5.473 0 004.196 4.196C8.446 21.808 10.2 22 12 22c1.8 0 3.555-.192 5.246-.559a5.472 5.472 0 004.196-4.196A24.76 24.76 0 0022 12c0-1.8-.192-3.555-.558-5.246z" fill="#000"/>
</svg>
