<svg xmlns="http://www.w3.org/2000/svg" width="24" height="24" viewBox="0 0 24 24">
  <path fill-rule="evenodd" d="M13.5,17 L13.5,17 C13.5,16.172 12.828,15.5 12,15.5 C11.172,15.5 10.5,16.172 10.5,17 C10.5,17.828 11.172,18.5 12,18.5 C12.828,18.5 13.5,17.828 13.5,17 M13,13 C13,12.577 13.306,12.332 14.055,11.832 C14.876,11.285 16,10.535 16,9 C16,7.117 14.317,5.75 12,5.75 C9.683,5.75 8,7.117 8,9 C8,9.553 8.447,10 9,10 C9.553,10 10,9.553 10,9 C10,8.012 11.309,7.75 12,7.75 C12.582,7.75 13.132,7.894 13.508,8.145 C13.949,8.438 14,8.773 14,9 C14,9.423 13.694,9.668 12.945,10.168 C12.124,10.715 11,11.465 11,13 C11,13.553 11.447,14 12,14 C12.553,14 13,13.553 13,13 M12,2 C10.2,2 8.445,2.192 6.755,2.558 C4.651,3.012 3.013,4.651 2.558,6.754 C2.192,8.444 2,10.199 2,12 C2,13.8 2.192,15.555 2.558,17.245 C3.013,19.348 4.651,20.987 6.754,21.441 C8.445,21.808 10.2,22 12,22 C13.8,22 15.555,21.808 17.246,21.441 C19.348,20.987 20.987,19.348 21.442,17.245 C21.808,15.555 22,13.8 22,12 C22,10.2 21.808,8.445 21.442,6.755 C20.987,4.652 19.348,3.013 17.246,2.559 C15.555,2.192 13.8,2 12,2 M12,4 C13.627,4 15.249,4.173 16.823,4.513 C18.153,4.801 19.199,5.847 19.487,7.177 C19.827,8.751 20,10.374 20,12 C20,13.626 19.827,15.249 19.487,16.823 C19.199,18.153 18.153,19.199 16.823,19.487 C15.249,19.827 13.626,20 12,20 C10.374,20 8.751,19.827 7.177,19.487 C5.846,19.199 4.801,18.153 4.513,16.823 C4.173,15.249 4,13.626 4,12 C4,10.373 4.173,8.75 4.513,7.177 C4.801,5.846 5.847,4.8 7.177,4.513 C8.751,4.173 10.374,4 12,4"/>
</svg>
