<svg width="24" height="24" fill="none" xmlns="http://www.w3.org/2000/svg">
  <path fill-rule="evenodd" clip-rule="evenodd" d="M13.5 16.5a1.5 1.5 0 11-3.001-.001 1.5 1.5 0 013.001.001zM16 9c0 1.535-1.124 2.285-1.945 2.832-.749.5-1.055.745-1.055 1.168v1h-2v-1c0-1.535 1.124-2.285 1.945-2.832C13.694 9.668 14 9.355 14 9c0-.603-.856-1-2-1-.805 0-2 .269-2 1a1 1 0 11-2 0c0-1.883 1.683-3 4-3s4 1.117 4 3zm-4-7c-1.8 0-3.555.192-5.245.558a5.472 5.472 0 00-4.197 4.196A24.762 24.762 0 002 12c0 1.8.192 3.555.558 5.245a5.472 5.472 0 004.196 4.196C8.445 21.808 10.2 22 12 22c1.8 0 3.555-.192 5.246-.559a5.473 5.473 0 004.196-4.196A24.76 24.76 0 0022 12c0-1.8-.192-3.555-.558-5.245a5.473 5.473 0 00-4.196-4.196A24.711 24.711 0 0012 2zm0 2c1.627 0 3.249.173 4.823.513a3.487 3.487 0 012.664 2.664 22.886 22.886 0 010 9.646 3.487 3.487 0 01-2.664 2.664 22.886 22.886 0 01-9.646 0 3.486 3.486 0 01-2.664-2.664 22.886 22.886 0 010-9.646 3.484 3.484 0 012.664-2.664A22.886 22.886 0 0112 4z" fill="#000"/>
</svg>
