<svg xmlns="http://www.w3.org/2000/svg" width="16" height="16" viewBox="0 0 16 16">
  <path fill-rule="evenodd" d="M8,4 C8.708,4 9.375,4.021 10,4.055 L10,3 L6,3 L6,4.055 C6.625,4.021 7.292,4 8,4 L8,4 Z M16,6.562 L16,8 L0,8 L0,6.562 C0,5.616 0.656,4.795 1.582,4.604 C2.213,4.476 3.03,4.338 4,4.226 L4,3 C4,1.897 4.897,1 6,1 L10,1 C11.103,1 12,1.897 12,3 L12,4.226 C12.97,4.338 13.787,4.476 14.418,4.604 C15.344,4.795 16,5.616 16,6.562 L16,6.562 Z M10,9 L16,9 L16,12.438 C16,13.384 15.344,14.205 14.418,14.395 C13.053,14.675 10.852,15 8,15 C5.148,15 2.947,14.675 1.582,14.395 C0.656,14.205 0,13.384 0,12.438 L0,9 L6,9 L6,10 C6,10.553 6.447,11 7,11 L9,11 C9.553,11 10,10.553 10,10 L10,9 Z"/>
</svg>
