<svg width="16" height="16" fill="none" xmlns="http://www.w3.org/2000/svg">
  <path fill-rule="evenodd" clip-rule="evenodd" d="M8 4c.708 0 1.375.021 2 .055V3H6v1.055A36.762 36.762 0 018 4zm8 2.562V8H0V6.562c0-.946.656-1.767 1.582-1.958A28.998 28.998 0 014 4.226V3c0-1.103.897-2 2-2h4c1.103 0 2 .897 2 2v1.226c.97.112 1.787.25 2.418.378A1.992 1.992 0 0116 6.562zM10 9h6v3.438a1.99 1.99 0 01-1.582 1.957C13.053 14.675 10.852 15 8 15c-2.852 0-5.053-.325-6.418-.605A1.99 1.99 0 010 12.438V9h6v1a1 1 0 001 1h2a1 1 0 001-1V9z" fill="#000"/>
</svg>
