<svg width="16" height="16" fill="none" xmlns="http://www.w3.org/2000/svg">
  <path fill-rule="evenodd" clip-rule="evenodd" d="M8 13c-2.696 0-4.76-.307-6-.562L1.993 10H6v1a1 1 0 001 1h2a1 1 0 001-1v-1h4.01l.007 2.436C12.76 12.693 10.696 13 8 13zm0-7c2.696 0 4.76.307 6 .562L14.004 8H1.987l-.004-1.436C3.24 6.307 5.304 6 8 6zM6 3h4v1.055a36.762 36.762 0 00-4 0V3zm8.418 1.604A28.998 28.998 0 0012 4.226V3c0-1.103-.897-2-2-2H6c-1.103 0-2 .897-2 2v1.226c-.97.112-1.787.25-2.418.378A1.992 1.992 0 000 6.562v5.876c0 .946.656 1.767 1.582 1.958C2.947 14.675 5.148 15 8 15c2.852 0 5.053-.325 6.418-.604A1.992 1.992 0 0016 12.438V6.562c0-.946-.656-1.767-1.582-1.958z" fill="#000"/>
</svg>
