<svg xmlns="http://www.w3.org/2000/svg" width="16" height="16" viewBox="0 0 16 16">
  <path fill-rule="evenodd" d="M9.534,8.492 C11.193,9.509 12.39,11.624 10.364,13.664 C10.237,13.792 10.319,14.0150003 10.499,14.0150003 C14.297,14.016 16,11.827 16,10.5 C16,9.192 13.252,7.725 9.613,8.124 C9.426,8.144 9.374,8.393 9.534,8.492 M13.5,3.5 C13.5,5.527 12.381,7 11,7 C9.619,7 8.5,5.527 8.5,3.5 C8.5,2.119 9.619,1 11,1 C12.381,1 13.5,2.119 13.5,3.5 M5,9 C2.238,9 0,10.119 0,11.5 C0,12.881 2.238,15 5,15 C7.762,15 10,12.881 10,11.5 C10,10.119 7.762,9 5,9 M7.5,4.5 C7.5,6.527 6.381,8 5,8 C3.619,8 2.5,6.527 2.5,4.5 C2.5,3.119 3.619,2 5,2 C6.381,2 7.5,3.119 7.5,4.5"/>
</svg>
