<svg width="16" height="16" fill="none" xmlns="http://www.w3.org/2000/svg">
  <path fill-rule="evenodd" clip-rule="evenodd" d="M11 8c-.828 0-1.394.255-2 .642 1.564.51 2 1.358 2 2.358 0 .868-.347 1.295-1 2 4 0 6-1.86 6-3 0-1-2-2-5-2zM5 9c2.656 0 5 .826 5 2 0 1-2.301 3-5 3-2.762 0-5-2-5-3 0-1.174 2.239-2 5-2zm0 1.6c-1.578 0-2.626.296-3.146.533C2.382 11.647 3.546 12.4 5 12.4c1.427 0 2.588-.744 3.129-1.262C7.563 10.885 6.462 10.6 5 10.6zM11 7c.936 0 2-.973 2-3 0-1.381-.936-2-2-2s-2 .619-2 2c0 2.027 1.064 3 2 3zM3 5c0-1.381.936-2 2-2s2 .619 2 2c0 2.027-1.064 3-2 3-.936 0-2-.973-2-3z" fill="#000"/>
</svg>
