<svg xmlns="http://www.w3.org/2000/svg" width="16" height="16" viewBox="0 0 16 16">
  <path fill-rule="evenodd" d="M12,1 L4,1 C2.346,1 1,2.346 1,4 L1,5 L3,5 L3,4 C3,3.448 3.449,3 4,3 L12,3 C12.551,3 13,3.448 13,4 L13,12 C13,12.552 12.551,13 12,13 L11,13 L11,15 L12,15 C13.654,15 15,13.654 15,12 L15,4 C15,2.346 13.654,1 12,1 L12,1 Z M8,13 L6,13 L6,15 L8,15 C9.103,15 10,14.103 10,13 L10,11 L8,11 L8,13 Z M8,6 L6,6 L6,8 L8,8 L8,10 L10,10 L10,8 C10,6.897 9.103,6 8,6 L8,6 Z M3,8 L4.958,8 L4.958,6 L3,6 C1.897,6 1,6.897 1,8 L1,10 L3,10 L3,8 Z M3,13 L5.127,13 L5.127,15 L3,15 C1.897,15 1,14.103 1,13 L1,11 L3,11 L3,13 Z"/>
</svg>
