<svg xmlns="http://www.w3.org/2000/svg" width="24" height="24" viewBox="0 0 24 24">
  <path fill-rule="evenodd" d="M12,6 C11.447,6 11,6.447 11,7 L11,13 C11,13.334 11.167,13.646 11.445,13.832 L14.445,15.832 C14.616,15.945 14.809,16 14.999,16 C15.322,16 15.64,15.844 15.832,15.555 C16.139,15.095 16.015,14.475 15.555,14.168 L13,12.465 L13,7 C13,6.447 12.553,6 12,6 M22,12 C22,17.514 17.514,22 12,22 C6.849,22 2.572,18.14 2.052,13.021 L4.042,12.819 C4.457,16.913 7.879,20 12,20 C16.411,20 20,16.411 20,12 C20,7.589 16.411,4 12,4 C9.605,4 7.382,5.081 5.878,6.878 L8,9 L2,9 L2,3 L4.461,5.461 C6.34,3.298 9.067,2 12,2 C17.514,2 22,6.486 22,12"/>
</svg>
