<svg width="24" height="24" fill="none" xmlns="http://www.w3.org/2000/svg">
  <path d="M13.67 13.645h-2.549v3.359H9V7h4.788C15.896 7 17 8.488 17 10.286c0 1.841-1.061 3.359-3.33 3.359zm7.772-6.891a5.476 5.476 0 00-4.196-4.196A24.776 24.776 0 0012 2c-1.8 0-3.555.192-5.246.557a5.476 5.476 0 00-4.196 4.197A24.762 24.762 0 002 12c0 1.8.192 3.555.558 5.245a5.472 5.472 0 004.196 4.196C8.445 21.807 10.2 22 12 22c1.8 0 3.555-.193 5.246-.559a5.473 5.473 0 004.196-4.196A24.76 24.76 0 0022 12c0-1.8-.192-3.555-.558-5.246zm-8.184 1.911h-2.137v3.448h2.137c1.12 0 1.561-.737 1.561-1.768 0-.988-.412-1.68-1.561-1.68z" fill="#000"/>
</svg>
