<svg width="24" height="24" fill="none" xmlns="http://www.w3.org/2000/svg">
  <path d="M12 2c1.8 0 3.555.192 5.246.559a5.473 5.473 0 014.196 4.195C21.807 8.445 22 10.2 22 12c0 1.8-.193 3.555-.558 5.245a5.473 5.473 0 01-4.196 4.196A24.711 24.711 0 0112 22c-1.8 0-3.555-.192-5.246-.559a5.47 5.47 0 01-4.196-4.196A24.76 24.76 0 012 12c0-1.801.192-3.556.558-5.246a5.472 5.472 0 014.196-4.196A24.776 24.776 0 0112 2zm0 2c-1.626 0-3.249.173-4.823.513a3.481 3.481 0 00-2.664 2.664A22.814 22.814 0 004 12c0 1.626.172 3.249.513 4.823a3.484 3.484 0 002.664 2.664 22.886 22.886 0 009.646 0 3.486 3.486 0 002.664-2.664A22.82 22.82 0 0020 12c0-1.626-.172-3.248-.513-4.823a3.486 3.486 0 00-2.664-2.664A22.872 22.872 0 0012 4zm-.878 4.665h2.136c1.149 0 1.561.692 1.561 1.68 0 1.031-.441 1.768-1.561 1.768h-2.136V8.665zM17 10.286C17 8.488 15.895 7 13.789 7H9v10.004h2.122v-3.358h2.548c2.269 0 3.33-1.519 3.33-3.36z" fill="#000"/>
</svg>
