<svg width="24" height="24" fill="none" xmlns="http://www.w3.org/2000/svg">
  <path fill-rule="evenodd" clip-rule="evenodd" d="M12 16a4 4 0 110-8 4 4 0 010 8zm8.815-6a1.476 1.476 0 01-1.378-.929c-.035-.087-.07-.174-.107-.259a1.477 1.477 0 01.317-1.631l.838-.838-2.828-2.828-.838.837a1.476 1.476 0 01-1.631.318c-.085-.037-.172-.072-.259-.107A1.476 1.476 0 0114 3.184V2h-4v1.184c0 .607-.364 1.157-.929 1.379-.087.035-.174.07-.259.107a1.476 1.476 0 01-1.631-.318l-.838-.837-2.828 2.828.837.838c.429.428.56 1.074.318 1.631-.037.085-.072.172-.107.259A1.476 1.476 0 013.184 10H2v4h1.184c.607 0 1.157.364 1.379.929.035.087.07.174.107.259a1.476 1.476 0 01-.318 1.631l-.837.838 2.828 2.828.838-.838a1.477 1.477 0 011.631-.317c.085.037.172.072.259.107.565.222.929.772.929 1.378V22h4v-1.185c0-.606.364-1.156.929-1.378.087-.035.174-.07.259-.107a1.477 1.477 0 011.631.317l.838.838 2.828-2.828-.838-.838a1.477 1.477 0 01-.317-1.631c.037-.085.072-.172.107-.259A1.476 1.476 0 0120.815 14H22v-4h-1.185z" fill="#000"/>
</svg>
