<svg xmlns="http://www.w3.org/2000/svg" width="24" height="24" viewBox="0 0 24 24">
  <path fill-rule="evenodd" d="M13.7961,15.4424 C10.0101,17.4574 6.2031,13.6504 8.2191,9.8644 C8.5121,9.3124 8.9741,8.8514 9.5251,8.5574 C13.3111,6.5444 17.1161,10.3494 15.1031,14.1354 C14.8091,14.6874 14.3481,15.1484 13.7961,15.4424 L13.7961,15.4424 Z M19.0751,13.0964 C19.1851,12.3574 19.1821,11.6194 19.0751,10.9024 L21.3201,8.7324 L19.3201,5.2684 L16.3151,6.1284 C15.7521,5.6814 15.1171,5.3124 14.4191,5.0364 L13.6601,2.0004 L9.6601,2.0004 L8.9021,5.0304 C8.2211,5.3004 7.5811,5.6704 7.0041,6.1274 L4.0001,5.2684 L2.0001,8.7324 L4.2451,10.9034 C4.1361,11.6434 4.1391,12.3804 4.2451,13.0964 L2.0001,15.2674 L4.0001,18.7324 L7.0061,17.8724 C7.5681,18.3184 8.2031,18.6874 8.9011,18.9634 L9.6601,22.0004 L13.6601,22.0004 L14.4181,18.9684 C15.1001,18.6994 15.7391,18.3294 16.3171,17.8734 L19.3201,18.7324 L21.3201,15.2674 L19.0751,13.0964 Z"/>
</svg>
