<svg width="24" height="24" fill="none" xmlns="http://www.w3.org/2000/svg">
  <path fill-rule="evenodd" clip-rule="evenodd" d="M12 14c-1.103 0-2-.897-2-2s.897-2 2-2 2 .897 2 2-.897 2-2 2zm0-6a4 4 0 100 8 4 4 0 000-8zm6.176 9.044l.047.047-1.132 1.131-.046-.046a2.321 2.321 0 00-2.576-.496l-.199.083a2.315 2.315 0 00-1.47 2.171V20h-1.6v-.066c0-.968-.577-1.82-1.469-2.171l-.202-.083a2.315 2.315 0 00-2.574.496l-.046.046-1.132-1.131.048-.047a2.317 2.317 0 00.497-2.57l-.085-.203A2.313 2.313 0 004.065 12.8H4v-1.6h.065a2.31 2.31 0 002.17-1.465l.085-.206a2.315 2.315 0 00-.496-2.573l-.047-.047 1.132-1.131.046.046a2.319 2.319 0 002.576.496l.199-.083a2.315 2.315 0 001.47-2.172V4h1.6v.065c0 .969.577 1.821 1.469 2.172l.202.083a2.32 2.32 0 002.574-.496l.046-.046 1.132 1.131-.048.047a2.317 2.317 0 00-.497 2.57l.085.203a2.311 2.311 0 002.172 1.471H20v1.6h-.065c-.969 0-1.822.577-2.171 1.466l-.084.205a2.315 2.315 0 00.496 2.573zm1.448-2.043a.332.332 0 01.311-.201H22V9.2h-2.065a.333.333 0 01-.313-.208l-.108-.26a.326.326 0 01.076-.362l1.461-1.461-3.96-3.96-1.46 1.46a.328.328 0 01-.361.078 6.52 6.52 0 00-.268-.111.33.33 0 01-.202-.311V2H9.2v2.065a.33.33 0 01-.203.311 7.29 7.29 0 00-.265.11.328.328 0 01-.363-.076l-1.46-1.461-3.96 3.96 1.46 1.46c.1.1.13.242.075.366l-.108.264a.332.332 0 01-.311.201H2v5.6h2.065c.139 0 .263.081.312.205l.109.263a.326.326 0 01-.076.362l-1.461 1.461 3.96 3.96 1.46-1.46a.322.322 0 01.361-.078c.088.039.176.075.268.111a.33.33 0 01.202.31V22h5.6v-2.066a.33.33 0 01.203-.31 7.29 7.29 0 00.265-.11.33.33 0 01.363.076l1.46 1.461 3.96-3.96-1.46-1.46a.326.326 0 01-.075-.366l.108-.264z" fill="#000"/>
</svg>
