<svg xmlns="http://www.w3.org/2000/svg" width="24" height="24" viewBox="0 0 24 24">
  <path fill-rule="evenodd" d="M13.381,13.0679 C13.235,13.3439 13.004,13.5739 12.729,13.7209 C12.365,13.9139 12.003,13.9999 11.66,13.9999 C10.213,13.9999 9.125,12.4629 9.94,10.9319 C10.086,10.6559 10.317,10.4259 10.593,10.2789 C10.955,10.0859 11.318,9.9999 11.66,9.9999 C13.108,9.9999 14.195,11.5369 13.381,13.0679 L13.381,13.0679 Z M11.66,7.9999 C10.969,7.9999 10.293,8.1729 9.653,8.5129 C9.022,8.8489 8.51,9.3609 8.174,9.9929 C7.472,11.3119 7.493,12.8309 8.23,14.0579 C8.949,15.2559 10.264,15.9999 11.66,15.9999 C12.352,15.9999 13.027,15.8269 13.667,15.4869 C14.299,15.1509 14.811,14.6389 15.147,14.0069 C15.849,12.6889 15.827,11.1689 15.09,9.9419 C14.371,8.7439 13.057,7.9999 11.66,7.9999 L11.66,7.9999 Z M17.097,11.1969 C17.176,11.7289 17.176,12.2689 17.097,12.8019 L16.945,13.8189 L17.685,14.5349 L18.808,15.6199 L18.369,16.3799 L16.866,15.9499 L15.88,15.6679 L15.075,16.3039 C14.651,16.6409 14.181,16.9119 13.681,17.1099 L12.727,17.4879 L12.478,18.4849 L12.099,19.9999 L11.222,19.9999 L10.842,18.4789 L10.592,17.4819 L9.637,17.1039 C9.132,16.9039 8.665,16.6359 8.248,16.3049 L7.444,15.6669 L6.455,15.9489 L4.951,16.3799 L4.513,15.6199 L5.635,14.5349 L6.375,13.8199 L6.224,12.8029 C6.145,12.2709 6.145,11.7309 6.224,11.1979 L6.375,10.1809 L5.636,9.4649 L4.513,8.3799 L4.951,7.6199 L6.454,8.0499 L7.441,8.3329 L8.245,7.6959 C8.67,7.3599 9.14,7.0889 9.64,6.8899 L10.594,6.5119 L10.843,5.5159 L11.222,3.9999 L12.099,3.9999 L12.479,5.5209 L12.729,6.5179 L13.684,6.8959 C14.189,7.0959 14.655,7.3639 15.072,7.6949 L15.877,8.3329 L16.865,8.0509 L18.369,7.6199 L18.808,8.3799 L17.686,9.4649 L16.945,10.1799 L17.097,11.1969 Z M19.075,10.9029 L21.32,8.7319 L19.32,5.2679 L16.315,6.1279 C15.752,5.6819 15.117,5.3129 14.419,5.0359 L13.66,1.9999 L9.66,1.9999 L8.902,5.0309 C8.221,5.3009 7.581,5.6709 7.004,6.1279 L4,5.2679 L2,8.7319 L4.245,10.9029 C4.136,11.6429 4.139,12.3809 4.245,13.0969 L2,15.2679 L4,18.7319 L7.006,17.8719 C7.569,18.3179 8.203,18.6879 8.902,18.9639 L9.66,21.9999 L13.66,21.9999 L14.418,18.9689 C15.1,18.6989 15.739,18.3299 16.317,17.8729 L19.32,18.7319 L21.32,15.2679 L19.075,13.0969 C19.185,12.3579 19.182,11.6199 19.075,10.9029 L19.075,10.9029 Z"/>
</svg>
