<svg width="32" height="32" fill="none" xmlns="http://www.w3.org/2000/svg">
  <path d="M18 29a1 1 0 001-1l.04-2.48a8.62 8.62 0 001.57-.67l1.75 1.76a1 1 0 001.42 0l2.83-2.83a1 1 0 000-1.42l-1.74-1.77a9.453 9.453 0 00.66-1.59H28a1 1 0 001-1v-4a1 1 0 00-1-1h-2.48a8.934 8.934 0 00-.67-1.61l1.76-1.75a1 1 0 000-1.42l-2.83-2.83a1 1 0 00-1.42 0L20.6 7.13a9.577 9.577 0 00-1.6-.66V4a1 1 0 00-1-1h-4a1 1 0 00-1 1v2.48a8.93 8.93 0 00-1.61.67L9.64 5.39a1 1 0 00-1.42 0L5.39 8.22a1 1 0 00-.29.71c.004.265.107.518.29.71l1.74 1.76a9.94 9.94 0 00-.66 1.6H4a1 1 0 00-1 1v4a1 1 0 001 1h2.48a8.93 8.93 0 00.67 1.61l-1.76 1.75a1 1 0 000 1.42l2.83 2.83a1 1 0 001.42 0l1.77-1.74a9.453 9.453 0 001.59.66V28a1 1 0 001 1h4zm-3-2v-1.47a2 2 0 00-1.38-1.88 7.933 7.933 0 01-1.24-.52 2 2 0 00-2.35.34l-1.05 1-1.42-1.42 1-1.05a2 2 0 00.34-2.33 7.932 7.932 0 01-.52-1.24A2 2 0 006.47 17H5v-2h1.47a2 2 0 001.91-1.43c.136-.428.31-.843.52-1.24A2 2 0 008.56 10L7.51 8.93l1.44-1.37 1.05 1a2 2 0 002.33.34 7.932 7.932 0 011.24-.52A2 2 0 0015 6.47V5h2v1.47a2 2 0 001.41 1.91c.428.136.843.31 1.24.52A2 2 0 0022 8.56l1.07-1.05 1.37 1.44-1 1.05a2 2 0 00-.34 2.33c.21.397.384.812.52 1.24A2 2 0 0025.53 15H27v2h-1.47a2 2 0 00-1.86 1.38 7.933 7.933 0 01-.52 1.24 2 2 0 00.34 2.35l1 1.05-1.42 1.42-1.05-1a2 2 0 00-2.35-.34c-.397.21-.812.384-1.24.52A2 2 0 0017 25.53V27h-2zm1-6a5 5 0 100-10 5 5 0 000 10zm0-8a3 3 0 110 6 3 3 0 010-6z" fill="#000"/>
</svg>
