<svg xmlns="http://www.w3.org/2000/svg" width="24" height="24" viewBox="0 0 24 24">
  <path fill-rule="evenodd" d="M12,6 C13.069,6 14.069,6.033 15,6.086 L15,5 L9,5 L9,6.086 C9.931,6.033 10.931,6 12,6 L12,6 Z M22,9.496 L22,11 L2,11 L2,9.496 C2,8.011 3.08,6.746 4.55,6.529 C5.243,6.427 6.068,6.323 7,6.235 L7,5 C7,3.897 7.897,3 9,3 L15,3 C16.103,3 17,3.897 17,5 L17,6.235 C17.932,6.323 18.757,6.427 19.45,6.529 C20.92,6.746 22,8.011 22,9.496 L22,9.496 Z M14,13 L22,13 L22,17.454 C22,18.944 20.908,20.213 19.434,20.423 C17.515,20.695 14.758,21 12,21 C9.242,21 6.485,20.695 4.566,20.423 C3.092,20.213 2,18.944 2,17.454 L2,13 L10,13 L10,14 C10,14.553 10.447,15 11,15 L13,15 C13.553,15 14,14.553 14,14 L14,13 Z"/>
</svg>
