<svg width="24" height="24" fill="none" xmlns="http://www.w3.org/2000/svg">
  <path fill-rule="evenodd" clip-rule="evenodd" d="M12 6c1.069 0 2.069.033 3 .086V5H9v1.086A52.687 52.687 0 0112 6zm10 3.496V11H2V9.496c0-1.485 1.08-2.75 2.55-2.967A47.658 47.658 0 017 6.235V5c0-1.103.897-2 2-2h6c1.103 0 2 .897 2 2v1.235c.932.088 1.757.192 2.45.294A2.992 2.992 0 0122 9.496zM14 13h8v4.454a2.995 2.995 0 01-2.566 2.969C17.515 20.695 14.758 21 12 21s-5.515-.305-7.434-.577A2.995 2.995 0 012 17.454V13h8v1a1 1 0 001 1h2a1 1 0 001-1v-1z" fill="#000"/>
</svg>
