<svg width="24" height="24" fill="none" xmlns="http://www.w3.org/2000/svg">
  <path fill-rule="evenodd" clip-rule="evenodd" d="M19.152 18.443C17.365 18.697 14.673 19 12 19s-5.366-.303-7.153-.557A.998.998 0 014 17.454V13h6v1a1 1 0 001 1h2a1 1 0 001-1v-1h6v4.454a1 1 0 01-.848.99zM4.842 8.507A49.838 49.838 0 0112 8c3.073 0 5.59.276 7.158.507a.989.989 0 01.842.99V11H4V9.496c0-.5.354-.916.841-.989zM9 5h6v1.086a52.687 52.687 0 00-6 0V5zm10.45 1.53A46.83 46.83 0 0017 6.234V5c0-1.103-.898-2-2-2H9c-1.103 0-2 .897-2 2v1.235c-.932.088-1.757.191-2.45.294A2.991 2.991 0 002 9.496v7.958a2.993 2.993 0 002.566 2.968C6.486 20.695 9.242 21 12 21c2.757 0 5.514-.305 7.433-.578A2.994 2.994 0 0022 17.454V9.496c0-1.486-1.08-2.75-2.55-2.967z" fill="#000"/>
</svg>
