<svg xmlns="http://www.w3.org/2000/svg" width="24" height="24" viewBox="0 0 24 24">
  <path fill-rule="evenodd" d="M19.1523,18.4434 C17.3653,18.6974 14.6733,19.0004 12.0003,19.0004 C9.3273,19.0004 6.6343,18.6974 4.8473,18.4434 C4.3643,18.3744 4.0003,17.9494 4.0003,17.4544 L4.0003,13.0004 L10.0003,13.0004 L10.0003,14.0004 C10.0003,14.5524 10.4473,15.0004 11.0003,15.0004 L13.0003,15.0004 C13.5523,15.0004 14.0003,14.5524 14.0003,14.0004 L14.0003,13.0004 L20.0003,13.0004 L20.0003,17.4544 C20.0003,17.9494 19.6353,18.3744 19.1523,18.4434 L19.1523,18.4434 Z M4.8413,8.5074 C6.4113,8.2764 8.9263,8.0004 12.0003,8.0004 C15.0733,8.0004 17.5893,8.2764 19.1583,8.5074 C19.6453,8.5804 20.0003,8.9954 20.0003,9.4964 L20.0003,11.0004 L4.0003,11.0004 L4.0003,9.4964 C4.0003,8.9954 4.3543,8.5804 4.8413,8.5074 L4.8413,8.5074 Z M9.0003,5.0004 L15.0003,5.0004 L15.0003,6.0864 C14.0693,6.0334 13.0693,6.0004 12.0003,6.0004 C10.9303,6.0004 9.9303,6.0334 9.0003,6.0864 L9.0003,5.0004 Z M19.4503,6.5294 C18.7563,6.4264 17.9313,6.3234 17.0003,6.2354 L17.0003,5.0004 C17.0003,3.8974 16.1023,3.0004 15.0003,3.0004 L9.0003,3.0004 C7.8973,3.0004 7.0003,3.8974 7.0003,5.0004 L7.0003,6.2354 C6.0683,6.3234 5.2433,6.4264 4.5493,6.5294 C3.0803,6.7464 2.0003,8.0104 2.0003,9.4964 L2.0003,17.4544 C2.0003,18.9444 3.0913,20.2134 4.5663,20.4224 C6.4853,20.6954 9.2423,21.0004 12.0003,21.0004 C14.7573,21.0004 17.5143,20.6954 19.4333,20.4224 C20.9083,20.2134 22.0003,18.9444 22.0003,17.4544 L22.0003,9.4964 C22.0003,8.0104 20.9203,6.7464 19.4503,6.5294 L19.4503,6.5294 Z"/>
</svg>
