<svg width="32" height="32" fill="none" xmlns="http://www.w3.org/2000/svg">
  <path fill-rule="evenodd" clip-rule="evenodd" d="M19.707 21.707a.997.997 0 01-1.414 0l-4-4a.997.997 0 01-.263-.949l2-8a1 1 0 011.94.484l-1.863 7.451 3.6 3.6a.999.999 0 010 1.414zm8.567-12.526a7.111 7.111 0 00-5.455-5.455A32.186 32.186 0 0016 3c-2.34 0-4.621.25-6.819.725a7.112 7.112 0 00-5.455 5.456A32.172 32.172 0 003 16c0 2.34.25 4.621.726 6.819a7.111 7.111 0 005.455 5.455C11.379 28.75 13.66 29 16 29s4.621-.25 6.819-.726a7.111 7.111 0 005.455-5.455C28.75 20.621 29 18.34 29 16s-.25-4.621-.726-6.819z" fill="#000"/>
</svg>
