<svg width="32" height="32" fill="none" xmlns="http://www.w3.org/2000/svg">
  <path fill-rule="evenodd" clip-rule="evenodd" d="M19.707 21.707a.999.999 0 000-1.414l-3.6-3.6 1.863-7.451a1 1 0 00-1.94-.484l-2 8a.997.997 0 00.263.949l4 4a.997.997 0 001.414 0zM16 3c-2.34 0-4.621.25-6.819.725a7.112 7.112 0 00-5.455 5.456A32.172 32.172 0 003 16c0 2.34.25 4.621.726 6.819a7.111 7.111 0 005.455 5.455C11.379 28.75 13.66 29 16 29s4.621-.25 6.819-.726a7.111 7.111 0 005.455-5.455A32.18 32.18 0 0029 16c0-2.34-.25-4.621-.726-6.819a7.111 7.111 0 00-5.455-5.455A32.186 32.186 0 0016 3zm0 2c2.157 0 4.31.228 6.396.681a5.127 5.127 0 013.923 3.922C26.771 11.691 27 13.844 27 16c0 2.156-.229 4.309-.681 6.396a5.13 5.13 0 01-3.923 3.923c-2.087.452-4.24.681-6.396.681-2.156 0-4.309-.229-6.397-.681a5.13 5.13 0 01-3.923-3.923A30.263 30.263 0 015 16c0-2.157.228-4.31.68-6.397A5.13 5.13 0 019.603 5.68 30.293 30.293 0 0116 5z" fill="#000"/>
</svg>
