<svg xmlns="http://www.w3.org/2000/svg" width="16" height="16" viewBox="0 0 16 16">
  <path fill-rule="evenodd" d="M15,4 L13,4 L13,2 C13,1.447 12.553,1 12,1 C11.447,1 11,1.447 11,2 L11,4 L9,4 C8.447,4 8,4.447 8,5 C8,5.553 8.447,6 9,6 L11,6 L11,8 C11,8.553 11.447,9 12,9 C12.553,9 13,8.553 13,8 L13,6 L15,6 C15.553,6 16,5.553 16,5 C16,4.447 15.553,4 15,4 L15,4 Z M13,10 L13,16 L8,13 L3,16 L3,3 C3,1.896 3.896,1 5,1 L10,1 L10,3 L5,3 L5,12.468 L7.236,11.146 C7.707,10.867 8.293,10.867 8.764,11.146 L11,12.468 L11,10 L13,10 Z"/>
</svg>
