<svg width="16" height="16" fill="none" xmlns="http://www.w3.org/2000/svg">
  <path fill-rule="evenodd" clip-rule="evenodd" d="M8 11a3 3 0 110-6 3 3 0 010 6zm7.053-4.6c-.486 0-.926-.292-1.104-.743a4.723 4.723 0 00-.085-.207 1.18 1.18 0 01.254-1.305l.67-.67-2.263-2.263-.67.67a1.18 1.18 0 01-1.305.254 6.407 6.407 0 00-.207-.086A1.18 1.18 0 019.6.947V0H6.4v.947c0 .486-.292.926-.743 1.103-.07.028-.139.056-.207.086a1.18 1.18 0 01-1.305-.254l-.67-.67-2.263 2.263.67.67c.343.343.448.859.254 1.305-.03.068-.058.137-.085.207A1.183 1.183 0 01.947 6.4H0v3.2h.947c.486 0 .926.292 1.104.743.027.07.055.138.085.207a1.18 1.18 0 01-.254 1.305l-.67.67 2.263 2.263.67-.67a1.182 1.182 0 011.305-.255c.068.031.137.059.207.086.451.178.743.618.743 1.104V16h3.2v-.947c0-.486.292-.926.743-1.104.07-.027.139-.055.207-.086a1.182 1.182 0 011.305.255l.67.67 2.263-2.263-.67-.67a1.18 1.18 0 01-.254-1.305c.03-.069.058-.137.085-.207a1.183 1.183 0 011.104-.743H16V6.4h-.947z" fill="#000"/>
</svg>
