<svg xmlns="http://www.w3.org/2000/svg" width="16" height="16" viewBox="0 0 16 16">
  <path fill-rule="evenodd" d="M10.5270858,10.504 C9.85205272,11.173 8.95402661,11.542 8.00050451,11.542 C7.04597339,11.542 6.14794728,11.173 5.47291417,10.504 C4.07946018,9.123 4.07946018,6.877 5.47291417,5.496 C6.14794728,4.827 7.04597339,4.459 8.00050451,4.459 C8.95402661,4.459 9.85205272,4.827 10.5270858,5.496 C11.9205398,6.877 11.9205398,9.123 10.5270858,10.504 M14.9607114,6.327 L16,5.732 L13.9819638,2.268 L12.9235038,2.874 C12.3291922,3.213 11.6087532,3.17 11.0174686,2.825 C11.0114145,2.822 11.0053604,2.818 10.9982973,2.815 C10.4110487,2.475 10.0185407,1.883 10.0185407,1.21 L10.0185407,0 L5.98246831,0 L5.98246831,1.21 C5.98246831,1.883 5.58895125,2.475 5.00170272,2.815 C4.99564861,2.818 4.98858548,2.822 4.98253137,2.825 C4.39124677,3.17 3.67080785,3.213 3.07649618,2.874 L2.0180362,2.268 L0,5.732 L1.04029766,6.327 C1.63158227,6.665 1.95345904,7.301 1.95043199,7.978 L1.95043199,8.022 C1.95345904,8.699 1.63158227,9.335 1.04029766,9.673 L0,10.268 L2.0180362,13.733 L3.07649618,13.127 C3.67080785,12.787 4.39124677,12.83 4.98253137,13.175 C4.98858548,13.179 4.99564861,13.183 5.00170272,13.186 C5.58895125,13.525 5.98246831,14.116 5.98246831,14.791 L5.98246831,16 L10.0185407,16 L10.0185407,14.791 C10.0185407,14.116 10.4110487,13.525 10.9982973,13.186 C11.0053604,13.183 11.0114145,13.179 11.0174686,13.175 C11.6087532,12.83 12.3291922,12.786 12.9235038,13.127 L13.9819638,13.733 L16,10.268 L14.9607114,9.673 C14.3694268,9.335 14.046541,8.699 14.049568,8.022 L14.049568,7.978 C14.046541,7.301 14.3694268,6.665 14.9607114,6.327"/>
</svg>
