<svg width="16" height="16" fill="none" xmlns="http://www.w3.org/2000/svg">
  <path fill-rule="evenodd" clip-rule="evenodd" d="M8 9.5c-.827 0-1.5-.673-1.5-1.5S7.173 6.5 8 6.5s1.5.673 1.5 1.5S8.827 9.5 8 9.5zM8 5a3 3 0 100 6 3 3 0 000-6zm6.5 3.156c-.877.18-1.61.783-1.946 1.638a5.348 5.348 0 01-.066.159 2.656 2.656 0 00.219 2.533l-.223.222a2.7 2.7 0 00-1.47-.44 2.65 2.65 0 00-1.061.22 5.348 5.348 0 01-.159.066A2.656 2.656 0 008.156 14.5h-.312a2.66 2.66 0 00-1.638-1.947 3.728 3.728 0 01-.158-.065 2.655 2.655 0 00-1.062-.22 2.7 2.7 0 00-1.47.44l-.223-.222a2.656 2.656 0 00.219-2.533 5.348 5.348 0 01-.066-.159A2.656 2.656 0 001.5 8.156v-.312a2.656 2.656 0 001.946-1.638c.021-.053.043-.106.066-.158a2.658 2.658 0 00-.219-2.534l.223-.222a2.7 2.7 0 001.47.44c.368 0 .725-.074 1.062-.22.052-.023.105-.045.158-.066A2.656 2.656 0 007.844 1.5h.312c.18.877.783 1.61 1.638 1.946l.159.066c.337.146.693.22 1.061.22a2.7 2.7 0 001.47-.44l.223.222a2.656 2.656 0 00-.219 2.533l.066.159A2.656 2.656 0 0014.5 7.844v.312zm.553-1.756c-.486 0-.926-.292-1.104-.743a4.723 4.723 0 00-.085-.207 1.18 1.18 0 01.254-1.305l.67-.67-2.263-2.263-.67.67a1.19 1.19 0 01-1.305.254 4.723 4.723 0 00-.207-.085A1.183 1.183 0 019.6.947V0H6.4v.947c0 .486-.292.926-.743 1.104-.07.027-.139.055-.207.085a1.19 1.19 0 01-1.305-.254l-.67-.67-2.263 2.263.67.67c.343.343.448.859.254 1.305-.03.068-.058.137-.085.207A1.183 1.183 0 01.947 6.4H0v3.2h.947c.486 0 .926.292 1.104.743.027.07.055.139.085.207a1.18 1.18 0 01-.254 1.305l-.67.67 2.263 2.263.67-.67a1.194 1.194 0 011.305-.255c.068.031.137.059.207.086.451.178.743.618.743 1.104V16h3.2v-.947c0-.486.292-.926.743-1.104.07-.027.139-.055.207-.086a1.178 1.178 0 011.305.255l.67.67 2.263-2.263-.67-.67a1.18 1.18 0 01-.254-1.305c.03-.068.058-.137.085-.207a1.183 1.183 0 011.104-.743H16V6.4h-.947z" fill="#000"/>
</svg>
