<svg width="24" height="24" fill="none" xmlns="http://www.w3.org/2000/svg">
  <path d="M17 2l-1 6H8L7 2l3 3 2-3 2 3 3-3zm1.569 15.957c-.408.334-.9.57-1.448.657-3.224.512-7.021.512-10.243 0a3.034 3.034 0 01-1.447-.657l4.272-4.43L12 15.25l2.297-1.723 4.272 4.43zM8.09 12.317l-3.722 3.861c-.003-.016-.01-.032-.013-.048A24.694 24.694 0 014 12c0-.979.051-1.912.124-2.657l3.966 2.974zm11.542 3.861l-3.723-3.861 3.967-2.974c.073.745.124 1.678.124 2.657 0 1.361-.12 2.751-.355 4.13-.003.016-.009.032-.013.048zM22 12c0-1.51-.128-3.585-.408-4.571-.069-.242-.227-.797-2.541-2.52l-1.414 1.454c.548.404 1.043.785 1.416 1.098L12 12.75 4.947 7.461a31.34 31.34 0 011.481-1.145L4.948 4.91c-2.313 1.723-2.471 2.277-2.54 2.519C2.127 8.414 2 10.489 2 12c0 1.473.129 2.976.384 4.467a5.037 5.037 0 004.18 4.122A34.84 34.84 0 0012 21c1.892 0 3.721-.139 5.436-.411a5.032 5.032 0 004.179-4.122c.256-1.49.385-2.992.385-4.467z" fill="#000"/>
</svg>
