<svg xmlns="http://www.w3.org/2000/svg" width="32" height="32" viewBox="0 0 32 32">
  <path fill-rule="evenodd" d="M13.5293,9.0008 L23.3813,9.0008 L23.8403,6.7208 L14.7193,4.2308 L13.5293,9.0008 Z M24.0003,15.0008 C21.7913,15.0008 20.0003,16.7918 20.0003,19.0008 C20.0003,21.2098 21.7913,23.0008 24.0003,23.0008 L28.0003,23.0008 L28.0003,24.0008 C28.0003,26.2098 26.2093,28.0008 24.0003,28.0008 L8.0003,28.0008 C5.7913,28.0008 4.0003,26.2098 4.0003,24.0008 L4.0003,11.0008 C4.0003,8.7918 5.7913,7.0008 8.0003,7.0008 L11.9693,7.0008 L13.0303,2.7608 C13.0903,2.5008 13.2593,2.2708 13.5003,2.1408 C13.7303,2.0008 14.0003,1.9608 14.2593,2.0408 L25.2593,5.0408 C25.7693,5.1708 26.0803,5.6808 25.9803,6.2008 L25.7103,7.5408 C26.4903,8.0808 27.0003,8.9808 27.0003,10.0008 L27.0003,11.0008 L9.0003,11.0008 C8.0003,11.0008 8.0003,12.0008 9.0003,12.0008 L27.0003,12.0008 C27.5523,12.0008 28.0003,12.4478 28.0003,13.0008 L28.0003,15.0008 L24.0003,15.0008 Z M24.0003,16.5008 L28.0003,16.5008 C28.5523,16.5008 29.0003,16.9478 29.0003,17.5008 L29.0003,20.5008 C29.0003,21.0538 28.5523,21.5008 28.0003,21.5008 L24.1473,21.5008 C22.8403,21.5008 21.6463,20.5638 21.5133,19.2628 C21.3603,17.7678 22.5353,16.5008 24.0003,16.5008 L24.0003,16.5008 Z"/>
</svg>
