<svg xmlns="http://www.w3.org/2000/svg" width="32" height="32" viewBox="0 0 32 32">
  <path fill-rule="evenodd" d="M24,26.0001 L8,26.0001 C6.897,26.0001 6,25.1031 6,24.0001 L6,11.0001 C6,9.8971 6.897,9.0001 8,9.0001 L11.47,9.0001 L11.22,10.0001 L9,10.0001 C8.447,10.0001 8,10.4471 8,11.0001 C8,11.5531 8.447,12.0001 9,12.0001 L25,12.0001 C25.552,12.0001 26,12.4481 26,13.0001 L26,15.0001 L23,15.0001 C20.794,15.0001 19,16.7941 19,19.0001 C19,21.2061 20.794,23.0001 23,23.0001 L26,23.0001 L26,24.0001 C26,25.1031 25.103,26.0001 24,26.0001 L24,26.0001 Z M14.723,4.2331 L23.836,6.7191 L23.18,10.0001 L13.28,10.0001 L14.723,4.2331 Z M27,17.0001 L27.002,21.0001 L23,21.0001 C21.897,21.0001 21,20.1031 21,19.0001 C21,17.8971 21.897,17.0001 23,17.0001 L27,17.0001 Z M28,15.2781 L28,13.0001 C28,12.1171 27.609,11.3301 27,10.7801 L27,10.0001 C27,8.9821 26.488,8.0851 25.711,7.5421 L25.98,6.1961 C26.084,5.6811 25.771,5.1741 25.263,5.0351 L14.263,2.0351 C14.004,1.9641 13.726,2.0021 13.495,2.1371 C13.263,2.2731 13.095,2.4971 13.03,2.7581 L11.97,7.0001 L8,7.0001 C5.794,7.0001 4,8.7941 4,11.0001 L4,24.0001 C4,26.2061 5.794,28.0001 8,28.0001 L24,28.0001 C26.206,28.0001 28,26.2061 28,24.0001 L28,22.7221 C28.595,22.3751 29,21.7361 29,21.0001 L29,17.0001 C29,16.2641 28.595,15.6251 28,15.2781 L28,15.2781 Z"/>
</svg>
