<svg xmlns="http://www.w3.org/2000/svg" width="16" height="16" viewBox="0 0 16 16">
  <path fill-rule="evenodd" d="M10.4998482,3.5 C10.4998482,2.119 9.38084822,1 7.99984822,1 C6.61884822,1 5.49984822,2.119 5.49984822,3.5 L5.49984822,4.5 C5.49984822,5.881 6.61884822,8 7.99984822,8 C9.38084822,8 10.4998482,5.881 10.4998482,4.5 L10.4998482,3.5 Z M13.6568482,12.429 C12.6058482,14.143 10.5768482,15 7.99984822,15 C5.42284822,15 3.39484822,14.143 2.34284822,12.429 C1.18984822,10.548 2.91284822,9 7.99984822,9 C13.0868482,9 14.8098482,10.548 13.6568482,12.429 L13.6568482,12.429 Z"/>
</svg>
