<svg xmlns="http://www.w3.org/2000/svg" width="16" height="16" viewBox="0 0 16 16">
  <path fill-rule="evenodd" d="M5.5,4.5 L5.5,3.5 C5.5,2.119 6.619,1 8,1 C9.381,1 10.5,2.119 10.5,3.5 L10.5,4.5 C10.5,5.881 9.381,8 8,8 C6.619,8 5.5,5.881 5.5,4.5 M8,13 C6.709,13 5.023,12.743 4.162,11.554 C4.614,11.341 5.698,11 8,11 C10.302,11 11.386,11.341 11.838,11.554 C10.977,12.743 9.291,13 8,13 M8,9 C2.913,9 1.189,10.548 2.343,12.429 C3.395,14.143 5.423,15 8,15 C10.577,15 12.605,14.143 13.657,12.429 C14.811,10.548 13.087,9 8,9"/>
</svg>
