<svg width="24" height="24" fill="none" xmlns="http://www.w3.org/2000/svg">
  <path fill-rule="evenodd" clip-rule="evenodd" d="M16.5 4A5.49 5.49 0 0012 6.344 5.49 5.49 0 007.5 4 5.5 5.5 0 002 9.5c0 .223.017.44.043.655C2.475 14.613 7.232 18.14 12 21c4.768-2.86 9.525-6.387 9.957-10.845.026-.215.043-.432.043-.655A5.5 5.5 0 0016.5 4zm0 2C18.43 6 20 7.57 20 9.5c0 .12-.01.258-.033.463-.328 3.38-4.239 6.371-7.967 8.693-3.728-2.322-7.639-5.316-7.972-8.737A3.842 3.842 0 014 9.5C4 7.57 5.57 6 7.5 6 10 6 12 9 12 9s2-3 4.5-3z" fill="#000"/>
</svg>
