<svg width="16" height="16" fill="none" xmlns="http://www.w3.org/2000/svg">
  <path fill-rule="evenodd" clip-rule="evenodd" d="M11 10c0-1.104-1.343-2-3-2s-3 .896-3 2 1.343 2 3 2 3-.896 3-2zm4 2v.438c0 .946-.656 1.767-1.582 1.958C12.053 14.675 10.852 15 8 15c-2.852 0-4.053-.325-5.418-.604A1.992 1.992 0 011 12.438V12c0-2 2-3 4-5V5h6v2c2 2 4 3 4 5zm1-7.775v1.559C16 6.555 15.552 7 15 7h-2a1 1 0 01-1-1V3.935C10 3 6 3 4 3.935V6a1 1 0 01-1 1H1a1 1 0 01-1-1V4.227c0-.74.454-1.398 1.146-1.657C2.721 1.982 5.302 1 8 1c2.698 0 5.279.982 6.854 1.57A1.76 1.76 0 0116 4.225z" fill="#000"/>
</svg>
