<svg xmlns="http://www.w3.org/2000/svg" width="16" height="16" viewBox="0 0 16 16">
  <path fill-rule="evenodd" d="M15.6406,7.2314 L9.6406,2.2314 C9.4566,2.0794 9.2296,2.0004 8.9996,2.0004 C8.8556,2.0004 8.7106,2.0314 8.5766,2.0944 C8.2246,2.2584 7.9996,2.6124 7.9996,3.0004 L7.9996,7.0004 L0.9996,7.0004 C0.4476,7.0004 -0.0004,7.4474 -0.0004,8.0004 C-0.0004,8.5524 0.4476,9.0004 0.9996,9.0004 L7.9996,9.0004 L7.9996,13.0004 C7.9996,13.3874 8.2246,13.7414 8.5766,13.9054 C8.7106,13.9684 8.8556,14.0004 8.9996,14.0004 C9.2296,14.0004 9.4566,13.9204 9.6406,13.7684 L15.6406,8.7684 C15.8686,8.5784 15.9996,8.2964 15.9996,8.0004 C15.9996,7.7034 15.8686,7.4214 15.6406,7.2314"/>
</svg>
