<svg xmlns="http://www.w3.org/2000/svg" width="16" height="16" viewBox="0 0 16 16">
  <path fill-rule="evenodd" d="M15.9234976,8.38176591 C16.0255008,8.13775574 16.0255008,7.86174424 15.9234976,7.61773407 C15.872496,7.49472895 15.7994937,7.38472436 15.7064908,7.29272053 L10.7073346,2.29251219 C10.3173224,1.90249594 9.68430263,1.90249594 9.29329042,2.29251219 C8.9022782,2.68352848 8.9022782,3.31655486 9.29329042,3.70657111 L12.5863933,6.99970832 L1.00003125,6.99970832 C0.447013969,6.99970832 0,7.44772699 0,7.99974999 C0,8.55177299 0.447013969,8.99979166 1.00003125,8.99979166 L12.5863933,8.99979166 L9.29329042,12.2929289 C8.9022782,12.6839452 8.9022782,13.3169715 9.29329042,13.7069878 C9.48829651,13.902996 9.74430451,14 10.0003125,14 C10.2563205,14 10.5123285,13.902996 10.7073346,13.7069878 L15.7064908,8.70777949 C15.7994937,8.61477562 15.872496,8.50477103 15.9234976,8.38176591"/>
</svg>
