<svg xmlns="http://www.w3.org/2000/svg" width="32" height="32" viewBox="0 0 32 32">
  <path fill-rule="evenodd" d="M24,28 L8,28 C7.447,28 7,27.553 7,27 C7,26.447 7.447,26 8,26 L24,26 L24,28 Z M11.5,7 L20.5,7 C21.328,7 22,7.672 22,8.5 C22,9.328 21.328,10 20.5,10 L11.5,10 C10.672,10 10,9.328 10,8.5 C10,7.672 10.672,7 11.5,7 L11.5,7 Z M27,24 L27,4 C27,2.896 26.104,2 25,2 L8,2 C6.343,2 5,3.343 5,5 L5,27 C5,28.657 6.343,30 8,30 L26,30 C26.553,30 27,29.553 27,29 C27,28.447 26.553,28 26,28 L26,25.723 C26.596,25.376 27,24.738 27,24 L27,24 Z"/>
</svg>
