<svg xmlns="http://www.w3.org/2000/svg" width="16" height="16" viewBox="0 0 16 16">
  <path fill-rule="evenodd" d="M10.8811,7.209 C10.9511,7.463 11.0001,7.725 11.0001,8 C11.0001,9.657 9.6571,11 8.0001,11 C6.3431,11 5.0001,9.657 5.0001,8 C5.0001,6.343 6.3431,5 8.0001,5 C8.2761,5 8.5371,5.049 8.7911,5.119 C8.6101,5.367 8.5001,5.67 8.5001,6 C8.5001,6.828 9.1721,7.5 10.0001,7.5 C10.3301,7.5 10.6331,7.39 10.8811,7.209 M8.0001,12 C5.3191,12 3.0421,9.185 2.2021,8 C3.0421,6.815 5.3191,4 8.0001,4 C10.6821,4 12.9581,6.815 13.7981,8 C12.9581,9.185 10.6821,12 8.0001,12 M15.8581,7.485 C15.7231,7.262 12.5151,2 8.0001,2 C3.4851,2 0.2771,7.262 0.1431,7.485 C-0.0479,7.802 -0.0479,8.198 0.1431,8.515 C0.2771,8.738 3.4851,14 8.0001,14 C12.5151,14 15.7231,8.738 15.8581,8.515 C16.0481,8.198 16.0481,7.802 15.8581,7.485"/>
</svg>
