<svg xmlns="http://www.w3.org/2000/svg" width="16" height="16" viewBox="0 0 16 16">
  <path fill-rule="evenodd" d="M8,1 C11.866,1 15,4.134 15,8 C15,11.866 11.866,15 8,15 C4.134,15 1,11.866 1,8 C1,4.134 4.134,1 8,1 M8,3 C5.243,3 3,5.243 3,8 C3,10.757 5.243,13 8,13 C10.757,13 13,10.757 13,8 C13,5.243 10.757,3 8,3 M8.999,11 C8.849,11 8.696,10.966 8.553,10.895 L6.553,9.895 C6.134,9.685 5.916,9.212 6.03,8.758 L7.03,4.758 C7.164,4.221 7.709,3.896 8.243,4.03 C8.778,4.164 9.104,4.707 8.97,5.242 L8.165,8.464 L9.447,9.105 C9.941,9.353 10.142,9.953 9.895,10.447 C9.719,10.798 9.366,11 8.999,11"/>
</svg>
