<svg width="24" height="24" fill="none" xmlns="http://www.w3.org/2000/svg">
  <path d="M12 3c1.892 0 3.783.143 5.518.424 2.089.338 3.736 1.99 4.098 4.109A26.58 26.58 0 0122 12a26.58 26.58 0 01-.384 4.467 5.037 5.037 0 01-4.18 4.122A34.84 34.84 0 0112 21c-1.893 0-3.721-.139-5.435-.411a5.037 5.037 0 01-4.181-4.123A26.56 26.56 0 012 12h2c0 1.36.12 2.749.355 4.129.003.017.01.032.013.049l3.722-3.861-.707-.53L9 10.491l3 2.258 7.4-5.55c.011-.008.023-.009.034-.016-.397-.934-1.226-1.622-2.236-1.786A33.593 33.593 0 0012 5h-1L9 3.144A33.71 33.71 0 0112 3zm2.297 10.527L12 15.25l-2.297-1.723-4.272 4.43c.408.334.9.57 1.448.657 3.221.512 7.021.512 10.243 0a3.034 3.034 0 001.447-.657l-4.272-4.43zm5.54-4.155l-3.927 2.945 3.722 3.861.013-.048C19.88 14.749 20 13.36 20 12c0-.867-.066-1.747-.163-2.628zM5 3l5 4-5 4V8H2a1 1 0 110-2h3V3z" fill="#000"/>
</svg>
