<svg xmlns="http://www.w3.org/2000/svg" width="16" height="16" viewBox="0 0 16 16">
  <path fill-rule="evenodd" d="M15.8577,7.4854 C15.7227,7.2614 12.5147,2.0004 8.0007,2.0004 C7.0757,2.0004 6.2097,2.2274 5.4097,2.5814 L13.8677,11.0394 C15.0697,9.7994 15.7957,8.6184 15.8577,8.5144 C16.0477,8.1984 16.0477,7.8014 15.8577,7.4854 L15.8577,7.4854 Z M0.1427,7.4854 C-0.0473,7.8014 -0.0473,8.1984 0.1427,8.5144 C0.2777,8.7384 3.4857,14.0004 8.0007,14.0004 C8.9247,14.0004 9.7917,13.7724 10.5907,13.4194 L2.1327,4.9614 C0.9307,6.2004 0.2057,7.3814 0.1427,7.4854 L0.1427,7.4854 Z M14.7077,13.2934 C15.0977,13.6834 15.0977,14.3164 14.7077,14.7074 C14.5117,14.9024 14.2557,15.0004 14.0007,15.0004 C13.7447,15.0004 13.4887,14.9024 13.2937,14.7074 L1.2937,2.7074 C0.9027,2.3164 0.9027,1.6834 1.2937,1.2934 C1.6837,0.9024 2.3167,0.9024 2.7077,1.2934 L14.7077,13.2934 Z"/>
</svg>
