<svg xmlns="http://www.w3.org/2000/svg" width="16" height="16" viewBox="0 0 16 16">
  <path fill-rule="evenodd" d="M9.0334,11.8613 C8.6974,11.9493 8.3524,12.0003 8.0004,12.0003 C5.3184,12.0003 3.0424,9.1843 2.2024,8.0003 C2.4924,7.5903 2.9564,6.9883 3.5464,6.3743 L2.1334,4.9613 C0.9304,6.2003 0.2054,7.3823 0.1424,7.4853 C-0.0476,7.8013 -0.0476,8.1983 0.1424,8.5143 C0.2774,8.7383 3.4854,14.0003 8.0004,14.0003 C8.9254,14.0003 9.7914,13.7723 10.5914,13.4193 L9.0334,11.8613 Z M6.9674,4.1383 C7.3034,4.0503 7.6474,4.0003 8.0004,4.0003 C10.6814,4.0003 12.9584,6.8153 13.7984,8.0003 C13.5084,8.4093 13.0444,9.0113 12.4544,9.6263 L13.8674,11.0393 C15.0694,9.7993 15.7954,8.6183 15.8574,8.5143 C16.0484,8.1983 16.0484,7.8013 15.8574,7.4853 C15.7224,7.2613 12.5144,2.0003 8.0004,2.0003 C7.0754,2.0003 6.2094,2.2273 5.4094,2.5813 L6.9674,4.1383 Z M14.0004,15.0003 C13.7444,15.0003 13.4884,14.9023 13.2934,14.7073 L1.2934,2.7073 C0.9024,2.3163 0.9024,1.6833 1.2934,1.2933 C1.6834,0.9023 2.3164,0.9023 2.7074,1.2933 L14.7074,13.2933 C15.0974,13.6833 15.0974,14.3163 14.7074,14.7073 C14.5124,14.9023 14.2564,15.0003 14.0004,15.0003 L14.0004,15.0003 Z"/>
</svg>
