<svg width="16" height="16" fill="none" xmlns="http://www.w3.org/2000/svg">
  <path d="M2.7 1.3C2.5 1.1 2.3 1 2 1c-.3 0-.5.1-.7.3-.2.2-.3.4-.3.7 0 .3.1.5.3.7l1.6 1.6C1.2 5.7.2 7.4.1 7.5c-.1.1-.1.3-.1.5s0 .4.1.5C.3 8.7 3.5 14 8 14c1.3 0 2.5-.4 3.5-1.1l1.8 1.8c.2.2.5.3.7.3.2 0 .5-.1.7-.3.2-.2.3-.4.3-.7 0-.3-.1-.5-.3-.7l-12-12zM8 12c-2.7 0-5-2.8-5.8-4 .4-.6 1.1-1.5 2.1-2.3l5.8 5.8c-.7.3-1.4.5-2.1.5zm7.9-4.5c.1.1.1.3.1.5s0 .4-.1.5c-.1.1-.5.9-1.4 1.9L13.1 9c.3-.4.6-.7.7-.9-.8-1.2-3-3.9-5.7-4L6.4 2.2c.5-.1 1-.2 1.6-.2 4.5 0 7.7 5.3 7.9 5.5z" fill="#000"/>
</svg>
