<svg xmlns="http://www.w3.org/2000/svg" width="16" height="16" viewBox="0 0 16 16">
  <path fill-rule="evenodd" d="M9.5292,11.8779 L3.7822,7.0889 C3.5182,8.1299 2.9812,8.9949 2.0002,9.9999 C3.0002,10.8629 5.1492,11.9999 8.0002,11.9999 C8.5392,11.9999 9.0432,11.9489 9.5292,11.8779 L9.5292,11.8779 Z M13.7542,10.1919 C13.8372,10.1279 13.9282,10.0629 14.0002,9.9999 C12.4412,8.4029 12.0002,7.1609 12.0002,4.9999 C12.0002,2.8389 10.2092,0.9999 8.0002,0.9999 C6.6612,0.9999 5.4832,1.6819 4.7572,2.6939 L13.7542,10.1919 Z M6.0002,12.9999 C6.0002,14.1049 6.8952,14.9999 8.0002,14.9999 C9.1042,14.9999 10.0002,14.1049 10.0002,12.9999 L8.0002,12.9999 L6.0002,12.9999 Z M13.9992,13.9999 C13.7742,13.9999 13.5472,13.9239 13.3602,13.7689 L1.3602,3.7689 C0.9352,3.4149 0.8782,2.7839 1.2322,2.3589 C1.5852,1.9359 2.2152,1.8789 2.6402,2.2319 L14.6402,12.2319 C15.0642,12.5849 15.1212,13.2159 14.7682,13.6409 C14.5702,13.8779 14.2862,13.9999 13.9992,13.9999 L13.9992,13.9999 Z"/>
</svg>
