<svg xmlns="http://www.w3.org/2000/svg" width="16" height="16" viewBox="0 0 16 16">
  <path fill-rule="evenodd" d="M6.289,9.8291 C5.788,9.7261 5.345,9.5871 4.965,9.4351 C5.06,9.2701 5.129,9.0981 5.21,8.9301 L3.619,7.6041 C3.318,8.4261 2.814,9.1661 2,10.0001 C3,10.8631 5.149,12.0001 8,12.0001 C8.291,12.0001 8.569,11.9801 8.845,11.9591 L6.289,9.8291 Z M6.605,3.5831 C6.969,3.2251 7.463,3.0001 8,3.0001 C9.084,3.0001 10,3.9161 10,5.0001 C10,5.5351 10.036,6.0221 10.093,6.4891 L13.219,9.0951 C12.296,7.8831 12,6.7381 12,5.0001 C12,2.8391 10.209,1.0001 8,1.0001 C6.841,1.0001 5.805,1.5141 5.075,2.3081 L6.605,3.5831 Z M14.768,13.6411 C15.122,13.2161 15.064,12.5851 14.64,12.2311 L2.64,2.2311 C2.216,1.8791 1.586,1.9351 1.232,2.3591 C0.878,2.7841 0.935,3.4151 1.36,3.7681 L13.36,13.7681 C13.547,13.9241 13.774,14.0001 13.999,14.0001 C14.286,14.0001 14.57,13.8781 14.768,13.6411 L14.768,13.6411 Z M8,13.0001 L10,13.0001 C10,14.1041 9.104,15.0001 8,15.0001 C6.895,15.0001 6,14.1041 6,13.0001 L8,13.0001 Z"/>
</svg>
