<svg width="16" height="16" fill="none" xmlns="http://www.w3.org/2000/svg">
  <path d="M8 13h2c0 1.1-.9 2-2 2s-2-.9-2-2h2zm6.7 1.7c-.2.2-.4.3-.7.3-.3 0-.5-.1-.7-.3l-3-3c-.7.2-1.5.3-2.3.3-2.9 0-5-1.1-6-2 1.5-1.5 1.9-2.7 2-4.6L1.3 2.7C1.1 2.5 1 2.3 1 2c0-.3.1-.5.3-.7.4-.4 1-.4 1.4 0l12 12c.2.2.3.5.3.7 0 .3-.1.5-.3.7zM8.5 10L5.8 7.2c-.2.8-.4 1.5-.8 2.2.7.3 1.8.6 3 .6h.5zM8 3c1.1 0 2 .9 2 2 0 .6.1 1.2.1 1.7l3.5 3.5c.2 0 .3-.1.4-.2-1.6-1.6-2-2.8-2-5s-1.8-4-4-4c-1 0-1.9.4-2.6 1l1.4 1.4c.4-.2.8-.4 1.2-.4z" fill="#000"/>
</svg>
