<svg width="24" height="24" fill="none" xmlns="http://www.w3.org/2000/svg">
  <path fill-rule="evenodd" clip-rule="evenodd" d="M20 19c0 .826-1.632 1-3 1v-6c1.368 0 3 .174 3 1v4zM7 14v6c-1.369 0-3-.174-3-1v-4c0-.826 1.631-1 3-1zm5-12C6.486 2 2 6.486 2 12v7c0 1.99 1.682 3 5 3 1.103 0 2-.897 2-2v-6c0-1.103-.897-2-2-2-1.225 0-2.223.14-3 .414V12c0-4.411 3.589-8 8-8s8 3.589 8 8v.414c-.776-.274-1.775-.414-3-.414-1.103 0-2 .897-2 2v6c0 1.103.897 2 2 2 3.317 0 5-1.01 5-3v-7c0-5.514-4.486-10-10-10z" fill="#000"/>
</svg>
