<svg xmlns="http://www.w3.org/2000/svg" width="32" height="32" viewBox="0 0 32 32">
  <path fill-rule="evenodd" d="M14.1221,23.2149 C10.6301,23.2149 7.5961,21.2359 6.0701,18.3439 L9.8921,14.5229 L12.2001,17.5999 C12.3741,17.8319 12.6401,17.9769 12.9291,17.9969 C13.2311,18.0229 13.5021,17.9119 13.7071,17.7069 L17.2071,14.2069 L19.0001,15.9999 L20.0001,9.9999 L14.0001,10.9999 L15.7931,12.7929 L13.1081,15.4779 L10.8001,12.4009 C10.6261,12.1679 10.3601,12.0239 10.0711,12.0029 C9.7741,11.9789 9.4981,12.0879 9.2931,12.2929 L5.2961,16.2899 C5.1231,15.5929 5.0221,14.8679 5.0221,14.1179 C5.0221,9.1019 9.1041,5.0219 14.1221,5.0219 C19.1401,5.0219 23.2221,9.1019 23.2221,14.1179 C23.2221,19.1339 19.1401,23.2149 14.1221,23.2149 M27.5071,26.0069 C26.5981,25.0619 25.5741,24.2319 24.5151,23.4389 C23.7481,22.8699 22.9561,22.3259 22.0981,21.8489 C24.0411,19.8469 25.2441,17.1219 25.2441,14.1179 C25.2441,7.9869 20.2551,2.9999 14.1221,2.9999 C7.9891,2.9999 3.0001,7.9869 3.0001,14.1179 C3.0001,20.2479 7.9891,25.2359 14.1221,25.2359 C16.6231,25.2359 18.9251,24.3969 20.7851,22.9989 C21.2751,23.8979 21.8441,24.7199 22.4351,25.5179 C23.2281,26.5759 24.0591,27.5999 25.0041,28.5079 C25.6851,29.1599 26.7691,29.1679 27.4561,28.5079 C28.1611,27.8309 28.1841,26.7109 27.5071,26.0069"/>
</svg>
