<svg width="16" height="16" fill="none" xmlns="http://www.w3.org/2000/svg">
  <g clip-path="url(#16x16/flag_cross/filled__clip0)">
    <path d="M10.882 5.102l-1-1-1.5 1.5-1.5-1.5-1 1 1.5 1.5-1.5 1.5 1 1 1.5-1.5 1.5 1.5 1-1-1.5-1.5 1.5-1.5zm3.728-3.895c.246.19.39.483.39.793v11a1 1 0 01-.741.966 7.4 7.4 0 01-1.925.27c-1.725 0-2.907-.713-3.907-1.318C7.576 12.406 6.904 12 6 12c-1.633 0-2.388.175-3 .534V15a1 1 0 11-2 0V1C2.643.073 5.045 0 6 0c.82 0 1.582.285 2.389.585 1.38.513 2.948 1.095 5.352.45a1 1 0 01.869.173z" fill="#000"/>
  </g>
  <defs>
    <clipPath id="16x16/flag_cross/filled__clip0">
      <path fill="#fff" d="M0 0h16v16H0z"/>
    </clipPath>
  </defs>
</svg>
