<svg width="16" height="16" fill="none" xmlns="http://www.w3.org/2000/svg">
  <path fill-rule="evenodd" clip-rule="evenodd" d="M10.965 9h-6a1 1 0 110-2h6a1 1 0 110 2zm3.576-4.688a3.81 3.81 0 00-2.923-2.923A17.243 17.243 0 007.965 1c-1.254 0-2.476.134-3.653.389a3.81 3.81 0 00-2.923 2.923 17.229 17.229 0 00-.39 3.653c0 1.254.135 2.475.39 3.653a3.81 3.81 0 002.923 2.923c1.177.255 2.399.389 3.653.389 1.253 0 2.476-.134 3.653-.389a3.81 3.81 0 002.923-2.923c.255-1.178.389-2.399.389-3.653s-.134-2.476-.39-3.653z" fill="#000"/>
</svg>
