<svg width="16" height="16" fill="none" xmlns="http://www.w3.org/2000/svg">
  <path fill-rule="evenodd" clip-rule="evenodd" d="M10.965 9h-6a1 1 0 110-2h6a1 1 0 110 2zm1.69 2.25a1.836 1.836 0 01-1.405 1.404 15.428 15.428 0 01-6.5 0 1.836 1.836 0 01-1.405-1.405A15.42 15.42 0 013 8c0-1.097.116-2.19.345-3.25A1.838 1.838 0 014.75 3.345a15.43 15.43 0 016.5 0 1.838 1.838 0 011.405 1.406 15.413 15.413 0 010 6.498zm1.955-6.922a3.833 3.833 0 00-2.938-2.938A17.347 17.347 0 008 1c-1.26 0-2.49.134-3.672.39A3.832 3.832 0 001.39 4.328 17.35 17.35 0 001 8c0 1.26.134 2.488.39 3.671a3.83 3.83 0 002.938 2.938A17.35 17.35 0 008 15c1.258 0 2.488-.135 3.67-.39a3.832 3.832 0 002.939-2.939c.256-1.183.39-2.412.39-3.67 0-1.26-.134-2.49-.39-3.673z" fill="#000"/>
</svg>
