<svg xmlns="http://www.w3.org/2000/svg" width="16" height="16" viewBox="0 0 16 16">
  <path fill-rule="evenodd" d="M10.9648,9 L4.9648,9 C4.4128,9 3.9648,8.553 3.9648,8 C3.9648,7.447 4.4128,7 4.9648,7 L10.9648,7 C11.5168,7 11.9648,7.447 11.9648,8 C11.9648,8.553 11.5168,9 10.9648,9 M12.6545,11.2494 C12.5025,11.9514 11.9515,12.5034 11.2495,12.6544 C10.1885,12.8834 9.0955,13.0004 8.0005,13.0004 C6.9045,13.0004 5.8115,12.8834 4.7505,12.6544 C4.0485,12.5034 3.4975,11.9514 3.3455,11.2494 C3.1165,10.1894 3.0005,9.0954 3.0005,8.0004 C3.0005,6.9034 3.1165,5.8104 3.3455,4.7504 C3.4975,4.0484 4.0485,3.4974 4.7505,3.3454 C5.8115,3.1164 6.9045,3.0004 8.0005,3.0004 C9.0965,3.0004 10.1895,3.1164 11.2495,3.3454 C11.9515,3.4974 12.5025,4.0484 12.6545,4.7514 C12.8835,5.8114 13.0005,6.9044 13.0005,8.0004 C13.0005,9.0954 12.8835,10.1884 12.6545,11.2494 M14.6095,4.3284 C14.2915,2.8564 13.1435,1.7094 11.6715,1.3904 C10.4885,1.1344 9.2595,1.0004 8.0005,1.0004 C6.7405,1.0004 5.5115,1.1344 4.3285,1.3904 C2.8565,1.7084 1.7085,2.8564 1.3905,4.3284 C1.1345,5.5114 1.0005,6.7404 1.0005,8.0004 C1.0005,9.2594 1.1345,10.4884 1.3905,11.6714 C1.7085,13.1434 2.8555,14.2914 4.3285,14.6094 C5.5115,14.8654 6.7405,15.0004 8.0005,15.0004 C9.2595,15.0004 10.4885,14.8654 11.6715,14.6094 C13.1435,14.2914 14.2915,13.1434 14.6095,11.6714 C14.8655,10.4884 15.0005,9.2594 15.0005,8.0004 C15.0005,6.7404 14.8655,5.5114 14.6095,4.3284"/>
</svg>
