<svg xmlns="http://www.w3.org/2000/svg" width="24" height="24" viewBox="0 0 24 24">
  <path fill-rule="evenodd" d="M17,15 L7,15 C6.447,15 6,14.553 6,14 C6,13.447 6.447,13 7,13 L17,13 C17.553,13 18,13.447 18,14 C18,14.553 17.553,15 17,15 M17,11 L7,11 C6.447,11 6,10.553 6,10 C6,9.447 6.447,9 7,9 L17,9 C17.553,9 18,9.447 18,10 C18,10.553 17.553,11 17,11 M21.441,6.754 C20.987,4.652 19.348,3.013 17.246,2.559 C15.555,2.192 13.8,2 12,2 C10.2,2 8.445,2.192 6.755,2.558 C4.651,3.012 3.013,4.651 2.558,6.754 C2.192,8.444 2,10.199 2,12 C2,13.8 2.192,15.555 2.558,17.245 C3.013,19.348 4.651,20.987 6.754,21.441 C8.445,21.808 10.2,22 12,22 C13.8,22 15.555,21.808 17.246,21.441 C19.348,20.987 20.987,19.348 21.441,17.245 C21.808,15.555 22,13.8 22,12 C22,10.2 21.808,8.445 21.441,6.754"/>
</svg>
