<svg xmlns="http://www.w3.org/2000/svg" width="24" height="24" viewBox="0 0 24 24">
  <path fill-rule="evenodd" d="M17,15 L7,15 C6.447,15 6,14.553 6,14 C6,13.447 6.447,13 7,13 L17,13 C17.553,13 18,13.447 18,14 C18,14.553 17.553,15 17,15 M17,11 L7,11 C6.447,11 6,10.553 6,10 C6,9.447 6.447,9 7,9 L17,9 C17.553,9 18,9.447 18,10 C18,10.553 17.553,11 17,11 M11.9999,2 C10.1999,2 8.4449,2.192 6.7549,2.558 C4.6509,3.012 3.0129,4.651 2.5579,6.754 C2.1919,8.444 1.9999,10.199 1.9999,12 C1.9999,13.8 2.1919,15.555 2.5579,17.245 C3.0129,19.348 4.6509,20.987 6.7539,21.441 C8.4449,21.808 10.1999,22 11.9999,22 C13.7999,22 15.5549,21.808 17.2459,21.441 C19.3479,20.987 20.9869,19.348 21.4419,17.245 C21.8079,15.555 21.9999,13.8 21.9999,12 C21.9999,10.2 21.8079,8.445 21.4419,6.755 C20.9869,4.652 19.3479,3.013 17.2459,2.559 C15.5549,2.192 13.7999,2 11.9999,2 M11.9999,4 C13.6269,4 15.2489,4.173 16.8229,4.513 C18.1529,4.801 19.1989,5.847 19.4869,7.177 C19.8269,8.751 19.9999,10.374 19.9999,12 C19.9999,13.626 19.8269,15.249 19.4869,16.823 C19.1989,18.153 18.1529,19.199 16.8229,19.487 C15.2489,19.827 13.6259,20 11.9999,20 C10.3739,20 8.7509,19.827 7.1769,19.487 C5.8459,19.199 4.8009,18.153 4.5129,16.823 C4.1729,15.249 3.9999,13.626 3.9999,12 C3.9999,10.373 4.1729,8.75 4.5129,7.177 C4.8009,5.846 5.8469,4.8 7.1769,4.513 C8.7509,4.173 10.3739,4 11.9999,4"/>
</svg>
